<svg width="135" height="70" viewBox="0 0 135 70" fill="none" xmlns="http://www.w3.org/2000/svg">
<path d="M6.82881 14.2332H4.2111V25H2.1397V14.2332H0.523542V12.526H2.1397V11.6383C2.1397 10.2422 2.49631 9.22544 3.20954 8.58808C3.93795 7.93555 5.09885 7.60929 6.69224 7.60929V9.33925C5.78173 9.33925 5.13679 9.52135 4.75741 9.88556C4.3932 10.2346 4.2111 10.8188 4.2111 11.6383V12.526H6.82881V14.2332ZM8.47004 18.7175C8.47004 17.4428 8.72802 16.3274 9.24397 15.3714C9.75993 14.4002 10.4656 13.649 11.3609 13.1179C12.2714 12.5867 13.2806 12.3212 14.3883 12.3212C15.481 12.3212 16.4294 12.5564 17.2337 13.0268C18.038 13.4972 18.6374 14.0891 19.0319 14.8023V12.526H21.1261V25H19.0319V22.6782C18.6222 23.4066 18.0076 24.0136 17.1882 24.4992C16.3839 24.9696 15.443 25.2049 14.3656 25.2049C13.2578 25.2049 12.2562 24.9317 11.3609 24.3854C10.4656 23.8391 9.75993 23.0728 9.24397 22.0864C8.72802 21.1 8.47004 19.977 8.47004 18.7175ZM19.0319 18.7403C19.0319 17.7994 18.8423 16.9799 18.4629 16.2819C18.0835 15.5838 17.5675 15.0527 16.915 14.6885C16.2777 14.3091 15.572 14.1194 14.7981 14.1194C14.0241 14.1194 13.3185 14.3015 12.6811 14.6657C12.0438 15.0299 11.5354 15.5611 11.156 16.2591C10.7767 16.9572 10.587 17.7766 10.587 18.7175C10.587 19.6735 10.7767 20.5082 11.156 21.2214C11.5354 21.9194 12.0438 22.4582 12.6811 22.8375C13.3185 23.2017 14.0241 23.3838 14.7981 23.3838C15.572 23.3838 16.2777 23.2017 16.915 22.8375C17.5675 22.4582 18.0835 21.9194 18.4629 21.2214C18.8423 20.5082 19.0319 19.6811 19.0319 18.7403ZM39.6272 12.2984C40.5984 12.2984 41.4634 12.5033 42.2222 12.913C42.9809 13.3076 43.5803 13.907 44.0204 14.7113C44.4605 15.5155 44.6805 16.4943 44.6805 17.6476V25H42.6319V17.9436C42.6319 16.6992 42.3208 15.7508 41.6986 15.0982C41.0916 14.4305 40.2646 14.0967 39.2175 14.0967C38.1401 14.0967 37.2827 14.4457 36.6453 15.1437C36.0079 15.8266 35.6893 16.8206 35.6893 18.1257V25H33.6406V17.9436C33.6406 16.6992 33.3295 15.7508 32.7074 15.0982C32.1003 14.4305 31.2733 14.0967 30.2262 14.0967C29.1488 14.0967 28.2914 14.4457 27.654 15.1437C27.0167 15.8266 26.698 16.8206 26.698 18.1257V25H24.6266V12.526H26.698V14.3243C27.1077 13.6718 27.654 13.171 28.3369 12.8219C29.035 12.4729 29.8013 12.2984 30.6359 12.2984C31.683 12.2984 32.6087 12.5336 33.413 13.0041C34.2173 13.4745 34.8167 14.1649 35.2113 15.0755C35.5603 14.1953 36.1369 13.5124 36.9412 13.0268C37.7455 12.5412 38.6408 12.2984 39.6272 12.2984ZM50.1498 12.526V25H48.0784V12.526H50.1498ZM51.3335 8.99781L46.485 11.5928V10.0449L51.3335 7.19956V8.99781ZM55.7516 8.15559V25H53.6802V8.15559H55.7516ZM60.3518 10.5002C59.9572 10.5002 59.6234 10.3636 59.3502 10.0904C59.0771 9.81727 58.9405 9.48342 58.9405 9.08886C58.9405 8.69431 59.0771 8.36046 59.3502 8.0873C59.6234 7.81415 59.9572 7.67757 60.3518 7.67757C60.7312 7.67757 61.0498 7.81415 61.3078 8.0873C61.581 8.36046 61.7175 8.69431 61.7175 9.08886C61.7175 9.48342 61.581 9.81727 61.3078 10.0904C61.0498 10.3636 60.7312 10.5002 60.3518 10.5002ZM61.3533 12.526V25H59.2819V12.526H61.3533ZM64.1098 18.7175C64.1098 17.4428 64.3677 16.3274 64.8837 15.3714C65.3996 14.4002 66.1053 13.649 67.0006 13.1179C67.9111 12.5867 68.9203 12.3212 70.0281 12.3212C71.1207 12.3212 72.0691 12.5564 72.8734 13.0268C73.6777 13.4972 74.2771 14.0891 74.6717 14.8023V12.526H76.7658V25H74.6717V22.6782C74.2619 23.4066 73.6473 24.0136 72.8279 24.4992C72.0236 24.9696 71.0827 25.2049 70.0053 25.2049C68.8975 25.2049 67.896 24.9317 67.0006 24.3854C66.1053 23.8391 65.3996 23.0728 64.8837 22.0864C64.3677 21.1 64.1098 19.977 64.1098 18.7175ZM74.6717 18.7403C74.6717 17.7994 74.482 16.9799 74.1026 16.2819C73.7232 15.5838 73.2073 15.0527 72.5547 14.6885C71.9174 14.3091 71.2117 14.1194 70.4378 14.1194C69.6639 14.1194 68.9582 14.3015 68.3209 14.6657C67.6835 15.0299 67.1751 15.5611 66.7958 16.2591C66.4164 16.9572 66.2267 17.7766 66.2267 18.7175C66.2267 19.6735 66.4164 20.5082 66.7958 21.2214C67.1751 21.9194 67.6835 22.4582 68.3209 22.8375C68.9582 23.2017 69.6639 23.3838 70.4378 23.3838C71.2117 23.3838 71.9174 23.2017 72.5547 22.8375C73.2073 22.4582 73.7232 21.9194 74.1026 21.2214C74.482 20.5082 74.6717 19.6811 74.6717 18.7403Z" fill="#101111"/>
<path d="M1.089 47.793C1.089 45.945 1.452 44.306 2.178 42.876C2.926 41.446 3.927 40.346 5.181 39.576C6.457 38.806 7.876 38.421 9.438 38.421C10.802 38.421 11.99 38.696 13.002 39.246C14.036 39.796 14.861 40.489 15.477 41.325V38.718H20.13V57H15.477V54.327C14.883 55.185 14.058 55.9 13.002 56.472C11.968 57.022 10.769 57.297 9.405 57.297C7.865 57.297 6.457 56.901 5.181 56.109C3.927 55.317 2.926 54.206 2.178 52.776C1.452 51.324 1.089 49.663 1.089 47.793ZM15.477 47.859C15.477 46.737 15.257 45.78 14.817 44.988C14.377 44.174 13.783 43.558 13.035 43.14C12.287 42.7 11.484 42.48 10.626 42.48C9.768 42.48 8.976 42.689 8.25 43.107C7.524 43.525 6.93 44.141 6.468 44.955C6.028 45.747 5.808 46.693 5.808 47.793C5.808 48.893 6.028 49.861 6.468 50.697C6.93 51.511 7.524 52.138 8.25 52.578C8.998 53.018 9.79 53.238 10.626 53.238C11.484 53.238 12.287 53.029 13.035 52.611C13.783 52.171 14.377 51.555 14.817 50.763C15.257 49.949 15.477 48.981 15.477 47.859ZM29.2622 32.58V57H24.6422V32.58H29.2622ZM36.1698 36.54C35.3558 36.54 34.6738 36.287 34.1238 35.781C33.5958 35.253 33.3318 34.604 33.3318 33.834C33.3318 33.064 33.5958 32.426 34.1238 31.92C34.6738 31.392 35.3558 31.128 36.1698 31.128C36.9838 31.128 37.6548 31.392 38.1828 31.92C38.7328 32.426 39.0078 33.064 39.0078 33.834C39.0078 34.604 38.7328 35.253 38.1828 35.781C37.6548 36.287 36.9838 36.54 36.1698 36.54ZM38.4468 38.718V57H33.8268V38.718H38.4468ZM41.8234 47.859C41.8234 45.967 42.2084 44.317 42.9784 42.909C43.7484 41.479 44.8154 40.379 46.1794 39.609C47.5434 38.817 49.1054 38.421 50.8654 38.421C53.1314 38.421 55.0014 38.993 56.4754 40.137C57.9714 41.259 58.9724 42.843 59.4784 44.889H54.4954C54.2314 44.097 53.7804 43.481 53.1424 43.041C52.5264 42.579 51.7564 42.348 50.8324 42.348C49.5124 42.348 48.4674 42.832 47.6974 43.8C46.9274 44.746 46.5424 46.099 46.5424 47.859C46.5424 49.597 46.9274 50.95 47.6974 51.918C48.4674 52.864 49.5124 53.337 50.8324 53.337C52.7024 53.337 53.9234 52.501 54.4954 50.829H59.4784C58.9724 52.809 57.9714 54.382 56.4754 55.548C54.9794 56.714 53.1094 57.297 50.8654 57.297C49.1054 57.297 47.5434 56.912 46.1794 56.142C44.8154 55.35 43.7484 54.25 42.9784 52.842C42.2084 51.412 41.8234 49.751 41.8234 47.859ZM79.8579 47.463C79.8579 48.123 79.8139 48.717 79.7259 49.245H66.3609C66.4709 50.565 66.9329 51.599 67.7469 52.347C68.5609 53.095 69.5619 53.469 70.7499 53.469C72.4659 53.469 73.6869 52.732 74.4129 51.258H79.3959C78.8679 53.018 77.8559 54.47 76.3599 55.614C74.8639 56.736 73.0269 57.297 70.8489 57.297C69.0889 57.297 67.5049 56.912 66.0969 56.142C64.7109 55.35 63.6219 54.239 62.8299 52.809C62.0599 51.379 61.6749 49.729 61.6749 47.859C61.6749 45.967 62.0599 44.306 62.8299 42.876C63.5999 41.446 64.6779 40.346 66.0639 39.576C67.4499 38.806 69.0449 38.421 70.8489 38.421C72.5869 38.421 74.1379 38.795 75.5019 39.543C76.8879 40.291 77.9549 41.358 78.7029 42.744C79.4729 44.108 79.8579 45.681 79.8579 47.463ZM75.0729 46.143C75.0509 44.955 74.6219 44.009 73.7859 43.305C72.9499 42.579 71.9269 42.216 70.7169 42.216C69.5729 42.216 68.6049 42.568 67.8129 43.272C67.0429 43.954 66.5699 44.911 66.3939 46.143H75.0729ZM87.8501 41.556C88.4441 40.588 89.2141 39.829 90.1601 39.279C91.1281 38.729 92.2281 38.454 93.4601 38.454V43.305H92.2391C90.7871 43.305 89.6871 43.646 88.9391 44.328C88.2131 45.01 87.8501 46.198 87.8501 47.892V57H83.2301V38.718H87.8501V41.556ZM95.3839 47.859C95.3839 45.967 95.7689 44.317 96.5389 42.909C97.3089 41.479 98.3759 40.379 99.7399 39.609C101.104 38.817 102.666 38.421 104.426 38.421C106.692 38.421 108.562 38.993 110.036 40.137C111.532 41.259 112.533 42.843 113.039 44.889H108.056C107.792 44.097 107.341 43.481 106.703 43.041C106.087 42.579 105.317 42.348 104.393 42.348C103.073 42.348 102.028 42.832 101.258 43.8C100.488 44.746 100.103 46.099 100.103 47.859C100.103 49.597 100.488 50.95 101.258 51.918C102.028 52.864 103.073 53.337 104.393 53.337C106.263 53.337 107.484 52.501 108.056 50.829H113.039C112.533 52.809 111.532 54.382 110.036 55.548C108.54 56.714 106.67 57.297 104.426 57.297C102.666 57.297 101.104 56.912 99.7399 56.142C98.3759 55.35 97.3089 54.25 96.5389 52.842C95.7689 51.412 95.3839 49.751 95.3839 47.859ZM133.418 47.463C133.418 48.123 133.374 48.717 133.286 49.245H119.921C120.031 50.565 120.493 51.599 121.307 52.347C122.121 53.095 123.122 53.469 124.31 53.469C126.026 53.469 127.247 52.732 127.973 51.258H132.956C132.428 53.018 131.416 54.47 129.92 55.614C128.424 56.736 126.587 57.297 124.409 57.297C122.649 57.297 121.065 56.912 119.657 56.142C118.271 55.35 117.182 54.239 116.39 52.809C115.62 51.379 115.235 49.729 115.235 47.859C115.235 45.967 115.62 44.306 116.39 42.876C117.16 41.446 118.238 40.346 119.624 39.576C121.01 38.806 122.605 38.421 124.409 38.421C126.147 38.421 127.698 38.795 129.062 39.543C130.448 40.291 131.515 41.358 132.263 42.744C133.033 44.108 133.418 45.681 133.418 47.463ZM128.633 46.143C128.611 44.955 128.182 44.009 127.346 43.305C126.51 42.579 125.487 42.216 124.277 42.216C123.133 42.216 122.165 42.568 121.373 43.272C120.603 43.954 120.13 44.911 119.954 46.143H128.633Z" fill="#101111"/>
<path d="M94.8535 17.159C94.8788 17.1159 94.9226 17.0514 94.9966 16.9666C95.2987 16.6201 95.9394 16.1235 97.078 15.6142C99.3495 14.598 102.713 13.9257 106.304 13.8336C109.901 13.7414 113.27 14.2434 115.579 15.2025C117.306 15.9196 117.894 16.6089 118.087 17.0948C117.71 17.7246 116.822 18.5605 114.92 19.3376C112.598 20.287 109.467 20.8266 106.206 20.8266C102.94 20.8266 99.8813 20.2852 97.6869 19.356C95.7245 18.5251 95.058 17.6788 94.8535 17.159Z" stroke="#101111" stroke-width="7.64563"/>
<mask id="path-4-inside-1_1044_276" fill="white">
<path d="M111.049 21.1785C108.232 20.1888 101.731 18.8032 98.259 21.1785L106.253 12.728L109.746 16.3184V15.0119H111.962V18.5964L114.475 21.1785L106.253 15.6971L103.74 18.2094C105.187 18.3617 108.674 19.1687 111.049 21.1785Z"/>
</mask>
<path d="M106.308 19.663L108.525 21.941L115.4 15.2518L113.183 12.9737L106.308 19.663ZM111.049 21.1785L107.869 30.2285L117.245 13.8558L111.049 21.1785ZM98.259 21.1785L91.2905 14.5866L103.676 29.0951L98.259 21.1785ZM106.253 12.728L113.128 6.03878L106.155 -1.12753L99.2841 6.13619L106.253 12.728ZM114.475 21.1785L109.154 29.1598L121.35 14.4892L114.475 21.1785ZM106.253 15.6971L111.574 7.7158L105.03 3.35368L99.4698 8.91428L106.253 15.6971ZM103.74 18.2094L96.9576 11.4266L82.7403 25.6438L102.736 27.749L103.74 18.2094ZM109.746 16.3184L102.871 23.0076L119.338 39.9326V16.3184H109.746ZM109.746 15.0119V5.41958H100.154V15.0119H109.746ZM111.962 15.0119H121.555V5.41958H111.962V15.0119ZM111.962 18.5964H102.37V22.4929L105.087 25.2856L111.962 18.5964ZM114.229 12.1285C112.151 11.3985 108.98 10.5926 105.587 10.3489C102.562 10.1317 97.3271 10.1934 92.8424 13.2618L103.676 29.0951C103.057 29.5185 102.671 29.5374 102.89 29.5012C103.087 29.4687 103.524 29.4349 104.212 29.4843C105.642 29.587 107.13 29.9687 107.869 30.2285L114.229 12.1285ZM105.228 27.7703L113.221 19.3199L99.2841 6.13619L91.2905 14.5866L105.228 27.7703ZM119.796 13.1972L111.574 7.7158L100.932 23.6784L109.154 29.1598L119.796 13.1972ZM99.4698 8.91428L96.9576 11.4266L110.523 24.9922L113.035 22.4799L99.4698 8.91428ZM102.736 27.749C102.665 27.7415 102.778 27.7511 103.04 27.8104C103.285 27.8658 103.578 27.9464 103.879 28.0517C104.183 28.158 104.438 28.2696 104.632 28.3718C104.83 28.4765 104.889 28.5317 104.853 28.5012L117.245 13.8558C112.79 10.0867 107.116 8.91937 104.745 8.66975L102.736 27.749ZM99.3776 19.4173L102.871 23.0076L116.621 9.62911L113.128 6.03878L99.3776 19.4173ZM119.338 16.3184V15.0119H100.154V16.3184H119.338ZM109.746 24.6043H111.962V5.41958H109.746V24.6043ZM105.087 25.2856L107.6 27.8677L121.35 14.4892L118.837 11.9071L105.087 25.2856ZM102.37 15.0119V18.5964H121.555V15.0119H102.37Z" fill="white" mask="url(#path-4-inside-1_1044_276)"/>
</svg>
