<svg width="1280" height="702" viewBox="0 0 1280 702" fill="none" xmlns="http://www.w3.org/2000/svg">
<rect x="-36.8524" y="406.091" width="38.0228" height="109.673" rx="19.0114" transform="rotate(-10.0885 -36.8524 406.091)" fill="#DDFF14"/>
<rect width="38.763" height="109.682" rx="19.3815" transform="matrix(0.984756 -0.173943 0.17642 0.984315 355.3 340.135)" fill="#DDFF14"/>
<rect width="38.763" height="109.682" rx="19.3815" transform="matrix(0.984756 -0.173943 0.17642 0.984315 752.946 276.538)" fill="#DDFF14"/>
<rect width="38.763" height="109.682" rx="19.3815" transform="matrix(0.984756 -0.173943 0.17642 0.984315 1146.57 210.418)" fill="#DDFF14"/>
<rect x="0.86084" y="400.912" width="38.0228" height="109.673" rx="19.0114" transform="rotate(-10.0885 0.86084 400.912)" fill="#DDFF14"/>
<rect width="38.763" height="109.682" rx="19.3815" transform="matrix(0.984756 -0.173943 0.17642 0.984315 393.753 334.873)" fill="#DDFF14"/>
<rect width="38.763" height="109.682" rx="19.3815" transform="matrix(0.984756 -0.173943 0.17642 0.984315 791.399 271.275)" fill="#DDFF14"/>
<rect width="38.763" height="109.682" rx="19.3815" transform="matrix(0.984756 -0.173943 0.17642 0.984315 1185.02 205.156)" fill="#DDFF14"/>
<rect x="38.5739" y="395.732" width="38.0228" height="109.673" rx="19.0114" transform="rotate(-10.0885 38.5739 395.732)" fill="#DDFF14"/>
<rect width="38.763" height="109.682" rx="19.3815" transform="matrix(0.984756 -0.173943 0.17642 0.984315 432.205 329.611)" fill="#DDFF14"/>
<rect width="38.763" height="109.682" rx="19.3815" transform="matrix(0.984756 -0.173943 0.17642 0.984315 829.851 266.013)" fill="#DDFF14"/>
<rect width="38.763" height="109.682" rx="19.3815" transform="matrix(0.984756 -0.173943 0.17642 0.984315 1223.47 199.894)" fill="#DDFF14"/>
<rect x="76.287" y="390.552" width="38.0228" height="109.673" rx="19.0114" transform="rotate(-10.0885 76.287 390.552)" fill="#DDFF14"/>
<rect width="38.763" height="109.682" rx="19.3815" transform="matrix(0.984756 -0.173943 0.17642 0.984315 470.657 324.349)" fill="#DDFF14"/>
<rect width="38.763" height="109.682" rx="19.3815" transform="matrix(0.984756 -0.173943 0.17642 0.984315 868.304 260.751)" fill="#DDFF14"/>
<rect width="38.763" height="109.682" rx="19.3815" transform="matrix(0.984756 -0.173943 0.17642 0.984315 1261.92 194.631)" fill="#DDFF14"/>
<rect x="112.559" y="381.126" width="168.836" height="109.673" rx="19.7887" transform="rotate(-8.41858 112.559 381.126)" fill="#DDFF14"/>
<rect x="510.206" y="317.528" width="168.836" height="109.673" rx="19.7887" transform="rotate(-8.41858 510.206 317.528)" fill="#DDFF14"/>
<rect x="903.825" y="251.408" width="168.836" height="109.673" rx="19.7887" transform="rotate(-8.41858 903.825 251.408)" fill="#DDFF14"/>
<rect x="278.095" y="353.664" width="80.9667" height="109.673" rx="19.7887" transform="rotate(-8.41858 278.095 353.664)" fill="#DDFF14"/>
<rect x="675.741" y="290.067" width="80.9667" height="109.673" rx="19.7887" transform="rotate(-8.41858 675.741 290.067)" fill="#DDFF14"/>
<rect x="1069.36" y="223.947" width="80.9667" height="109.673" rx="19.7887" transform="rotate(-8.41858 1069.36 223.947)" fill="#DDFF14"/>
<path d="M383.29 374.839L390.567 387.229L404.71 389.77L392.32 397.047L389.779 411.19L382.501 398.8L368.358 396.259L380.749 388.982L383.29 374.839Z" fill="#101111"/>
<path d="M1172.68 248.538L1180.56 260.552L1194.81 262.387L1182.8 270.271L1180.97 284.523L1173.08 272.509L1158.83 270.674L1170.84 262.79L1172.68 248.538Z" fill="#101111"/>
<path d="M138.057 426.648L151.998 424.437L153.005 430.785L139.064 432.997L138.057 426.648ZM140.536 438.392L156.236 435.902L157.277 442.465L133.17 446.289L128.406 416.262L151.956 412.526L152.997 419.089L137.855 421.491L140.536 438.392ZM167.997 440.764L154.744 419.032L163.108 417.705L173.826 435.926L169.622 436.593L174.561 415.889L182.325 414.657L176.405 439.431L167.997 440.764ZM199.735 436.125C196.99 436.561 194.506 436.427 192.284 435.724C190.086 434.988 188.272 433.81 186.842 432.19C185.437 430.537 184.55 428.552 184.183 426.236C183.815 423.919 184.032 421.774 184.833 419.8C185.658 417.793 186.963 416.135 188.749 414.825C190.53 413.487 192.636 412.626 195.067 412.24C197.355 411.877 199.517 412.018 201.554 412.662C203.587 413.278 205.304 414.398 206.705 416.023C208.106 417.647 209.01 419.747 209.419 422.32C209.464 422.606 209.502 422.937 209.532 423.314C209.563 423.69 209.588 424.038 209.61 424.357L191.208 427.276L190.527 422.986L204.597 420.755L201.699 422.446C201.56 421.383 201.214 420.5 200.663 419.795C200.14 419.087 199.473 418.577 198.661 418.266C197.878 417.951 197.001 417.87 196.028 418.024C195.056 418.178 194.232 418.529 193.557 419.076C192.91 419.618 192.45 420.321 192.176 421.186C191.899 422.021 191.844 422.968 192.011 424.026L192.209 425.27C192.39 426.414 192.775 427.364 193.365 428.121C193.982 428.873 194.771 429.408 195.73 429.725C196.684 430.013 197.776 430.06 199.006 429.865C200.15 429.683 201.097 429.372 201.848 428.93C202.623 428.455 203.356 427.811 204.048 426.998L209.045 430.779C208.125 432.185 206.902 433.347 205.377 434.263C203.846 435.151 201.966 435.772 199.735 436.125ZM226.406 407.269C228.208 406.983 229.897 407.096 231.473 407.608C233.045 408.092 234.366 409.026 235.436 410.41C236.534 411.789 237.274 413.68 237.655 416.082L239.764 429.38L231.614 430.673L229.716 418.705C229.453 417.046 228.919 415.9 228.115 415.265C227.334 414.597 226.344 414.359 225.143 414.549C224.285 414.685 223.53 415.01 222.879 415.524C222.223 416.009 221.758 416.684 221.485 417.548C221.211 418.412 221.177 419.488 221.381 420.775L223.164 432.013L215.014 433.306L211.326 410.057L219.09 408.825L220.137 415.431L218.33 413.739C218.949 411.911 219.965 410.46 221.377 409.386C222.785 408.283 224.462 407.577 226.406 407.269ZM255.323 427.307C252.349 427.779 249.917 427.417 248.027 426.222C246.132 424.998 244.949 422.899 244.478 419.925L241.313 399.979L249.464 398.686L252.614 418.546C252.746 419.376 253.079 419.997 253.613 420.411C254.144 420.796 254.766 420.932 255.481 420.818C256.453 420.664 257.244 420.289 257.853 419.694L260.774 425.08C260.161 425.646 259.369 426.109 258.4 426.468C257.435 426.855 256.41 427.135 255.323 427.307ZM239.85 412.656L238.884 406.565L255.742 403.89L256.708 409.982L239.85 412.656ZM275.125 424.166C272.58 424.57 270.239 424.414 268.103 423.697C265.966 422.981 264.183 421.812 262.754 420.192C261.348 418.539 260.459 416.54 260.087 414.195C259.715 411.85 259.944 409.688 260.774 407.71C261.632 405.727 262.968 404.078 264.782 402.764C266.592 401.422 268.77 400.549 271.315 400.145C273.86 399.741 276.201 399.897 278.337 400.614C280.498 401.297 282.279 402.451 283.68 404.076C285.081 405.701 285.967 407.686 286.339 410.03C286.711 412.375 286.485 414.551 285.66 416.559C284.83 418.537 283.496 420.2 281.658 421.547C279.848 422.889 277.67 423.763 275.125 424.166ZM274.098 417.689C275.042 417.539 275.837 417.193 276.484 416.651C277.159 416.104 277.646 415.382 277.943 414.485C278.236 413.559 278.289 412.509 278.103 411.337C277.917 410.164 277.546 409.212 276.99 408.479C276.43 407.718 275.744 407.182 274.932 406.871C274.149 406.555 273.286 406.472 272.342 406.622C271.427 406.767 270.632 407.113 269.956 407.66C269.31 408.203 268.823 408.925 268.497 409.827C268.195 410.695 268.137 411.716 268.323 412.888C268.509 414.061 268.885 415.042 269.45 415.832C270.039 416.589 270.725 417.125 271.508 417.44C272.319 417.751 273.183 417.834 274.098 417.689ZM300.477 420.145C298.504 420.458 296.537 420.535 294.577 420.377C292.646 420.214 291.054 419.881 289.801 419.376L291.362 413.411C292.553 413.897 293.909 414.224 295.431 414.393C296.949 414.533 298.408 414.492 299.809 414.27C301.182 414.052 302.103 413.76 302.572 413.392C303.07 413.02 303.281 412.591 303.203 412.105C303.131 411.647 302.821 411.359 302.275 411.24C301.752 411.089 301.067 411.022 300.22 411.039C299.401 411.051 298.494 411.063 297.499 411.075C296.504 411.086 295.488 411.056 294.451 410.986C293.438 410.883 292.478 410.654 291.572 410.3C290.689 409.912 289.937 409.328 289.315 408.547C288.693 407.766 288.277 406.718 288.068 405.403C287.833 403.916 288.053 402.532 288.729 401.252C289.43 399.939 290.571 398.82 292.154 397.894C293.733 396.941 295.737 396.271 298.168 395.885C299.798 395.627 301.47 395.537 303.183 395.617C304.92 395.664 306.412 395.926 307.661 396.402L306.093 402.324C304.845 401.847 303.631 401.585 302.451 401.538C301.266 401.462 300.159 401.506 299.129 401.669C297.757 401.887 296.809 402.198 296.287 402.604C295.794 403.005 295.584 403.434 295.656 403.891C295.729 404.349 296.028 404.668 296.555 404.848C297.078 405 297.751 405.083 298.574 405.099C299.422 405.082 300.343 405.068 301.338 405.057C302.328 405.017 303.33 405.049 304.343 405.152C305.385 405.25 306.347 405.493 307.229 405.881C308.136 406.236 308.9 406.803 309.522 407.584C310.14 408.336 310.553 409.37 310.762 410.686C310.989 412.116 310.75 413.473 310.045 414.757C309.368 416.037 308.226 417.156 306.619 418.115C305.041 419.069 302.994 419.745 300.477 420.145Z" fill="#101111"/>
<rect x="763.862" y="328.76" width="38.128" height="7.88856" transform="rotate(-11.3548 763.862 328.76)" fill="#101111"/>
<rect x="773.695" y="311.958" width="38.1281" height="7.88856" transform="rotate(48.6452 773.695 311.958)" fill="#101111"/>
<rect x="792.336" y="312.314" width="38.1281" height="7.88856" transform="rotate(108.645 792.336 312.314)" fill="#101111"/>
<g filter="url(#filter0_d_1044_178)">
<rect width="38.763" height="109.682" rx="19.3815" transform="matrix(0.996908 0.07858 -0.0760718 0.997102 339.711 295.663)" fill="#DDFF14"/>
<rect width="38.763" height="109.682" rx="19.3815" transform="matrix(0.996908 0.07858 -0.0760718 0.997102 740.599 333.822)" fill="#DDFF14"/>
<rect width="38.763" height="109.682" rx="19.3815" transform="matrix(0.996908 0.07858 -0.0760718 0.997102 1138.22 368.531)" fill="#DDFF14"/>
<rect x="-18.6431" y="265.608" width="38.0228" height="109.673" rx="19.0114" transform="rotate(4.43557 -18.6431 265.608)" fill="#DDFF14"/>
<rect width="38.763" height="109.682" rx="19.3815" transform="matrix(0.996908 0.07858 -0.0760718 0.997102 378.254 300.213)" fill="#DDFF14"/>
<rect width="38.763" height="109.682" rx="19.3815" transform="matrix(0.996908 0.07858 -0.0760718 0.997102 779.142 338.372)" fill="#DDFF14"/>
<rect width="38.763" height="109.682" rx="19.3815" transform="matrix(0.996908 0.07858 -0.0760718 0.997102 1176.76 373.08)" fill="#DDFF14"/>
<rect x="19.1637" y="270.052" width="38.0228" height="109.673" rx="19.0114" transform="rotate(4.43557 19.1637 270.052)" fill="#DDFF14"/>
<rect width="38.763" height="109.682" rx="19.3815" transform="matrix(0.996908 0.07858 -0.0760718 0.997102 416.798 304.762)" fill="#DDFF14"/>
<rect width="38.763" height="109.682" rx="19.3815" transform="matrix(0.996908 0.07858 -0.0760718 0.997102 817.685 342.921)" fill="#DDFF14"/>
<rect width="38.763" height="109.682" rx="19.3815" transform="matrix(0.996908 0.07858 -0.0760718 0.997102 1215.31 377.629)" fill="#DDFF14"/>
<rect x="56.9706" y="274.496" width="38.0228" height="109.673" rx="19.0114" transform="rotate(4.43557 56.9706 274.496)" fill="#DDFF14"/>
<rect width="38.763" height="109.682" rx="19.3815" transform="matrix(0.996908 0.07858 -0.0760718 0.997102 455.341 309.311)" fill="#DDFF14"/>
<rect width="38.763" height="109.682" rx="19.3815" transform="matrix(0.996908 0.07858 -0.0760718 0.997102 856.229 347.47)" fill="#DDFF14"/>
<rect width="38.763" height="109.682" rx="19.3815" transform="matrix(0.996908 0.07858 -0.0760718 0.997102 1253.85 382.179)" fill="#DDFF14"/>
<rect x="94.4476" y="274.467" width="168.836" height="109.673" rx="19.7887" transform="rotate(6.10553 94.4476 274.467)" fill="#DDFF14"/>
<rect x="495.336" y="312.627" width="168.836" height="109.673" rx="19.7887" transform="rotate(6.10553 495.336 312.627)" fill="#DDFF14"/>
<rect x="892.958" y="347.335" width="168.836" height="109.673" rx="19.7887" transform="rotate(6.10553 892.958 347.335)" fill="#DDFF14"/>
<rect x="261.581" y="289.398" width="80.9667" height="109.673" rx="19.7887" transform="rotate(6.10553 261.581 289.398)" fill="#DDFF14"/>
<rect x="662.468" y="327.557" width="80.9667" height="109.673" rx="19.7887" transform="rotate(6.10553 662.468 327.557)" fill="#DDFF14"/>
<rect x="1060.09" y="362.265" width="80.9667" height="109.673" rx="19.7887" transform="rotate(6.10553 1060.09 362.265)" fill="#DDFF14"/>
</g>
<path d="M358.103 336.277L362.04 350.096L375.094 356.103L361.275 360.041L355.268 373.094L351.331 359.275L338.277 353.268L352.096 349.331L358.103 336.277Z" fill="#101111"/>
<path d="M1153.94 411.982L1158.56 425.589L1171.89 430.939L1158.29 435.558L1152.94 448.894L1148.32 435.288L1134.98 429.937L1148.59 425.318L1153.94 411.982Z" fill="#101111"/>
<rect x="29.0846" y="450.855" width="38.1281" height="7.88856" transform="rotate(-8.24443 29.0846 450.855)" fill="#101111"/>
<rect x="39.8141" y="434.611" width="38.1281" height="7.88856" transform="rotate(51.7556 39.8141 434.611)" fill="#101111"/>
<rect x="58.4089" y="435.978" width="38.128" height="7.88856" transform="rotate(111.756 58.4089 435.978)" fill="#101111"/>
<path d="M108.087 319.339L122.13 320.766L121.48 327.161L107.437 325.734L108.087 319.339ZM107.48 331.326L123.294 332.934L122.622 339.545L98.3389 337.077L101.412 306.83L125.134 309.241L124.462 315.852L109.21 314.302L107.48 331.326ZM133.421 340.642L126.165 316.243L134.591 317.1L140.293 337.455L136.059 337.025L146.128 318.272L153.949 319.067L141.89 341.502L133.421 340.642ZM165.29 344.273C162.525 343.992 160.158 343.228 158.189 341.98C156.252 340.706 154.8 339.104 153.832 337.172C152.896 335.214 152.547 333.068 152.784 330.735C153.021 328.402 153.779 326.383 155.058 324.68C156.369 322.95 158.055 321.681 160.116 320.872C162.18 320.034 164.437 319.739 166.885 319.988C169.19 320.222 171.244 320.911 173.049 322.055C174.856 323.17 176.23 324.692 177.169 326.621C178.108 328.55 178.445 330.811 178.182 333.403C178.153 333.691 178.105 334.021 178.038 334.393C177.971 334.764 177.907 335.107 177.846 335.421L159.309 333.537L159.748 329.216L173.921 330.657L170.687 331.55C170.824 330.487 170.716 329.545 170.363 328.723C170.039 327.905 169.524 327.241 168.819 326.733C168.143 326.228 167.315 325.925 166.336 325.826C165.356 325.726 164.47 325.855 163.677 326.211C162.913 326.569 162.288 327.132 161.803 327.897C161.321 328.634 161.026 329.535 160.917 330.601L160.79 331.854C160.673 333.007 160.802 334.024 161.178 334.906C161.583 335.791 162.209 336.51 163.055 337.061C163.904 337.584 164.948 337.908 166.186 338.034C167.339 338.151 168.334 338.092 169.173 337.857C170.043 337.597 170.917 337.162 171.794 336.552L175.658 341.485C174.409 342.61 172.93 343.42 171.22 343.915C169.514 344.382 167.537 344.502 165.29 344.273ZM198.454 323.196C200.269 323.381 201.872 323.922 203.265 324.82C204.661 325.69 205.7 326.93 206.38 328.542C207.089 330.156 207.32 332.173 207.074 334.593L205.713 347.988L197.504 347.154L198.729 335.098C198.898 333.428 198.676 332.183 198.06 331.363C197.477 330.518 196.58 330.034 195.37 329.911C194.506 329.823 193.694 329.945 192.932 330.275C192.174 330.576 191.552 331.109 191.067 331.875C190.582 332.641 190.274 333.672 190.142 334.968L188.991 346.289L180.782 345.454L183.161 322.035L190.982 322.83L190.306 329.484L188.991 327.386C190.057 325.777 191.41 324.634 193.051 323.957C194.694 323.251 196.495 322.997 198.454 323.196ZM221.285 349.963C218.289 349.659 216.03 348.687 214.509 347.048C212.99 345.38 212.383 343.049 212.688 340.053L214.729 319.961L222.939 320.795L220.906 340.801C220.821 341.636 220.984 342.322 221.396 342.859C221.81 343.366 222.377 343.657 223.097 343.73C224.076 343.829 224.937 343.67 225.678 343.25L227.125 349.203C226.386 349.594 225.503 349.839 224.474 349.938C223.443 350.066 222.379 350.074 221.285 349.963ZM210.073 331.842L210.697 325.706L227.678 327.432L227.055 333.567L210.073 331.842ZM241.232 351.99C238.668 351.73 236.445 350.98 234.563 349.741C232.681 348.502 231.256 346.916 230.288 344.985C229.352 343.027 229.004 340.867 229.244 338.505C229.484 336.143 230.258 334.111 231.566 332.411C232.902 330.713 234.616 329.461 236.706 328.655C238.799 327.82 241.127 327.532 243.691 327.793C246.255 328.053 248.478 328.803 250.36 330.042C252.274 331.255 253.7 332.826 254.639 334.755C255.578 336.684 255.928 338.83 255.688 341.192C255.448 343.554 254.672 345.6 253.362 347.329C252.054 349.03 250.339 350.296 248.217 351.128C246.124 351.963 243.796 352.251 241.232 351.99ZM241.895 345.466C242.846 345.562 243.703 345.431 244.467 345.072C245.26 344.716 245.915 344.142 246.432 343.351C246.952 342.531 247.272 341.53 247.392 340.349C247.512 339.168 247.397 338.152 247.046 337.302C246.699 336.422 246.173 335.729 245.468 335.22C244.792 334.715 243.978 334.414 243.028 334.318C242.106 334.224 241.249 334.355 240.456 334.711C239.692 335.07 239.037 335.644 238.491 336.432C237.977 337.195 237.66 338.167 237.54 339.348C237.42 340.529 237.532 341.573 237.876 342.481C238.252 343.364 238.778 344.057 239.455 344.563C240.16 345.071 240.973 345.372 241.895 345.466ZM266.769 354.585C264.782 354.383 262.861 353.955 261.006 353.301C259.181 352.65 257.727 351.92 256.645 351.112L259.679 345.745C260.706 346.518 261.934 347.182 263.362 347.734C264.793 348.258 266.214 348.592 267.626 348.735C269.008 348.876 269.974 348.828 270.521 348.593C271.098 348.36 271.411 347.999 271.461 347.509C271.508 347.049 271.282 346.691 270.784 346.437C270.318 346.156 269.673 345.916 268.849 345.716C268.054 345.519 267.175 345.299 266.21 345.055C265.245 344.811 264.27 344.523 263.285 344.19C262.332 343.832 261.463 343.365 260.677 342.79C259.923 342.19 259.346 341.433 258.944 340.519C258.542 339.605 258.408 338.485 258.543 337.16C258.695 335.662 259.262 334.381 260.243 333.317C261.256 332.226 262.646 331.436 264.413 330.946C266.183 330.428 268.292 330.293 270.74 330.542C272.382 330.708 274.021 331.05 275.657 331.565C277.324 332.055 278.7 332.689 279.785 333.469L276.756 338.793C275.671 338.013 274.564 337.449 273.435 337.102C272.309 336.726 271.228 336.485 270.191 336.379C268.808 336.239 267.813 336.298 267.204 336.556C266.625 336.817 266.312 337.178 266.265 337.639C266.218 338.1 266.426 338.485 266.89 338.794C267.356 339.074 267.985 339.327 268.777 339.553C269.601 339.754 270.495 339.975 271.46 340.219C272.427 340.434 273.388 340.72 274.341 341.079C275.323 341.441 276.191 341.922 276.944 342.522C277.73 343.097 278.324 343.841 278.726 344.755C279.13 345.64 279.266 346.746 279.131 348.071C278.985 349.511 278.406 350.762 277.396 351.823C276.415 352.888 275.025 353.678 273.226 354.194C271.457 354.712 269.304 354.843 266.769 354.585Z" fill="#101111"/>
<mask id="path-56-outside-1_1044_178" maskUnits="userSpaceOnUse" x="491.102" y="343.136" width="186.495" height="52.4275" fill="black">
<rect fill="white" x="491.102" y="343.136" width="186.495" height="52.4275"/>
<path d="M502.087 357.339L516.13 358.766L515.48 365.161L501.437 363.734L502.087 357.339ZM501.48 369.326L517.294 370.934L516.622 377.545L492.339 375.077L495.412 344.83L519.134 347.241L518.462 353.852L503.21 352.302L501.48 369.326ZM527.421 378.642L520.165 354.243L528.591 355.1L534.293 375.455L530.059 375.025L540.128 356.272L547.949 357.067L535.89 379.502L527.421 378.642ZM559.29 382.273C556.525 381.992 554.158 381.228 552.189 379.98C550.252 378.706 548.8 377.104 547.832 375.172C546.896 373.214 546.547 371.068 546.784 368.735C547.021 366.402 547.779 364.383 549.058 362.68C550.369 360.95 552.055 359.681 554.116 358.872C556.18 358.034 558.437 357.739 560.885 357.988C563.19 358.222 565.244 358.911 567.049 360.055C568.856 361.17 570.23 362.692 571.169 364.621C572.108 366.55 572.445 368.811 572.182 371.403C572.153 371.691 572.105 372.021 572.038 372.393C571.971 372.764 571.907 373.107 571.846 373.421L553.309 371.537L553.748 367.216L567.921 368.657L564.687 369.55C564.824 368.487 564.716 367.545 564.363 366.723C564.039 365.905 563.524 365.241 562.819 364.733C562.143 364.228 561.315 363.925 560.336 363.826C559.356 363.726 558.47 363.855 557.677 364.211C556.913 364.569 556.288 365.132 555.803 365.897C555.321 366.634 555.026 367.535 554.917 368.601L554.79 369.854C554.673 371.007 554.802 372.024 555.178 372.906C555.583 373.791 556.209 374.51 557.055 375.061C557.904 375.584 558.948 375.908 560.186 376.034C561.339 376.151 562.334 376.092 563.173 375.857C564.043 375.597 564.917 375.162 565.794 374.552L569.658 379.485C568.409 380.61 566.93 381.42 565.22 381.915C563.514 382.382 561.537 382.502 559.29 382.273ZM592.454 361.196C594.269 361.381 595.872 361.922 597.265 362.82C598.661 363.69 599.7 364.93 600.38 366.542C601.089 368.156 601.32 370.173 601.074 372.593L599.713 385.988L591.504 385.154L592.729 373.098C592.898 371.428 592.676 370.183 592.06 369.363C591.477 368.518 590.58 368.034 589.37 367.911C588.506 367.823 587.694 367.945 586.932 368.275C586.174 368.576 585.552 369.109 585.067 369.875C584.582 370.641 584.274 371.672 584.142 372.968L582.991 384.289L574.782 383.454L577.161 360.035L584.982 360.83L584.306 367.484L582.991 365.386C584.057 363.777 585.41 362.634 587.051 361.957C588.694 361.251 590.495 360.997 592.454 361.196ZM615.285 387.963C612.289 387.659 610.03 386.687 608.509 385.048C606.99 383.38 606.383 381.049 606.688 378.053L608.729 357.961L616.939 358.795L614.906 378.801C614.821 379.636 614.984 380.322 615.396 380.859C615.81 381.366 616.377 381.657 617.097 381.73C618.076 381.829 618.937 381.67 619.678 381.25L621.125 387.203C620.386 387.594 619.503 387.839 618.474 387.938C617.443 388.066 616.379 388.074 615.285 387.963ZM604.073 369.842L604.697 363.706L621.678 365.432L621.055 371.567L604.073 369.842ZM635.232 389.99C632.668 389.73 630.445 388.98 628.563 387.741C626.681 386.502 625.256 384.916 624.288 382.985C623.352 381.027 623.004 378.867 623.244 376.505C623.484 374.143 624.258 372.111 625.566 370.411C626.902 368.713 628.616 367.461 630.706 366.655C632.799 365.82 635.127 365.532 637.691 365.793C640.255 366.053 642.478 366.803 644.36 368.042C646.274 369.255 647.7 370.826 648.639 372.755C649.578 374.684 649.928 376.83 649.688 379.192C649.448 381.554 648.672 383.6 647.362 385.329C646.054 387.03 644.339 388.296 642.217 389.128C640.124 389.963 637.796 390.251 635.232 389.99ZM635.895 383.466C636.846 383.562 637.703 383.431 638.467 383.072C639.26 382.716 639.915 382.142 640.432 381.351C640.952 380.531 641.272 379.53 641.392 378.349C641.512 377.168 641.397 376.152 641.046 375.302C640.699 374.422 640.173 373.729 639.468 373.22C638.792 372.715 637.978 372.414 637.028 372.318C636.106 372.224 635.249 372.355 634.456 372.711C633.692 373.07 633.037 373.644 632.491 374.432C631.977 375.195 631.66 376.167 631.54 377.348C631.42 378.529 631.532 379.573 631.876 380.481C632.252 381.364 632.778 382.057 633.455 382.563C634.16 383.071 634.973 383.372 635.895 383.466ZM660.769 392.585C658.782 392.383 656.861 391.955 655.006 391.301C653.181 390.65 651.727 389.92 650.645 389.112L653.679 383.745C654.706 384.518 655.934 385.182 657.362 385.734C658.793 386.258 660.214 386.592 661.626 386.735C663.008 386.876 663.974 386.828 664.521 386.593C665.098 386.36 665.411 385.999 665.461 385.509C665.508 385.049 665.282 384.691 664.784 384.437C664.318 384.156 663.673 383.916 662.849 383.716C662.054 383.519 661.175 383.299 660.21 383.055C659.245 382.811 658.27 382.523 657.285 382.19C656.332 381.832 655.463 381.365 654.677 380.79C653.923 380.19 653.346 379.433 652.944 378.519C652.542 377.605 652.408 376.485 652.543 375.16C652.695 373.662 653.262 372.381 654.243 371.317C655.256 370.226 656.646 369.436 658.413 368.946C660.183 368.428 662.292 368.293 664.74 368.542C666.382 368.708 668.021 369.05 669.657 369.565C671.324 370.055 672.7 370.689 673.785 371.469L670.756 376.793C669.671 376.013 668.564 375.449 667.435 375.102C666.309 374.726 665.228 374.485 664.191 374.379C662.808 374.239 661.813 374.298 661.204 374.556C660.625 374.817 660.312 375.178 660.265 375.639C660.218 376.1 660.426 376.485 660.89 376.794C661.356 377.074 661.985 377.327 662.777 377.553C663.601 377.754 664.495 377.975 665.46 378.219C666.427 378.434 667.388 378.72 668.341 379.079C669.323 379.441 670.191 379.922 670.944 380.522C671.73 381.097 672.324 381.841 672.726 382.755C673.13 383.64 673.266 384.746 673.131 386.071C672.985 387.511 672.406 388.762 671.396 389.823C670.415 390.888 669.025 391.678 667.226 392.194C665.457 392.712 663.304 392.843 660.769 392.585Z"/>
</mask>
<path d="M502.087 357.339L502.188 356.344L501.193 356.243L501.092 357.238L502.087 357.339ZM516.13 358.766L517.124 358.867L517.226 357.872L516.231 357.771L516.13 358.766ZM515.48 365.161L515.379 366.156L516.373 366.257L516.475 365.262L515.48 365.161ZM501.437 363.734L500.442 363.633L500.341 364.628L501.336 364.729L501.437 363.734ZM501.48 369.326L500.485 369.225L500.384 370.22L501.379 370.321L501.48 369.326ZM517.294 370.934L518.289 371.035L518.39 370.04L517.395 369.939L517.294 370.934ZM516.622 377.545L516.521 378.539L517.516 378.64L517.617 377.646L516.622 377.545ZM492.339 375.077L491.344 374.976L491.243 375.971L492.238 376.072L492.339 375.077ZM495.412 344.83L495.513 343.836L494.519 343.734L494.418 344.729L495.412 344.83ZM519.134 347.241L520.129 347.342L520.23 346.347L519.235 346.246L519.134 347.241ZM518.462 353.852L518.361 354.847L519.356 354.948L519.457 353.953L518.462 353.852ZM503.21 352.302L503.311 351.307L502.316 351.206L502.215 352.201L503.21 352.302ZM501.985 358.334L516.028 359.761L516.231 357.771L502.188 356.344L501.985 358.334ZM515.135 358.665L514.485 365.06L516.475 365.262L517.124 358.867L515.135 358.665ZM515.581 364.166L501.538 362.739L501.336 364.729L515.379 366.156L515.581 364.166ZM502.432 363.835L503.081 357.44L501.092 357.238L500.442 363.633L502.432 363.835ZM501.379 370.321L517.193 371.928L517.395 369.939L501.581 368.332L501.379 370.321ZM516.299 370.832L515.628 377.443L517.617 377.646L518.289 371.035L516.299 370.832ZM516.724 376.55L492.44 374.082L492.238 376.072L516.521 378.539L516.724 376.55ZM493.334 375.178L496.407 344.932L494.418 344.729L491.344 374.976L493.334 375.178ZM495.311 345.825L519.033 348.236L519.235 346.246L495.513 343.836L495.311 345.825ZM518.139 347.14L517.468 353.751L519.457 353.953L520.129 347.342L518.139 347.14ZM518.564 352.857L503.311 351.307L503.109 353.297L518.361 354.847L518.564 352.857ZM502.215 352.201L500.485 369.225L502.475 369.428L504.204 352.403L502.215 352.201ZM527.421 378.642L526.463 378.927L526.654 379.569L527.32 379.637L527.421 378.642ZM520.165 354.243L520.267 353.248L518.781 353.098L519.207 354.528L520.165 354.243ZM528.591 355.1L529.554 354.83L529.37 354.174L528.692 354.105L528.591 355.1ZM534.293 375.455L534.192 376.45L535.652 376.598L535.256 375.185L534.293 375.455ZM530.059 375.025L529.178 374.551L528.471 375.868L529.958 376.019L530.059 375.025ZM540.128 356.272L540.229 355.277L539.564 355.209L539.247 355.799L540.128 356.272ZM547.949 357.067L548.83 357.54L549.538 356.223L548.05 356.072L547.949 357.067ZM535.89 379.502L535.789 380.497L536.455 380.565L536.771 379.976L535.89 379.502ZM528.38 378.357L521.124 353.958L519.207 354.528L526.463 378.927L528.38 378.357ZM520.064 355.238L528.49 356.094L528.692 354.105L520.267 353.248L520.064 355.238ZM527.628 355.369L533.331 375.725L535.256 375.185L529.554 354.83L527.628 355.369ZM534.395 374.46L530.16 374.03L529.958 376.019L534.192 376.45L534.395 374.46ZM530.94 375.498L541.009 356.745L539.247 355.799L529.178 374.551L530.94 375.498ZM540.027 357.267L547.848 358.061L548.05 356.072L540.229 355.277L540.027 357.267ZM547.068 356.593L535.01 379.029L536.771 379.976L548.83 357.54L547.068 356.593ZM535.991 378.508L527.522 377.647L527.32 379.637L535.789 380.497L535.991 378.508ZM552.189 379.98L551.64 380.816L551.647 380.82L551.654 380.825L552.189 379.98ZM547.832 375.172L546.93 375.603L546.934 375.611L546.938 375.62L547.832 375.172ZM549.058 362.68L548.261 362.076L548.258 362.079L549.058 362.68ZM554.116 358.872L554.481 359.803L554.492 359.799L554.116 358.872ZM567.049 360.055L566.513 360.9L566.524 360.906L567.049 360.055ZM571.169 364.621L572.068 364.183L572.068 364.183L571.169 364.621ZM572.038 372.393L573.022 372.57L573.022 372.57L572.038 372.393ZM571.846 373.421L571.745 374.416L572.653 374.508L572.828 373.612L571.846 373.421ZM553.309 371.537L552.314 371.436L552.213 372.431L553.208 372.532L553.309 371.537ZM553.748 367.216L553.849 366.222L552.855 366.12L552.753 367.115L553.748 367.216ZM567.921 368.657L568.187 369.62L568.022 367.662L567.921 368.657ZM564.687 369.55L563.695 369.422L563.503 370.915L564.953 370.514L564.687 369.55ZM564.363 366.723L563.433 367.092L563.439 367.105L563.444 367.118L564.363 366.723ZM562.819 364.733L562.22 365.534L562.227 365.539L562.234 365.544L562.819 364.733ZM557.677 364.211L557.268 363.298L557.26 363.302L557.252 363.305L557.677 364.211ZM555.803 365.897L556.64 366.445L556.644 366.439L556.648 366.433L555.803 365.897ZM555.178 372.906L554.258 373.298L554.263 373.31L554.269 373.322L555.178 372.906ZM557.055 375.061L556.509 375.899L556.519 375.906L556.53 375.913L557.055 375.061ZM563.173 375.857L563.443 376.82L563.451 376.818L563.46 376.815L563.173 375.857ZM565.794 374.552L566.581 373.936L565.999 373.192L565.223 373.731L565.794 374.552ZM569.658 379.485L570.327 380.228L571.021 379.604L570.445 378.868L569.658 379.485ZM565.22 381.915L565.484 382.88L565.492 382.878L565.499 382.876L565.22 381.915ZM559.392 381.278C556.751 381.01 554.539 380.286 552.725 379.135L551.654 380.825C553.777 382.17 556.299 382.974 559.189 383.268L559.392 381.278ZM552.739 379.144C550.938 377.96 549.61 376.487 548.726 374.724L546.938 375.62C547.991 377.72 549.567 379.453 551.64 380.816L552.739 379.144ZM548.734 374.74C547.884 372.962 547.559 371.002 547.779 368.836L545.789 368.634C545.535 371.135 545.908 373.466 546.93 375.603L548.734 374.74ZM547.779 368.836C547.999 366.665 548.699 364.824 549.858 363.28L548.258 362.079C546.859 363.943 546.042 366.138 545.789 368.634L547.779 368.836ZM549.855 363.284C551.052 361.704 552.588 360.546 554.481 359.803L553.751 357.941C551.522 358.816 549.685 360.197 548.261 362.076L549.855 363.284ZM554.492 359.799C556.39 359.028 558.48 358.749 560.784 358.983L560.986 356.993C558.393 356.73 555.971 357.04 553.74 357.945L554.492 359.799ZM560.784 358.983C562.947 359.203 564.851 359.846 566.513 360.9L567.584 359.211C565.638 357.977 563.432 357.242 560.986 356.993L560.784 358.983ZM566.524 360.906C568.168 361.921 569.413 363.298 570.269 365.059L572.068 364.183C571.047 362.086 569.544 360.42 567.574 359.204L566.524 360.906ZM570.269 365.059C571.111 366.788 571.436 368.855 571.187 371.302L573.177 371.504C573.455 368.767 573.104 366.312 572.068 364.183L570.269 365.059ZM571.187 371.302C571.161 371.559 571.117 371.862 571.054 372.216L573.022 372.57C573.092 372.18 573.144 371.824 573.177 371.504L571.187 371.302ZM571.054 372.216C570.987 372.583 570.924 372.922 570.864 373.23L572.828 373.612C572.89 373.293 572.954 372.945 573.022 372.57L571.054 372.216ZM571.947 372.426L553.41 370.542L553.208 372.532L571.745 374.416L571.947 372.426ZM554.304 371.638L554.743 367.318L552.753 367.115L552.314 371.436L554.304 371.638ZM553.647 368.211L567.82 369.651L568.022 367.662L553.849 366.222L553.647 368.211ZM567.655 367.693L564.421 368.586L564.953 370.514L568.187 369.62L567.655 367.693ZM565.679 369.678C565.834 368.473 565.718 367.345 565.282 366.329L563.444 367.118C563.714 367.745 563.814 368.502 563.695 369.422L565.679 369.678ZM565.293 366.355C564.899 365.361 564.266 364.543 563.404 363.922L562.234 365.544C562.782 365.939 563.178 366.448 563.433 367.092L565.293 366.355ZM563.418 363.932C562.574 363.301 561.566 362.946 560.437 362.831L560.234 364.821C561.064 364.905 561.712 365.154 562.22 365.534L563.418 363.932ZM560.437 362.831C559.306 362.716 558.241 362.861 557.268 363.298L558.087 365.123C558.699 364.848 559.406 364.737 560.234 364.821L560.437 362.831ZM557.252 363.305C556.303 363.751 555.538 364.448 554.959 365.362L556.648 366.433C557.039 365.815 557.523 365.388 558.102 365.116L557.252 363.305ZM554.967 365.35C554.379 366.246 554.043 367.309 553.922 368.5L555.912 368.702C556.008 367.762 556.262 367.022 556.64 366.445L554.967 365.35ZM553.922 368.5L553.795 369.753L555.785 369.955L555.912 368.702L553.922 368.5ZM553.795 369.753C553.664 371.039 553.804 372.231 554.258 373.298L556.098 372.514C555.801 371.816 555.681 370.974 555.785 369.955L553.795 369.753ZM554.269 373.322C554.756 374.386 555.51 375.248 556.509 375.899L557.601 374.223C556.907 373.771 556.411 373.196 556.088 372.49L554.269 373.322ZM556.53 375.913C557.536 376.532 558.733 376.892 560.085 377.029L560.287 375.039C559.163 374.925 558.272 374.636 557.579 374.21L556.53 375.913ZM560.085 377.029C561.323 377.155 562.451 377.098 563.443 376.82L562.903 374.895C562.217 375.087 561.354 375.148 560.287 375.039L560.085 377.029ZM563.46 376.815C564.448 376.52 565.416 376.033 566.365 375.373L565.223 373.731C564.418 374.29 563.639 374.674 562.886 374.9L563.46 376.815ZM565.007 375.169L568.871 380.102L570.445 378.868L566.581 373.936L565.007 375.169ZM568.989 378.742C567.859 379.759 566.515 380.499 564.942 380.955L565.499 382.876C567.344 382.341 568.959 381.46 570.327 380.228L568.989 378.742ZM564.956 380.951C563.397 381.378 561.548 381.497 559.392 381.278L559.189 383.268C561.526 383.506 563.631 383.387 565.484 382.88L564.956 380.951ZM597.265 362.82L596.724 363.661L596.73 363.665L596.737 363.669L597.265 362.82ZM600.38 366.542L599.458 366.931L599.461 366.937L599.464 366.944L600.38 366.542ZM599.713 385.988L599.612 386.983L600.607 387.084L600.708 386.089L599.713 385.988ZM591.504 385.154L590.509 385.053L590.408 386.047L591.403 386.149L591.504 385.154ZM592.06 369.363L591.238 369.932L591.249 369.948L591.261 369.964L592.06 369.363ZM586.932 368.275L587.302 369.204L587.316 369.198L587.33 369.192L586.932 368.275ZM582.991 384.289L582.89 385.284L583.885 385.385L583.986 384.39L582.991 384.289ZM574.782 383.454L573.787 383.353L573.686 384.348L574.681 384.449L574.782 383.454ZM577.161 360.035L577.263 359.04L576.268 358.939L576.167 359.934L577.161 360.035ZM584.982 360.83L585.977 360.931L586.078 359.936L585.083 359.835L584.982 360.83ZM584.306 367.484L583.459 368.015L585.006 370.485L585.301 367.585L584.306 367.484ZM582.991 365.386L582.158 364.834L581.802 365.371L582.144 365.917L582.991 365.386ZM587.051 361.957L587.432 362.881L587.439 362.878L587.445 362.876L587.051 361.957ZM592.353 362.191C594.026 362.361 595.476 362.856 596.724 363.661L597.807 361.98C596.269 360.988 594.511 360.4 592.555 360.201L592.353 362.191ZM596.737 363.669C597.946 364.422 598.853 365.496 599.458 366.931L601.301 366.153C600.546 364.364 599.377 362.957 597.794 361.971L596.737 363.669ZM599.464 366.944C600.082 368.352 600.314 370.182 600.08 372.492L602.069 372.694C602.326 370.165 602.095 367.961 601.295 366.14L599.464 366.944ZM600.08 372.492L598.718 385.887L600.708 386.089L602.069 372.694L600.08 372.492ZM599.814 384.993L591.605 384.159L591.403 386.149L599.612 386.983L599.814 384.993ZM592.498 385.255L593.724 373.199L591.734 372.997L590.509 385.053L592.498 385.255ZM593.724 373.199C593.903 371.429 593.698 369.878 592.86 368.763L591.261 369.964C591.654 370.487 591.893 371.426 591.734 372.997L593.724 373.199ZM592.883 368.795C592.102 367.664 590.914 367.063 589.471 366.916L589.269 368.906C590.247 369.006 590.852 369.373 591.238 369.932L592.883 368.795ZM589.471 366.916C588.445 366.812 587.46 366.956 586.535 367.357L587.33 369.192C587.927 368.933 588.567 368.835 589.269 368.906L589.471 366.916ZM586.563 367.345C585.587 367.733 584.808 368.417 584.223 369.34L585.912 370.41C586.297 369.802 586.761 369.419 587.302 369.204L586.563 367.345ZM584.223 369.34C583.626 370.281 583.288 371.479 583.147 372.867L585.137 373.069C585.259 371.864 585.538 371 585.912 370.41L584.223 369.34ZM583.147 372.867L581.997 384.188L583.986 384.39L585.137 373.069L583.147 372.867ZM583.092 383.294L574.883 382.46L574.681 384.449L582.89 385.284L583.092 383.294ZM575.777 383.556L578.156 360.136L576.167 359.934L573.787 383.353L575.777 383.556ZM577.06 361.03L584.881 361.825L585.083 359.835L577.263 359.04L577.06 361.03ZM583.987 360.729L583.311 367.383L585.301 367.585L585.977 360.931L583.987 360.729ZM585.154 366.953L583.839 364.855L582.144 365.917L583.459 368.015L585.154 366.953ZM583.825 365.938C584.791 364.48 585.992 363.476 587.432 362.881L586.669 361.032C584.828 361.793 583.324 363.074 582.158 364.834L583.825 365.938ZM587.445 362.876C588.917 362.243 590.546 362.007 592.353 362.191L592.555 360.201C590.444 359.987 588.471 360.258 586.656 361.038L587.445 362.876ZM608.509 385.048L607.769 385.721L607.776 385.729L608.509 385.048ZM608.729 357.961L608.831 356.966L607.836 356.865L607.735 357.859L608.729 357.961ZM616.939 358.795L617.934 358.896L618.035 357.901L617.04 357.8L616.939 358.795ZM615.396 380.859L614.602 381.467L614.611 381.479L614.621 381.491L615.396 380.859ZM619.678 381.25L620.649 381.014L620.337 379.728L619.185 380.38L619.678 381.25ZM621.125 387.203L621.592 388.087L622.28 387.723L622.096 386.967L621.125 387.203ZM618.474 387.938L618.378 386.943L618.365 386.944L618.351 386.946L618.474 387.938ZM604.073 369.842L603.078 369.741L602.977 370.736L603.972 370.837L604.073 369.842ZM604.697 363.706L604.798 362.711L603.803 362.61L603.702 363.605L604.697 363.706ZM621.678 365.432L622.673 365.533L622.774 364.538L621.779 364.437L621.678 365.432ZM621.055 371.567L620.953 372.562L621.948 372.663L622.049 371.669L621.055 371.567ZM615.386 386.968C612.547 386.68 610.548 385.775 609.242 384.368L607.776 385.729C609.513 387.599 612.031 388.638 615.184 388.958L615.386 386.968ZM609.248 384.375C607.979 382.981 607.397 380.967 607.683 378.154L605.693 377.952C605.37 381.131 606.001 383.78 607.769 385.721L609.248 384.375ZM607.683 378.154L609.724 358.062L607.735 357.859L605.693 377.952L607.683 378.154ZM608.628 358.955L616.838 359.79L617.04 357.8L608.831 356.966L608.628 358.955ZM615.944 358.694L613.911 378.7L615.901 378.902L617.934 358.896L615.944 358.694ZM613.911 378.7C613.807 379.724 614 380.682 614.602 381.467L616.189 380.25C615.969 379.962 615.835 379.548 615.901 378.902L613.911 378.7ZM614.621 381.491C615.221 382.226 616.042 382.628 616.996 382.725L617.198 380.735C616.711 380.686 616.399 380.506 616.171 380.227L614.621 381.491ZM616.996 382.725C618.148 382.842 619.222 382.657 620.17 382.12L619.185 380.38C618.651 380.682 618.005 380.817 617.198 380.735L616.996 382.725ZM618.706 381.486L620.153 387.439L622.096 386.967L620.649 381.014L618.706 381.486ZM620.657 386.319C620.058 386.636 619.307 386.853 618.378 386.943L618.57 388.933C619.699 388.825 620.715 388.551 621.592 388.087L620.657 386.319ZM618.351 386.946C617.398 387.064 616.41 387.072 615.386 386.968L615.184 388.958C616.349 389.076 617.487 389.068 618.597 388.93L618.351 386.946ZM605.068 369.943L605.692 363.807L603.702 363.605L603.078 369.741L605.068 369.943ZM604.596 364.701L621.577 366.427L621.779 364.437L604.798 362.711L604.596 364.701ZM620.683 365.331L620.06 371.466L622.049 371.669L622.673 365.533L620.683 365.331ZM621.156 370.573L604.174 368.847L603.972 370.837L620.953 372.562L621.156 370.573ZM628.563 387.741L629.113 386.906L628.563 387.741ZM624.288 382.985L623.386 383.416L623.39 383.424L623.394 383.432L624.288 382.985ZM625.566 370.411L624.78 369.792L624.773 369.801L625.566 370.411ZM630.706 366.655L631.066 367.588L631.076 367.584L630.706 366.655ZM644.36 368.042L643.81 368.878L643.817 368.882L643.824 368.887L644.36 368.042ZM648.639 372.755L647.74 373.193L647.74 373.193L648.639 372.755ZM647.362 385.329L648.154 385.939L648.159 385.933L647.362 385.329ZM642.217 389.128L641.852 388.197L641.847 388.2L642.217 389.128ZM638.467 383.072L638.057 382.16L638.05 382.163L638.042 382.167L638.467 383.072ZM640.432 381.351L641.269 381.898L641.276 381.886L640.432 381.351ZM641.046 375.302L640.116 375.669L640.119 375.676L640.122 375.682L641.046 375.302ZM639.468 373.22L638.87 374.021L638.876 374.027L638.883 374.032L639.468 373.22ZM634.456 372.711L634.046 371.799L634.038 371.802L634.031 371.806L634.456 372.711ZM632.491 374.432L631.669 373.863L631.662 373.873L632.491 374.432ZM631.876 380.481L630.941 380.836L630.948 380.855L630.956 380.874L631.876 380.481ZM633.455 382.563L632.856 383.364L632.863 383.369L632.87 383.374L633.455 382.563ZM635.333 388.995C632.906 388.749 630.842 388.044 629.113 386.906L628.013 388.576C630.048 389.916 632.43 390.711 635.131 390.985L635.333 388.995ZM629.113 386.906C627.371 385.759 626.068 384.304 625.182 382.537L623.394 383.432C624.444 385.528 625.991 387.245 628.013 388.576L629.113 386.906ZM625.19 382.553C624.34 380.776 624.015 378.803 624.239 376.606L622.249 376.404C621.992 378.931 622.363 381.277 623.386 383.416L625.19 382.553ZM624.239 376.606C624.462 374.408 625.176 372.558 626.358 371.02L624.773 369.801C623.34 371.664 622.506 373.877 622.249 376.404L624.239 376.606ZM626.351 371.029C627.573 369.478 629.137 368.332 631.066 367.588L630.346 365.722C628.095 366.59 626.232 367.948 624.78 369.792L626.351 371.029ZM631.076 367.584C632.999 366.816 635.163 366.541 637.59 366.788L637.792 364.798C635.091 364.524 632.598 364.823 630.335 365.726L631.076 367.584ZM637.59 366.788C640.016 367.034 642.08 367.739 643.81 368.878L644.91 367.207C642.875 365.867 640.493 365.073 637.792 364.798L637.59 366.788ZM643.824 368.887C645.591 370.007 646.887 371.44 647.74 373.193L649.538 372.318C648.514 370.212 646.957 368.504 644.895 367.198L643.824 368.887ZM647.74 373.193C648.589 374.937 648.916 376.893 648.693 379.091L650.683 379.293C650.939 376.766 650.567 374.431 649.538 372.318L647.74 373.193ZM648.693 379.091C648.47 381.288 647.754 383.156 646.565 384.725L648.159 385.933C649.591 384.044 650.426 381.82 650.683 379.293L648.693 379.091ZM646.569 384.72C645.379 386.267 643.816 387.427 641.852 388.197L642.582 390.059C644.862 389.165 646.729 387.792 648.154 385.939L646.569 384.72ZM641.847 388.2C639.923 388.967 637.76 389.242 635.333 388.995L635.131 390.985C637.832 391.259 640.325 390.96 642.588 390.057L641.847 388.2ZM635.794 384.46C636.9 384.573 637.943 384.423 638.892 383.977L638.042 382.167C637.463 382.439 636.791 382.551 635.996 382.471L635.794 384.46ZM638.877 383.984C639.859 383.543 640.657 382.835 641.269 381.898L639.595 380.804C639.173 381.45 638.66 381.889 638.057 382.16L638.877 383.984ZM641.276 381.886C641.896 380.909 642.254 379.752 642.386 378.45L640.397 378.248C640.289 379.308 640.007 380.152 639.587 380.816L641.276 381.886ZM642.386 378.45C642.518 377.151 642.4 375.962 641.971 374.921L640.122 375.682C640.394 376.342 640.505 377.184 640.397 378.248L642.386 378.45ZM641.977 374.934C641.565 373.893 640.927 373.039 640.053 372.409L638.883 374.032C639.42 374.418 639.833 374.951 640.116 375.669L641.977 374.934ZM640.067 372.419C639.227 371.792 638.235 371.435 637.129 371.323L636.927 373.312C637.721 373.393 638.357 373.638 638.87 374.021L640.067 372.419ZM637.129 371.323C636.045 371.212 635.01 371.366 634.046 371.799L634.865 373.623C635.488 373.344 636.167 373.235 636.927 373.312L637.129 371.323ZM634.031 371.806C633.086 372.25 632.301 372.95 631.669 373.863L633.313 375.001C633.773 374.338 634.297 373.89 634.881 373.616L634.031 371.806ZM631.662 373.873C631.033 374.807 630.677 375.948 630.545 377.247L632.535 377.449C632.643 376.385 632.921 375.583 633.32 374.991L631.662 373.873ZM630.545 377.247C630.413 378.548 630.531 379.754 630.941 380.836L632.811 380.127C632.533 379.393 632.427 378.509 632.535 377.449L630.545 377.247ZM630.956 380.874C631.392 381.896 632.02 382.739 632.856 383.364L634.053 381.762C633.537 381.376 633.113 380.832 632.796 380.089L630.956 380.874ZM632.87 383.374C633.727 383.992 634.71 384.35 635.794 384.46L635.996 382.471C635.237 382.393 634.593 382.15 634.039 381.751L632.87 383.374ZM655.006 391.301L654.67 392.243L654.674 392.244L655.006 391.301ZM650.645 389.112L649.774 388.62L649.341 389.386L650.046 389.913L650.645 389.112ZM653.679 383.745L654.28 382.946L653.369 382.26L652.808 383.253L653.679 383.745ZM657.362 385.734L657.001 386.667L657.01 386.67L657.018 386.673L657.362 385.734ZM664.521 386.593L664.147 385.665L664.137 385.669L664.127 385.674L664.521 386.593ZM664.784 384.437L664.269 385.294L664.299 385.312L664.329 385.327L664.784 384.437ZM662.849 383.716L662.608 384.687L662.613 384.688L662.849 383.716ZM660.21 383.055L659.965 384.025L659.965 384.025L660.21 383.055ZM657.285 382.19L656.933 383.126L656.949 383.132L656.965 383.138L657.285 382.19ZM654.677 380.79L654.054 381.573L654.07 381.585L654.087 381.597L654.677 380.79ZM652.944 378.519L653.859 378.116L653.859 378.116L652.944 378.519ZM654.243 371.317L653.51 370.636L653.508 370.639L654.243 371.317ZM658.413 368.946L658.68 369.91L658.687 369.908L658.694 369.906L658.413 368.946ZM669.657 369.565L669.356 370.519L669.366 370.522L669.375 370.525L669.657 369.565ZM673.785 371.469L674.654 371.963L675.099 371.182L674.369 370.657L673.785 371.469ZM670.756 376.793L670.172 377.605L671.075 378.253L671.625 377.287L670.756 376.793ZM667.435 375.102L667.118 376.05L667.13 376.054L667.141 376.058L667.435 375.102ZM661.204 374.556L660.813 373.636L660.803 373.64L660.793 373.644L661.204 374.556ZM660.89 376.794L660.335 377.626L660.354 377.639L660.375 377.651L660.89 376.794ZM662.777 377.553L662.503 378.515L662.522 378.52L662.541 378.525L662.777 377.553ZM665.46 378.219L665.215 379.188L665.229 379.192L665.243 379.195L665.46 378.219ZM668.341 379.079L667.988 380.015L667.995 380.018L668.341 379.079ZM670.944 380.522L670.321 381.305L670.337 381.317L670.354 381.33L670.944 380.522ZM672.726 382.755L671.81 383.158L671.813 383.165L671.816 383.171L672.726 382.755ZM671.396 389.823L670.672 389.134L670.666 389.14L670.661 389.146L671.396 389.823ZM667.226 392.194L666.951 391.232L666.945 391.234L667.226 392.194ZM660.87 391.59C658.96 391.396 657.117 390.985 655.339 390.358L654.674 392.244C656.604 392.925 658.603 393.37 660.668 393.58L660.87 391.59ZM655.342 390.359C653.574 389.728 652.219 389.039 651.243 388.311L650.046 389.913C651.235 390.801 652.788 391.571 654.67 392.243L655.342 390.359ZM651.515 389.604L654.549 384.237L652.808 383.253L649.774 388.62L651.515 389.604ZM653.077 384.543C654.19 385.382 655.503 386.087 657.001 386.667L657.723 384.802C656.365 384.276 655.221 383.655 654.28 382.946L653.077 384.543ZM657.018 386.673C658.522 387.224 660.024 387.577 661.525 387.73L661.727 385.74C660.404 385.606 659.064 385.292 657.706 384.795L657.018 386.673ZM661.525 387.73C662.246 387.803 662.887 387.831 663.436 387.804C663.973 387.777 664.486 387.696 664.916 387.511L664.127 385.674C664.009 385.724 663.766 385.785 663.338 385.806C662.921 385.826 662.388 385.807 661.727 385.74L661.525 387.73ZM664.895 387.52C665.709 387.192 666.358 386.572 666.456 385.611L664.466 385.408C664.461 385.455 664.451 385.472 664.433 385.492C664.407 385.523 664.332 385.591 664.147 385.665L664.895 387.52ZM666.456 385.611C666.499 385.18 666.416 384.748 666.173 384.362C665.938 383.99 665.598 383.729 665.239 383.546L664.329 385.327C664.468 385.398 664.49 385.444 664.481 385.429C664.476 385.421 664.471 385.409 664.468 385.397C664.466 385.385 664.468 385.387 664.466 385.408L666.456 385.611ZM665.299 383.58C664.712 383.227 663.959 382.957 663.085 382.744L662.613 384.688C663.387 384.876 663.924 385.086 664.269 385.294L665.299 383.58ZM663.09 382.746C662.297 382.549 661.418 382.329 660.455 382.085L659.965 384.025C660.931 384.268 661.812 384.489 662.608 384.687L663.09 382.746ZM660.455 382.085C659.516 381.849 658.567 381.568 657.606 381.243L656.965 383.138C657.974 383.479 658.974 383.774 659.965 384.025L660.455 382.085ZM657.638 381.254C656.766 380.926 655.977 380.502 655.268 379.983L654.087 381.597C654.949 382.228 655.899 382.737 656.933 383.126L657.638 381.254ZM655.3 380.008C654.678 379.512 654.198 378.887 653.859 378.116L652.028 378.921C652.493 379.978 653.169 380.867 654.054 381.573L655.3 380.008ZM653.859 378.116C653.546 377.405 653.415 376.47 653.538 375.261L651.548 375.059C651.401 376.501 651.537 377.805 652.028 378.921L653.859 378.116ZM653.538 375.261C653.669 373.969 654.15 372.893 654.978 371.994L653.508 370.639C652.374 371.869 651.721 373.355 651.548 375.059L653.538 375.261ZM654.976 371.997C655.836 371.071 657.05 370.362 658.68 369.91L658.146 367.983C656.242 368.511 654.676 369.382 653.51 370.636L654.976 371.997ZM658.694 369.906C660.306 369.434 662.279 369.297 664.639 369.537L664.842 367.547C662.305 367.289 660.059 367.422 658.132 367.987L658.694 369.906ZM664.639 369.537C666.211 369.696 667.783 370.023 669.356 370.519L669.957 368.611C668.259 368.076 666.554 367.721 664.842 367.547L664.639 369.537ZM669.375 370.525C670.965 370.991 672.231 371.584 673.202 372.281L674.369 370.657C673.169 369.795 671.683 369.118 669.939 368.606L669.375 370.525ZM672.916 370.974L669.887 376.298L671.625 377.287L674.654 371.963L672.916 370.974ZM671.339 375.981C670.178 375.146 668.975 374.529 667.73 374.146L667.141 376.058C668.154 376.369 669.164 376.88 670.172 377.605L671.339 375.981ZM667.752 374.153C666.566 373.757 665.412 373.498 664.292 373.384L664.09 375.374C665.044 375.471 666.053 375.694 667.118 376.05L667.752 374.153ZM664.292 373.384C662.888 373.242 661.672 373.271 660.813 373.636L661.595 375.476C661.954 375.324 662.728 375.236 664.09 375.374L664.292 373.384ZM660.793 373.644C660.025 373.991 659.366 374.595 659.27 375.538L661.26 375.74C661.262 375.722 661.264 375.708 661.29 375.678C661.326 375.637 661.416 375.557 661.615 375.468L660.793 373.644ZM659.27 375.538C659.177 376.449 659.638 377.161 660.335 377.626L661.444 375.962C661.312 375.874 661.274 375.813 661.265 375.798C661.261 375.79 661.26 375.786 661.26 375.783C661.259 375.779 661.257 375.767 661.26 375.74L659.27 375.538ZM660.375 377.651C660.944 377.994 661.665 378.276 662.503 378.515L663.051 376.592C662.305 376.379 661.768 376.155 661.405 375.937L660.375 377.651ZM662.541 378.525C663.361 378.724 664.252 378.946 665.215 379.188L665.704 377.249C664.737 377.005 663.84 376.783 663.013 376.582L662.541 378.525ZM665.243 379.195C666.163 379.399 667.078 379.672 667.988 380.015L668.693 378.143C667.697 377.768 666.691 377.468 665.676 377.243L665.243 379.195ZM667.995 380.018C668.885 380.346 669.658 380.776 670.321 381.305L671.567 379.74C670.723 379.068 669.76 378.536 668.686 378.141L667.995 380.018ZM670.354 381.33C670.994 381.798 671.477 382.401 671.81 383.158L673.641 382.353C673.17 381.282 672.466 380.397 671.535 379.715L670.354 381.33ZM671.816 383.171C672.125 383.846 672.259 384.759 672.136 385.97L674.126 386.172C674.272 384.732 674.136 383.435 673.635 382.339L671.816 383.171ZM672.136 385.97C672.012 387.186 671.531 388.231 670.672 389.134L672.121 390.513C673.282 389.293 673.957 387.836 674.126 386.172L672.136 385.97ZM670.661 389.146C669.835 390.041 668.624 390.753 666.951 391.232L667.502 393.155C669.426 392.603 670.994 391.734 672.131 390.501L670.661 389.146ZM666.945 391.234C665.337 391.705 663.323 391.839 660.87 391.59L660.668 393.58C663.286 393.846 665.576 393.719 667.508 393.153L666.945 391.234Z" fill="black" mask="url(#path-56-outside-1_1044_178)"/>
<path d="M896.087 395.339L910.13 396.766L909.48 403.161L895.437 401.734L896.087 395.339ZM895.48 407.327L911.294 408.934L910.622 415.545L886.339 413.077L889.412 382.83L913.134 385.241L912.462 391.852L897.21 390.302L895.48 407.327ZM921.421 416.642L914.165 392.243L922.591 393.1L928.293 413.455L924.059 413.025L934.128 394.272L941.949 395.067L929.89 417.502L921.421 416.642ZM953.29 420.273C950.525 419.992 948.158 419.228 946.189 417.98C944.252 416.706 942.8 415.104 941.832 413.172C940.896 411.214 940.547 409.068 940.784 406.735C941.021 404.402 941.779 402.383 943.058 400.68C944.369 398.95 946.055 397.681 948.116 396.872C950.18 396.034 952.437 395.739 954.885 395.988C957.19 396.222 959.244 396.911 961.049 398.055C962.856 399.17 964.23 400.692 965.169 402.621C966.108 404.55 966.445 406.811 966.182 409.403C966.153 409.691 966.105 410.021 966.038 410.393C965.971 410.764 965.907 411.107 965.846 411.421L947.309 409.537L947.748 405.216L961.921 406.657L958.687 407.55C958.824 406.487 958.716 405.545 958.363 404.723C958.039 403.905 957.524 403.241 956.819 402.733C956.143 402.228 955.315 401.925 954.336 401.826C953.356 401.726 952.47 401.855 951.677 402.211C950.913 402.569 950.288 403.132 949.803 403.897C949.321 404.634 949.026 405.535 948.917 406.601L948.79 407.854C948.673 409.007 948.802 410.024 949.178 410.906C949.583 411.791 950.209 412.51 951.055 413.061C951.904 413.584 952.948 413.908 954.186 414.034C955.339 414.151 956.334 414.092 957.173 413.857C958.043 413.597 958.917 413.162 959.794 412.552L963.658 417.485C962.409 418.61 960.93 419.42 959.22 419.915C957.514 420.382 955.537 420.502 953.29 420.273ZM986.454 399.196C988.269 399.381 989.872 399.922 991.265 400.82C992.661 401.69 993.7 402.93 994.38 404.542C995.089 406.156 995.32 408.173 995.074 410.593L993.713 423.988L985.504 423.154L986.729 411.098C986.898 409.428 986.676 408.183 986.06 407.363C985.477 406.518 984.58 406.034 983.37 405.911C982.506 405.824 981.694 405.945 980.932 406.275C980.174 406.576 979.552 407.11 979.067 407.875C978.582 408.641 978.274 409.672 978.142 410.968L976.991 422.289L968.782 421.454L971.161 398.035L978.982 398.83L978.306 405.484L976.991 403.386C978.057 401.777 979.41 400.634 981.051 399.957C982.694 399.251 984.495 398.997 986.454 399.196ZM1009.28 425.963C1006.29 425.659 1004.03 424.687 1002.51 423.048C1000.99 421.381 1000.38 419.049 1000.69 416.053L1002.73 395.961L1010.94 396.795L1008.91 416.801C1008.82 417.636 1008.98 418.322 1009.4 418.859C1009.81 419.366 1010.38 419.657 1011.1 419.73C1012.08 419.829 1012.94 419.67 1013.68 419.25L1015.12 425.203C1014.39 425.594 1013.5 425.839 1012.47 425.938C1011.44 426.066 1010.38 426.074 1009.28 425.963ZM998.073 407.842L998.697 401.706L1015.68 403.432L1015.05 409.568L998.073 407.842ZM1029.23 427.99C1026.67 427.73 1024.45 426.98 1022.56 425.741C1020.68 424.502 1019.26 422.916 1018.29 420.985C1017.35 419.027 1017 416.867 1017.24 414.505C1017.48 412.143 1018.26 410.111 1019.57 408.411C1020.9 406.713 1022.62 405.461 1024.71 404.655C1026.8 403.82 1029.13 403.532 1031.69 403.793C1034.25 404.054 1036.48 404.803 1038.36 406.042C1040.27 407.255 1041.7 408.826 1042.64 410.755C1043.58 412.684 1043.93 414.83 1043.69 417.192C1043.45 419.554 1042.67 421.6 1041.36 423.329C1040.05 425.03 1038.34 426.296 1036.22 427.128C1034.12 427.963 1031.8 428.251 1029.23 427.99ZM1029.89 421.466C1030.85 421.562 1031.7 421.431 1032.47 421.072C1033.26 420.716 1033.91 420.142 1034.43 419.351C1034.95 418.531 1035.27 417.53 1035.39 416.349C1035.51 415.168 1035.4 414.152 1035.05 413.302C1034.7 412.422 1034.17 411.729 1033.47 411.22C1032.79 410.715 1031.98 410.414 1031.03 410.318C1030.11 410.224 1029.25 410.355 1028.46 410.711C1027.69 411.07 1027.04 411.644 1026.49 412.432C1025.98 413.195 1025.66 414.167 1025.54 415.348C1025.42 416.529 1025.53 417.573 1025.88 418.482C1026.25 419.364 1026.78 420.057 1027.45 420.563C1028.16 421.071 1028.97 421.372 1029.89 421.466ZM1054.77 430.585C1052.78 430.383 1050.86 429.955 1049.01 429.301C1047.18 428.65 1045.73 427.92 1044.64 427.112L1047.68 421.745C1048.71 422.518 1049.93 423.182 1051.36 423.734C1052.79 424.258 1054.21 424.592 1055.63 424.735C1057.01 424.876 1057.97 424.828 1058.52 424.593C1059.1 424.36 1059.41 423.999 1059.46 423.51C1059.51 423.049 1059.28 422.691 1058.78 422.437C1058.32 422.156 1057.67 421.916 1056.85 421.716C1056.05 421.519 1055.17 421.299 1054.21 421.055C1053.24 420.812 1052.27 420.523 1051.29 420.19C1050.33 419.832 1049.46 419.365 1048.68 418.79C1047.92 418.19 1047.35 417.433 1046.94 416.519C1046.54 415.605 1046.41 414.485 1046.54 413.16C1046.7 411.662 1047.26 410.381 1048.24 409.317C1049.26 408.226 1050.65 407.436 1052.41 406.946C1054.18 406.428 1056.29 406.293 1058.74 406.542C1060.38 406.709 1062.02 407.05 1063.66 407.565C1065.32 408.055 1066.7 408.689 1067.79 409.469L1064.76 414.793C1063.67 414.013 1062.56 413.449 1061.44 413.102C1060.31 412.726 1059.23 412.485 1058.19 412.379C1056.81 412.239 1055.81 412.298 1055.2 412.556C1054.62 412.817 1054.31 413.178 1054.26 413.639C1054.22 414.1 1054.43 414.485 1054.89 414.794C1055.36 415.074 1055.99 415.327 1056.78 415.553C1057.6 415.754 1058.49 415.975 1059.46 416.219C1060.43 416.434 1061.39 416.72 1062.34 417.079C1063.32 417.441 1064.19 417.922 1064.94 418.522C1065.73 419.097 1066.32 419.841 1066.73 420.755C1067.13 421.64 1067.27 422.746 1067.13 424.071C1066.98 425.511 1066.41 426.762 1065.4 427.823C1064.41 428.888 1063.03 429.678 1061.23 430.194C1059.46 430.712 1057.3 430.843 1054.77 430.585Z" fill="#101111"/>
<path d="M916.428 308.276L930.303 305.68L931.485 311.998L917.611 314.594L916.428 308.276ZM919.231 319.947L934.856 317.023L936.078 323.554L912.086 328.044L906.494 298.161L929.931 293.775L931.153 300.306L916.083 303.127L919.231 319.947ZM946.748 321.558L932.897 300.201L941.222 298.643L952.44 316.56L948.256 317.343L952.62 296.51L960.347 295.064L955.115 319.992L946.748 321.558ZM978.345 316.042C975.613 316.553 973.126 316.489 970.885 315.847C968.668 315.173 966.822 314.045 965.348 312.465C963.897 310.851 962.956 308.892 962.525 306.587C962.093 304.281 962.25 302.131 962.996 300.136C963.765 298.106 965.024 296.413 966.773 295.054C968.517 293.668 970.598 292.748 973.017 292.295C975.294 291.869 977.46 291.95 979.514 292.538C981.563 293.097 983.31 294.169 984.755 295.754C986.201 297.34 987.163 299.413 987.643 301.974C987.696 302.259 987.743 302.589 987.784 302.964C987.824 303.34 987.86 303.686 987.89 304.005L969.576 307.432L968.777 303.163L982.779 300.543L979.929 302.313C979.761 301.255 979.391 300.381 978.82 299.693C978.278 298.999 977.597 298.508 976.777 298.219C975.986 297.926 975.106 297.869 974.139 298.05C973.171 298.231 972.357 298.605 971.697 299.17C971.065 299.73 970.625 300.446 970.376 301.317C970.121 302.16 970.092 303.108 970.289 304.161L970.521 305.399C970.734 306.538 971.145 307.477 971.755 308.217C972.393 308.952 973.196 309.465 974.164 309.755C975.126 310.017 976.219 310.033 977.443 309.804C978.581 309.591 979.52 309.253 980.258 308.791C981.019 308.295 981.735 307.631 982.404 306.799L987.504 310.44C986.623 311.871 985.432 313.066 983.933 314.024C982.427 314.954 980.565 315.627 978.345 316.042ZM1004.21 286.458C1006 286.123 1007.69 286.189 1009.28 286.657C1010.87 287.097 1012.21 287.994 1013.32 289.348C1014.46 290.697 1015.25 292.566 1015.7 294.957L1018.17 308.191L1010.06 309.709L1007.83 297.798C1007.52 296.148 1006.96 295.016 1006.14 294.404C1005.34 293.758 1004.34 293.547 1003.15 293.771C1002.29 293.931 1001.55 294.276 1000.91 294.808C1000.27 295.311 999.821 295.998 999.572 296.87C999.323 297.741 999.318 298.817 999.557 300.098L1001.65 311.283L993.539 312.801L989.209 289.663L996.936 288.217L998.167 294.791L996.313 293.149C996.881 291.305 997.856 289.827 999.239 288.714C1000.62 287.572 1002.27 286.82 1004.21 286.458ZM1033.67 305.689C1030.71 306.243 1028.27 305.949 1026.34 304.806C1024.42 303.635 1023.18 301.57 1022.62 298.61L1018.91 278.759L1027.02 277.241L1030.72 297.006C1030.87 297.832 1031.22 298.444 1031.77 298.842C1032.31 299.212 1032.93 299.331 1033.65 299.198C1034.61 299.017 1035.39 298.62 1035.99 298.009L1039.05 303.311C1038.46 303.894 1037.68 304.379 1036.72 304.764C1035.77 305.178 1034.75 305.487 1033.67 305.689ZM1017.8 291.471L1016.66 285.409L1033.44 282.269L1034.57 288.331L1017.8 291.471ZM1053.38 302.001C1050.84 302.475 1048.5 302.383 1046.34 301.726C1044.19 301.069 1042.37 299.951 1040.9 298.371C1039.45 296.757 1038.5 294.783 1038.07 292.449C1037.63 290.116 1037.8 287.948 1038.57 285.948C1039.38 283.942 1040.67 282.257 1042.44 280.893C1044.22 279.501 1046.37 278.568 1048.9 278.094C1051.43 277.62 1053.78 277.712 1055.93 278.369C1058.11 278.992 1059.92 280.096 1061.37 281.682C1062.82 283.267 1063.76 285.226 1064.19 287.56C1064.63 289.894 1064.46 292.075 1063.69 294.104C1062.92 296.105 1061.63 297.804 1059.83 299.202C1058.06 300.594 1055.91 301.527 1053.38 302.001ZM1052.17 295.555C1053.11 295.379 1053.89 295.011 1054.52 294.451C1055.19 293.885 1055.65 293.15 1055.92 292.245C1056.19 291.311 1056.22 290.261 1056 289.094C1055.78 287.927 1055.38 286.985 1054.81 286.268C1054.22 285.523 1053.52 285.006 1052.7 284.717C1051.91 284.424 1051.05 284.365 1050.11 284.54C1049.2 284.711 1048.41 285.079 1047.75 285.644C1047.12 286.204 1046.65 286.939 1046.35 287.85C1046.07 288.727 1046.05 289.749 1046.26 290.916C1046.48 292.082 1046.88 293.053 1047.47 293.827C1048.08 294.567 1048.78 295.084 1049.57 295.378C1050.39 295.666 1051.26 295.725 1052.17 295.555ZM1078.61 297.279C1076.64 297.647 1074.68 297.778 1072.71 297.675C1070.78 297.565 1069.18 297.276 1067.91 296.806L1069.31 290.801C1070.51 291.253 1071.88 291.542 1073.4 291.669C1074.92 291.768 1076.38 291.686 1077.78 291.425C1079.14 291.17 1080.05 290.851 1080.51 290.471C1081 290.085 1081.2 289.65 1081.11 289.167C1081.02 288.711 1080.71 288.432 1080.16 288.328C1079.63 288.191 1078.94 288.143 1078.1 288.184C1077.28 288.219 1076.37 288.256 1075.38 288.295C1074.38 288.334 1073.37 288.332 1072.33 288.291C1071.31 288.216 1070.35 288.014 1069.43 287.684C1068.54 287.321 1067.77 286.758 1067.13 285.995C1066.48 285.232 1066.04 284.195 1065.79 282.886C1065.52 281.406 1065.7 280.017 1066.34 278.719C1067 277.387 1068.11 276.237 1069.67 275.268C1071.22 274.27 1073.21 273.545 1075.63 273.093C1077.25 272.789 1078.92 272.654 1080.63 272.686C1082.37 272.685 1083.87 272.905 1085.13 273.347L1083.73 279.309C1082.47 278.868 1081.24 278.64 1080.06 278.625C1078.88 278.582 1077.77 278.656 1076.75 278.848C1075.38 279.104 1074.44 279.441 1073.93 279.861C1073.45 280.275 1073.25 280.71 1073.34 281.165C1073.42 281.621 1073.73 281.931 1074.26 282.097C1074.79 282.234 1075.46 282.299 1076.29 282.292C1077.13 282.252 1078.05 282.212 1079.05 282.173C1080.04 282.106 1081.04 282.11 1082.06 282.185C1083.1 282.255 1084.07 282.471 1084.96 282.834C1085.88 283.163 1086.66 283.71 1087.3 284.473C1087.94 285.208 1088.38 286.23 1088.62 287.539C1088.89 288.962 1088.69 290.325 1088.02 291.629C1087.38 292.927 1086.27 294.077 1084.69 295.08C1083.14 296.077 1081.11 296.81 1078.61 297.279Z" fill="#101111"/>
<defs>
<filter id="filter0_d_1044_178" x="-82.8197" y="224.277" width="1393.2" height="269.149" filterUnits="userSpaceOnUse" color-interpolation-filters="sRGB">
<feFlood flood-opacity="0" result="BackgroundImageFix"/>
<feColorMatrix in="SourceAlpha" type="matrix" values="0 0 0 0 0 0 0 0 0 0 0 0 0 0 0 0 0 0 127 0" result="hardAlpha"/>
<feOffset dy="-19"/>
<feGaussianBlur stdDeviation="9.65"/>
<feComposite in2="hardAlpha" operator="out"/>
<feColorMatrix type="matrix" values="0 0 0 0 0 0 0 0 0 0 0 0 0 0 0 0 0 0 0.25 0"/>
<feBlend mode="normal" in2="BackgroundImageFix" result="effect1_dropShadow_1044_178"/>
<feBlend mode="normal" in="SourceGraphic" in2="effect1_dropShadow_1044_178" result="shape"/>
</filter>
</defs>
</svg>
