<svg width="31" height="15" viewBox="0 0 31 15" fill="none" xmlns="http://www.w3.org/2000/svg">
<path d="M3.85346 7.15897C3.87877 7.11592 3.92264 7.05139 3.99662 6.96655C4.29868 6.62014 4.93942 6.12353 6.07799 5.61417C8.3495 4.59797 11.7131 3.92566 15.3036 3.83359C18.901 3.74135 22.2696 4.24336 24.5793 5.20246C26.3064 5.91962 26.8935 6.60893 27.0867 7.09481C26.71 7.72459 25.8218 8.56054 23.9205 9.33762C21.5975 10.287 18.4666 10.8266 15.2063 10.8266C11.9397 10.8266 8.88133 10.2852 6.68692 9.35603C4.72453 8.52514 4.05801 7.67875 3.85346 7.15897Z" stroke="#101111" stroke-width="7.64563"/>
<mask id="path-2-inside-1_1044_280" fill="white">
<path d="M20.0488 11.1785C17.232 10.1888 10.7305 8.80322 7.25903 11.1785L15.2526 2.72803L18.7459 6.31836V5.01192H20.9624V8.59639L23.4746 11.1785L15.2526 5.69708L12.7404 8.20936C14.1868 8.36165 17.6736 9.16867 20.0488 11.1785Z"/>
</mask>
<path d="M15.3084 9.66298L17.5248 11.941L24.3999 5.25176L22.1835 2.97373L15.3084 9.66298ZM20.0488 11.1785L16.8691 20.2285L26.2448 3.85575L20.0488 11.1785ZM7.25903 11.1785L0.290485 4.58663L12.6757 19.0951L7.25903 11.1785ZM15.2526 2.72803L22.1277 -3.96122L15.1552 -11.1275L8.2841 -3.86381L15.2526 2.72803ZM23.4746 11.1785L18.1537 19.1598L30.3497 4.48922L23.4746 11.1785ZM15.2526 5.69708L20.5735 -2.2842L14.0304 -6.64632L8.46984 -1.08572L15.2526 5.69708ZM12.7404 8.20936L5.95756 1.42656L-8.25965 15.6438L11.736 17.749L12.7404 8.20936ZM18.7459 6.31836L11.8708 13.0076L28.3383 29.9326V6.31836H18.7459ZM18.7459 5.01192V-4.58042H9.15358V5.01192H18.7459ZM20.9624 5.01192H30.5547V-4.58042H20.9624V5.01192ZM20.9624 8.59639H11.37V12.4929L14.0873 15.2856L20.9624 8.59639ZM23.2285 2.12847C21.151 1.39854 17.98 0.592647 14.5866 0.348922C11.5619 0.131678 6.3271 0.193353 1.84239 3.26184L12.6757 19.0951C12.0569 19.5185 11.6707 19.5374 11.8897 19.5012C12.0868 19.4687 12.5237 19.4349 13.2123 19.4843C14.6417 19.587 16.1298 19.9687 16.8691 20.2285L23.2285 2.12847ZM14.2276 17.7703L22.2212 9.31986L8.2841 -3.86381L0.290485 4.58663L14.2276 17.7703ZM28.7956 3.19717L20.5735 -2.2842L9.93175 13.6784L18.1537 19.1598L28.7956 3.19717ZM8.46984 -1.08572L5.95756 1.42656L19.5232 14.9922L22.0355 12.4799L8.46984 -1.08572ZM11.736 17.749C11.6648 17.7415 11.7783 17.7511 12.0402 17.8104C12.285 17.8658 12.578 17.9464 12.8791 18.0517C13.1829 18.158 13.438 18.2696 13.6316 18.3718C13.8302 18.4765 13.8889 18.5317 13.8528 18.5012L26.2448 3.85575C21.7905 0.0867133 16.1157 -1.08063 13.7447 -1.33025L11.736 17.749ZM8.37755 9.41727L11.8708 13.0076L25.621 -0.370891L22.1277 -3.96122L8.37755 9.41727ZM28.3383 6.31836V5.01192H9.15358V6.31836H28.3383ZM18.7459 14.6043H20.9624V-4.58042H18.7459V14.6043ZM14.0873 15.2856L16.5996 17.8677L30.3497 4.48922L27.8375 1.90714L14.0873 15.2856ZM11.37 5.01192V8.59639H30.5547V5.01192H11.37Z" fill="white" mask="url(#path-2-inside-1_1044_280)"/>
</svg>
