<svg width="24" height="25" viewBox="0 0 24 25" fill="none" xmlns="http://www.w3.org/2000/svg">
<path d="M22.3921 10.4718L23.6125 11.6921C24.1292 12.2089 24.1292 13.0444 23.6125 13.5556L12.9317 24.2419C12.415 24.7586 11.5795 24.7586 11.0683 24.2419L0.387534 13.5611C-0.129186 13.0444 -0.129186 12.2089 0.387534 11.6976L1.60788 10.4773C2.13009 9.95509 2.98213 9.96608 3.49335 10.4993L9.79844 17.1177L9.79844 1.31926C9.79844 0.588155 10.3866 -2.59857e-05 11.1177 -2.59217e-05L12.8768 -2.5768e-05C13.6079 -2.5704e-05 14.1961 0.588155 14.1961 1.31926L14.1961 17.1177L20.5066 10.4938C21.0179 9.95509 21.8699 9.94409 22.3921 10.4718Z" fill="black"/>
</svg>
