<svg width="329" height="63" viewBox="0 0 329 63" fill="none" xmlns="http://www.w3.org/2000/svg">
<mask id="mask0_1061_45" style="mask-type:luminance" maskUnits="userSpaceOnUse" x="0" y="0" width="329" height="63">
<path d="M0 0H329V62.8622H0V0Z" fill="white"/>
</mask>
<g mask="url(#mask0_1061_45)">
<path d="M274.671 49.7331C274.722 49.7331 274.765 49.7331 274.816 49.7331C274.816 49.8785 274.816 50.0133 274.816 50.1614C274.765 50.1614 274.722 50.1614 274.671 50.1614C274.671 50.0133 274.671 49.8678 274.671 49.7331ZM252.726 55.1027C253.187 54.7578 253.51 54.518 254.051 54.1112C253.372 54.1112 252.998 54.1112 252.505 54.1112C252.58 54.4453 252.632 54.6851 252.726 55.1027ZM240.707 53.963C241.022 54.2998 241.106 54.4668 241.168 54.4561C241.378 54.4237 241.574 54.3402 241.774 54.2675C241.512 54.1947 241.251 54.122 240.707 53.963ZM251.826 55.3344C251.88 55.3344 251.92 55.3344 251.974 55.3344C251.974 55.1862 251.974 55.0515 251.974 54.906C251.92 54.906 251.88 54.906 251.826 54.906C251.826 55.0407 251.826 55.1862 251.826 55.3344ZM281.568 46.7128C281.619 46.7128 281.662 46.7128 281.713 46.7128C281.713 46.5646 281.713 46.4299 281.713 46.2844C281.662 46.2844 281.619 46.2844 281.568 46.2844C281.568 46.4191 281.568 46.5646 281.568 46.7128ZM283.586 45.4169C283.909 45.3522 284.41 45.6243 284.443 44.9885C284.117 45.0504 283.615 44.7676 283.586 45.4169ZM282.718 45.8453C282.707 45.8345 282.686 45.8129 282.675 45.8021C282.559 45.9072 282.446 46.0015 282.319 46.1066C282.363 46.147 282.414 46.2009 282.457 46.2413C282.559 46.1255 282.654 46.0123 282.759 45.8857C282.748 45.8749 282.737 45.8641 282.718 45.8453C283.052 45.7914 283.543 46.0635 283.575 45.4169C283.26 45.4788 282.759 45.2067 282.718 45.8453ZM287.608 43.6926C287.659 43.6926 287.703 43.6926 287.754 43.6926C287.754 43.5444 287.754 43.4097 287.754 43.2642C287.703 43.2642 287.659 43.2642 287.608 43.2642C287.608 43.4097 287.608 43.5444 287.608 43.6926ZM275.444 48.5826C275.455 48.6554 275.465 48.7173 275.476 48.7928C275.716 48.7928 275.956 48.7928 276.187 48.7928C276.166 48.6661 276.155 48.5395 276.144 48.4156C275.904 48.4775 275.673 48.5314 275.444 48.5826ZM76.4331 48.5206C76.1906 48.6338 76.0236 48.8951 75.8269 49.0945C75.8997 49.1888 75.9832 49.2723 76.0559 49.3666C76.4331 49.1565 76.7968 48.949 77.6024 48.4991C76.8911 48.4991 76.619 48.4263 76.4331 48.5206ZM28.4243 46.1362C28.5698 46.1362 28.7072 46.1362 28.8527 46.1362C28.8527 46.085 28.8527 46.0419 28.8527 45.9907C28.7072 45.9907 28.5698 45.9907 28.4243 45.9907C28.4243 46.0419 28.4243 46.085 28.4243 46.1362ZM94.8456 14.0019C94.8456 13.9939 94.8456 13.9939 94.8456 14.0019C95.107 13.94 95.3791 13.8888 95.6485 13.8349C95.6404 13.7406 95.6296 13.649 95.6189 13.5547C95.3467 13.5736 95.0639 13.6059 94.7917 13.6274C94.8025 13.7406 94.8025 13.8457 94.8133 13.9615C94.8025 13.9507 94.781 13.9292 94.7729 13.9184C94.657 14.0235 94.5412 14.1178 94.4172 14.2229C94.4576 14.2633 94.5115 14.3172 94.5519 14.3576C94.6462 14.2336 94.7405 14.1178 94.8456 14.0019ZM79.2836 46.993C79.4318 46.993 79.5665 46.993 79.712 46.993C79.712 46.9418 79.712 46.8987 79.712 46.8475C79.5665 46.8475 79.4318 46.8475 79.2836 46.8475C79.2836 46.8987 79.2836 46.9526 79.2836 46.993ZM80.2886 46.7128C80.3398 46.7128 80.3829 46.7128 80.4341 46.7128C80.4341 46.5646 80.4341 46.4299 80.4341 46.2844C80.3829 46.2844 80.3398 46.2844 80.2886 46.2844C80.2886 46.4191 80.2886 46.5646 80.2886 46.7128ZM241.095 51.8427C240.761 52.5 239.715 52.6779 240.26 53.7232C240.801 53.4619 241.283 53.2329 242.057 52.8557C241.639 52.4084 241.386 52.1471 241.095 51.8427ZM241.2 50.5898C241.146 50.5898 241.106 50.5898 241.052 50.5898C241.052 50.7353 241.052 50.87 241.052 51.0182C241.106 51.0182 241.146 51.0182 241.2 51.0182C241.2 50.87 241.2 50.7353 241.2 50.5898ZM136.321 36.7953C136.375 36.7953 136.415 36.7953 136.469 36.7953C136.469 36.6498 136.469 36.5124 136.469 36.3669C136.415 36.3669 136.375 36.3669 136.321 36.3669C136.321 36.5124 136.321 36.6579 136.321 36.7953ZM82.2527 45.3738C82.2527 45.3845 82.2635 45.3845 82.2527 45.3738C81.9914 45.4357 81.7192 45.4896 81.4471 45.5408C81.4579 45.6351 81.4687 45.7294 81.4795 45.8237C81.7516 45.8021 82.0318 45.7725 82.3039 45.751C82.2931 45.6351 82.2931 45.53 82.285 45.4169C82.2931 45.4276 82.3147 45.4465 82.3254 45.4573C82.4413 45.3522 82.5545 45.2606 82.6811 45.1555C82.638 45.1124 82.5868 45.0612 82.5464 45.0181C82.4521 45.1447 82.3578 45.2606 82.2527 45.3738ZM288.716 42.7927C288.6 42.887 288.487 42.992 288.371 43.0863C288.414 43.1268 288.465 43.1806 288.505 43.2211C288.611 43.1079 288.705 42.992 288.799 42.8762C288.915 42.7819 289.028 42.6768 289.144 42.5852C289.104 42.5421 289.05 42.4909 289.009 42.4478C288.915 42.5529 288.81 42.6768 288.716 42.7927ZM242.14 52.0636C242.474 51.7699 242.631 51.6864 242.62 51.6244C242.59 51.4143 242.507 51.2149 242.431 51.0182C242.358 51.2796 242.286 51.5409 242.14 52.0636ZM242.892 53.5885C243.102 53.5562 243.299 53.4727 243.498 53.3999C243.237 53.3272 242.975 53.2544 242.431 53.0982C242.746 53.443 242.83 53.5993 242.892 53.5885ZM86.9649 43.7761C86.8518 43.8165 86.7252 43.8596 86.6093 43.9C86.6847 43.9216 86.7575 43.9431 86.8302 43.9647C86.9245 43.9539 87.008 43.9431 87.132 43.9539C87.0592 43.8811 87.0188 43.8273 86.9649 43.7761ZM140.92 32.9183C140.92 33.0637 140.92 33.2011 140.92 33.3466C140.909 33.3359 140.898 33.3251 140.877 33.3035C140.764 33.4086 140.648 33.5029 140.521 33.608C140.564 33.6484 140.615 33.7023 140.659 33.7427C140.764 33.6295 140.858 33.5137 140.96 33.3871C140.95 33.3763 140.931 33.3574 140.92 33.3466C141.036 33.3035 141.16 33.2523 141.276 33.2092C141.16 33.1176 141.036 33.0126 140.92 32.9183ZM238.721 41.2893C238.681 41.2462 238.63 41.195 238.586 41.1519C238.492 41.2677 238.387 41.3836 238.293 41.4967C238.18 41.591 238.064 41.6961 237.948 41.8012C237.991 41.8416 238.042 41.8955 238.085 41.9359C238.18 41.82 238.285 41.7069 238.376 41.591C238.481 41.486 238.597 41.3836 238.721 41.2893ZM242.202 28.1845C242.348 28.0363 242.485 27.9016 242.631 27.7561C242.485 27.7561 242.348 27.7561 242.202 27.7561C242.202 27.8908 242.202 28.0363 242.202 28.1845ZM328.96 17.4937C328.51 17.7847 328.049 17.9625 327.78 18.2993C327.548 18.5902 327.537 19.051 327.413 19.5305C327.119 19.5521 326.785 19.5736 326.608 19.5844C324.778 20.6379 324.361 22.928 322.386 23.6689C322.491 23.774 322.585 23.8683 322.774 24.0569C321.852 24.8193 320.933 25.5818 320.327 26.0722C319.336 26.6056 318.697 26.9505 317.997 27.3277C317.078 27.4947 317.579 25.8 316.501 26.0533C316.596 26.4817 316.679 26.8885 316.774 27.3061C316.784 27.2954 316.806 27.2738 316.817 27.263C316.93 27.3681 317.046 27.4624 317.172 27.5675C317.129 27.6079 317.078 27.6618 317.035 27.7022C316.93 27.589 316.838 27.4732 316.733 27.3465C316.744 27.3385 316.755 27.3277 316.774 27.3061C316.345 27.4624 315.688 26.9101 315.488 27.7345C315.3 27.5055 315.114 27.2738 314.831 26.9397C314.632 26.9397 314.298 26.9397 313.826 26.9397C313.953 27.2011 314.068 27.4516 314.265 27.8504C313.796 28.1198 313.306 28.3919 312.635 28.7799C312.541 28.2464 312.479 27.8692 312.385 27.3573C311.832 27.651 311.288 27.9447 310.693 28.2572C310.892 28.497 311.016 28.6425 311.194 28.8634C310.765 29.1355 310.326 29.4157 309.698 29.8145C310.221 29.8549 310.547 29.8764 310.975 29.9088C311.183 29.5935 311.423 29.2406 311.684 28.8526C312.49 29.0709 313.128 29.2487 313.786 29.4265C313.002 31.0161 311.466 30.9622 310.348 31.6115C309.437 31.4122 309.459 30.6712 309.354 30.0219C308.99 29.8441 308.645 29.6878 308.246 29.4993C308.206 29.6878 308.163 29.8872 308.09 30.1998C307.379 30.4719 306.576 30.7655 305.708 31.0889C305.487 30.8787 305.186 30.5985 304.903 30.3372C304.173 30.5258 303.45 30.7036 302.615 30.911C302.604 30.9622 302.551 31.1508 302.499 31.361C301.403 31.5172 300.085 31.3394 299.73 33.0314C299.396 32.8455 299.113 32.6785 298.695 32.4468C298.674 32.8347 298.665 33.1688 298.644 33.6188C297.17 34.3705 295.602 35.0925 294.139 35.9789C293.616 36.3049 292.865 36.7414 293.25 38.102C292.948 37.8514 292.708 37.5146 292.466 37.1806C292.008 37.5362 291.62 37.8406 290.89 38.393C291.852 38.4576 292.374 38.4873 293.25 38.102C293.46 37.6413 293.867 37.6413 294.349 37.6413C294.36 38.886 293.595 38.9372 292.811 38.9588C292.259 39.5111 291.704 40.0661 291.275 40.4945C290.752 40.6615 290.346 40.7343 290.001 40.9229C288.716 41.6018 287.441 42.3023 286.186 43.0217C285.978 43.1483 285.873 43.4528 285.728 43.671C285.068 43.7761 284.294 43.3773 283.731 44.1209C283.626 43.838 283.543 43.5875 283.438 43.3046C283.165 43.442 282.896 43.5767 282.602 43.7222C282.414 43.5659 282.258 43.442 282.029 43.2534C281.172 44.3823 279.949 44.6948 279.038 44.579C277.001 45.1124 275.622 46.085 274.118 46.7855C273.073 47.2759 271.944 47.4537 270.95 47.9872C270.427 48.2701 270.354 48.4479 270.397 49.2723C270.554 49.1376 270.699 49.0002 270.793 48.9167C271.316 49.2723 271.828 49.6064 272.329 49.9513C272.216 50.0779 272.079 50.2234 271.955 50.3689C272.089 50.5252 272.216 50.6733 272.413 50.9131C270.982 51.1421 269.624 51.3631 268.107 51.6029C267.574 52.166 266.811 52.5836 265.788 52.7829C264.64 53.0146 263.457 53.2329 262.35 53.8283C261.566 54.2459 260.625 54.5692 259.602 54.4857C258.327 54.3725 257.031 54.4561 255.703 54.4561C255.318 53.8795 254.941 53.3164 254.534 52.721C252.831 53.3595 251.169 53.9846 249.568 54.5908C249.506 54.8737 249.477 55.0731 249.455 55.1566C248.806 55.0299 248.232 54.9249 247.709 54.8225C247.27 55.2078 246.914 55.5311 246.78 55.6469C245.117 55.4799 243.749 55.3425 242.253 55.197C242.14 55.0299 241.952 54.7471 241.752 54.4561C242.485 54.4857 243.237 54.5504 243.477 53.5993C243.854 53.505 244.228 53.3999 244.659 53.2948C244.772 53.3784 244.993 53.5266 245.327 53.7663C245.618 53.2221 245.861 52.7722 246.122 52.2818C246.006 52.1148 245.901 51.9477 245.777 51.7591C246.184 51.0478 246.068 50.2557 246.028 49.4609C245.829 49.2616 245.618 49.0514 245.484 48.9167C244.648 49.24 243.854 49.5445 243.059 49.8462C243.215 50.1183 243.353 50.3473 243.477 50.5683C243.194 50.7138 242.903 50.8512 242.62 50.9967C242.191 50.641 241.752 50.2854 241.313 49.9297C241.461 49.7842 241.564 49.6792 241.658 49.5849C241.262 49.1996 240.855 48.8008 240.456 48.4156C240.405 48.2997 240.362 48.1758 240.311 48.0599C240.216 48.1758 240.122 48.2997 240.039 48.4371C240.028 48.4263 240.006 48.4048 239.977 48.3725C239.861 48.4775 239.748 48.5718 239.621 48.6769C239.661 48.7173 239.715 48.7712 239.756 48.8116C239.861 48.6985 239.955 48.5826 240.039 48.4371C240.165 48.4156 240.3 48.4156 240.445 48.4156C240.561 49.8785 239.454 50.9535 239.516 52.3977C239.349 52.3977 239.182 52.3977 239.015 52.4084C238.398 51.3415 237.74 50.3069 237.175 49.2104C236.997 48.8655 236.862 48.2889 237.029 48.0195C237.646 47.0361 237.352 45.98 237.406 44.9454C237.417 44.9562 237.436 44.9777 237.468 45.0073C237.584 44.905 237.697 44.8107 237.824 44.7056C237.781 44.6625 237.73 44.6113 237.687 44.5709C237.584 44.684 237.49 44.7999 237.406 44.9454C236.528 45.0397 237.363 46.0123 236.663 46.2844C236.663 45.5731 236.663 44.905 236.663 44.1614C236.989 44.1614 237.323 44.1614 237.864 44.1614C237.74 43.7033 237.646 43.3665 237.552 43.0136C239.81 41.6746 240.895 39.5757 240.939 36.9004C242.046 36.7225 243.018 36.4396 243.018 35.0602C242.474 35.2488 241.992 35.8442 241.345 35.3215C242.035 34.5159 242.736 33.7131 243.477 32.8455C243.614 32.9587 243.781 33.0637 243.875 33.2092C243.967 33.3763 243.988 33.5864 244.083 33.899C244.449 32.6785 245.64 32.0184 245.608 30.744C245.379 30.8787 245.16 31.0053 244.929 31.14C244.878 31.0377 244.805 30.9218 244.667 30.6712C244.899 30.4207 245.16 30.127 245.546 29.6986C245.756 29.96 245.891 30.1378 246.036 30.3156C246.842 29.8549 246.696 28.7368 247.531 28.2141C247.636 28.2976 247.782 28.4027 247.919 28.5185C248.358 28.2895 248.816 28.0578 249.288 27.8073C249.935 28.497 250.781 28.0066 251.481 28.1737C251.993 27.1499 251.284 26.7619 250.824 26.2608C251.263 25.8324 251.22 24.9648 252.066 24.9352C252.066 24.6523 252.066 24.3694 252.066 24.0676C252.998 23.1354 253.927 22.2059 254.857 21.2656C254.763 21.1498 254.679 21.0366 254.585 20.9208C253.311 21.4435 252.047 21.9661 250.686 22.5292C250.49 22.4268 250.196 22.2679 249.506 22.4053C249.477 22.3326 249.695 22.1332 250.04 21.7991C249.633 21.7668 249.361 21.7479 249.037 21.7156C249.067 22.0604 249.078 22.249 249.506 22.4053C249.905 22.3326 249.905 22.54 249.905 22.7609C248.431 23.3025 247.677 25.3205 245.64 24.6092C245.608 25.2989 245.578 25.7812 245.567 26.0937C244.856 26.6676 244.228 27.1795 243.549 27.7345C243.277 27.7345 242.932 27.7345 242.579 27.7345C242.579 27.589 242.579 27.4516 242.579 27.3061C242.431 27.4516 242.296 27.589 242.151 27.7345C241.879 27.7857 241.607 27.8288 241.335 27.88C241.345 27.9743 241.356 28.0686 241.367 28.1629C241.628 28.1629 241.89 28.1629 242.159 28.1629C241.502 28.726 240.844 29.2918 240.3 29.7525C239.193 29.9088 238.19 30.0543 237.269 30.189C236.612 31.4337 235.776 32.2393 234.699 32.9479C233.529 33.7211 232.139 34.1091 231.061 35.0494C230.353 35.6772 229.547 36.2106 228.774 36.8061C228.785 36.7953 228.806 36.7737 228.836 36.7414C228.731 36.6282 228.637 36.5124 228.534 36.3884C228.491 36.4289 228.44 36.48 228.397 36.5232C228.513 36.6282 228.628 36.7225 228.774 36.8061C229.046 37.3072 228.125 37.7975 228.774 38.3633C227.696 38.7594 226.683 39.239 225.67 39.7509C224.97 40.1065 225.115 41.1734 224.156 41.2138C223.779 41.2246 223.412 41.4752 222.661 41.7689C222.065 42.6148 221.249 43.7868 220.435 44.9562C219.975 44.9562 219.546 44.9562 219.253 44.9562C218.617 45.4357 218.021 45.8021 217.52 46.2736C217.092 46.6697 216.82 47.2436 216.38 47.6423C216.108 47.8929 215.658 47.9548 214.958 48.227C214.761 48.4668 214.322 48.9894 213.662 49.7842C213.255 49.8893 212.482 50.0968 211.604 50.3393C211.604 50.5683 211.604 50.9024 211.604 51.1853C210.884 51.7484 210.079 52.1471 209.618 52.7937C209.179 53.4107 208.228 53.3056 207.999 54.2351C207.915 54.5611 206.975 54.7471 206.401 54.8737C205.919 54.9788 205.396 54.8952 204.822 54.8952C203.744 56.3986 202.114 56.2747 200.495 56.1481C199.932 55.7628 199.366 55.3856 198.709 54.9356C195.928 54.9895 195.05 54.4022 194.686 51.9154C194.131 51.5705 193.452 51.1637 192.814 50.7676C192.887 50.1507 192.973 49.3774 193.086 48.2782C192.658 48.5934 192.501 48.8008 192.291 48.8547C192.03 48.9167 191.728 48.8763 191.416 48.8763C191.321 48.6149 191.238 48.3644 191.154 48.1434C190.672 48.2593 190.192 48.3832 189.699 48.4991C189.648 48.4048 189.597 48.3105 189.543 48.2162C189.92 47.9333 190.297 47.6531 190.745 47.3082C190.755 47.0253 191.195 46.4811 190.389 46.2952C190.516 46.0527 190.642 45.8021 190.828 45.4357C190.464 45.4357 190.214 45.4357 189.961 45.4357C189.961 45.2902 189.961 45.1555 189.961 45.0073C189.815 45.1555 189.68 45.2902 189.532 45.4357C189.419 45.4896 189.292 45.53 189.179 45.5839C189.292 45.6782 189.419 45.7725 189.532 45.8749C189.575 46.5242 190.066 46.2413 190.389 46.3033C190.182 47.0684 189.616 47.2247 188.926 47.16C187.234 45.1663 188.958 43.1995 189.125 40.9121C188.552 41.257 188.236 41.4563 187.924 41.6449C187.913 41.6449 186.889 42.6795 186.878 42.6795C185.76 42.5421 185.208 43.7033 184.101 43.8165C183.19 43.9108 182.522 45.0181 181.433 45.1447C181.172 45.1771 180.954 45.6243 180.714 45.8857C180.568 45.7402 180.463 45.6351 180.358 45.53C179.941 45.6567 179.512 45.7914 178.823 46.0015C178.612 46.2844 178.238 46.8071 177.995 47.1412C177.233 47.1412 176.805 47.1412 176.355 47.1412C176.22 47.4214 176.085 47.7151 175.948 48.0087C175.77 47.8498 175.614 47.7043 175.458 47.5696C174.286 47.7474 174.183 48.9383 173.44 49.6576C173.167 49.6576 172.833 49.6576 172.426 49.6576C172.343 50.1183 172.27 50.5063 172.165 50.9967C170.096 51.3927 168.8 52.9715 167.254 54.5396C167.086 54.1408 166.93 53.7448 166.69 53.1601C166.073 54.0897 165.75 54.58 165.33 55.2185C164.422 55.259 163.794 55.8032 163.169 56.6384C162.415 57.6434 161.714 58.8962 160.305 59.1899C159.656 59.3246 159.699 60.537 158.769 60.079C158.287 60.6528 157.576 60.3592 157.023 60.5478C156.406 60.7579 155.873 61.259 155.216 61.6874C155.121 61.6255 154.922 61.4988 154.693 61.3533C154.181 61.6443 153.669 61.9784 153.125 62.2101C152.635 62.4176 152.08 62.4715 151.589 62.6681C151.045 62.8891 150.533 61.9488 149.938 62.7436C148.558 61.9596 147.168 61.1755 145.592 60.2649C145.592 59.9308 145.592 59.3973 145.592 58.8558C145.099 58.7911 144.765 58.7615 144.253 58.6995C144.336 58.1957 144.409 57.7053 144.503 57.1207C144.274 56.7758 143.94 56.2747 143.585 55.752C143.334 55.752 143.04 55.752 142.55 55.752C142.717 55.426 142.852 55.1754 143.03 54.8413C142.895 54.6635 142.739 54.4453 142.582 54.2244C142.695 54.1004 142.841 53.9442 143.04 53.7232C142.946 53.5158 142.833 53.2733 142.685 52.95C142.768 52.7318 142.895 52.3977 143.051 51.9881C142.528 51.9154 142.132 51.8534 141.715 51.7915C141.723 51.5301 141.734 51.3307 141.755 50.9751C141.984 51.1421 142.122 51.2472 142.372 51.425C142.749 51.029 143.135 50.6087 143.69 50.0133C143.197 49.8166 142.916 49.7007 142.477 49.5121C142.612 49.0433 142.757 48.5503 142.935 47.9548C143.625 47.9548 144.148 47.9548 144.681 47.9548C143.334 47.3918 141.922 47.6827 140.459 47.4968C140.136 44.905 140.95 42.7091 142.644 40.7343C143.073 40.2331 143.523 39.7832 144.035 39.4383C145.611 38.3633 146.928 36.93 148.663 36.0732C148.841 35.9897 149.04 35.9385 149.28 35.855C149.436 35.5613 149.614 35.1949 149.749 34.9443C149.614 34.4755 149.488 34.0256 149.353 33.546C149.698 33.4302 149.938 33.3466 150.261 33.2416C150.261 32.8563 150.261 32.4468 150.261 32.2689C150.972 31.0161 151.568 29.9707 152.152 28.9469C151.767 28.6425 151.473 28.4135 151.193 28.1845C151.516 28.1225 152.018 28.3919 152.05 27.7561C151.724 27.818 151.223 27.5459 151.193 28.1845C150.649 28.206 150.053 28.0066 149.644 28.664C149.552 28.3731 149.469 28.1306 149.374 27.8611C149.28 27.88 149.132 27.88 149.092 27.9447C148.736 28.4647 148.391 28.9981 147.901 29.7417C147.796 29.219 147.753 29.0305 147.691 28.6856C147.367 28.664 146.979 28.6425 146.626 28.6236C146.5 28.9685 146.416 29.219 146.322 29.4696C146.082 29.3133 145.872 29.1652 145.632 28.9981C145.171 29.3133 144.743 29.6367 144.296 29.9196C143.792 30.2321 143.102 30.4099 142.801 30.8598C142.496 31.3179 141.599 30.8895 141.672 31.8513C141.715 32.4279 140.513 31.6008 140.427 32.5114C140.074 32.5114 139.708 32.5114 139.206 32.5114C138.767 34.2762 137.083 34.7773 135.715 35.5829C135.715 36.1055 135.715 36.5339 135.715 36.7737C135.119 37.3691 134.629 37.8703 133.961 38.5304C133.969 38.5304 133.689 38.5411 133.406 38.5492C133.029 39.3656 132.088 39.5838 131.576 40.2655C130.868 40.2655 130.146 40.2655 129.289 40.2655C129.257 40.5888 129.235 40.9229 129.184 41.424C128.233 41.4455 127.427 41.8632 127.209 42.9301C127.166 43.1079 127.354 43.3369 127.521 43.7114C126.331 43.609 125.274 43.8273 124.493 44.7891C124.493 45.0289 124.493 45.3226 124.493 45.6055C124.073 45.8345 123.677 46.0527 123.27 46.2844C121.931 45.7914 120.896 46.3141 120.01 47.9872C119.862 47.8713 119.716 47.7582 119.538 47.6208C118.62 48.3832 117.669 49.1457 116.747 49.9513C116.634 50.0564 116.674 50.3393 116.653 50.4632C116.09 50.6302 115.599 50.7757 115.106 50.9239C115.015 50.8296 114.92 50.7353 114.689 50.5063C114.678 52.0205 113.237 51.9881 112.496 52.7318C111.9 53.3164 111.011 53.6182 110.259 54.0573C108.858 54.8737 107.468 55.6873 105.838 56.6384C105.577 56.6384 105.003 56.6384 104.23 56.6384C104.081 56.4202 103.852 56.0753 103.58 55.6685C103.413 56.0861 103.308 56.3259 103.163 56.6923C101.878 56.2019 100.592 55.6981 99.0971 55.135C99.0864 55.0192 99.0675 54.6851 99.0244 54.184C98.2404 54.184 97.6153 53.7044 96.9768 53.2221C96.3275 52.7318 96.0877 51.9046 95.4303 51.549C95.1177 51.7079 94.8241 51.8427 94.3957 52.0528C94.3957 51.5409 94.3957 51.2068 94.3957 50.7461C93.089 50.4309 91.8146 50.7676 90.4244 50.5252C91.8873 49.566 93.423 49.7842 95.0423 49.7519C95.0854 49.5229 95.107 49.2723 95.1689 49.0326C95.2417 48.782 95.3467 48.5395 95.5246 48.0815C95.4195 47.998 95.1905 47.7986 94.9696 47.61C94.7729 47.7663 94.6247 47.8821 94.4684 48.0087C94.3526 47.7043 94.2583 47.4537 94.1667 47.2032C93.7679 47.486 93.3934 47.7582 93.0162 48.0195C93.027 48.0276 93.0486 48.0491 93.0566 48.0599C92.9543 48.1758 92.86 48.2889 92.7549 48.4156C92.7118 48.3725 92.6606 48.3213 92.6202 48.2782C92.7333 48.1758 92.8492 48.0815 92.9731 47.9764C92.9839 47.9872 92.9947 47.998 93.0054 48.0087C92.86 47.5803 92.7225 47.152 92.5555 46.702C92.5663 46.7128 92.5878 46.7424 92.6202 46.764C92.7333 46.6589 92.8492 46.5646 92.9731 46.4622C92.9327 46.4191 92.8788 46.3679 92.8384 46.3248C92.7333 46.4407 92.639 46.5538 92.5555 46.702C91.9304 46.8906 91.2919 47.0577 90.7369 47.1924C90.2573 47.7986 89.7966 48.3725 89.2551 49.0433C88.8994 48.7712 88.6381 48.5718 88.2824 48.2997C88.7108 47.7582 89.0557 47.1196 89.5784 46.7424C90.1522 46.3356 90.6022 45.8964 90.78 45.0828C90.551 45.1959 90.3301 45.3522 90.0903 45.4061C89.7777 45.4788 89.441 45.4681 89.1284 45.5004C89.1284 45.7806 89.1284 45.9288 89.1284 46.2629C88.8051 46.0958 88.5734 45.9288 88.3228 45.856C88.0211 45.7725 87.6978 45.7617 87.2155 45.7078C87.4768 45.2498 87.6331 44.9777 87.8648 44.5709C87.2586 44.5709 86.7252 44.5709 85.8576 44.5709C86.1513 44.1937 86.3372 43.9943 86.7656 43.9539C86.9353 43.9943 87.07 44.0159 87.07 43.9431C87.299 43.8596 87.2155 43.7033 87.1535 43.7114C87.07 43.7222 86.9865 43.7545 86.903 43.7761C86.5689 43.4312 86.5473 43.2318 86.5473 42.992C86.3183 42.9193 86.0758 42.8358 85.6906 42.7091C85.6906 42.3535 85.6906 41.9467 85.669 41.5183C85.6798 41.5291 85.7013 41.5506 85.731 41.5803C85.8468 41.4752 85.9627 41.3836 86.0866 41.2785C86.0462 41.2354 85.9923 41.1842 85.9519 41.1411C85.8468 41.257 85.7525 41.3728 85.669 41.5183C84.0605 42.4909 82.5976 43.6818 80.9352 44.6005C79.6177 45.3226 78.5104 46.4515 77.1525 47.5265C76.223 47.7043 75.1992 48.2485 74.5094 49.1996C73.8413 50.1183 73.3374 51.1529 72.7636 52.1363C72.5534 52.4812 72.3459 52.826 72.125 53.1601C71.7505 53.734 70.7995 53.567 70.5893 54.4237C70.4546 54.9895 70.0882 55.4907 69.8376 56.0026C69.9642 56.2019 70.1097 56.4202 70.2552 56.6303C69.7029 57.3928 69.2098 58.0825 68.2184 57.9343C67.79 58.3627 67.3831 58.7723 66.9628 59.1899C66.4105 59.1899 65.834 59.1899 65.314 59.1899C64.697 60.0359 64.1015 60.8522 63.3795 61.8329C62.9727 61.709 62.4069 61.5419 61.7495 61.3533C61.5097 61.6874 61.2483 62.0619 60.8819 62.5765C60.4535 62.5765 59.8258 62.5765 59.1253 62.5765C58.6349 62.0835 58.0799 61.5312 57.5168 60.9654C55.6578 59.9523 53.4943 59.6479 51.2688 58.4894C52.1768 58.1553 52.7318 57.9451 53.4727 57.6649C52.5729 57.3281 51.7592 57.506 50.986 57.4871C50.1588 57.4655 49.294 57.2769 48.6042 58.0098C45.9693 56.3367 43.9836 54.2351 43.0325 51.2903C42.7308 50.3393 41.9468 49.5741 41.9764 48.4775C41.9872 48.2782 41.6019 48.0707 41.2031 47.6746C41.3513 45.6971 41.5184 43.5444 41.6854 41.3405C43.0864 40.2951 43.1888 38.8429 42.9382 37.1078C40.8798 38.0481 38.9588 38.9372 37.2237 40.2116C36.0302 41.0899 35.0387 42.3239 33.3871 42.3858C32.5196 43.4608 30.9946 43.5255 30.0948 44.5385C29.1545 44.2341 28.7988 45.2283 28.1414 45.53C27.2631 45.9503 26.4279 46.597 25.5927 47.16C24.7359 47.7366 24.1189 48.5718 24.0354 49.7331C23.9923 50.3069 23.6905 50.87 23.3753 51.8534C23.2514 51.0478 23.1894 50.6733 23.1355 50.2854C22.4161 50.8512 21.9662 51.9989 21.9042 53.4107C21.2657 53.8714 20.5975 54.3402 19.9186 54.8225C19.0914 53.8714 20.5248 52.95 20.1153 51.9154C19.3312 52.6698 19.3312 52.6698 19.3124 55.2509C18.9864 55.2697 18.6523 55.3021 18.1296 55.3425C17.8278 55.7197 17.4291 56.21 17.2621 56.4202C16.0308 56.6492 15.174 56.8162 14.2418 56.9941C14.1798 56.6088 14.1286 56.21 14.064 55.814C14.002 55.8032 13.9293 55.8032 13.8673 55.7924C13.8053 56.1373 13.7407 56.4821 13.6571 56.9429C12.8947 56.9429 12.081 56.9429 11.0976 56.9429C11.0976 56.1265 11.0976 55.3021 11.0976 54.4776C11.0141 54.4668 10.9306 54.4561 10.8363 54.4453C10.5965 55.1135 10.3648 55.7924 10.1034 56.5253C9.7909 56.5253 9.40563 56.5253 8.83983 56.5253C9.23858 55.6873 9.57267 54.9788 9.91753 54.2459C9.3221 54.0492 8.81828 53.8795 8.23363 53.6936C8.12855 53.796 7.93187 53.9846 7.84835 54.0681C7.96151 54.7902 8.05581 55.426 8.18244 56.2208C5.91388 55.1566 4.03329 53.963 2.50835 51.9801C2.50835 51.5598 2.50835 50.9347 2.50835 50.2342C2.09882 50.2342 1.76474 50.2342 1.44143 50.2342C0.991488 48.8547 0.468805 47.5588 0.134718 46.2009C0.0404194 45.8345 4.79072e-06 45.3522 0.167049 45.0504C0.700509 44.0671 1.1289 43.2211 0.479581 42.0194C0.218239 41.5398 0.751701 40.6292 0.961852 39.9206C1.06423 39.5326 1.24205 39.1662 1.49262 38.5088C2.13116 37.776 3.48906 36.9839 2.69695 35.1545C2.92596 34.9982 3.29238 34.7369 3.80428 34.3812C3.939 34.0876 4.15992 33.5972 4.39971 33.0637C4.74458 32.8967 5.16218 32.6973 5.60135 32.4683C5.59057 32.4791 5.55824 32.5006 5.53938 32.5303C5.64176 32.6461 5.73606 32.762 5.84113 32.8859C5.88424 32.8455 5.93543 32.7916 5.97585 32.7512C5.86269 32.6461 5.74684 32.5518 5.60135 32.4683C6.32071 30.4315 8.20399 30.0219 9.99028 29.4804C10.68 29.2702 11.3913 29.1355 12.434 28.8742C11.8709 28.435 11.588 28.2141 11.3158 28.0066C11.4425 27.589 11.588 27.096 11.7038 26.7107C12.2481 26.312 12.7492 25.9779 13.218 25.5926C14.5355 24.5257 16.1035 23.879 17.5045 22.9388C17.6716 22.8229 17.8683 22.5616 17.9949 22.5939C19.5629 22.9899 20.3577 21.3923 21.7561 21.1821C22.9469 21.0043 24.0974 20.231 25.1427 19.5305C26.6677 18.5175 28.4028 18.0164 30.0032 17.2323C30.701 16.8875 31.6413 17.4317 32.0912 16.5426C34.1307 16.7716 35.6341 15.3922 37.4016 14.7967C38.9885 14.2525 40.5565 13.6571 42.2593 13.5116C42.8547 13.4604 43.504 13.3661 44.0052 13.0724C45.5301 12.2049 47.1709 12.1941 48.8332 12.2372C49.2616 12.248 49.69 12.2372 50.1292 12.2372C51.2365 11.1406 52.616 10.8982 54.1005 10.9305C54.7067 10.2839 55.4584 10.0737 56.3367 10.0629C57.2878 10.0522 58.1661 9.41633 59.1792 9.64534C59.7746 9.78005 60.432 9.4271 60.9762 10.0225C61.1433 10.2004 61.7387 10.2084 62 10.0522C63.0562 9.41633 64.1851 9.73964 65.3032 9.62378C66.0657 8.78857 66.9736 8.29821 68.1968 8.31707C68.8542 8.32785 69.5251 7.91024 70.1717 7.95335C70.9153 7.99376 71.4892 7.62735 72.1466 7.47108C72.3244 7.43067 72.4699 7.20974 72.5561 7.13699C73.3698 7.77553 74.5606 8.25511 74.9055 9.09032C75.3878 10.2408 76.8292 10.0414 77.0905 11.1514C77.1525 11.631 77.0582 12.2372 77.3088 12.5605C78.4592 14.0019 77.9581 15.3302 77.2145 16.6881C76.7457 17.5664 76.3173 18.4663 75.8673 19.3419C76.002 19.5009 76.1502 19.6572 76.2957 19.8134C75.7111 20.8804 74.7923 21.8826 74.6441 22.9899C74.4663 24.2751 72.9845 24.9136 73.3374 26.4898C74.7384 25.571 76.002 24.6307 77.3734 23.8683C78.9091 23.0115 80.162 21.7263 81.8243 21.1094C82.2015 20.972 82.576 20.848 83.1526 20.6486C84.6236 18.989 86.4126 17.4614 88.921 16.909C89.6403 16.7501 90.2465 16.0199 91.0413 15.4649C91.335 16.0523 91.564 16.4995 91.793 16.9494C92.0032 16.9494 92.2214 16.9494 92.6714 16.9494C92.5151 16.6665 92.41 16.4995 92.2834 16.2813C92.3696 16.187 92.4935 16.0415 92.639 15.8637C92.348 15.7263 92.0651 15.6023 91.7634 15.4568C92.4423 15.112 93.089 14.7752 93.7787 14.4222C93.8407 14.6081 93.9242 14.8398 94.0185 15.1416C94.8753 14.8803 95.732 14.6513 96.5807 14.3576C97.1546 14.1609 97.4779 13.7325 97.3836 13.0832C97.3728 13.094 97.3647 13.1048 97.3432 13.1263C97.2273 13.0212 97.1115 12.9269 96.9875 12.8219C97.028 12.7814 97.0818 12.7276 97.1223 12.6871C97.2273 12.8003 97.3216 12.9162 97.4267 13.0428C97.4159 13.0509 97.4052 13.0616 97.3944 13.0724C98.0625 12.7895 98.7119 12.3423 99.4016 12.2588C100.269 12.1429 100.269 11.4747 100.614 10.8982C100.832 10.9628 101.083 11.0248 101.438 11.1299C102.745 10.5964 102.745 10.5964 103.467 8.89364C104.125 8.64308 104.866 8.36018 105.62 8.08806C107.363 7.4603 109.015 6.60353 110.844 6.12396C112.18 5.76832 113.342 5.55008 114.605 6.17515C114.826 6.28022 115.139 6.18592 115.422 6.18592C116.195 7.9318 117.825 8.61075 119.153 9.62378C119.256 9.51871 119.35 9.4271 119.506 9.26814C119.999 9.82316 120.438 10.7527 121.001 10.8362C122.036 10.9925 121.575 12.5605 123.103 12.1106C122.036 13.5331 123.844 14.495 122.925 15.8933C122.348 16.7716 123.103 18.2238 122.34 19.2584C122.526 19.4686 122.664 19.6141 122.842 19.8027C122.497 20.0424 122.173 20.2741 121.524 20.7214C121.379 21.3384 121.139 22.311 120.907 23.2728C120.093 23.0411 120.384 24.3182 119.538 24.4125C119.005 24.4745 118.555 25.2989 117.876 25.959C119.07 25.7596 119.978 25.6141 121.044 25.4363C122.58 24.7035 124.24 23.8467 125.956 23.1166C126.508 22.8849 127.187 22.9684 127.449 22.9495C129.006 22.4996 129.739 21.1201 131.242 21.2441C131.474 20.5759 131.714 19.8862 131.986 19.1021C133.5 19.2584 134.629 18.5391 135.496 17.3482C135.631 17.4721 135.736 17.5664 135.914 17.7335C136.561 17.4102 137.242 17.0761 137.91 16.742C137.91 16.5103 137.91 16.3028 137.91 16.0927C137.9 16.1035 137.878 16.1142 137.867 16.1358C137.754 16.0307 137.638 15.9364 137.512 15.8313C137.555 15.7909 137.606 15.737 137.649 15.6966C137.754 15.8098 137.849 15.9256 137.951 16.0523C137.94 16.0603 137.932 16.0711 137.932 16.0711C138.266 15.8421 138.589 15.6131 138.945 15.3625C140.971 16.3863 141.976 14.724 143.291 13.5331C144.096 13.5331 145.015 13.5331 146.26 13.5331C145.947 13.1667 145.81 13.0105 145.527 12.6871C146.855 12.7383 147.879 12.3719 148.798 11.5151C149.237 11.1083 150.032 11.076 150.606 10.8901C150.878 10.4509 151.118 10.0414 151.371 9.62378C151.966 10.2839 152.446 9.56182 152.979 9.57259C153.459 9.59415 153.93 9.1954 154.504 9.12265C155.059 9.06069 155.571 8.59997 156.105 8.32785C156.584 8.08806 157.064 7.85905 157.942 7.41989C157.953 7.41989 158.435 7.41989 158.915 7.41989C158.936 7.34714 158.947 7.2744 158.966 7.19896C158.57 7.10466 158.174 7.01306 157.503 6.84601C158.465 6.28022 159.217 5.74676 160.044 5.39112C160.712 5.11092 161.485 4.88999 162.196 4.91154C163.649 4.95196 165.122 5.0274 166.523 5.36148C167.399 5.56894 168.153 6.25867 168.946 6.73016C168.727 7.02114 168.571 7.24207 168.277 7.62735C169.123 7.97221 169.835 8.25511 170.702 8.61075C171.225 9.2897 171.758 10.1465 171.403 11.2969C171.163 11.1811 170.964 11.0868 170.764 10.9925C170.713 11.1514 170.67 11.2754 170.608 11.4963C171.015 11.7657 171.454 12.0486 171.936 12.3611C171.788 12.5497 171.675 12.6871 171.537 12.865C171.653 12.9997 171.78 13.1452 171.893 13.2718C171.737 13.5547 171.58 13.8349 171.381 14.1798C171.748 14.3064 171.998 14.3899 172.437 14.5462C172.303 14.9638 172.114 15.3733 172.049 15.8017C171.966 16.354 171.958 16.9198 171.947 17.4829C171.925 17.9733 171.947 18.4744 171.947 19.0079C171.591 19.2396 171.246 19.447 170.681 19.8134C170.535 20.3253 170.306 21.0986 170.002 22.1547C169.95 22.2167 169.657 22.5211 169.377 22.8121C169.49 22.928 169.595 23.0331 169.689 23.1247C169.377 23.9006 169.061 24.6819 168.76 25.4363C168.1 25.8108 167.41 26.1988 166.731 26.5841C166.774 26.6892 166.814 26.7834 166.857 26.8885C167.138 26.805 167.41 26.7107 167.693 26.6272C168.644 26.3443 169.439 25.7084 170.473 25.4983C171.276 25.342 171.958 24.62 172.72 24.1916C173.472 23.774 174.234 23.3456 175.029 23.0223C175.948 22.6451 177.109 22.6047 177.81 21.9985C178.612 21.298 179.647 21.1821 180.453 20.4708C181.695 19.385 183.451 18.989 184.726 17.8385C185.135 17.4721 185.677 17.2647 186.032 16.8659C187.371 15.4353 189.042 14.5246 190.871 13.9831C192.418 13.5116 193.786 12.7814 195.082 11.8492C195.188 12.1321 195.271 12.3827 195.387 12.6979C196.473 12.4662 197.246 11.8708 197.893 10.9305C197.717 10.6907 197.548 10.4806 197.424 10.3027C198.229 8.71582 200.277 9.13343 201.446 7.51419C201.573 8.18236 201.624 8.47603 201.686 8.77779C201.947 8.77779 202.219 8.77779 202.459 8.77779C202.502 8.49489 202.586 8.33863 202.535 8.22278C202.451 8.03687 202.292 7.88869 202.168 7.71087C202.481 7.04269 202.909 6.96995 204.1 7.4603C204.394 6.24789 205.334 5.92458 206.452 5.72521C207.559 5.52853 208.783 5.36148 209.691 4.76606C210.717 4.09519 211.843 3.68836 212.859 3.02018C214.061 2.23616 215.397 1.76466 216.892 1.85896C218.083 1.94248 219.107 1.34705 220.12 0.856701C221.031 0.406762 221.815 0.533391 222.795 0.899809C224.051 0.64655 225.492 0.344794 227.133 0.0214844C226.487 0.805511 225.921 1.20156 224.77 1.7027C225.366 1.78622 225.721 1.90207 226.055 1.85896C227.863 1.69192 229.213 1.94248 230.593 3.02018C231.137 3.43779 231.91 3.63716 232.15 4.47238C232.223 4.75528 232.796 4.88999 233.225 5.14056C233.058 5.48542 232.88 5.84106 232.724 6.15629C233.268 7.12622 233.78 8.06651 234.313 9.03913C233.486 9.91746 234.647 10.4617 234.844 11.402C234.136 12.1941 234.491 13.5008 233.979 14.5462C233.457 15.6239 232.767 16.6154 232.128 17.6931C231.145 17.9005 230.121 18.1403 230.143 19.5521C230.132 19.5413 230.11 19.509 230.081 19.4901C229.965 19.5925 229.849 19.6868 229.725 19.7919C229.765 19.835 229.819 19.8862 229.86 19.9293C229.965 19.8134 230.059 19.6976 230.143 19.5521C230.415 19.6868 230.706 19.835 230.978 19.9805C232.201 19.5925 232.223 17.7442 233.769 17.817C233.915 17.9544 234.071 18.0999 234.238 18.2562C235.003 17.3051 235.889 16.6261 237.258 16.804C237.678 15.6643 238.775 15.6643 239.872 15.6427C240.111 15.112 240.362 14.5677 240.656 13.9184C240.979 14.0343 241.555 14.3279 241.607 14.2444C242.075 13.5736 242.264 14.4411 242.62 14.4007C242.986 14.3576 243.371 14.5677 243.811 14.6728C244.91 13.7217 245.756 12.0809 247.437 11.8492C248.42 11.7145 249.495 11.2969 250.678 11.6526C250.719 11.5367 250.791 11.3185 250.856 11.1299C251.336 10.9197 251.807 10.5641 252.308 10.5237C252.809 10.4806 253.343 10.7311 253.927 10.8793C254.2 10.7419 254.555 10.5749 254.973 10.3674C255.213 9.43519 255.474 8.58919 256.77 8.25511C257.743 8.00454 258.661 7.9318 259.634 7.89947C259.884 7.6489 260.135 7.38756 260.426 7.0858C261.086 7.0858 261.797 7.0858 262.695 7.0858C262.862 6.81368 263.083 6.43649 263.185 6.25867C264.796 6.25867 266.143 6.24789 267.482 6.26945C267.585 6.26945 267.679 6.45804 267.784 6.56312C267.994 6.41493 268.202 6.25867 268.39 6.13473C270.354 7.10466 272.518 7.75398 272.841 10.2515C273.291 10.5344 273.687 10.785 274.054 11.014C274.054 11.6633 274.054 12.2372 274.054 12.8757C274.285 12.9593 274.536 13.032 274.921 13.1667C274.808 13.323 274.722 13.4496 274.576 13.6571C275.643 14.9126 274.681 16.2489 274.398 17.4506C274.107 18.6845 273.04 19.7407 272.3 20.8992C272.434 21.077 272.561 21.2333 272.696 21.4111C272.655 21.4866 272.623 21.6105 272.539 21.6832C272.235 21.9769 271.965 22.373 271.599 22.5104C270.408 22.9495 270.26 23.9006 270.158 25.1319C272.256 24.0353 274.137 22.866 276.217 22.0281C278.286 21.1929 280.094 19.7407 282.258 18.663C282.258 19.1237 282.258 19.5413 282.279 19.9697C282.268 19.9589 282.247 19.9374 282.214 19.9077C282.101 20.0128 281.985 20.1071 281.861 20.2095C281.902 20.2526 281.956 20.3038 281.996 20.3469C282.101 20.231 282.196 20.1152 282.279 19.9697C282.57 19.8458 282.969 19.835 283.187 19.6356C284.087 18.8112 284.922 17.9328 285.8 17.0545C286.178 16.9602 286.646 16.971 286.94 16.742C288.422 15.6131 290.055 14.953 291.924 14.7132C292.644 14.6297 293.449 14.4115 294.161 13.9076C295.729 12.8003 297.453 12.0486 299.458 12.1645C300.118 12.2049 300.786 12.3719 301.465 11.8088C301.926 11.4316 302.855 12.0702 303.45 11.4532C305.374 11.4424 307.117 10.4294 309.063 10.4294C309.992 10.4294 310.994 10.2731 311.832 9.88513C312.323 9.65612 312.762 9.58337 313.223 9.62378C313.953 9.69653 314.758 10.1465 315.394 9.96865C316.138 9.76119 316.838 9.58337 317.601 9.61301C318.007 9.63456 318.509 9.58337 318.813 9.78005C319.67 10.3566 320.37 9.94709 321.144 9.59415C321.351 9.72886 321.572 9.88513 321.79 10.0306C322.701 9.67767 323.453 10.1788 324.288 10.3674C325.207 10.5641 326.106 10.8685 327.047 11.0652C327.475 11.6714 327.903 12.2884 328.375 12.9593C328.458 14.4411 328.176 15.9984 328.96 17.4937ZM6.43656 32.7808C6.58205 32.7808 6.71946 32.7808 6.86495 32.7808C6.86495 32.7297 6.86495 32.6865 6.86495 32.6354C6.71946 32.6354 6.58205 32.6354 6.43656 32.6354C6.43656 32.6785 6.43656 32.7297 6.43656 32.7808ZM7.30411 54.184C7.15862 54.184 7.02122 54.184 6.87573 54.184C6.87573 54.2351 6.87573 54.2783 6.87573 54.3294C7.02122 54.3294 7.15862 54.3294 7.30411 54.3294C7.30411 54.2783 7.30411 54.2244 7.30411 54.184ZM9.02843 50.7353C8.88294 50.7353 8.74553 50.7353 8.60004 50.7353C8.60004 50.7865 8.60004 50.8296 8.60004 50.8808C8.74553 50.8808 8.88294 50.8808 9.02843 50.8808C9.02843 50.8296 9.02843 50.7757 9.02843 50.7353ZM9.45682 48.5826C9.31133 48.5826 9.17392 48.5826 9.02843 48.5826C9.02843 48.6338 9.02843 48.6769 9.02843 48.7281C9.17392 48.7281 9.31133 48.7281 9.45682 48.7281C9.45682 48.6769 9.45682 48.623 9.45682 48.5826ZM15.5297 26.2823C15.5701 26.3227 15.6213 26.3766 15.6644 26.417C15.7371 26.3335 15.8099 26.2392 15.7156 26.1153C15.6644 26.1665 15.6024 26.2284 15.5297 26.2823ZM16.6478 53.4942C16.4996 53.5454 16.187 53.6613 15.5808 53.8714C16.7609 53.9442 16.7609 53.9442 16.6478 53.4942ZM17.2216 46.8583C17.0761 46.8583 16.9387 46.8583 16.7933 46.8583C16.7933 46.9095 16.7933 46.9526 16.7933 47.0038C16.9387 47.0038 17.0761 47.0038 17.2216 47.0038C17.2216 46.9526 17.2216 46.8987 17.2216 46.8583ZM17.5045 45.8453C17.4506 45.8453 17.4102 45.8453 17.3564 45.8453C17.3564 45.9907 17.3564 46.1255 17.3564 46.2736C17.4102 46.2736 17.4506 46.2736 17.5045 46.2736C17.5045 46.1362 17.5045 45.9907 17.5045 45.8453ZM20.1584 24.1188C20.1584 23.7309 20.1584 23.3968 20.1584 23.0735C18.7358 23.9733 17.3671 24.8409 16.0604 25.9779C17.9006 25.959 18.9783 24.8193 20.1584 24.1188ZM20.0533 44.1614C20.0021 44.226 19.9374 44.2988 19.8027 44.5601C19.8135 44.5709 19.8243 44.579 19.8431 44.6005C19.959 44.4954 20.0748 44.4011 20.1988 44.2988C20.1476 44.2556 20.1045 44.2152 20.0533 44.1614ZM19.7596 26.638C19.7192 26.5949 19.668 26.5437 19.6249 26.5006C19.5198 26.6164 19.4255 26.7323 19.4148 26.9289C19.3851 26.8993 19.3636 26.8777 19.3312 26.8454C19.2181 26.9505 19.1022 27.0448 18.9783 27.1499C19.0187 27.1903 19.0699 27.2442 19.113 27.2846C19.2181 27.1714 19.3124 27.0556 19.3232 26.8562C19.3528 26.8885 19.3743 26.9101 19.4067 26.9397C19.5306 26.8346 19.6465 26.7323 19.7596 26.638ZM19.6034 44.5601C19.5414 44.7783 19.4902 44.9669 19.6572 44.6948C19.6357 44.6544 19.6141 44.6005 19.6034 44.5601ZM18.8301 53.6101C18.7574 53.6101 18.6846 53.6101 18.6119 53.6101C18.6119 53.8903 18.6119 54.184 18.6119 54.4668C18.6846 54.4668 18.7574 54.4668 18.8301 54.4668C18.8301 54.184 18.8301 53.8903 18.8301 53.6101ZM19.3312 50.3393C19.2908 50.2962 19.2369 50.245 19.1965 50.2019C19.0914 50.3177 18.9971 50.4309 18.9864 50.6302C18.9567 50.6006 18.9352 50.579 18.9028 50.5467C18.7897 50.6518 18.6738 50.7461 18.5499 50.8512C18.5903 50.8916 18.6415 50.9455 18.6846 50.9859C18.7897 50.87 18.884 50.7569 18.8921 50.5575C18.9244 50.5898 18.946 50.6087 18.9783 50.641C19.1022 50.5359 19.2181 50.4309 19.3312 50.3393ZM19.792 45.1555C19.7704 45.0289 19.73 44.9157 19.6869 44.7891C19.5926 44.9885 19.4686 45.239 19.3016 45.5947C19.6357 45.3118 19.8027 45.2175 19.792 45.1555ZM19.8027 46.8583C19.6572 46.8583 19.5198 46.8583 19.3743 46.8583C19.3743 46.9095 19.3743 46.9526 19.3743 47.0038C19.5198 47.0038 19.6572 47.0038 19.8027 47.0038C19.8027 46.9526 19.8027 46.8987 19.8027 46.8583ZM21.5163 45.6243C21.527 45.6135 21.422 45.53 21.2765 45.3845C20.8158 45.5839 20.3039 45.8021 19.73 46.0419C20.0856 46.3356 20.3874 46.5754 20.7215 46.8475C21.0475 46.3572 21.2873 46.0015 21.5163 45.6243ZM21.9123 43.442C21.8719 43.3989 21.8207 43.3477 21.7776 43.3046C21.6725 43.4204 21.5782 43.5363 21.5675 43.733C21.5378 43.7033 21.5163 43.6818 21.4839 43.6494C21.3708 43.7545 21.2549 43.8488 21.131 43.9539C21.1714 43.9943 21.2226 44.0482 21.2657 44.0886C21.3708 43.9728 21.4651 43.8596 21.4759 43.6602C21.5055 43.6926 21.527 43.7114 21.5594 43.7437C21.6833 43.6387 21.7992 43.5363 21.9123 43.442ZM23.545 46.7128C23.4912 46.7128 23.4507 46.7128 23.3969 46.7128C23.3969 46.8583 23.3969 46.993 23.3969 47.1412C23.4507 47.1412 23.4912 47.1412 23.545 47.1412C23.545 46.993 23.545 46.8583 23.545 46.7128ZM30.2941 29.0412C30.348 29.0412 30.3884 29.0412 30.4396 29.0412C30.4396 28.8957 30.4396 28.7583 30.4396 28.6128C30.3884 28.6128 30.348 28.6128 30.2941 28.6128C30.2941 28.7583 30.2941 28.8957 30.2941 29.0412ZM29.855 20.8588C29.9089 20.8588 29.9493 20.8588 30.0032 20.8588C30.0032 20.7133 30.0032 20.5759 30.0032 20.4304C29.9493 20.4304 29.9089 20.4304 29.855 20.4304C29.855 20.5651 29.855 20.7133 29.855 20.8588ZM28.8527 29.4804C28.8635 29.4912 28.885 29.51 28.8931 29.5208C29.009 29.4157 29.1248 29.3241 29.2488 29.219C29.2083 29.1759 29.1545 29.1248 29.114 29.0816C29.009 29.1975 28.9039 29.3133 28.8527 29.4804ZM28.0364 30.1593C28.0795 30.1998 28.1306 30.2536 28.1738 30.2941C28.2788 30.1809 28.3704 30.065 28.4243 29.9088C28.4135 29.898 28.392 29.8764 28.3812 29.8657C28.2681 29.96 28.1522 30.0543 28.0364 30.1593ZM26.7108 30.7655C26.7108 30.7763 26.7108 30.7952 26.7108 30.806C26.991 30.7548 27.2739 30.6928 27.5568 30.6389C27.546 30.5446 27.5352 30.4503 27.5244 30.3587C27.2442 30.3884 26.9721 30.4099 26.7108 30.7655ZM25.1212 26.8885C25.1751 26.8885 25.2155 26.8885 25.2667 26.8885C25.2667 26.743 25.2667 26.6056 25.2667 26.4601C25.2155 26.4601 25.1751 26.4601 25.1212 26.4601C25.1212 26.5949 25.1212 26.743 25.1212 26.8885ZM24.4018 31.8944C25.3933 32.2501 25.5819 31.6735 25.8325 31.1939C26.1154 31.14 26.5222 31.3286 26.6461 30.7655C26.3228 30.7952 25.8648 30.577 25.7274 31.0269C25.3421 31.2882 24.9434 31.5388 24.4018 31.8944ZM25.2262 43.2103C25.4553 42.6041 25.6654 42.0518 25.8944 41.4132C26.083 41.5803 26.1989 41.6853 26.2393 41.7284C26.6057 41.3512 26.9721 40.9848 27.379 40.578C26.638 40.745 25.8729 40.9229 25.1212 41.0899C24.8814 41.9575 24.7143 42.5529 24.515 43.2426C24.9029 43.2318 25.0915 43.2211 25.2262 43.2103ZM30.5151 42.4182C29.6583 42.5637 28.8096 42.7415 28.4243 43.6926C27.6915 43.6602 27.1392 43.9943 26.5842 44.5493C25.8729 44.517 25.4553 44.8834 25.4041 45.5731C25.7893 45.239 26.2177 44.8726 26.7 44.5601C26.929 44.6948 27.1499 44.8214 27.4301 44.9885C27.7561 44.5709 28.0902 44.1425 28.4243 43.7033C29.2919 43.5444 30.1486 43.3773 30.5151 42.4182ZM30.9731 42.1461C30.9327 42.1029 30.8788 42.0518 30.8384 42.0086C30.7333 42.1245 30.639 42.2403 30.5878 42.3966C30.5986 42.4074 30.6174 42.4263 30.6282 42.437C30.7333 42.3427 30.8491 42.2484 30.9731 42.1461ZM31.873 41.6853C31.7275 41.6853 31.5901 41.6853 31.4446 41.6853C31.4446 41.7365 31.4446 41.7796 31.4446 41.8308C31.5901 41.8308 31.7275 41.8308 31.873 41.8308C31.873 41.7796 31.873 41.7284 31.873 41.6853ZM32.7297 41.257C32.5842 41.257 32.4468 41.257 32.3013 41.257C32.3013 41.3081 32.3013 41.3512 32.3013 41.4024C32.4468 41.4024 32.5842 41.4024 32.7297 41.4024C32.7297 41.3512 32.7297 41.3001 32.7297 41.257ZM33.4518 40.6831C33.3979 40.6831 33.3575 40.6831 33.3036 40.6831C33.3036 40.8286 33.3036 40.9633 33.3036 41.1115C33.3575 41.1115 33.3979 41.1115 33.4518 41.1115C33.4518 40.9633 33.4518 40.8178 33.4518 40.6831ZM33.9826 26.638C33.9421 26.5949 33.8883 26.5437 33.8478 26.5006C33.7428 26.6164 33.6485 26.7323 33.6808 26.7511C33.0126 27.034 32.4576 27.263 31.7571 27.5567C32.7809 27.9528 33.3036 27.6833 33.5434 26.8454C33.5757 26.8777 33.5973 26.8993 33.6269 26.9289C33.7535 26.8346 33.8694 26.7323 33.9826 26.638ZM35.2785 39.565C35.2381 39.5219 35.1842 39.4707 35.1438 39.4276C35.0387 39.5434 34.9444 39.6593 34.9336 39.8559C34.904 39.8263 34.8824 39.8047 34.8501 39.7724C34.7369 39.8775 34.6211 39.9718 34.4945 40.0769C34.5376 40.1173 34.5888 40.1712 34.6319 40.2116C34.7369 40.0957 34.8285 39.9826 34.8393 39.7832C34.8717 39.8155 34.8932 39.8344 34.9228 39.8667C35.0495 39.7616 35.1653 39.6593 35.2785 39.565ZM43.5148 36.3669C43.5148 36.0328 43.5148 35.7822 43.4717 35.5101C42.7604 35.4886 42.2189 35.8119 41.7905 36.3669C41.4645 36.4289 40.9634 36.1567 41.3405 36.7225C40.3679 36.7225 39.8156 36.7225 39.239 36.7225C39.239 36.313 39.239 35.9681 39.239 35.6664C39.8237 35.3943 40.7128 35.238 40.8286 34.8608C41.0577 34.0579 41.6423 33.8693 42.3859 33.4517C41.7366 33.4517 41.257 33.4517 40.6077 33.4517C40.0231 34.0364 39.3037 34.7153 38.2987 35.1329C37.6818 35.3943 36.8896 35.7715 36.4182 36.8465C37.213 36.701 37.7356 36.6067 38.2987 36.5016C38.2987 36.8357 38.2987 37.1698 38.2987 37.547C37.8407 37.8406 37.4123 38.2044 36.9193 38.393C36.4289 38.5816 35.9494 38.6759 35.917 39.3548C37.7653 38.948 39.3764 38.0373 40.9229 36.7845C41.2462 36.7225 41.7474 36.992 41.7797 36.3561C42.3239 36.3669 42.8547 36.3669 43.5148 36.3669ZM43.9001 35.2488C43.8597 35.2057 43.8058 35.1545 43.7654 35.1114C43.6603 35.2272 43.566 35.3431 43.5148 35.4993C43.5148 35.4993 43.5148 35.4993 43.504 35.4993C43.5148 35.5101 43.5337 35.529 43.5444 35.5398C43.6603 35.4455 43.7869 35.3539 43.9001 35.2488ZM45.6675 31.3394C45.5193 31.3394 45.3846 31.3394 45.2391 31.3394C45.2391 31.3933 45.2391 31.4337 45.2391 31.4849C45.3846 31.4849 45.5193 31.4849 45.6675 31.4849C45.6675 31.4337 45.6675 31.3933 45.6675 31.3394ZM47.214 19.3527C46.7317 19.2396 46.4704 19.1641 46.1363 19.0806C46.1363 19.5925 46.1363 19.9293 46.1363 20.6594C46.5755 20.1367 46.8153 19.835 47.214 19.3527ZM47.672 55.7628C47.6208 55.7628 47.5777 55.7628 47.5265 55.7628C47.5265 55.9083 47.5265 56.043 47.5265 56.1912C47.5777 56.1912 47.6208 56.1912 47.672 56.1912C47.672 56.043 47.672 55.9083 47.672 55.7628ZM48.7174 17.984C48.7282 18.0568 48.7389 18.1295 48.7497 18.1942C48.9895 18.1942 49.2293 18.1942 49.461 18.1942C49.4502 18.0676 49.4395 17.9436 49.4395 17.8278C49.1997 17.879 48.9572 17.9328 48.7174 17.984ZM50.6734 56.0969C49.9514 55.7412 49.4799 55.5122 48.906 55.2401C48.6958 55.5014 48.4992 55.7628 48.2378 56.0969C48.9275 56.0969 49.5957 56.0969 50.6734 56.0969ZM52.9932 55.9083C52.845 55.9083 52.7103 55.9083 52.5648 55.9083C52.5648 55.9595 52.5648 56.0026 52.5648 56.0538C52.7103 56.0538 52.845 56.0538 52.9932 56.0538C52.9932 56.0026 52.9932 55.9487 52.9932 55.9083ZM76.619 28.1117C76.6082 27.9851 76.6002 27.8611 76.6002 27.7453C76.3577 27.7965 76.1179 27.8504 75.8781 27.9016C75.8889 27.9743 75.8997 28.0471 75.9104 28.1117C76.1395 28.1117 76.3792 28.1117 76.619 28.1117ZM78.4376 27.2442C78.3972 26.7834 78.3649 26.3982 78.3137 25.7596C77.9985 26.4063 77.8126 26.7942 77.5917 27.2442C77.8853 27.2442 78.1251 27.2442 78.4376 27.2442ZM89.6727 18.2669C90.0067 18.2669 90.2896 18.2157 90.551 18.2777C90.8016 18.3397 91.0306 18.5175 91.3539 18.6738C91.3539 18.1107 91.3539 17.755 91.3539 17.4317C90.8527 17.588 90.3408 17.7119 89.8289 17.8601C89.767 17.8897 89.7454 18.0568 89.6727 18.2669ZM91.2084 40.6831C91.1572 40.6831 91.1141 40.6831 91.0629 40.6831C91.0629 40.8286 91.0629 40.9633 91.0629 41.1115C91.1141 41.1115 91.1572 41.1115 91.2084 41.1115C91.2084 40.9633 91.2084 40.8178 91.2084 40.6831ZM91.3754 40.1712C91.3431 39.7105 91.3135 39.3225 91.2596 38.7486C90.551 39.1554 90.0391 39.4599 89.5272 39.7616C89.5891 39.899 89.6511 40.0338 89.7023 40.1792C90.225 40.1712 90.7584 40.1712 91.3754 40.1712ZM92.0651 40.6831C92.014 40.6831 91.9709 40.6831 91.9197 40.6831C91.9197 40.8286 91.9197 40.9633 91.9197 41.1115C91.9709 41.1115 92.014 41.1115 92.0651 41.1115C92.0651 40.9633 92.0651 40.8178 92.0651 40.6831ZM93.5066 39.0935C93.3611 39.0935 93.2264 39.0935 93.0782 39.0935C93.0782 39.1474 93.0782 39.1878 93.0782 39.239C93.2264 39.239 93.3611 39.239 93.5066 39.239C93.5066 39.1878 93.5066 39.1474 93.5066 39.0935ZM94.5115 38.0912C94.5627 38.0912 94.6058 38.0912 94.657 38.0912C94.657 37.943 94.657 37.8083 94.657 37.6628C94.6058 37.6628 94.5627 37.6628 94.5115 37.6628C94.5115 37.8083 94.5115 37.943 94.5115 38.0912ZM95.1905 46.0231C95.1474 45.98 95.0962 45.9288 95.0531 45.8857C94.9507 46.0015 94.8564 46.1174 94.8456 46.3141C94.8133 46.2844 94.7917 46.2629 94.7621 46.2305C94.6462 46.3356 94.5304 46.4299 94.4065 46.535C94.4469 46.5754 94.5008 46.6293 94.5412 46.6697C94.6462 46.5538 94.7405 46.4407 94.7513 46.2413C94.781 46.2736 94.8025 46.2952 94.8348 46.3248C94.9588 46.2198 95.0746 46.1255 95.1905 46.0231ZM98.4613 32.8563C98.0841 33.0637 97.7096 33.2739 97.3216 33.4921C97.583 33.7535 97.7823 33.9528 98.0114 34.1819C98.3454 33.8478 98.9624 33.6699 98.4613 32.8563ZM100.353 31.7382C99.6198 31.4768 99.0675 31.59 98.7226 32.3848C99.4528 32.6461 100.008 32.5303 100.353 31.7382ZM104.575 12.2372C104.521 12.2372 104.48 12.2372 104.429 12.2372C104.429 12.3827 104.429 12.5201 104.429 12.6656C104.48 12.6656 104.521 12.6656 104.575 12.6656C104.575 12.5201 104.575 12.3827 104.575 12.2372ZM106.299 11.3697C106.245 11.3697 106.205 11.3697 106.151 11.3697C106.151 11.5151 106.151 11.6526 106.151 11.798C106.205 11.798 106.245 11.798 106.299 11.798C106.299 11.6633 106.299 11.5151 106.299 11.3697ZM111.9 10.0845C111.846 10.0845 111.806 10.0845 111.752 10.0845C111.752 10.23 111.752 10.3674 111.752 10.5129C111.806 10.5129 111.846 10.5129 111.9 10.5129C111.9 10.3674 111.9 10.2192 111.9 10.0845ZM114.91 34.2142C114.856 34.2142 114.815 34.2142 114.764 34.2142C114.764 34.3597 114.764 34.4944 114.764 34.6426C114.815 34.6426 114.856 34.6426 114.91 34.6426C114.91 34.4944 114.91 34.3597 114.91 34.2142ZM119.361 30.0435C119.037 29.8253 118.714 29.6043 118.137 29.2083C118.17 30.1486 118.043 30.8491 117.386 31.2236C116.769 31.5792 116.101 31.8513 115.546 32.1127C115.777 32.7728 115.944 33.2739 116.133 33.775C116.144 33.8047 116.268 33.7858 116.54 33.8047C116.812 33.4409 117.157 32.9694 117.512 32.5006C118.62 32.2905 118.62 32.2905 119.361 30.0435ZM121.524 27.8908C121.379 27.8908 121.241 27.8908 121.096 27.8908C121.096 27.9447 121.096 27.9851 121.096 28.0363C121.241 28.0363 121.379 28.0363 121.524 28.0363C121.524 27.9851 121.524 27.9447 121.524 27.8908ZM150.261 27.3573C150.177 27.4328 150.094 27.5055 150.01 27.5783C150.053 27.6187 150.105 27.6726 150.148 27.713C150.22 27.6294 150.282 27.5351 150.261 27.3573ZM150.42 27.3277C150.398 27.3061 150.377 27.2846 150.355 27.263C150.355 27.263 150.344 27.263 150.344 27.2738C150.366 27.2954 150.377 27.3061 150.398 27.3277C150.409 27.3385 150.42 27.3277 150.42 27.3277ZM151.255 27.2738C151.234 26.972 151.223 26.743 151.201 26.4494C150.805 26.6999 150.511 26.8993 150.45 27.3277C150.689 27.3169 150.932 27.2954 151.255 27.2738ZM142.582 43.9C142.256 44.0482 141.933 44.1937 141.62 44.3284C141.911 44.8214 142.078 45.1124 142.256 45.4465C142.227 45.4169 142.205 45.3953 142.173 45.363C142.06 45.4681 141.944 45.5624 141.817 45.6674C141.86 45.7078 141.911 45.7617 141.955 45.8021C142.06 45.689 142.154 45.5731 142.329 45.5516C142.768 44.905 142.695 44.3176 142.582 43.9ZM143.458 41.7177C143.418 41.6746 143.364 41.6234 143.323 41.5803C143.218 41.6961 143.124 41.812 143.113 42.0086C143.083 41.979 143.062 41.9575 143.03 41.9251C142.916 42.0302 142.801 42.1245 142.674 42.2296C142.717 42.27 142.768 42.3239 142.811 42.3643C142.916 42.2484 143.011 42.1353 143.019 41.9359C143.051 41.9682 143.073 41.9898 143.105 42.0194C143.229 41.9143 143.345 41.812 143.458 41.7177ZM152.947 27.0663C152.907 27.0232 152.853 26.972 152.812 26.9289C152.707 27.0448 152.613 27.1606 152.529 27.3061C152.54 27.3169 152.562 27.3465 152.591 27.3681C152.707 27.263 152.834 27.1606 152.947 27.0663ZM160.273 6.91876C160.262 6.84601 160.251 6.77058 160.243 6.70861C160.001 6.70861 159.761 6.70861 159.532 6.70861C159.543 6.83524 159.553 6.95917 159.553 7.07503C159.793 7.02114 160.033 6.96995 160.273 6.91876ZM163.366 6.88643C163.409 6.92954 163.46 6.98073 163.503 7.02114C163.606 6.90798 163.7 6.79213 163.711 6.59276C163.743 6.62509 163.764 6.64664 163.794 6.67628C163.91 6.5739 164.026 6.4796 164.15 6.37452C164.109 6.33141 164.055 6.28022 164.015 6.23981C163.91 6.35297 163.816 6.46882 163.805 6.66819C163.775 6.63586 163.754 6.61431 163.721 6.58467C163.606 6.68705 163.492 6.79213 163.366 6.88643ZM163.711 36.2187C163.7 36.146 163.692 36.084 163.681 36.0112C163.438 36.0112 163.199 36.0112 162.97 36.0112C162.98 36.1352 163.002 36.2618 163.01 36.3884C163.253 36.3238 163.482 36.2726 163.711 36.2187ZM167.138 34.4944C166.981 34.1414 166.814 33.7966 166.647 33.4409C166.637 33.4086 166.553 33.4194 166.575 33.4194C166.157 33.7319 165.78 34.0256 165.311 34.3812C164.955 33.8154 164.672 33.3763 164.422 32.991C164.066 33.1796 163.711 33.3574 163.336 33.546C163.627 33.8478 163.91 34.1495 164.276 34.5375C164.276 34.9335 164.276 35.4158 164.276 35.8738C164.705 35.8738 165.039 35.8738 165.362 35.8738C165.562 34.8312 166.513 34.8608 167.138 34.4944ZM178.707 23.0115C178.656 23.0115 178.612 23.0115 178.561 23.0115C178.561 23.157 178.561 23.2944 178.561 23.4399C178.612 23.4399 178.656 23.4399 178.707 23.4399C178.707 23.2944 178.707 23.157 178.707 23.0115ZM185.459 39.115C184.464 38.7594 184.276 39.3333 184.068 39.8452C184.036 39.8155 184.017 39.794 183.985 39.7616C183.869 39.8667 183.756 39.961 183.629 40.0661C183.672 40.1065 183.723 40.1604 183.764 40.2008C183.869 40.0876 183.963 39.9718 184.13 39.9718C184.518 39.7212 184.914 39.4707 185.459 39.115ZM186.032 38.5196C185.981 38.5196 185.938 38.5196 185.887 38.5196C185.887 38.6651 185.887 38.8025 185.887 38.948C185.938 38.948 185.981 38.948 186.032 38.948C186.032 38.8106 186.032 38.6651 186.032 38.5196ZM191.488 18.2669C191.539 18.2669 191.583 18.2669 191.634 18.2669C191.634 18.1214 191.634 17.984 191.634 17.8385C191.583 17.8385 191.539 17.8385 191.488 17.8385C191.488 17.984 191.488 18.1214 191.488 18.2669ZM191.917 43.8596C190.923 43.504 190.737 44.0778 190.537 44.6436C190.987 44.4658 191.372 44.2152 191.917 43.8596ZM192.062 47.5696C192.011 47.5696 191.968 47.5696 191.917 47.5696C191.917 47.7151 191.917 47.8498 191.917 47.998C191.968 47.998 192.011 47.998 192.062 47.998C192.062 47.8605 192.062 47.7151 192.062 47.5696ZM193.064 17.1165C192.919 17.1165 192.784 17.1165 192.636 17.1165C192.636 17.1704 192.636 17.2108 192.636 17.2647C192.784 17.2647 192.919 17.2647 193.064 17.2647C193.064 17.2108 193.064 17.1704 193.064 17.1165ZM194.32 16.292C194.277 16.2489 194.226 16.1978 194.183 16.1546C194.08 16.2705 193.986 16.3863 193.975 16.583C193.943 16.5534 193.924 16.5318 193.892 16.4995C193.776 16.6046 193.663 16.6989 193.536 16.804C193.579 16.8444 193.63 16.8983 193.671 16.9387C193.776 16.8255 193.87 16.7097 193.881 16.5103C193.913 16.5426 193.932 16.5642 193.964 16.5938C194.091 16.4914 194.204 16.3863 194.32 16.292ZM197.664 13.9615C197.612 13.9615 197.569 13.9615 197.518 13.9615C197.518 14.107 197.518 14.2444 197.518 14.3899C197.569 14.3899 197.612 14.3899 197.664 14.3899C197.664 14.2444 197.664 14.107 197.664 13.9615ZM200.872 9.47829C200.913 9.51871 200.967 9.57259 201.007 9.61301C201.112 9.49985 201.206 9.384 201.29 9.23851C201.279 9.22773 201.258 9.20618 201.228 9.17384C201.101 9.26814 200.988 9.37322 200.872 9.47829ZM199.105 13.6382C198.825 13.6382 198.531 13.6382 198.248 13.6382C198.248 13.711 198.248 13.7837 198.248 13.8564C198.531 13.8564 198.825 13.8564 199.105 13.8564C199.105 13.7837 199.105 13.711 199.105 13.6382ZM201.678 13.9507C201.678 13.94 201.678 13.9184 201.678 13.9076C201.247 13.9615 200.81 14.0235 200.328 14.0855C200.412 14.4222 200.466 14.5974 200.506 14.786C200.934 14.5677 201.312 14.3684 201.646 13.9184C201.656 13.9292 201.667 13.94 201.678 13.9507ZM202.085 13.7002C202.042 13.6571 201.99 13.6059 201.947 13.5628C201.864 13.6571 201.78 13.7621 201.729 13.9939C201.845 13.9076 201.969 13.8053 202.085 13.7002ZM202.513 11.1191C202.47 11.076 202.419 11.0248 202.376 10.9817C202.273 11.0975 202.179 11.2134 202.168 11.4101C202.136 11.3804 202.114 11.3589 202.085 11.3265C201.969 11.4316 201.853 11.5259 201.729 11.631C201.77 11.6714 201.823 11.7253 201.864 11.7657C201.969 11.6526 202.063 11.5367 202.074 11.3373C202.106 11.3697 202.125 11.3912 202.158 11.4208C202.281 11.3185 202.397 11.2242 202.513 11.1191ZM203.359 13.0724C203.098 13.1263 202.826 13.1775 202.564 13.2287C202.575 13.323 202.586 13.4173 202.597 13.5116C202.869 13.4793 203.141 13.4496 203.359 13.0724ZM203.41 13.094C203.41 13.0832 203.41 13.0724 203.41 13.0509C203.4 13.0509 203.391 13.0509 203.381 13.0616C203.391 13.0724 203.4 13.0832 203.41 13.094ZM203.41 10.6584C203.265 10.6584 203.13 10.6584 202.982 10.6584C202.982 10.7123 202.982 10.7527 202.982 10.8066C203.13 10.8066 203.265 10.8066 203.41 10.8066C203.41 10.7527 203.41 10.7015 203.41 10.6584ZM203.809 12.8434C203.766 12.8003 203.715 12.7491 203.672 12.706C203.599 12.7895 203.526 12.8838 203.475 13.1344C203.577 13.032 203.693 12.9377 203.809 12.8434ZM204.278 43.4097C204.132 43.4097 203.998 43.4097 203.85 43.4097C203.85 43.4608 203.85 43.504 203.85 43.5551C203.998 43.5551 204.132 43.5551 204.278 43.5551C204.278 43.504 204.278 43.4528 204.278 43.4097ZM211.552 35.4778C211.437 35.5721 211.323 35.6664 211.218 35.7715C211.259 35.8119 211.313 35.8658 211.353 35.9062C211.426 35.8119 211.498 35.7176 211.552 35.4778ZM211.647 35.5398C211.636 35.529 211.625 35.5209 211.614 35.5101C211.614 35.5209 211.614 35.529 211.614 35.5505C211.625 35.5398 211.636 35.5398 211.647 35.5398ZM212.45 35.3835C212.441 35.2892 212.431 35.1949 212.42 35.1006C212.148 35.1221 211.876 35.1545 211.657 35.5398C211.919 35.4778 212.188 35.4374 212.45 35.3835ZM212.899 5.48542C212.754 5.48542 212.617 5.48542 212.471 5.48542C212.471 5.5393 212.471 5.57972 212.471 5.6336C212.617 5.6336 212.754 5.6336 212.899 5.6336C212.899 5.57972 212.899 5.52853 212.899 5.48542ZM222.327 24.7762C221.92 24.7762 221.583 24.7762 221.249 24.7762C220.988 25.342 220.737 25.8836 220.497 26.417C219.702 26.5113 219.358 27.1499 218.9 27.6402C218.962 27.9959 219.002 28.2976 219.067 28.6236C220.381 27.4624 221.772 26.5113 222.327 24.7762ZM227.979 2.43553C227.696 2.43553 227.405 2.43553 227.122 2.43553C227.122 2.50828 227.122 2.58102 227.122 2.65376C227.405 2.65376 227.696 2.65376 227.979 2.65376C227.979 2.57024 227.979 2.50828 227.979 2.43553ZM228.701 20.4196C228.647 20.4196 228.607 20.4196 228.553 20.4196C228.553 20.5651 228.553 20.7025 228.553 20.848C228.607 20.848 228.647 20.848 228.701 20.848C228.701 20.7133 228.701 20.5651 228.701 20.4196ZM244.322 26.1988C244.282 26.1557 244.228 26.1045 244.188 26.0614C244.083 26.1772 243.988 26.2931 243.905 26.4386C243.603 26.5221 243.102 26.2392 243.07 26.8885C243.393 26.8266 243.894 27.096 243.905 26.4386C243.916 26.4494 243.937 26.4709 243.97 26.5006C244.083 26.3982 244.209 26.3039 244.322 26.1988ZM239.047 50.5898C238.993 50.5898 238.953 50.5898 238.899 50.5898C238.899 50.7353 238.899 50.87 238.899 51.0182C238.953 51.0182 238.993 51.0182 239.047 51.0182C239.047 50.87 239.047 50.7353 239.047 50.5898ZM240.874 46.8906C240.833 46.8475 240.782 46.7963 240.739 46.7532C240.634 46.8691 240.54 46.9849 240.529 47.1816C240.499 47.152 240.478 47.1304 240.445 47.0981C240.332 47.2032 240.216 47.2975 240.093 47.4025C240.133 47.4429 240.184 47.4968 240.227 47.5372C240.332 47.4214 240.427 47.3082 240.437 47.1089C240.467 47.1412 240.489 47.16 240.521 47.1924C240.634 47.0873 240.761 46.9849 240.874 46.8906ZM243.477 34.621C243.487 34.6318 243.509 34.6641 243.541 34.683C243.654 34.5806 243.77 34.4863 243.894 34.3812C243.854 34.3381 243.8 34.2869 243.759 34.2438C243.654 34.3705 243.549 34.4863 243.477 34.621ZM245.233 47.8094C245.201 46.764 245.284 45.6459 245.16 44.4119C244.805 44.7676 244.605 44.9669 244.314 45.2606C244.417 45.6351 244.543 46.0743 244.667 46.5646C244.406 46.6912 244.021 46.8798 243.716 47.0361C243.309 46.7532 242.975 46.5134 242.641 46.2844C242.59 46.1686 242.547 46.0419 242.496 45.9288C242.401 46.0419 242.307 46.1686 242.202 46.2844C241.941 46.2844 241.679 46.2844 241.302 46.2844C241.367 46.6697 241.407 46.9095 241.45 47.152C241.752 46.9741 241.984 46.8475 242.202 46.7128C242.202 46.5646 242.202 46.4299 242.202 46.2844C242.348 46.2844 242.485 46.2844 242.631 46.2844C242.485 46.4299 242.348 46.5646 242.202 46.7128C242.391 46.993 242.579 47.2759 242.714 47.4753C243.592 47.5884 244.376 47.6935 245.233 47.8094ZM257.522 18.2238C256.581 18.6226 255.63 19.0079 254.65 19.4255C254.733 19.6464 254.806 19.835 254.919 20.1367C255.851 19.509 256.977 19.3527 257.522 18.2238ZM258.443 17.4102C258.389 17.4102 258.349 17.4102 258.295 17.4102C258.295 17.5557 258.295 17.6931 258.295 17.8385C258.349 17.8385 258.389 17.8385 258.443 17.8385C258.443 17.6931 258.443 17.5449 258.443 17.4102ZM265.486 51.1637C265.338 51.1637 265.203 51.1637 265.057 51.1637C265.057 51.2149 265.057 51.258 265.057 51.3092C265.203 51.3092 265.338 51.3092 265.486 51.3092C265.486 51.258 265.486 51.2149 265.486 51.1637ZM267.137 50.9455C267.127 50.8188 267.105 50.6922 267.094 50.5683C266.865 50.6195 266.625 50.6841 266.394 50.7353C266.405 50.8081 266.415 50.87 266.426 50.9455C266.655 50.9455 266.895 50.9455 267.137 50.9455ZM268.39 50.1614C268.317 50.1614 268.245 50.1614 268.172 50.1614C268.172 50.4416 268.172 50.7353 268.172 51.0182C268.245 51.0182 268.317 51.0182 268.39 51.0182C268.39 50.7353 268.39 50.4416 268.39 50.1614ZM269.718 49.6495C269.708 49.5229 269.686 49.3963 269.675 49.2723C269.446 49.3235 269.207 49.3882 268.975 49.4394C268.986 49.5121 268.996 49.5741 269.007 49.6495C269.247 49.6495 269.487 49.6495 269.718 49.6495ZM277.513 43.8704C277.473 43.8273 277.419 43.7761 277.378 43.733C277.273 43.8488 277.179 43.9647 277.168 44.1614C277.136 44.1317 277.117 44.1102 277.085 44.0778C276.969 44.1829 276.856 44.2772 276.729 44.3823C276.772 44.4227 276.823 44.4766 276.866 44.517C276.969 44.4011 277.063 44.288 277.074 44.0886C277.106 44.1209 277.128 44.1425 277.157 44.1721C277.273 44.0671 277.389 43.9728 277.513 43.8704ZM313.325 27.034C313.179 27.034 313.045 27.034 312.896 27.034C312.896 27.0879 312.896 27.1283 312.896 27.1795C313.045 27.1795 313.179 27.1795 313.325 27.1795C313.325 27.1283 313.325 27.0771 313.325 27.034ZM189.618 45.4169C189.618 45.5624 189.618 45.6971 189.618 45.8453C189.764 45.6971 189.899 45.5624 190.047 45.4169C189.909 45.4169 189.764 45.4169 189.618 45.4169ZM284.882 44.5601C285.205 44.4954 285.706 44.7676 285.738 44.1317C285.412 44.1937 284.911 43.9108 284.882 44.5601ZM94.0831 48.4371C94.0831 48.5826 94.0831 48.7173 94.0831 48.8655C94.1343 48.8655 94.1774 48.8655 94.2286 48.8655C94.2286 48.7173 94.2286 48.5826 94.2286 48.4371C94.1774 48.4371 94.1236 48.4371 94.0831 48.4371ZM301.748 32.6569C301.748 33.0233 301.748 33.3574 301.748 33.9205C302.187 33.4921 302.478 33.2092 302.761 32.9183C302.96 33.1176 303.062 33.22 303.232 33.3871C303.44 32.7512 304.62 32.6246 304.046 31.4957C303.221 31.9241 302.459 32.312 301.748 32.6569ZM314.225 28.8634C314.403 29.0412 314.602 29.2406 314.788 29.4265C315.467 29.114 316.127 28.8095 316.922 28.4566C316.356 28.1629 316.011 27.9851 315.677 27.818C315.122 28.2141 314.675 28.5401 314.225 28.8634ZM304.851 32.0615C304.903 32.0615 304.946 32.0615 304.997 32.0615C304.997 31.9133 304.997 31.7786 304.997 31.6331C304.946 31.6331 304.903 31.6331 304.851 31.6331C304.851 31.7678 304.851 31.9133 304.851 32.0615ZM286.595 43.7033C286.606 43.7114 286.625 43.733 286.636 43.7437C286.752 43.6387 286.867 43.5444 286.991 43.442C286.951 43.3989 286.897 43.3477 286.857 43.3046C286.751 43.4204 286.657 43.5363 286.552 43.6602C286.563 43.671 286.584 43.6818 286.595 43.7033C286.302 43.6926 286.019 43.6926 285.738 43.6926C285.738 43.838 285.738 43.9728 285.738 44.1209C286.062 44.0563 286.563 44.3392 286.595 43.7033ZM30.1055 44.9454C29.9924 45.0504 29.8765 45.1447 29.7499 45.2498C29.793 45.2902 29.8442 45.3441 29.8873 45.3845C29.9924 45.2687 30.0867 45.1555 30.1891 45.0289C30.1783 45.0181 30.1594 44.9993 30.1486 44.9885C30.2645 44.9454 30.3884 44.8942 30.5043 44.8511C30.3884 44.7568 30.2645 44.6625 30.1486 44.5601C30.1486 44.7056 30.1486 44.8403 30.1486 44.9885C30.1379 44.9669 30.1163 44.9562 30.1055 44.9454ZM243.926 51.1206C243.781 50.9455 243.644 50.7676 243.498 50.5898C243.498 50.87 243.498 51.1637 243.498 51.4466C243.644 51.3415 243.792 51.2364 243.926 51.1206ZM243.07 52.3034C243.059 52.2926 243.037 52.271 243.027 52.2603C242.913 52.3653 242.798 52.4596 242.674 52.5647C242.714 52.6051 242.765 52.659 242.808 52.6994C242.913 52.5836 243.008 52.4704 243.11 52.3438C243.102 52.333 243.091 52.3249 243.07 52.3034C243.708 52.271 243.436 51.7699 243.498 51.4466C242.86 51.487 243.132 51.9801 243.07 52.3034Z" fill="#F24E1E"/>
</g>
</svg>
