<svg width="221" height="43" viewBox="0 0 221 43" fill="none" xmlns="http://www.w3.org/2000/svg">
<mask id="mask0_1487_7" style="mask-type:luminance" maskUnits="userSpaceOnUse" x="0" y="0" width="221" height="43">
<path d="M0 0H221V42.2266H0V0Z" fill="white"/>
</mask>
<g mask="url(#mask0_1487_7)">
<path d="M184.505 33.4073C184.54 33.4073 184.568 33.4073 184.603 33.4073C184.603 33.505 184.603 33.5955 184.603 33.695C184.568 33.695 184.54 33.695 184.505 33.695C184.505 33.5955 184.505 33.4978 184.505 33.4073ZM169.764 37.0142C170.074 36.7826 170.291 36.6215 170.655 36.3482C170.199 36.3482 169.947 36.3482 169.616 36.3482C169.666 36.5726 169.701 36.7337 169.764 37.0142ZM161.691 36.2487C161.902 36.4749 161.958 36.5871 162 36.5799C162.141 36.5582 162.273 36.5021 162.407 36.4532C162.232 36.4043 162.056 36.3555 161.691 36.2487ZM169.16 37.1699C169.196 37.1699 169.223 37.1699 169.259 37.1699C169.259 37.0703 169.259 36.9799 169.259 36.8821C169.223 36.8821 169.196 36.8821 169.16 36.8821C169.16 36.9726 169.16 37.0703 169.16 37.1699ZM189.138 31.3785C189.173 31.3785 189.202 31.3785 189.236 31.3785C189.236 31.2789 189.236 31.1885 189.236 31.0907C189.202 31.0907 189.173 31.0907 189.138 31.0907C189.138 31.1812 189.138 31.2789 189.138 31.3785ZM190.494 30.508C190.711 30.4645 191.048 30.6473 191.069 30.2202C190.85 30.2618 190.514 30.0718 190.494 30.508ZM189.911 30.7957C189.904 30.7885 189.889 30.774 189.882 30.7668C189.804 30.8373 189.728 30.9007 189.643 30.9713C189.672 30.9984 189.707 31.0346 189.735 31.0618C189.804 30.9839 189.868 30.9079 189.938 30.8229C189.931 30.8156 189.924 30.8084 189.911 30.7957C190.135 30.7595 190.465 30.9423 190.487 30.508C190.275 30.5496 189.938 30.3668 189.911 30.7957ZM193.196 29.3497C193.23 29.3497 193.259 29.3497 193.294 29.3497C193.294 29.2501 193.294 29.1596 193.294 29.0619C193.259 29.0619 193.23 29.0619 193.196 29.0619C193.196 29.1596 193.196 29.2501 193.196 29.3497ZM185.025 32.6345C185.032 32.6834 185.039 32.725 185.046 32.7757C185.207 32.7757 185.368 32.7757 185.524 32.7757C185.51 32.6906 185.502 32.6055 185.495 32.5223C185.334 32.5639 185.178 32.6001 185.025 32.6345ZM51.3426 32.5929C51.1797 32.6689 51.0675 32.8444 50.9354 32.9784C50.9843 33.0417 51.0404 33.0978 51.0893 33.1611C51.3426 33.02 51.587 32.8806 52.1281 32.5784C51.6503 32.5784 51.4675 32.5295 51.3426 32.5929ZM19.0936 30.9912C19.1913 30.9912 19.2836 30.9912 19.3813 30.9912C19.3813 30.9568 19.3813 30.9278 19.3813 30.8935C19.2836 30.8935 19.1913 30.8935 19.0936 30.8935C19.0936 30.9278 19.0936 30.9568 19.0936 30.9912ZM63.7109 9.40553C63.7109 9.4001 63.7109 9.4001 63.7109 9.40553C63.8865 9.3639 64.0692 9.32952 64.2502 9.29332C64.2448 9.22998 64.2376 9.16844 64.2303 9.1051C64.0475 9.11777 63.8575 9.13949 63.6747 9.15397C63.6819 9.22998 63.6819 9.30056 63.6892 9.37838C63.6819 9.37114 63.6675 9.35666 63.662 9.34942C63.5842 9.42001 63.5064 9.48335 63.4231 9.55393C63.4503 9.58108 63.4865 9.61728 63.5136 9.64442C63.577 9.56117 63.6403 9.48335 63.7109 9.40553ZM53.2574 31.5667C53.357 31.5667 53.4474 31.5667 53.5452 31.5667C53.5452 31.5323 53.5452 31.5034 53.5452 31.469C53.4474 31.469 53.357 31.469 53.2574 31.469C53.2574 31.5034 53.2574 31.5396 53.2574 31.5667ZM53.9325 31.3785C53.9669 31.3785 53.9958 31.3785 54.0302 31.3785C54.0302 31.2789 54.0302 31.1885 54.0302 31.0907C53.9958 31.0907 53.9669 31.0907 53.9325 31.0907C53.9325 31.1812 53.9325 31.2789 53.9325 31.3785ZM161.951 34.8244C161.727 35.266 161.025 35.3854 161.39 36.0876C161.754 35.9121 162.078 35.7582 162.597 35.5049C162.317 35.2044 162.147 35.0289 161.951 34.8244ZM162.022 33.9828C161.986 33.9828 161.958 33.9828 161.922 33.9828C161.922 34.0805 161.922 34.171 161.922 34.2706C161.958 34.2706 161.986 34.2706 162.022 34.2706C162.022 34.171 162.022 34.0805 162.022 33.9828ZM91.5712 24.7166C91.6074 24.7166 91.6345 24.7166 91.6707 24.7166C91.6707 24.6188 91.6707 24.5265 91.6707 24.4288C91.6345 24.4288 91.6074 24.4288 91.5712 24.4288C91.5712 24.5265 91.5712 24.6243 91.5712 24.7166ZM55.2518 30.479C55.2591 30.4862 55.2518 30.4862 55.2518 30.479C55.0763 30.5206 54.8935 30.5568 54.7107 30.5912C54.7179 30.6546 54.7252 30.7179 54.7324 30.7812C54.9152 30.7668 55.1034 30.7469 55.2862 30.7324C55.279 30.6546 55.279 30.584 55.2735 30.508C55.279 30.5152 55.2935 30.5279 55.3007 30.5351C55.3785 30.4645 55.4545 30.403 55.5396 30.3324C55.5106 30.3035 55.4762 30.2691 55.4491 30.2401C55.3858 30.3252 55.3224 30.403 55.2518 30.479ZM193.94 28.7452C193.862 28.8085 193.786 28.8791 193.708 28.9425C193.737 28.9696 193.771 29.0058 193.799 29.033C193.869 28.9569 193.932 28.8791 193.996 28.8013C194.074 28.738 194.15 28.6674 194.227 28.6058C194.2 28.5769 194.164 28.5425 194.137 28.5135C194.074 28.5841 194.003 28.6674 193.94 28.7452ZM162.653 34.9728C162.878 34.7755 162.983 34.7194 162.976 34.6778C162.956 34.5366 162.9 34.4027 162.849 34.2706C162.8 34.4461 162.751 34.6217 162.653 34.9728ZM163.158 35.9971C163.3 35.9754 163.432 35.9193 163.566 35.8704C163.39 35.8216 163.214 35.7727 162.849 35.6677C163.061 35.8994 163.117 36.0044 163.158 35.9971ZM58.4172 29.4058C58.3412 29.4329 58.2561 29.4619 58.1783 29.489C58.229 29.5035 58.2778 29.518 58.3267 29.5325C58.39 29.5252 58.4462 29.518 58.5294 29.5252C58.4805 29.4764 58.4534 29.4402 58.4172 29.4058ZM94.6605 22.1122C94.6605 22.21 94.6605 22.3023 94.6605 22.4C94.6533 22.3928 94.6461 22.3855 94.6316 22.371C94.5556 22.4416 94.4777 22.505 94.3927 22.5755C94.4216 22.6027 94.456 22.6389 94.485 22.666C94.5556 22.59 94.6189 22.5122 94.6877 22.4271C94.6804 22.4199 94.6678 22.4072 94.6605 22.4C94.7384 22.371 94.8216 22.3367 94.8994 22.3077C94.8216 22.2462 94.7384 22.1756 94.6605 22.1122ZM160.357 27.7353C160.33 27.7064 160.295 27.672 160.266 27.643C160.203 27.7208 160.132 27.7987 160.069 27.8747C159.993 27.938 159.915 28.0086 159.837 28.0792C159.866 28.1063 159.901 28.1425 159.93 28.1697C159.993 28.0919 160.064 28.0158 160.125 27.938C160.196 27.8674 160.274 27.7987 160.357 27.7353ZM162.695 18.9324C162.793 18.8329 162.885 18.7424 162.983 18.6446C162.885 18.6446 162.793 18.6446 162.695 18.6446C162.695 18.7351 162.695 18.8329 162.695 18.9324ZM220.973 11.751C220.671 11.9465 220.361 12.066 220.18 12.2922C220.025 12.4876 220.017 12.7971 219.934 13.1193C219.737 13.1337 219.512 13.1482 219.393 13.1555C218.164 13.8631 217.884 15.4014 216.557 15.8991C216.628 15.9697 216.691 16.0331 216.818 16.1598C216.199 16.6719 215.581 17.1841 215.174 17.5135C214.508 17.8718 214.079 18.1035 213.609 18.3569C212.992 18.4691 213.328 17.3307 212.604 17.5008C212.668 17.7886 212.724 18.0619 212.787 18.3424C212.794 18.3352 212.809 18.3207 212.816 18.3134C212.892 18.384 212.97 18.4474 213.055 18.5179C213.026 18.5451 212.992 18.5813 212.963 18.6084C212.892 18.5324 212.831 18.4546 212.76 18.3695C212.767 18.3641 212.774 18.3569 212.787 18.3424C212.499 18.4474 212.058 18.0763 211.924 18.6302C211.797 18.4763 211.672 18.3207 211.482 18.0963C211.348 18.0963 211.124 18.0963 210.807 18.0963C210.892 18.2718 210.97 18.4401 211.102 18.708C210.787 18.889 210.458 19.0717 210.007 19.3324C209.944 18.974 209.902 18.7206 209.839 18.3768C209.468 18.574 209.102 18.7713 208.702 18.9813C208.836 19.1423 208.92 19.2401 209.039 19.3885C208.751 19.5713 208.456 19.7595 208.035 20.0273C208.386 20.0545 208.605 20.069 208.892 20.0907C209.032 19.8789 209.193 19.6418 209.368 19.3812C209.909 19.5278 210.338 19.6473 210.78 19.7667C210.253 20.8345 209.222 20.7983 208.471 21.2345C207.859 21.1005 207.873 20.6028 207.803 20.1667C207.559 20.0472 207.327 19.9423 207.059 19.8156C207.032 19.9423 207.003 20.0762 206.954 20.2861C206.476 20.4689 205.937 20.6662 205.354 20.8834C205.206 20.7422 205.003 20.554 204.813 20.3784C204.323 20.5051 203.838 20.6246 203.277 20.7639C203.269 20.7983 203.233 20.925 203.199 21.0662C202.462 21.1711 201.577 21.0517 201.338 22.1882C201.114 22.0634 200.924 21.9512 200.643 21.7955C200.629 22.0561 200.623 22.2805 200.609 22.5828C199.619 23.0877 198.566 23.5728 197.583 24.1682C197.232 24.3872 196.727 24.6804 196.986 25.5943C196.783 25.426 196.622 25.1998 196.459 24.9754C196.151 25.2143 195.891 25.4188 195.4 25.7898C196.046 25.8332 196.397 25.8531 196.986 25.5943C197.127 25.2848 197.4 25.2848 197.724 25.2848C197.731 26.121 197.217 26.1554 196.691 26.1698C196.32 26.5408 195.947 26.9137 195.659 27.2014C195.308 27.3136 195.035 27.3625 194.803 27.4892C193.94 27.9453 193.084 28.4158 192.24 28.899C192.101 28.9841 192.03 29.1886 191.933 29.3352C191.489 29.4058 190.97 29.1379 190.592 29.6374C190.521 29.4474 190.465 29.2791 190.394 29.0891C190.211 29.1814 190.03 29.2719 189.833 29.3696C189.707 29.2646 189.602 29.1814 189.448 29.0547C188.872 29.813 188.051 30.0229 187.439 29.9451C186.071 30.3035 185.144 30.9568 184.134 31.4273C183.432 31.7567 182.674 31.8762 182.006 32.2345C181.655 32.4246 181.606 32.544 181.635 33.0978C181.74 33.0073 181.837 32.915 181.901 32.8589C182.252 33.0978 182.596 33.3222 182.932 33.5539C182.856 33.6389 182.764 33.7367 182.681 33.8344C182.771 33.9394 182.856 34.0389 182.989 34.2C182.027 34.3538 181.115 34.5022 180.096 34.6633C179.738 35.0415 179.226 35.3221 178.538 35.456C177.767 35.6116 176.973 35.7582 176.229 36.1582C175.702 36.4387 175.071 36.6559 174.383 36.5998C173.527 36.5238 172.656 36.5799 171.764 36.5799C171.505 36.1926 171.252 35.8143 170.979 35.4144C169.835 35.8433 168.718 36.2632 167.643 36.6704C167.601 36.8604 167.582 36.9943 167.567 37.0504C167.131 36.9654 166.745 36.8948 166.394 36.826C166.099 37.0848 165.86 37.302 165.77 37.3798C164.653 37.2676 163.734 37.1753 162.729 37.0776C162.653 36.9654 162.527 36.7753 162.393 36.5799C162.885 36.5998 163.39 36.6432 163.551 36.0044C163.804 35.941 164.056 35.8704 164.346 35.7999C164.422 35.856 164.57 35.9555 164.794 36.1166C164.99 35.751 165.153 35.4488 165.328 35.1194C165.251 35.0072 165.18 34.8949 165.097 34.7683C165.37 34.2905 165.292 33.7584 165.265 33.2245C165.131 33.0906 164.99 32.9494 164.899 32.8589C164.338 33.0761 163.804 33.2806 163.271 33.4833C163.376 33.6661 163.468 33.8199 163.551 33.9683C163.361 34.0661 163.166 34.1584 162.976 34.2561C162.688 34.0172 162.393 33.7783 162.098 33.5394C162.197 33.4417 162.266 33.3711 162.329 33.3077C162.063 33.0489 161.79 32.7811 161.522 32.5223C161.488 32.4445 161.459 32.3612 161.425 32.2834C161.361 32.3612 161.298 32.4445 161.242 32.5368C161.235 32.5295 161.22 32.515 161.2 32.4933C161.122 32.5639 161.046 32.6273 160.961 32.6978C160.988 32.725 161.025 32.7612 161.052 32.7883C161.122 32.7123 161.186 32.6345 161.242 32.5368C161.327 32.5223 161.417 32.5223 161.515 32.5223C161.593 33.505 160.849 34.2271 160.891 35.1972C160.778 35.1972 160.666 35.1972 160.554 35.2044C160.14 34.4877 159.698 33.7928 159.318 33.0562C159.198 32.8245 159.108 32.4372 159.22 32.2562C159.635 31.5957 159.437 30.8862 159.474 30.1912C159.481 30.1985 159.493 30.213 159.515 30.2329C159.593 30.1641 159.669 30.1008 159.754 30.0302C159.725 30.0012 159.691 29.9668 159.662 29.9397C159.593 30.0157 159.53 30.0935 159.474 30.1912C158.884 30.2546 159.445 30.9079 158.974 31.0907C158.974 30.6129 158.974 30.1641 158.974 29.6646C159.193 29.6646 159.417 29.6646 159.781 29.6646C159.698 29.3569 159.635 29.1307 159.571 28.8936C161.088 27.9941 161.817 26.5843 161.846 24.7871C162.59 24.6677 163.243 24.4777 163.243 23.551C162.878 23.6777 162.554 24.0777 162.12 23.7266C162.583 23.1855 163.053 22.6461 163.551 22.0634C163.643 22.1394 163.756 22.21 163.819 22.3077C163.88 22.4199 163.895 22.5611 163.958 22.771C164.204 21.9512 165.004 21.5078 164.983 20.6517C164.829 20.7422 164.682 20.8273 164.527 20.9178C164.492 20.849 164.443 20.7712 164.351 20.6028C164.507 20.4345 164.682 20.2373 164.941 19.9495C165.082 20.1251 165.173 20.2445 165.27 20.364C165.812 20.0545 165.714 19.3034 166.275 18.9523C166.345 19.0084 166.443 19.079 166.535 19.1568C166.83 19.003 167.138 18.8473 167.455 18.679C167.889 19.1423 168.458 18.8129 168.928 18.9252C169.272 18.2374 168.796 17.9768 168.486 17.6402C168.781 17.3524 168.753 16.7697 169.321 16.7498C169.321 16.5597 169.321 16.3697 169.321 16.167C169.947 15.5408 170.571 14.9164 171.196 14.2848C171.132 14.207 171.076 14.131 171.013 14.0531C170.157 14.4042 169.308 14.7553 168.394 15.1336C168.262 15.0648 168.065 14.958 167.601 15.0503C167.582 15.0015 167.728 14.8675 167.96 14.6431C167.687 14.6214 167.504 14.6087 167.287 14.587C167.306 14.8187 167.314 14.9454 167.601 15.0503C167.869 15.0015 167.869 15.1408 167.869 15.2892C166.879 15.653 166.373 17.0086 165.004 16.5308C164.983 16.9941 164.963 17.318 164.956 17.528C164.478 17.9135 164.056 18.2573 163.6 18.6302C163.417 18.6302 163.186 18.6302 162.948 18.6302C162.948 18.5324 162.948 18.4401 162.948 18.3424C162.849 18.4401 162.758 18.5324 162.661 18.6302C162.478 18.6645 162.295 18.6935 162.112 18.7279C162.12 18.7912 162.127 18.8546 162.134 18.9179C162.31 18.9179 162.485 18.9179 162.666 18.9179C162.225 19.2962 161.783 19.6762 161.417 19.9857C160.673 20.0907 160 20.1884 159.381 20.2789C158.94 21.115 158.379 21.6562 157.655 22.1321C156.869 22.6516 155.935 22.9122 155.211 23.5438C154.735 23.9655 154.194 24.3238 153.675 24.7238C153.682 24.7166 153.697 24.7021 153.717 24.6804C153.646 24.6043 153.583 24.5265 153.514 24.4433C153.485 24.4704 153.451 24.5048 153.422 24.5338C153.499 24.6043 153.577 24.6677 153.675 24.7238C153.858 25.0604 153.239 25.3898 153.675 25.7699C152.951 26.0359 152.271 26.3581 151.59 26.7019C151.119 26.9408 151.217 27.6575 150.573 27.6847C150.32 27.6919 150.073 27.8602 149.568 28.0575C149.169 28.6258 148.62 29.413 148.074 30.1985C147.764 30.1985 147.476 30.1985 147.279 30.1985C146.852 30.5206 146.452 30.7668 146.115 31.0835C145.828 31.3495 145.645 31.735 145.35 32.0029C145.167 32.1712 144.865 32.2128 144.394 32.3956C144.262 32.5567 143.967 32.9078 143.524 33.4417C143.25 33.5123 142.731 33.6516 142.141 33.8145C142.141 33.9683 142.141 34.1927 142.141 34.3828C141.658 34.761 141.117 35.0289 140.807 35.4632C140.512 35.8777 139.873 35.8071 139.719 36.4315C139.663 36.6505 139.032 36.7753 138.646 36.8604C138.322 36.931 137.971 36.8749 137.586 36.8749C136.862 37.8848 135.767 37.8015 134.679 37.7164C134.301 37.4576 133.921 37.2043 133.479 36.902C131.612 36.9382 131.022 36.5437 130.777 34.8732C130.404 34.6416 129.948 34.3683 129.519 34.1023C129.568 33.6878 129.626 33.1684 129.702 32.43C129.414 32.6417 129.309 32.7811 129.168 32.8173C128.993 32.8589 128.79 32.8318 128.58 32.8318C128.517 32.6562 128.461 32.4879 128.405 32.3395C128.081 32.4173 127.758 32.5006 127.427 32.5784C127.393 32.515 127.358 32.4517 127.322 32.3884C127.576 32.1983 127.829 32.0101 128.129 31.7785C128.137 31.5884 128.432 31.2228 127.891 31.098C127.976 30.9351 128.061 30.7668 128.186 30.5206C127.941 30.5206 127.773 30.5206 127.603 30.5206C127.603 30.4229 127.603 30.3324 127.603 30.2329C127.505 30.3324 127.415 30.4229 127.315 30.5206C127.239 30.5568 127.154 30.584 127.078 30.6202C127.154 30.6835 127.239 30.7469 127.315 30.8156C127.344 31.2518 127.673 31.0618 127.891 31.1034C127.751 31.6174 127.371 31.7223 126.908 31.6789C125.771 30.3396 126.93 29.0185 127.042 27.482C126.656 27.7136 126.444 27.8475 126.235 27.9742C126.227 27.9742 125.54 28.6692 125.532 28.6692C124.781 28.5769 124.41 29.3569 123.666 29.4329C123.055 29.4963 122.606 30.2401 121.875 30.3252C121.699 30.3469 121.553 30.6473 121.391 30.8229C121.294 30.7251 121.223 30.6546 121.153 30.584C120.872 30.669 120.584 30.7595 120.121 30.9007C119.98 31.0907 119.728 31.4418 119.565 31.6662C119.053 31.6662 118.765 31.6662 118.463 31.6662C118.373 31.8545 118.282 32.0517 118.19 32.249C118.07 32.1422 117.966 32.0445 117.861 31.954C117.073 32.0734 117.004 32.8734 116.505 33.3566C116.322 33.3566 116.098 33.3566 115.824 33.3566C115.768 33.6661 115.72 33.9267 115.649 34.2561C114.259 34.5221 113.388 35.5827 112.35 36.636C112.237 36.3681 112.132 36.1021 111.971 35.7094C111.557 36.3338 111.34 36.6631 111.057 37.0921C110.448 37.1192 110.026 37.4848 109.606 38.0458C109.099 38.7209 108.629 39.5625 107.682 39.7597C107.246 39.8502 107.275 40.6646 106.651 40.357C106.327 40.7425 105.849 40.5452 105.478 40.6719C105.063 40.813 104.705 41.1497 104.263 41.4374C104.2 41.3958 104.066 41.3107 103.912 41.213C103.568 41.4085 103.225 41.6329 102.859 41.7885C102.53 41.9279 102.157 41.9641 101.827 42.0962C101.462 42.2446 101.118 41.613 100.718 42.1469C99.7914 41.6202 98.8575 41.0936 97.7987 40.4818C97.7987 40.2574 97.7987 39.8991 97.7987 39.5353C97.4676 39.4919 97.2431 39.472 96.8993 39.4303C96.9554 39.0919 97.0042 38.7625 97.0676 38.3698C96.9137 38.1381 96.6893 37.8015 96.4504 37.4504C96.2821 37.4504 96.0849 37.4504 95.7555 37.4504C95.8677 37.2314 95.9582 37.0631 96.0776 36.8387C95.9871 36.7192 95.8822 36.5726 95.7772 36.4242C95.8532 36.341 95.9509 36.236 96.0849 36.0876C96.0215 35.9483 95.9455 35.7854 95.846 35.5682C95.9021 35.4216 95.9871 35.1972 96.0921 34.9221C95.741 34.8732 95.4749 34.8316 95.1944 34.79C95.1999 34.6144 95.2071 34.4805 95.2216 34.2416C95.3754 34.3538 95.4677 34.4244 95.636 34.5438C95.8894 34.2778 96.1482 33.9955 96.521 33.5955C96.1898 33.4634 96.0016 33.3856 95.7066 33.2589C95.7971 32.944 95.8948 32.6128 96.0143 32.2128C96.4776 32.2128 96.8287 32.2128 97.187 32.2128C96.2821 31.8346 95.3338 32.03 94.3511 31.9051C94.1339 30.1641 94.6804 28.6891 95.8188 27.3625C96.1066 27.0259 96.4088 26.7236 96.7527 26.492C97.8114 25.7699 98.6964 24.807 99.8619 24.2315C99.9814 24.1754 100.115 24.141 100.276 24.0849C100.381 23.8877 100.501 23.6415 100.591 23.4732C100.501 23.1583 100.416 22.8561 100.325 22.5339C100.557 22.4561 100.718 22.4 100.935 22.3294C100.935 22.0706 100.935 21.7955 100.935 21.6761C101.413 20.8345 101.813 20.1323 102.206 19.4446C101.947 19.2401 101.75 19.0862 101.561 18.9324C101.779 18.8908 102.115 19.0717 102.137 18.6446C101.918 18.6863 101.581 18.5035 101.561 18.9324C101.196 18.9469 100.796 18.8129 100.521 19.2545C100.459 19.0591 100.403 18.8962 100.34 18.7152C100.276 18.7279 100.177 18.7279 100.15 18.7713C99.9108 19.1206 99.6791 19.479 99.3498 19.9785C99.2792 19.6274 99.2502 19.5007 99.2086 19.269C98.9914 19.2545 98.7308 19.2401 98.4937 19.2274C98.4087 19.459 98.3526 19.6274 98.2892 19.7957C98.1281 19.6907 97.987 19.5912 97.8259 19.479C97.5164 19.6907 97.2287 19.9079 96.9282 20.0979C96.5898 20.3078 96.1265 20.4273 95.9238 20.7295C95.7193 21.0372 95.1166 20.7494 95.1655 21.3955C95.1944 21.7828 94.3872 21.2272 94.3293 21.839C94.0922 21.839 93.8461 21.839 93.5095 21.839C93.2145 23.0244 92.0834 23.361 91.164 23.9021C91.164 24.2532 91.164 24.541 91.164 24.7021C90.764 25.102 90.4346 25.4387 89.9858 25.8821C89.9912 25.8821 89.803 25.8893 89.613 25.8947C89.3596 26.4431 88.728 26.5897 88.3841 27.0476C87.9081 27.0476 87.4231 27.0476 86.8476 27.0476C86.8258 27.2648 86.8114 27.4892 86.777 27.8258C86.1381 27.8403 85.597 28.1208 85.4504 28.8375C85.4214 28.957 85.5481 29.1108 85.6603 29.3623C84.8604 29.2936 84.1509 29.4402 83.6261 30.0863C83.6261 30.2473 83.6261 30.4446 83.6261 30.6346C83.3438 30.7885 83.0777 30.9351 82.8044 31.0907C81.905 30.7595 81.21 31.1106 80.6146 32.2345C80.515 32.1567 80.4173 32.0807 80.2978 31.9884C79.6807 32.5006 79.0418 33.0127 78.4229 33.5539C78.3469 33.6245 78.374 33.8145 78.3595 33.8977C77.9813 34.01 77.6519 34.1077 77.3207 34.2072C77.2592 34.1439 77.1958 34.0805 77.0402 33.9267C77.0329 34.9438 76.0647 34.9221 75.567 35.4216C75.167 35.8143 74.5698 36.017 74.0648 36.312C73.1237 36.8604 72.1899 37.407 71.0949 38.0458C70.9194 38.0458 70.5339 38.0458 70.0145 38.0458C69.9149 37.8992 69.7611 37.6676 69.5783 37.3943C69.4661 37.6748 69.3955 37.8359 69.2978 38.082C68.4345 37.7526 67.5712 37.4142 66.5668 37.036C66.5595 36.9581 66.5469 36.7337 66.5179 36.3971C65.9913 36.3971 65.5714 36.0749 65.1425 35.751C64.7063 35.4216 64.5452 34.866 64.1036 34.6271C63.8937 34.7339 63.6964 34.8244 63.4087 34.9655C63.4087 34.6217 63.4087 34.3973 63.4087 34.0878C62.5309 33.876 61.6749 34.1023 60.741 33.9394C61.7237 33.2951 62.7553 33.4417 63.843 33.42C63.872 33.2661 63.8865 33.0978 63.9281 32.9367C63.9769 32.7684 64.0475 32.6055 64.167 32.2979C64.0964 32.2418 63.9426 32.1078 63.7942 31.9811C63.662 32.0861 63.5625 32.1639 63.4575 32.249C63.3797 32.0445 63.3164 31.8762 63.2548 31.7079C62.987 31.8979 62.7354 32.0807 62.482 32.2562C62.4893 32.2617 62.5038 32.2761 62.5092 32.2834C62.4404 32.3612 62.3771 32.4372 62.3065 32.5223C62.2775 32.4933 62.2431 32.4589 62.216 32.43C62.292 32.3612 62.3698 32.2979 62.4531 32.2273C62.4603 32.2345 62.4676 32.2418 62.4748 32.249C62.3771 31.9612 62.2848 31.6735 62.1726 31.3712C62.1798 31.3785 62.1943 31.3984 62.216 31.4129C62.292 31.3423 62.3698 31.2789 62.4531 31.2102C62.4259 31.1812 62.3897 31.1468 62.3626 31.1179C62.292 31.1957 62.2287 31.2717 62.1726 31.3712C61.7527 31.4979 61.3238 31.6101 60.9509 31.7006C60.6288 32.1078 60.3193 32.4933 59.9555 32.944C59.7166 32.7612 59.5411 32.6273 59.3022 32.4445C59.59 32.0807 59.8216 31.6518 60.1727 31.3984C60.5582 31.1251 60.8604 30.8301 60.9799 30.2835C60.8261 30.3596 60.6777 30.4645 60.5166 30.5007C60.3066 30.5496 60.0804 30.5423 59.8705 30.5641C59.8705 30.7523 59.8705 30.8518 59.8705 31.0762C59.6533 30.964 59.4977 30.8518 59.3293 30.803C59.1266 30.7469 58.9095 30.7396 58.5855 30.7034C58.7611 30.3958 58.866 30.213 59.0217 29.9397C58.6145 29.9397 58.2561 29.9397 57.6734 29.9397C57.8706 29.6863 57.9955 29.5524 58.2833 29.5252C58.3973 29.5524 58.4878 29.5669 58.4878 29.518C58.6416 29.4619 58.5855 29.3569 58.5439 29.3623C58.4878 29.3696 58.4317 29.3913 58.3756 29.4058C58.1512 29.1741 58.1367 29.0402 58.1367 28.8791C57.9828 28.8303 57.82 28.7742 57.5612 28.6891C57.5612 28.4502 57.5612 28.1769 57.5467 27.8892C57.5539 27.8964 57.5684 27.9109 57.5883 27.9308C57.6661 27.8602 57.7439 27.7987 57.8272 27.7281C57.8 27.6991 57.7639 27.6647 57.7367 27.6358C57.6661 27.7136 57.6028 27.7914 57.5467 27.8892C56.4662 28.5425 55.4835 29.3424 54.3668 29.9596C53.4818 30.4446 52.738 31.2029 51.8259 31.925C51.2015 32.0445 50.5137 32.4101 50.0504 33.0489C49.6016 33.6661 49.2632 34.3611 48.8777 35.0216C48.7365 35.2533 48.5971 35.4849 48.4487 35.7094C48.1972 36.0949 47.5583 35.9826 47.4171 36.5582C47.3267 36.9382 47.0805 37.2749 46.9122 37.6187C46.9973 37.7526 47.095 37.8992 47.1927 38.0404C46.8217 38.5526 46.4905 39.0159 45.8245 38.9164C45.5367 39.2041 45.2635 39.4792 44.9811 39.7597C44.6101 39.7597 44.2228 39.7597 43.8735 39.7597C43.4591 40.328 43.0591 40.8764 42.5741 41.5352C42.3008 41.4519 41.9207 41.3397 41.4791 41.213C41.3181 41.4374 41.1425 41.689 40.8964 42.0347C40.6086 42.0347 40.1869 42.0347 39.7164 42.0347C39.387 41.7035 39.0142 41.3325 38.6359 40.9524C37.3872 40.2719 35.9339 40.0674 34.439 39.2892C35.0489 39.0648 35.4217 38.9236 35.9194 38.7354C35.3149 38.5091 34.7684 38.6286 34.2489 38.6159C33.6933 38.6014 33.1124 38.4748 32.6491 38.967C30.8791 37.8431 29.5452 36.4315 28.9064 34.4534C28.7037 33.8145 28.177 33.3005 28.1969 32.5639C28.2042 32.43 27.9454 32.2906 27.6775 32.0246C27.777 30.6962 27.8893 29.2501 28.0015 27.7697C28.9426 27.0675 29.0113 26.092 28.843 24.9265C27.4603 25.5581 26.1699 26.1554 25.0044 27.0114C24.2027 27.6014 23.5367 28.4303 22.4272 28.4719C21.8445 29.194 20.8201 29.2375 20.2156 29.918C19.584 29.7135 19.3451 30.3813 18.9035 30.584C18.3135 30.8663 17.7525 31.3007 17.1914 31.6789C16.6159 32.0662 16.2015 32.6273 16.1454 33.4073C16.1164 33.7928 15.9137 34.171 15.702 34.8316C15.6187 34.2905 15.5771 34.0389 15.5409 33.7783C15.0577 34.1584 14.7554 34.9293 14.7138 35.8777C14.2849 36.1872 13.836 36.5021 13.38 36.826C12.8244 36.1872 13.7872 35.5682 13.5121 34.8732C12.9854 35.38 12.9854 35.38 12.9728 37.1138C12.7538 37.1265 12.5294 37.1482 12.1783 37.1753C11.9756 37.4287 11.7077 37.7581 11.5955 37.8992C10.7684 38.0531 10.1929 38.1653 9.5667 38.2847C9.52507 38.0259 9.49069 37.7581 9.44725 37.492C9.40562 37.4848 9.35676 37.4848 9.31513 37.4776C9.27351 37.7092 9.23007 37.9409 9.17397 38.2503C8.66179 38.2503 8.11523 38.2503 7.45464 38.2503C7.45464 37.702 7.45464 37.1482 7.45464 36.5944C7.39854 36.5871 7.34244 36.5799 7.27909 36.5726C7.11802 37.0215 6.96237 37.4776 6.78682 37.9698C6.57688 37.9698 6.31808 37.9698 5.93802 37.9698C6.20587 37.407 6.43029 36.931 6.66195 36.4387C6.26198 36.3066 5.92354 36.1926 5.53081 36.0677C5.46023 36.1365 5.32811 36.2632 5.27201 36.3193C5.34802 36.8043 5.41136 37.2314 5.49643 37.7653C3.97256 37.0504 2.70931 36.2487 1.68496 34.9167C1.68496 34.6343 1.68496 34.2145 1.68496 33.7439C1.40987 33.7439 1.18545 33.7439 0.968271 33.7439C0.666032 32.8173 0.314929 31.9468 0.0905112 31.0346C0.0271681 30.7885 2.02842e-05 30.4645 0.112229 30.2618C0.470572 29.6012 0.758333 29.033 0.322167 28.2258C0.146616 27.9036 0.504959 27.2919 0.646124 26.8159C0.714897 26.5553 0.834345 26.3092 1.00266 25.8676C1.43158 25.3753 2.34373 24.8432 1.81164 23.6144C1.96548 23.5094 2.21161 23.3339 2.55548 23.095C2.64597 22.8977 2.79437 22.5683 2.95545 22.21C3.1871 22.0978 3.46762 21.9638 3.76262 21.81C3.75538 21.8172 3.73367 21.8317 3.721 21.8516C3.78977 21.9294 3.85311 22.0073 3.9237 22.0905C3.95265 22.0634 3.98704 22.0272 4.01419 22C3.93818 21.9294 3.86035 21.8661 3.76262 21.81C4.24584 20.4418 5.5109 20.1667 6.71081 19.8029C7.17412 19.6617 7.65191 19.5713 8.35231 19.3957C7.97406 19.1007 7.78403 18.9523 7.60124 18.8129C7.6863 18.5324 7.78403 18.2012 7.86185 17.9424C8.22744 17.6746 8.56406 17.4502 8.87897 17.1913C9.76397 16.4747 10.8173 16.0403 11.7584 15.4087C11.8706 15.3309 12.0027 15.1553 12.0878 15.177C13.1411 15.4431 13.675 14.3698 14.6143 14.2287C15.4142 14.1092 16.187 13.5898 16.8892 13.1193C17.9136 12.4388 19.0791 12.1022 20.1541 11.5755C20.6229 11.3438 21.2545 11.7094 21.5567 11.1122C22.9267 11.266 23.9366 10.3394 25.1239 9.93942C26.1898 9.57384 27.2432 9.17387 28.387 9.07614C28.7869 9.04176 29.2231 8.97841 29.5597 8.78114C30.5841 8.19838 31.6862 8.19114 32.8029 8.2201C33.0907 8.22734 33.3784 8.2201 33.6734 8.2201C34.4173 7.48351 35.3439 7.32062 36.3411 7.34234C36.7483 6.90799 37.2532 6.76682 37.8432 6.75958C38.4821 6.75234 39.0721 6.32523 39.7526 6.47906C40.1526 6.56955 40.5941 6.33247 40.9597 6.73243C41.0719 6.85188 41.4719 6.85731 41.6475 6.75234C42.3569 6.32523 43.1152 6.5424 43.8663 6.46458C44.3785 5.90354 44.9884 5.57415 45.81 5.58682C46.2516 5.59406 46.7023 5.31354 47.1366 5.3425C47.6361 5.36964 48.0216 5.12351 48.4632 5.01854C48.5827 4.99139 48.6804 4.84299 48.7383 4.79412C49.2849 5.22305 50.0848 5.5452 50.3165 6.10624C50.6404 6.87903 51.6087 6.7451 51.7842 7.49075C51.8259 7.81289 51.7625 8.2201 51.9308 8.43728C52.7036 9.40553 52.367 10.2978 51.8675 11.2099C51.5526 11.7999 51.2648 12.4044 50.9626 12.9926C51.0531 13.0994 51.1526 13.2043 51.2503 13.3093C50.8576 14.026 50.2405 14.6992 50.1409 15.4431C50.0215 16.3064 49.0261 16.7353 49.2632 17.794C50.2043 17.1769 51.0531 16.5452 51.9743 16.0331C53.0059 15.4575 53.8474 14.5943 54.9641 14.1798C55.2174 14.0875 55.469 14.0043 55.8563 13.8703C56.8445 12.7555 58.0462 11.7293 59.7311 11.3583C60.2143 11.2515 60.6215 10.7611 61.1554 10.3883C61.3527 10.7828 61.5065 11.0832 61.6604 11.3855C61.8015 11.3855 61.9481 11.3855 62.2504 11.3855C62.1454 11.1954 62.0748 11.0832 61.9898 10.9366C62.0477 10.8733 62.1309 10.7756 62.2287 10.6561C62.0332 10.5638 61.8432 10.4806 61.6405 10.3828C62.0965 10.1512 62.5309 9.92495 62.9942 9.68786C63.0358 9.81274 63.0919 9.96838 63.1553 10.1711C63.7308 9.99553 64.3063 9.84169 64.8764 9.64442C65.2619 9.51231 65.4791 9.22455 65.4157 8.78838C65.4085 8.79562 65.4031 8.80286 65.3886 8.81734C65.3108 8.74676 65.233 8.68341 65.1497 8.61283C65.1769 8.58568 65.213 8.54949 65.2402 8.52234C65.3108 8.59835 65.3741 8.67617 65.4447 8.76124C65.4375 8.76666 65.4302 8.7739 65.423 8.78114C65.8718 8.59111 66.308 8.29068 66.7713 8.23458C67.3541 8.15676 67.3541 7.70792 67.5857 7.32062C67.7323 7.36406 67.9006 7.40568 68.1395 7.47627C69.0173 7.11792 69.0173 7.11792 69.5023 5.97412C69.9439 5.80581 70.4416 5.61578 70.9483 5.43299C72.1193 5.0113 73.2287 4.43578 74.4576 4.11363C75.3552 3.87474 76.1353 3.72814 76.9841 4.14802C77.1325 4.2186 77.3424 4.15526 77.5325 4.15526C78.0519 5.32802 79.1468 5.78409 80.039 6.46458C80.1078 6.394 80.1712 6.33247 80.2761 6.22569C80.6073 6.59851 80.9023 7.22289 81.2806 7.279C81.9755 7.38397 81.6661 8.43728 82.6922 8.13504C81.9755 9.09062 83.1899 9.73673 82.5728 10.676C82.1855 11.266 82.6922 12.2415 82.1801 12.9365C82.3049 13.0776 82.3972 13.1754 82.5167 13.3021C82.285 13.4631 82.0678 13.6188 81.6317 13.9192C81.534 14.3337 81.3729 14.987 81.2172 15.6331C80.6707 15.4775 80.8661 16.3353 80.2978 16.3987C79.9395 16.4403 79.6373 16.9941 79.1812 17.4375C79.9829 17.3036 80.5928 17.2058 81.3095 17.0864C82.3411 16.5941 83.456 16.0186 84.6088 15.5281C84.9798 15.3725 85.4359 15.4286 85.6115 15.4159C86.6575 15.1137 87.1498 14.1871 88.1597 14.2703C88.3153 13.8215 88.4764 13.3582 88.6592 12.8315C89.6763 12.9365 90.4346 12.4533 91.0174 11.6533C91.1079 11.7366 91.1784 11.7999 91.2979 11.9121C91.7323 11.6949 92.1901 11.4705 92.639 11.2461C92.639 11.0905 92.639 10.9511 92.639 10.8099C92.6317 10.8172 92.6173 10.8244 92.61 10.8389C92.534 10.7683 92.4562 10.705 92.3711 10.6344C92.4001 10.6072 92.4345 10.571 92.4634 10.5439C92.534 10.6199 92.5973 10.6977 92.6661 10.7828C92.6589 10.7882 92.6534 10.7955 92.6534 10.7955C92.8779 10.6416 93.095 10.4878 93.3339 10.3195C94.6949 11.0072 95.37 9.89056 96.2532 9.09062C96.7943 9.09062 97.4114 9.09062 98.2476 9.09062C98.0376 8.84449 97.9453 8.73952 97.7553 8.52234C98.6476 8.55673 99.3353 8.31059 99.9524 7.73507C100.247 7.46179 100.781 7.44007 101.167 7.31519C101.35 7.02019 101.511 6.7451 101.681 6.46458C102.081 6.90799 102.403 6.42296 102.761 6.43019C103.083 6.44467 103.4 6.17682 103.786 6.12796C104.158 6.08633 104.502 5.77685 104.861 5.59406C105.183 5.43299 105.505 5.27915 106.095 4.98415C106.102 4.98415 106.426 4.98415 106.748 4.98415C106.763 4.93529 106.77 4.88642 106.783 4.83575C106.517 4.77241 106.251 4.71087 105.8 4.59866C106.446 4.2186 106.951 3.86026 107.507 3.62136C107.955 3.43314 108.475 3.28474 108.953 3.29922C109.928 3.32636 110.918 3.37704 111.859 3.60146C112.447 3.74081 112.954 4.20412 113.486 4.52084C113.34 4.7163 113.235 4.86471 113.037 5.12351C113.606 5.35517 114.083 5.5452 114.666 5.78409C115.017 6.24016 115.376 6.81569 115.137 7.58848C114.976 7.51065 114.842 7.44731 114.708 7.38397C114.673 7.49075 114.644 7.574 114.603 7.7224C114.876 7.90338 115.171 8.09341 115.495 8.30335C115.396 8.43004 115.32 8.52234 115.227 8.64179C115.305 8.73228 115.39 8.83001 115.466 8.91507C115.361 9.1051 115.256 9.29332 115.122 9.52498C115.368 9.61004 115.537 9.66614 115.832 9.77111C115.741 10.0516 115.615 10.3267 115.571 10.6145C115.515 10.9855 115.51 11.3656 115.502 11.7438C115.488 12.0732 115.502 12.4098 115.502 12.7682C115.263 12.9238 115.032 13.0632 114.652 13.3093C114.554 13.6532 114.4 14.1726 114.196 14.882C114.161 14.9237 113.964 15.1282 113.776 15.3236C113.852 15.4014 113.922 15.472 113.986 15.5336C113.776 16.0548 113.564 16.5796 113.361 17.0864C112.918 17.3379 112.455 17.5986 111.999 17.8574C112.028 17.9279 112.055 17.9913 112.084 18.0619C112.272 18.0058 112.455 17.9424 112.645 17.8863C113.284 17.6963 113.817 17.2692 114.512 17.128C115.052 17.023 115.51 16.538 116.022 16.2502C116.527 15.9697 117.039 15.682 117.573 15.4648C118.19 15.2114 118.97 15.1843 119.441 14.7771C119.98 14.3065 120.675 14.2287 121.216 13.7509C122.05 13.0215 123.23 12.7555 124.086 11.9827C124.361 11.7366 124.725 11.5972 124.964 11.3294C125.864 10.3684 126.986 9.75663 128.214 9.39286C129.253 9.07614 130.173 8.58568 131.043 7.95949C131.114 8.14952 131.17 8.31783 131.248 8.52958C131.977 8.37394 132.497 7.97397 132.931 7.34234C132.813 7.18127 132.699 7.0401 132.616 6.92065C133.157 5.85467 134.533 6.1352 135.318 5.0475C135.403 5.49633 135.437 5.6936 135.479 5.8963C135.655 5.8963 135.837 5.8963 135.998 5.8963C136.027 5.70627 136.084 5.6013 136.049 5.52348C135.993 5.3986 135.886 5.29906 135.803 5.17961C136.013 4.73078 136.301 4.68191 137.101 5.0113C137.298 4.19688 137.93 3.97971 138.681 3.84578C139.424 3.71366 140.246 3.60146 140.856 3.20149C141.546 2.75084 142.302 2.47756 142.984 2.02873C143.792 1.50207 144.689 1.18535 145.694 1.2487C146.494 1.3048 147.181 0.904833 147.862 0.575447C148.474 0.273208 149 0.358269 149.659 0.604404C150.502 0.434281 151.471 0.231582 152.573 0.0144043C152.138 0.54106 151.758 0.807103 150.986 1.14373C151.386 1.19983 151.624 1.27765 151.849 1.2487C153.063 1.13649 153.97 1.3048 154.897 2.02873C155.262 2.30925 155.782 2.44317 155.943 3.00422C155.992 3.19425 156.377 3.28474 156.665 3.45305C156.553 3.68471 156.433 3.9236 156.328 4.13535C156.694 4.78688 157.038 5.41851 157.396 6.07185C156.84 6.66185 157.62 7.02743 157.752 7.65906C157.276 8.19114 157.515 9.0689 157.172 9.77111C156.82 10.495 156.357 11.161 155.928 11.885C155.268 12.0243 154.58 12.1854 154.594 13.1337C154.587 13.1265 154.573 13.1048 154.553 13.0921C154.475 13.1609 154.397 13.2242 154.314 13.2948C154.341 13.3238 154.377 13.3582 154.404 13.3871C154.475 13.3093 154.538 13.2315 154.594 13.1337C154.777 13.2242 154.973 13.3238 155.155 13.4215C155.977 13.1609 155.992 11.9194 157.03 11.9682C157.128 12.0605 157.233 12.1583 157.345 12.2632C157.859 11.6244 158.455 11.1683 159.374 11.2877C159.656 10.5222 160.393 10.5222 161.13 10.5077C161.291 10.1512 161.459 9.78559 161.656 9.34942C161.873 9.42725 162.261 9.62452 162.295 9.56841C162.61 9.11777 162.737 9.70053 162.976 9.67338C163.222 9.64442 163.481 9.78559 163.776 9.85617C164.514 9.21731 165.082 8.11513 166.212 7.95949C166.872 7.869 167.594 7.58848 168.389 7.82737C168.416 7.74955 168.465 7.60295 168.508 7.47627C168.83 7.3351 169.147 7.09621 169.484 7.06906C169.82 7.0401 170.179 7.20842 170.571 7.30795C170.754 7.21565 170.993 7.10345 171.274 6.96409C171.435 6.33789 171.61 5.76961 172.481 5.5452C173.134 5.37688 173.751 5.32802 174.405 5.3063C174.573 5.13799 174.741 4.96244 174.937 4.75974C175.38 4.75974 175.858 4.75974 176.461 4.75974C176.573 4.57695 176.721 4.32357 176.79 4.20412C177.872 4.20412 178.777 4.19688 179.677 4.21136C179.745 4.21136 179.809 4.33805 179.879 4.40863C180.02 4.30909 180.16 4.20412 180.286 4.12087C181.606 4.77241 183.059 5.20857 183.276 6.88627C183.579 7.0763 183.845 7.24461 184.091 7.39845C184.091 7.83461 184.091 8.2201 184.091 8.64903C184.246 8.70513 184.415 8.754 184.673 8.84449C184.597 8.94946 184.54 9.03452 184.442 9.17387C185.158 10.0172 184.512 10.9149 184.322 11.7221C184.127 12.551 183.41 13.2604 182.912 14.0387C183.003 14.1581 183.088 14.2631 183.179 14.3825C183.151 14.4332 183.13 14.5164 183.074 14.5653C182.869 14.7626 182.688 15.0286 182.442 15.1209C181.642 15.4159 181.542 16.0548 181.474 16.8819C182.884 16.1453 184.147 15.3598 185.544 14.797C186.934 14.2359 188.148 13.2604 189.602 12.5365C189.602 12.846 189.602 13.1265 189.616 13.4143C189.609 13.407 189.594 13.3925 189.573 13.3726C189.497 13.4432 189.419 13.5066 189.336 13.5753C189.363 13.6043 189.399 13.6387 189.426 13.6676C189.497 13.5898 189.56 13.512 189.616 13.4143C189.812 13.331 190.079 13.3238 190.226 13.1899C190.83 12.636 191.391 12.046 191.981 11.456C192.235 11.3927 192.55 11.3999 192.747 11.2461C193.742 10.4878 194.839 10.0444 196.095 9.88332C196.578 9.82722 197.12 9.68062 197.597 9.34219C198.651 8.59835 199.809 8.09341 201.155 8.17124C201.599 8.19838 202.048 8.31059 202.504 7.93234C202.813 7.67897 203.438 8.10789 203.838 7.69345C205.13 7.68621 206.301 7.00572 207.607 7.00572C208.232 7.00572 208.905 6.90075 209.468 6.64013C209.797 6.4863 210.092 6.43743 210.402 6.46458C210.892 6.51345 211.433 6.81569 211.86 6.69624C212.36 6.55688 212.831 6.43743 213.343 6.45734C213.616 6.47182 213.953 6.43743 214.157 6.56955C214.733 6.95685 215.203 6.68176 215.723 6.44467C215.862 6.53516 216.01 6.64013 216.157 6.73786C216.769 6.50078 217.274 6.8374 217.835 6.96409C218.452 7.09621 219.056 7.30072 219.688 7.43283C219.976 7.84004 220.263 8.25449 220.58 8.70513C220.636 9.70053 220.446 10.7466 220.973 11.751ZM4.32367 22.0199C4.4214 22.0199 4.5137 22.0199 4.61143 22.0199C4.61143 21.9855 4.61143 21.9566 4.61143 21.9222C4.5137 21.9222 4.4214 21.9222 4.32367 21.9222C4.32367 21.9512 4.32367 21.9855 4.32367 22.0199ZM4.90643 36.3971C4.8087 36.3971 4.7164 36.3971 4.61867 36.3971C4.61867 36.4315 4.61867 36.4604 4.61867 36.4948C4.7164 36.4948 4.8087 36.4948 4.90643 36.4948C4.90643 36.4604 4.90643 36.4242 4.90643 36.3971ZM6.06471 34.0805C5.96698 34.0805 5.87468 34.0805 5.77695 34.0805C5.77695 34.1149 5.77695 34.1439 5.77695 34.1783C5.87468 34.1783 5.96698 34.1783 6.06471 34.1783C6.06471 34.1439 6.06471 34.1077 6.06471 34.0805ZM6.35247 32.6345C6.25474 32.6345 6.16244 32.6345 6.06471 32.6345C6.06471 32.6689 6.06471 32.6978 6.06471 32.7322C6.16244 32.7322 6.25474 32.7322 6.35247 32.7322C6.35247 32.6978 6.35247 32.6616 6.35247 32.6345ZM10.4318 17.6547C10.4589 17.6818 10.4933 17.718 10.5223 17.7452C10.5711 17.689 10.62 17.6257 10.5567 17.5425C10.5223 17.5768 10.4807 17.6185 10.4318 17.6547ZM11.1829 35.9338C11.0833 35.9682 10.8734 36.046 10.4662 36.1872C11.2589 36.236 11.2589 36.236 11.1829 35.9338ZM11.5684 31.4762C11.4706 31.4762 11.3783 31.4762 11.2806 31.4762C11.2806 31.5106 11.2806 31.5396 11.2806 31.5739C11.3783 31.5739 11.4706 31.5739 11.5684 31.5739C11.5684 31.5396 11.5684 31.5034 11.5684 31.4762ZM11.7584 30.7957C11.7222 30.7957 11.695 30.7957 11.6588 30.7957C11.6588 30.8935 11.6588 30.9839 11.6588 31.0835C11.695 31.0835 11.7222 31.0835 11.7584 31.0835C11.7584 30.9912 11.7584 30.8935 11.7584 30.7957ZM13.541 16.2014C13.541 15.9408 13.541 15.7164 13.541 15.4992C12.5855 16.1037 11.6661 16.6864 10.7883 17.4502C12.0244 17.4375 12.7484 16.6719 13.541 16.2014ZM13.4705 29.6646C13.4361 29.708 13.3926 29.7569 13.3022 29.9324C13.3094 29.9397 13.3166 29.9451 13.3293 29.9596C13.4071 29.889 13.4849 29.8257 13.5682 29.7569C13.5338 29.7279 13.5049 29.7008 13.4705 29.6646ZM13.2732 17.8936C13.246 17.8646 13.2117 17.8302 13.1827 17.8013C13.1121 17.8791 13.0488 17.9569 13.0415 18.089C13.0216 18.0691 13.0072 18.0546 12.9854 18.0329C12.9094 18.1035 12.8316 18.1668 12.7484 18.2374C12.7755 18.2646 12.8099 18.3008 12.8388 18.3279C12.9094 18.2519 12.9728 18.1741 12.98 18.0402C12.9999 18.0619 13.0144 18.0763 13.0361 18.0963C13.1194 18.0257 13.1972 17.9569 13.2732 17.8936ZM13.1682 29.9324C13.1266 30.079 13.0922 30.2057 13.2044 30.0229C13.1899 29.9958 13.1755 29.9596 13.1682 29.9324ZM12.6488 36.0116C12.5999 36.0116 12.5511 36.0116 12.5022 36.0116C12.5022 36.1998 12.5022 36.3971 12.5022 36.5871C12.5511 36.5871 12.5999 36.5871 12.6488 36.5871C12.6488 36.3971 12.6488 36.1998 12.6488 36.0116ZM12.9854 33.8145C12.9583 33.7855 12.9221 33.7511 12.8949 33.7222C12.8244 33.8 12.761 33.876 12.7538 34.01C12.7339 33.99 12.7194 33.9756 12.6977 33.9538C12.6217 34.0244 12.5438 34.0878 12.4606 34.1584C12.4877 34.1855 12.5221 34.2217 12.5511 34.2488C12.6217 34.171 12.685 34.095 12.6904 33.9611C12.7122 33.9828 12.7266 33.9955 12.7484 34.0172C12.8316 33.9466 12.9094 33.876 12.9854 33.8145ZM13.2949 30.3324C13.2804 30.2473 13.2533 30.1713 13.2243 30.0863C13.161 30.2202 13.0777 30.3885 12.9655 30.6274C13.1899 30.4374 13.3022 30.374 13.2949 30.3324ZM13.3022 31.4762C13.2044 31.4762 13.1121 31.4762 13.0144 31.4762C13.0144 31.5106 13.0144 31.5396 13.0144 31.5739C13.1121 31.5739 13.2044 31.5739 13.3022 31.5739C13.3022 31.5396 13.3022 31.5034 13.3022 31.4762ZM14.4532 30.6473C14.4604 30.6401 14.3899 30.584 14.2921 30.4862C13.9826 30.6202 13.6388 30.7668 13.2533 30.9278C13.4922 31.1251 13.6949 31.2862 13.9193 31.469C14.1383 31.1396 14.2994 30.9007 14.4532 30.6473ZM14.7192 29.1814C14.6921 29.1524 14.6577 29.118 14.6287 29.0891C14.5582 29.1669 14.4948 29.2447 14.4876 29.3768C14.4677 29.3569 14.4532 29.3424 14.4315 29.3207C14.3555 29.3913 14.2776 29.4546 14.1944 29.5252C14.2215 29.5524 14.2559 29.5886 14.2849 29.6157C14.3555 29.5379 14.4188 29.4619 14.426 29.328C14.446 29.3497 14.4604 29.3623 14.4822 29.3841C14.5654 29.3135 14.6432 29.2447 14.7192 29.1814ZM15.816 31.3785C15.7798 31.3785 15.7526 31.3785 15.7164 31.3785C15.7164 31.4762 15.7164 31.5667 15.7164 31.6662C15.7526 31.6662 15.7798 31.6662 15.816 31.6662C15.816 31.5667 15.816 31.4762 15.816 31.3785ZM20.3496 19.5079C20.3858 19.5079 20.4129 19.5079 20.4473 19.5079C20.4473 19.4102 20.4473 19.3179 20.4473 19.2202C20.4129 19.2202 20.3858 19.2202 20.3496 19.2202C20.3496 19.3179 20.3496 19.4102 20.3496 19.5079ZM20.0546 14.0115C20.0908 14.0115 20.1179 14.0115 20.1541 14.0115C20.1541 13.9138 20.1541 13.8215 20.1541 13.7237C20.1179 13.7237 20.0908 13.7237 20.0546 13.7237C20.0546 13.8142 20.0546 13.9138 20.0546 14.0115ZM19.3813 19.8029C19.3886 19.8102 19.403 19.8228 19.4085 19.8301C19.4863 19.7595 19.5641 19.6979 19.6474 19.6274C19.6202 19.5984 19.584 19.564 19.5569 19.5351C19.4863 19.6129 19.4157 19.6907 19.3813 19.8029ZM18.8329 20.259C18.8619 20.2861 18.8963 20.3223 18.9252 20.3495C18.9958 20.2735 19.0574 20.1956 19.0936 20.0907C19.0863 20.0834 19.0718 20.069 19.0646 20.0617C18.9886 20.1251 18.9108 20.1884 18.8329 20.259ZM17.9425 20.6662C17.9425 20.6734 17.9425 20.6861 17.9425 20.6933C18.1307 20.659 18.3208 20.6173 18.5108 20.5811C18.5036 20.5178 18.4963 20.4544 18.4891 20.3929C18.3009 20.4128 18.1181 20.4273 17.9425 20.6662ZM16.8747 18.0619C16.9109 18.0619 16.9381 18.0619 16.9725 18.0619C16.9725 17.9641 16.9725 17.8718 16.9725 17.7741C16.9381 17.7741 16.9109 17.7741 16.8747 17.7741C16.8747 17.8646 16.8747 17.9641 16.8747 18.0619ZM16.3915 21.4245C17.0575 21.6634 17.1842 21.2761 17.3525 20.954C17.5425 20.9178 17.8158 21.0444 17.8991 20.6662C17.6819 20.6861 17.3742 20.5395 17.2819 20.8417C17.0231 21.0173 16.7553 21.1856 16.3915 21.4245ZM16.9453 29.0257C17.0991 28.6185 17.2403 28.2475 17.3941 27.8186C17.5208 27.9308 17.5987 28.0014 17.6258 28.0303C17.8719 27.777 18.1181 27.5308 18.3914 27.2575C17.8937 27.3697 17.3797 27.4892 16.8747 27.6014C16.7137 28.1842 16.6014 28.5841 16.4675 29.0474C16.7281 29.0402 16.8548 29.033 16.9453 29.0257ZM20.498 28.4936C19.9225 28.5914 19.3524 28.7108 19.0936 29.3497C18.6013 29.328 18.2303 29.5524 17.8575 29.9252C17.3797 29.9035 17.0991 30.1496 17.0648 30.6129C17.3236 30.3885 17.6113 30.1424 17.9353 29.9324C18.0891 30.0229 18.2375 30.108 18.4257 30.2202C18.6447 29.9397 18.8691 29.6519 19.0936 29.3569C19.6763 29.2501 20.2518 29.1379 20.498 28.4936ZM20.8056 28.3108C20.7785 28.2819 20.7423 28.2475 20.7152 28.2185C20.6446 28.2964 20.5812 28.3742 20.5468 28.4792C20.5541 28.4864 20.5667 28.4991 20.574 28.5063C20.6446 28.443 20.7224 28.3796 20.8056 28.3108ZM21.4101 28.0014C21.3124 28.0014 21.2201 28.0014 21.1224 28.0014C21.1224 28.0358 21.1224 28.0647 21.1224 28.0991C21.2201 28.0991 21.3124 28.0991 21.4101 28.0991C21.4101 28.0647 21.4101 28.0303 21.4101 28.0014ZM21.9856 27.7136C21.8879 27.7136 21.7956 27.7136 21.6979 27.7136C21.6979 27.748 21.6979 27.777 21.6979 27.8113C21.7956 27.8113 21.8879 27.8113 21.9856 27.8113C21.9856 27.777 21.9856 27.7426 21.9856 27.7136ZM22.4707 27.3281C22.4345 27.3281 22.4073 27.3281 22.3711 27.3281C22.3711 27.4258 22.3711 27.5163 22.3711 27.6159C22.4073 27.6159 22.4345 27.6159 22.4707 27.6159C22.4707 27.5163 22.4707 27.4186 22.4707 27.3281ZM22.8272 17.8936C22.8001 17.8646 22.7639 17.8302 22.7367 17.8013C22.6661 17.8791 22.6028 17.9569 22.6245 17.9696C22.1757 18.1596 21.8029 18.3134 21.3323 18.5107C22.02 18.7767 22.3711 18.5958 22.5322 18.0329C22.5539 18.0546 22.5684 18.0691 22.5883 18.089C22.6734 18.0257 22.7512 17.9569 22.8272 17.8936ZM23.6977 26.577C23.6706 26.5481 23.6344 26.5137 23.6072 26.4847C23.5367 26.5626 23.4733 26.6404 23.4661 26.7725C23.4462 26.7526 23.4317 26.7381 23.41 26.7164C23.334 26.787 23.2561 26.8503 23.1711 26.9209C23.2 26.9481 23.2344 26.9843 23.2634 27.0114C23.334 26.9336 23.3955 26.8576 23.4027 26.7236C23.4244 26.7454 23.4389 26.758 23.4588 26.7797C23.5439 26.7092 23.6217 26.6404 23.6977 26.577ZM29.2303 24.4288C29.2303 24.2044 29.2303 24.0361 29.2014 23.8533C28.7236 23.8388 28.3598 24.056 28.072 24.4288C27.8531 24.4704 27.5164 24.2876 27.7698 24.6677C27.1165 24.6677 26.7455 24.6677 26.3582 24.6677C26.3582 24.3926 26.3582 24.1609 26.3582 23.9582C26.7509 23.7755 27.3481 23.6705 27.4259 23.4171C27.5798 22.8778 27.9725 22.7511 28.472 22.4706C28.0358 22.4706 27.7137 22.4706 27.2775 22.4706C26.8848 22.8633 26.4016 23.3194 25.7265 23.5999C25.3121 23.7755 24.78 24.0288 24.4633 24.7509C24.9972 24.6532 25.3483 24.5899 25.7265 24.5193C25.7265 24.7437 25.7265 24.9681 25.7265 25.2215C25.4189 25.4188 25.1311 25.6631 24.7999 25.7898C24.4705 25.9165 24.1484 25.9798 24.1267 26.4359C25.3682 26.1626 26.4505 25.5509 27.4893 24.7093C27.7065 24.6677 28.0431 24.8487 28.0648 24.4216C28.4304 24.4288 28.7869 24.4288 29.2303 24.4288ZM29.4891 23.6777C29.462 23.6488 29.4258 23.6144 29.3986 23.5854C29.3281 23.6632 29.2647 23.7411 29.2303 23.846C29.2303 23.846 29.2303 23.846 29.2231 23.846C29.2303 23.8533 29.243 23.8659 29.2502 23.8732C29.3281 23.8098 29.4131 23.7483 29.4891 23.6777ZM30.6764 21.0517C30.5768 21.0517 30.4863 21.0517 30.3886 21.0517C30.3886 21.0879 30.3886 21.115 30.3886 21.1494C30.4863 21.1494 30.5768 21.1494 30.6764 21.1494C30.6764 21.115 30.6764 21.0879 30.6764 21.0517ZM31.7152 12.9998C31.3912 12.9238 31.2157 12.8731 30.9913 12.817C30.9913 13.1609 30.9913 13.3871 30.9913 13.8776C31.2863 13.5265 31.4473 13.3238 31.7152 12.9998ZM32.0229 37.4576C31.9885 37.4576 31.9595 37.4576 31.9251 37.4576C31.9251 37.5554 31.9251 37.6459 31.9251 37.7454C31.9595 37.7454 31.9885 37.7454 32.0229 37.7454C32.0229 37.6459 32.0229 37.5554 32.0229 37.4576ZM32.7251 12.0804C32.7323 12.1293 32.7396 12.1782 32.7468 12.2216C32.9079 12.2216 33.0689 12.2216 33.2246 12.2216C33.2173 12.1365 33.2101 12.0533 33.2101 11.9755C33.049 12.0099 32.8861 12.046 32.7251 12.0804ZM34.039 37.6821C33.554 37.4432 33.2373 37.2893 32.8518 37.1065C32.7106 37.2821 32.5785 37.4576 32.4029 37.6821C32.8662 37.6821 33.3151 37.6821 34.039 37.6821ZM35.5973 37.5554C35.4977 37.5554 35.4072 37.5554 35.3095 37.5554C35.3095 37.5898 35.3095 37.6187 35.3095 37.6531C35.4072 37.6531 35.4977 37.6531 35.5973 37.6531C35.5973 37.6187 35.5973 37.5825 35.5973 37.5554ZM51.4675 18.8835C51.4603 18.7985 51.4548 18.7152 51.4548 18.6374C51.292 18.6718 51.1309 18.708 50.9698 18.7424C50.9771 18.7912 50.9843 18.8401 50.9915 18.8835C51.1454 18.8835 51.3064 18.8835 51.4675 18.8835ZM52.6891 18.3008C52.662 17.9913 52.6403 17.7325 52.6059 17.3036C52.3941 17.7379 52.2693 17.9985 52.1209 18.3008C52.3181 18.3008 52.4792 18.3008 52.6891 18.3008ZM60.2361 12.2705C60.4605 12.2705 60.6505 12.2361 60.8261 12.2777C60.9944 12.3193 61.1482 12.4388 61.3654 12.5437C61.3654 12.1655 61.3654 11.9266 61.3654 11.7094C61.0288 11.8144 60.6849 11.8976 60.341 11.9972C60.2994 12.0171 60.2849 12.1293 60.2361 12.2705ZM61.2677 27.3281C61.2333 27.3281 61.2043 27.3281 61.1699 27.3281C61.1699 27.4258 61.1699 27.5163 61.1699 27.6159C61.2043 27.6159 61.2333 27.6159 61.2677 27.6159C61.2677 27.5163 61.2677 27.4186 61.2677 27.3281ZM61.3799 26.9843C61.3581 26.6748 61.3382 26.4142 61.302 26.0287C60.8261 26.302 60.4822 26.5065 60.1383 26.7092C60.18 26.8015 60.2216 26.892 60.256 26.9897C60.6071 26.9843 60.9654 26.9843 61.3799 26.9843ZM61.8432 27.3281C61.8088 27.3281 61.7798 27.3281 61.7454 27.3281C61.7454 27.4258 61.7454 27.5163 61.7454 27.6159C61.7798 27.6159 61.8088 27.6159 61.8432 27.6159C61.8432 27.5163 61.8432 27.4186 61.8432 27.3281ZM62.8114 26.2603C62.7137 26.2603 62.6232 26.2603 62.5237 26.2603C62.5237 26.2965 62.5237 26.3237 62.5237 26.3581C62.6232 26.3581 62.7137 26.3581 62.8114 26.3581C62.8114 26.3237 62.8114 26.2965 62.8114 26.2603ZM63.4865 25.5871C63.5209 25.5871 63.5498 25.5871 63.5842 25.5871C63.5842 25.4875 63.5842 25.397 63.5842 25.2993C63.5498 25.2993 63.5209 25.2993 63.4865 25.2993C63.4865 25.397 63.4865 25.4875 63.4865 25.5871ZM63.9426 30.9152C63.9136 30.8862 63.8792 30.8518 63.8503 30.8229C63.7815 30.9007 63.7181 30.9785 63.7109 31.1106C63.6892 31.0907 63.6747 31.0762 63.6548 31.0545C63.577 31.1251 63.4992 31.1885 63.4159 31.259C63.443 31.2862 63.4792 31.3224 63.5064 31.3495C63.577 31.2717 63.6403 31.1957 63.6476 31.0618C63.6675 31.0835 63.6819 31.098 63.7037 31.1179C63.7869 31.0473 63.8647 30.9839 63.9426 30.9152ZM66.1397 22.0706C65.8863 22.21 65.6347 22.3511 65.3741 22.4977C65.5497 22.6733 65.6836 22.8072 65.8374 22.961C66.0619 22.7366 66.4763 22.6172 66.1397 22.0706ZM67.4102 21.3195C66.9179 21.144 66.5469 21.22 66.3152 21.7539C66.8057 21.9294 67.1785 21.8516 67.4102 21.3195ZM70.2461 8.2201C70.2099 8.2201 70.1828 8.2201 70.1484 8.2201C70.1484 8.31783 70.1484 8.41013 70.1484 8.50786C70.1828 8.50786 70.2099 8.50786 70.2461 8.50786C70.2461 8.41013 70.2461 8.31783 70.2461 8.2201ZM71.4044 7.63734C71.3682 7.63734 71.3411 7.63734 71.3049 7.63734C71.3049 7.73507 71.3049 7.82737 71.3049 7.9251C71.3411 7.9251 71.3682 7.9251 71.4044 7.9251C71.4044 7.83461 71.4044 7.73507 71.4044 7.63734ZM75.167 6.77406C75.1308 6.77406 75.1037 6.77406 75.0675 6.77406C75.0675 6.87179 75.0675 6.96409 75.0675 7.06182C75.1037 7.06182 75.1308 7.06182 75.167 7.06182C75.167 6.96409 75.167 6.86455 75.167 6.77406ZM77.1886 22.9828C77.1524 22.9828 77.1252 22.9828 77.0909 22.9828C77.0909 23.0805 77.0909 23.171 77.0909 23.2705C77.1252 23.2705 77.1524 23.2705 77.1886 23.2705C77.1886 23.171 77.1886 23.0805 77.1886 22.9828ZM80.1784 20.1812C79.9612 20.0346 79.744 19.8862 79.3567 19.6201C79.3785 20.2517 79.2934 20.7223 78.8518 20.9739C78.4374 21.2128 77.9885 21.3955 77.6157 21.5711C77.7713 22.0145 77.8836 22.3511 78.0102 22.6878C78.0175 22.7077 78.1007 22.695 78.2835 22.7077C78.4663 22.4633 78.698 22.1466 78.9369 21.8317C79.6807 21.6905 79.6807 21.6905 80.1784 20.1812ZM81.6317 18.7351C81.534 18.7351 81.4416 18.7351 81.3439 18.7351C81.3439 18.7713 81.3439 18.7985 81.3439 18.8329C81.4416 18.8329 81.534 18.8329 81.6317 18.8329C81.6317 18.7985 81.6317 18.7713 81.6317 18.7351ZM100.935 18.3768C100.879 18.4275 100.823 18.4763 100.767 18.5252C100.796 18.5523 100.83 18.5885 100.859 18.6157C100.908 18.5596 100.95 18.4962 100.935 18.3768ZM101.042 18.3569C101.027 18.3424 101.013 18.3279 100.998 18.3134C100.998 18.3134 100.991 18.3134 100.991 18.3207C101.006 18.3352 101.013 18.3424 101.027 18.3569C101.035 18.3641 101.042 18.3569 101.042 18.3569ZM101.603 18.3207C101.588 18.118 101.581 17.9641 101.567 17.7669C101.301 17.9352 101.103 18.0691 101.062 18.3569C101.223 18.3496 101.386 18.3352 101.603 18.3207ZM95.7772 29.489C95.5582 29.5886 95.341 29.6863 95.1311 29.7768C95.3265 30.108 95.4388 30.3035 95.5582 30.5279C95.5383 30.508 95.5238 30.4935 95.5021 30.4718C95.4261 30.5423 95.3483 30.6057 95.2632 30.6763C95.2922 30.7034 95.3265 30.7396 95.3555 30.7668C95.4261 30.6908 95.4894 30.6129 95.6071 30.5985C95.9021 30.1641 95.8532 29.7696 95.7772 29.489ZM96.3654 28.0231C96.3382 27.9941 96.302 27.9597 96.2749 27.9308C96.2043 28.0086 96.141 28.0864 96.1337 28.2185C96.1138 28.1986 96.0993 28.1842 96.0776 28.1624C96.0016 28.233 95.9238 28.2964 95.8387 28.367C95.8677 28.3941 95.9021 28.4303 95.931 28.4574C96.0016 28.3796 96.0649 28.3036 96.0704 28.1697C96.0921 28.1914 96.1066 28.2059 96.1283 28.2258C96.2115 28.1552 96.2894 28.0864 96.3654 28.0231ZM102.74 18.1813C102.712 18.1524 102.676 18.118 102.649 18.089C102.578 18.1668 102.515 18.2447 102.459 18.3424C102.466 18.3496 102.481 18.3695 102.501 18.384C102.578 18.3134 102.664 18.2447 102.74 18.1813ZM107.66 4.64753C107.653 4.59866 107.646 4.54799 107.641 4.50636C107.478 4.50636 107.317 4.50636 107.163 4.50636C107.17 4.59142 107.177 4.67468 107.177 4.7525C107.338 4.7163 107.499 4.68191 107.66 4.64753ZM109.738 4.62581C109.767 4.65477 109.801 4.68915 109.83 4.7163C109.899 4.64029 109.963 4.56247 109.97 4.42854C109.991 4.45026 110.006 4.46474 110.026 4.48464C110.104 4.41587 110.181 4.35253 110.265 4.28195C110.238 4.25299 110.201 4.2186 110.174 4.19146C110.104 4.26747 110.04 4.34529 110.033 4.47922C110.013 4.4575 109.999 4.44302 109.977 4.42311C109.899 4.49188 109.823 4.56247 109.738 4.62581ZM109.97 24.3293C109.963 24.2804 109.957 24.2388 109.95 24.1899C109.787 24.1899 109.626 24.1899 109.472 24.1899C109.479 24.2732 109.494 24.3582 109.499 24.4433C109.662 24.3998 109.816 24.3655 109.97 24.3293ZM112.272 23.171C112.167 22.9339 112.055 22.7022 111.942 22.4633C111.935 22.4416 111.879 22.4489 111.894 22.4489C111.613 22.6588 111.36 22.8561 111.045 23.095C110.806 22.7149 110.616 22.4199 110.448 22.1611C110.209 22.2878 109.97 22.4072 109.718 22.5339C109.914 22.7366 110.104 22.9393 110.35 23.1999C110.35 23.466 110.35 23.7899 110.35 24.0976C110.638 24.0976 110.862 24.0976 111.079 24.0976C111.213 23.3972 111.852 23.4171 112.272 23.171ZM120.043 15.4575C120.009 15.4575 119.98 15.4575 119.945 15.4575C119.945 15.5553 119.945 15.6476 119.945 15.7453C119.98 15.7453 120.009 15.7453 120.043 15.7453C120.043 15.6476 120.043 15.5553 120.043 15.4575ZM124.579 26.2748C123.911 26.0359 123.784 26.4214 123.645 26.7653C123.623 26.7454 123.61 26.7309 123.589 26.7092C123.511 26.7797 123.435 26.8431 123.35 26.9137C123.379 26.9408 123.413 26.977 123.44 27.0042C123.511 26.9281 123.574 26.8503 123.686 26.8503C123.947 26.682 124.213 26.5137 124.579 26.2748ZM124.964 25.8748C124.93 25.8748 124.901 25.8748 124.866 25.8748C124.866 25.9726 124.866 26.0649 124.866 26.1626C124.901 26.1626 124.93 26.1626 124.964 26.1626C124.964 26.0703 124.964 25.9726 124.964 25.8748ZM128.629 12.2705C128.663 12.2705 128.692 12.2705 128.727 12.2705C128.727 12.1727 128.727 12.0804 128.727 11.9827C128.692 11.9827 128.663 11.9827 128.629 11.9827C128.629 12.0804 128.629 12.1727 128.629 12.2705ZM128.917 29.4619C128.249 29.223 128.124 29.6085 127.99 29.9885C128.292 29.8691 128.551 29.7008 128.917 29.4619ZM129.014 31.954C128.98 31.954 128.951 31.954 128.917 31.954C128.917 32.0517 128.917 32.1422 128.917 32.2418C128.951 32.2418 128.98 32.2418 129.014 32.2418C129.014 32.1495 129.014 32.0517 129.014 31.954ZM129.688 11.4977C129.59 11.4977 129.499 11.4977 129.4 11.4977C129.4 11.5339 129.4 11.561 129.4 11.5972C129.499 11.5972 129.59 11.5972 129.688 11.5972C129.688 11.561 129.688 11.5339 129.688 11.4977ZM130.531 10.9439C130.502 10.9149 130.468 10.8805 130.439 10.8516C130.37 10.9294 130.307 11.0072 130.299 11.1393C130.278 11.1194 130.265 11.1049 130.243 11.0832C130.165 11.1538 130.089 11.2172 130.004 11.2877C130.033 11.3149 130.068 11.3511 130.095 11.3782C130.165 11.3022 130.229 11.2244 130.236 11.0905C130.258 11.1122 130.27 11.1267 130.292 11.1466C130.377 11.0778 130.453 11.0072 130.531 10.9439ZM132.777 9.37838C132.743 9.37838 132.714 9.37838 132.679 9.37838C132.679 9.47611 132.679 9.56841 132.679 9.66614C132.714 9.66614 132.743 9.66614 132.777 9.66614C132.777 9.56841 132.777 9.47611 132.777 9.37838ZM134.933 6.36685C134.96 6.394 134.996 6.43019 135.023 6.45734C135.094 6.38133 135.157 6.30351 135.213 6.20578C135.206 6.19854 135.191 6.18406 135.171 6.16234C135.086 6.22569 135.01 6.29627 134.933 6.36685ZM133.745 9.1612C133.557 9.1612 133.36 9.1612 133.17 9.1612C133.17 9.21007 133.17 9.25893 133.17 9.3078C133.36 9.3078 133.557 9.3078 133.745 9.3078C133.745 9.25893 133.745 9.21007 133.745 9.1612ZM135.474 9.37114C135.474 9.3639 135.474 9.34942 135.474 9.34219C135.184 9.37838 134.891 9.42001 134.567 9.46163C134.623 9.68786 134.659 9.8055 134.686 9.93219C134.974 9.78559 135.228 9.65166 135.452 9.34942C135.459 9.35666 135.466 9.3639 135.474 9.37114ZM135.747 9.20283C135.718 9.17387 135.684 9.13949 135.655 9.11053C135.599 9.17387 135.542 9.24446 135.508 9.4001C135.586 9.34219 135.669 9.27341 135.747 9.20283ZM136.035 7.46903C136.006 7.44007 135.971 7.40568 135.942 7.37673C135.874 7.45455 135.81 7.53237 135.803 7.66449C135.781 7.64458 135.767 7.6301 135.747 7.60838C135.669 7.67897 135.591 7.74231 135.508 7.81289C135.535 7.84004 135.571 7.87624 135.599 7.90338C135.669 7.82737 135.732 7.74955 135.74 7.61562C135.761 7.63734 135.774 7.65182 135.796 7.67173C135.879 7.60295 135.957 7.53961 136.035 7.46903ZM136.603 8.78114C136.427 8.81734 136.245 8.85173 136.069 8.88611C136.076 8.94946 136.084 9.0128 136.091 9.07614C136.274 9.05443 136.456 9.03452 136.603 8.78114ZM136.637 8.79562C136.637 8.78838 136.637 8.78114 136.637 8.76666C136.63 8.76666 136.625 8.76666 136.617 8.7739C136.625 8.78114 136.63 8.78838 136.637 8.79562ZM136.637 7.15955C136.54 7.15955 136.449 7.15955 136.35 7.15955C136.35 7.19575 136.35 7.22289 136.35 7.25909C136.449 7.25909 136.54 7.25909 136.637 7.25909C136.637 7.22289 136.637 7.18851 136.637 7.15955ZM136.905 8.62731C136.876 8.59835 136.842 8.56397 136.813 8.53501C136.764 8.59111 136.715 8.65446 136.681 8.82277C136.75 8.754 136.827 8.69065 136.905 8.62731ZM137.22 29.1596C137.122 29.1596 137.032 29.1596 136.932 29.1596C136.932 29.194 136.932 29.223 136.932 29.2574C137.032 29.2574 137.122 29.2574 137.22 29.2574C137.22 29.223 137.22 29.1886 137.22 29.1596ZM142.107 23.8316C142.029 23.8949 141.953 23.9582 141.882 24.0288C141.909 24.056 141.946 24.0922 141.973 24.1193C142.022 24.056 142.07 23.9926 142.107 23.8316ZM142.17 23.8732C142.163 23.8659 142.155 23.8605 142.148 23.8533C142.148 23.8605 142.148 23.8659 142.148 23.8804C142.155 23.8732 142.163 23.8732 142.17 23.8732ZM142.709 23.7682C142.704 23.7049 142.697 23.6415 142.689 23.5782C142.507 23.5927 142.324 23.6144 142.177 23.8732C142.353 23.8316 142.534 23.8044 142.709 23.7682ZM143.012 3.68471C142.914 3.68471 142.821 3.68471 142.724 3.68471C142.724 3.7209 142.724 3.74805 142.724 3.78425C142.821 3.78425 142.914 3.78425 143.012 3.78425C143.012 3.74805 143.012 3.71366 143.012 3.68471ZM149.344 16.643C149.071 16.643 148.845 16.643 148.62 16.643C148.445 17.023 148.276 17.3868 148.115 17.7452C147.581 17.8085 147.35 18.2374 147.042 18.5668C147.084 18.8057 147.111 19.0084 147.154 19.2274C148.037 18.4474 148.971 17.8085 149.344 16.643ZM153.141 1.636C152.951 1.636 152.756 1.636 152.566 1.636C152.566 1.68486 152.566 1.73373 152.566 1.78259C152.756 1.78259 152.951 1.78259 153.141 1.78259C153.141 1.72649 153.141 1.68486 153.141 1.636ZM153.626 13.7165C153.59 13.7165 153.563 13.7165 153.527 13.7165C153.527 13.8142 153.527 13.9065 153.527 14.0043C153.563 14.0043 153.59 14.0043 153.626 14.0043C153.626 13.9138 153.626 13.8142 153.626 13.7165ZM164.119 17.5986C164.092 17.5696 164.056 17.5352 164.029 17.5063C163.958 17.5841 163.895 17.6619 163.839 17.7596C163.636 17.8157 163.3 17.6257 163.278 18.0619C163.495 18.0202 163.832 18.2012 163.839 17.7596C163.846 17.7669 163.861 17.7813 163.882 17.8013C163.958 17.7325 164.043 17.6691 164.119 17.5986ZM160.576 33.9828C160.54 33.9828 160.512 33.9828 160.476 33.9828C160.476 34.0805 160.476 34.171 160.476 34.2706C160.512 34.2706 160.54 34.2706 160.576 34.2706C160.576 34.171 160.576 34.0805 160.576 33.9828ZM161.803 31.4979C161.776 31.469 161.741 31.4346 161.712 31.4056C161.642 31.4835 161.578 31.5613 161.571 31.6934C161.551 31.6735 161.537 31.659 161.515 31.6373C161.439 31.7079 161.361 31.7712 161.278 31.8418C161.305 31.8689 161.34 31.9051 161.368 31.9323C161.439 31.8545 161.502 31.7785 161.51 31.6445C161.53 31.6662 161.544 31.6789 161.566 31.7006C161.642 31.63 161.727 31.5613 161.803 31.4979ZM163.551 23.256C163.558 23.2633 163.573 23.285 163.595 23.2977C163.671 23.2289 163.748 23.1655 163.832 23.095C163.804 23.066 163.768 23.0316 163.741 23.0027C163.671 23.0877 163.6 23.1655 163.551 23.256ZM164.731 32.1151C164.709 31.4129 164.765 30.6618 164.682 29.8329C164.443 30.0718 164.309 30.2057 164.114 30.403C164.183 30.6546 164.268 30.9496 164.351 31.2789C164.175 31.364 163.917 31.4907 163.712 31.5957C163.439 31.4056 163.214 31.2446 162.99 31.0907C162.956 31.0129 162.927 30.9278 162.892 30.8518C162.829 30.9278 162.766 31.0129 162.695 31.0907C162.52 31.0907 162.344 31.0907 162.091 31.0907C162.134 31.3495 162.161 31.5106 162.19 31.6735C162.393 31.554 162.548 31.469 162.695 31.3785C162.695 31.2789 162.695 31.1885 162.695 31.0907C162.793 31.0907 162.885 31.0907 162.983 31.0907C162.885 31.1885 162.793 31.2789 162.695 31.3785C162.822 31.5667 162.948 31.7567 163.039 31.8907C163.629 31.9667 164.156 32.0373 164.731 32.1151ZM172.986 12.2415C172.354 12.5094 171.715 12.7682 171.056 13.0487C171.113 13.1971 171.161 13.3238 171.237 13.5265C171.864 13.1048 172.62 12.9998 172.986 12.2415ZM173.605 11.6949C173.568 11.6949 173.541 11.6949 173.505 11.6949C173.505 11.7927 173.505 11.885 173.505 11.9827C173.541 11.9827 173.568 11.9827 173.605 11.9827C173.605 11.885 173.605 11.7854 173.605 11.6949ZM178.335 34.3683C178.236 34.3683 178.145 34.3683 178.048 34.3683C178.048 34.4027 178.048 34.4316 178.048 34.466C178.145 34.466 178.236 34.466 178.335 34.466C178.335 34.4316 178.335 34.4027 178.335 34.3683ZM179.445 34.2217C179.438 34.1366 179.423 34.0516 179.416 33.9683C179.262 34.0027 179.101 34.0461 178.945 34.0805C178.953 34.1294 178.96 34.171 178.967 34.2217C179.121 34.2217 179.282 34.2217 179.445 34.2217ZM180.286 33.695C180.238 33.695 180.189 33.695 180.14 33.695C180.14 33.8833 180.14 34.0805 180.14 34.2706C180.189 34.2706 180.238 34.2706 180.286 34.2706C180.286 34.0805 180.286 33.8833 180.286 33.695ZM181.179 33.3512C181.171 33.2661 181.157 33.1811 181.15 33.0978C180.996 33.1322 180.835 33.1756 180.679 33.21C180.686 33.2589 180.694 33.3005 180.701 33.3512C180.862 33.3512 181.023 33.3512 181.179 33.3512ZM186.414 29.4691C186.387 29.4402 186.351 29.4058 186.324 29.3768C186.253 29.4546 186.19 29.5325 186.183 29.6646C186.161 29.6447 186.148 29.6302 186.127 29.6085C186.049 29.6791 185.973 29.7424 185.888 29.813C185.917 29.8401 185.951 29.8763 185.98 29.9035C186.049 29.8257 186.112 29.7496 186.119 29.6157C186.141 29.6374 186.156 29.6519 186.176 29.6718C186.253 29.6012 186.331 29.5379 186.414 29.4691ZM210.471 18.1596C210.373 18.1596 210.282 18.1596 210.183 18.1596C210.183 18.1958 210.183 18.2229 210.183 18.2573C210.282 18.2573 210.373 18.2573 210.471 18.2573C210.471 18.2229 210.471 18.1886 210.471 18.1596ZM127.373 30.508C127.373 30.6057 127.373 30.6962 127.373 30.7957C127.471 30.6962 127.561 30.6057 127.661 30.508C127.568 30.508 127.471 30.508 127.373 30.508ZM191.364 29.9324C191.582 29.889 191.918 30.0718 191.94 29.6447C191.721 29.6863 191.384 29.4963 191.364 29.9324ZM63.1987 32.5368C63.1987 32.6345 63.1987 32.725 63.1987 32.8245C63.2331 32.8245 63.2621 32.8245 63.2965 32.8245C63.2965 32.725 63.2965 32.6345 63.2965 32.5368C63.2621 32.5368 63.2259 32.5368 63.1987 32.5368ZM202.694 21.9367C202.694 22.1828 202.694 22.4072 202.694 22.7855C202.989 22.4977 203.184 22.3077 203.374 22.1122C203.508 22.2462 203.577 22.3149 203.691 22.4271C203.83 22 204.623 21.915 204.238 21.1567C203.684 21.4444 203.172 21.705 202.694 21.9367ZM211.075 19.3885C211.194 19.5079 211.328 19.6418 211.453 19.7667C211.909 19.5568 212.353 19.3523 212.887 19.1152C212.507 18.9179 212.275 18.7985 212.05 18.6863C211.678 18.9523 211.377 19.1713 211.075 19.3885ZM204.779 21.5367C204.813 21.5367 204.842 21.5367 204.876 21.5367C204.876 21.4372 204.876 21.3467 204.876 21.249C204.842 21.249 204.813 21.249 204.779 21.249C204.779 21.3394 204.779 21.4372 204.779 21.5367ZM192.515 29.3569C192.523 29.3623 192.535 29.3768 192.543 29.3841C192.62 29.3135 192.698 29.2501 192.781 29.1814C192.754 29.1524 192.718 29.118 192.691 29.0891C192.62 29.1669 192.557 29.2447 192.486 29.328C192.494 29.3352 192.508 29.3424 192.515 29.3569C192.318 29.3497 192.128 29.3497 191.94 29.3497C191.94 29.4474 191.94 29.5379 191.94 29.6374C192.157 29.594 192.494 29.784 192.515 29.3569ZM20.2229 30.1912C20.1469 30.2618 20.069 30.3252 19.984 30.3958C20.0129 30.4229 20.0473 30.4591 20.0763 30.4862C20.1469 30.4084 20.2102 30.3324 20.279 30.2473C20.2717 30.2401 20.2591 30.2274 20.2518 30.2202C20.3297 30.1912 20.4129 30.1569 20.4907 30.1279C20.4129 30.0646 20.3297 30.0012 20.2518 29.9324C20.2518 30.0302 20.2518 30.1207 20.2518 30.2202C20.2446 30.2057 20.2301 30.1985 20.2229 30.1912ZM163.853 34.3393C163.756 34.2217 163.663 34.1023 163.566 33.9828C163.566 34.171 163.566 34.3683 163.566 34.5583C163.663 34.4877 163.763 34.4172 163.853 34.3393ZM163.278 35.1338C163.271 35.1266 163.256 35.1121 163.249 35.1049C163.173 35.1755 163.095 35.2388 163.012 35.3094C163.039 35.3365 163.073 35.3727 163.102 35.3999C163.173 35.3221 163.236 35.2461 163.305 35.161C163.3 35.1538 163.292 35.1483 163.278 35.1338C163.707 35.1121 163.524 34.7755 163.566 34.5583C163.137 34.5855 163.319 34.9167 163.278 35.1338Z" fill="#F24E1E"/>
</g>
</svg>
