<svg width="146" height="28" viewBox="0 0 146 28" fill="none" xmlns="http://www.w3.org/2000/svg">
<mask id="mask0_1487_2" style="mask-type:luminance" maskUnits="userSpaceOnUse" x="0" y="0" width="146" height="28">
<path d="M0 0H146V27.8963H0V0Z" fill="white"/>
</mask>
<g mask="url(#mask0_1487_2)">
<path d="M121.89 22.07C121.913 22.07 121.932 22.07 121.955 22.07C121.955 22.1345 121.955 22.1943 121.955 22.2601C121.932 22.2601 121.913 22.2601 121.89 22.2601C121.89 22.1943 121.89 22.1298 121.89 22.07ZM112.152 24.4529C112.356 24.2998 112.5 24.1934 112.74 24.0129C112.439 24.0129 112.273 24.0129 112.054 24.0129C112.087 24.1611 112.11 24.2675 112.152 24.4529ZM106.818 23.9471C106.958 24.0966 106.995 24.1707 107.023 24.1659C107.116 24.1516 107.203 24.1145 107.292 24.0822C107.176 24.0499 107.06 24.0176 106.818 23.9471ZM111.753 24.5557C111.776 24.5557 111.794 24.5557 111.818 24.5557C111.818 24.4899 111.818 24.4301 111.818 24.3656C111.794 24.3656 111.776 24.3656 111.753 24.3656C111.753 24.4254 111.753 24.4899 111.753 24.5557ZM124.951 20.7297C124.974 20.7297 124.993 20.7297 125.016 20.7297C125.016 20.6639 125.016 20.6041 125.016 20.5396C124.993 20.5396 124.974 20.5396 124.951 20.5396C124.951 20.5994 124.951 20.6639 124.951 20.7297ZM125.847 20.1546C125.99 20.1259 126.212 20.2466 126.227 19.9645C126.082 19.992 125.86 19.8664 125.847 20.1546ZM125.462 20.3447C125.457 20.3399 125.447 20.3303 125.442 20.3256C125.391 20.3722 125.341 20.414 125.285 20.4607C125.304 20.4786 125.326 20.5025 125.346 20.5204C125.391 20.469 125.433 20.4188 125.48 20.3626C125.475 20.3578 125.47 20.3531 125.462 20.3447C125.61 20.3208 125.827 20.4415 125.842 20.1546C125.702 20.1821 125.48 20.0613 125.462 20.3447ZM127.632 19.3894C127.654 19.3894 127.673 19.3894 127.696 19.3894C127.696 19.3236 127.696 19.2638 127.696 19.1993C127.673 19.1993 127.654 19.1993 127.632 19.1993C127.632 19.2638 127.632 19.3236 127.632 19.3894ZM122.233 21.5594C122.238 21.5917 122.243 21.6192 122.248 21.6527C122.354 21.6527 122.461 21.6527 122.563 21.6527C122.554 21.5965 122.549 21.5403 122.544 21.4853C122.438 21.5128 122.335 21.5367 122.233 21.5594ZM33.9186 21.5319C33.811 21.5822 33.7369 21.6981 33.6496 21.7866C33.6819 21.8285 33.719 21.8655 33.7512 21.9074C33.9186 21.8141 34.08 21.722 34.4375 21.5224C34.1219 21.5224 34.0011 21.4901 33.9186 21.5319ZM12.6138 20.4738C12.6784 20.4738 12.7394 20.4738 12.8039 20.4738C12.8039 20.4511 12.8039 20.432 12.8039 20.4093C12.7394 20.4093 12.6784 20.4093 12.6138 20.4093C12.6138 20.432 12.6138 20.4511 12.6138 20.4738ZM42.0895 6.21361C42.0895 6.21003 42.0895 6.21003 42.0895 6.21361C42.2055 6.18611 42.3263 6.1634 42.4458 6.13948C42.4422 6.09764 42.4375 6.05699 42.4327 6.01514C42.3119 6.02351 42.1864 6.03786 42.0656 6.04742C42.0704 6.09764 42.0704 6.14427 42.0752 6.19568C42.0704 6.1909 42.0608 6.18133 42.0572 6.17655C42.0058 6.22318 41.9544 6.26502 41.8994 6.31165C41.9174 6.32959 41.9413 6.3535 41.9592 6.37143C42.001 6.31644 42.0429 6.26502 42.0895 6.21361ZM35.1836 20.854C35.2494 20.854 35.3091 20.854 35.3737 20.854C35.3737 20.8313 35.3737 20.8122 35.3737 20.7895C35.3091 20.7895 35.2494 20.7895 35.1836 20.7895C35.1836 20.8122 35.1836 20.8361 35.1836 20.854ZM35.6296 20.7297C35.6523 20.7297 35.6714 20.7297 35.6941 20.7297C35.6941 20.6639 35.6941 20.6041 35.6941 20.5396C35.6714 20.5396 35.6523 20.5396 35.6296 20.5396C35.6296 20.5994 35.6296 20.6639 35.6296 20.7297ZM106.99 23.0061C106.842 23.2979 106.378 23.3768 106.62 23.8407C106.86 23.7247 107.074 23.6231 107.417 23.4557C107.232 23.2572 107.12 23.1413 106.99 23.0061ZM107.037 22.4502C107.013 22.4502 106.995 22.4502 106.971 22.4502C106.971 22.5147 106.971 22.5745 106.971 22.6403C106.995 22.6403 107.013 22.6403 107.037 22.6403C107.037 22.5745 107.037 22.5147 107.037 22.4502ZM60.495 16.3286C60.5189 16.3286 60.5368 16.3286 60.5607 16.3286C60.5607 16.264 60.5607 16.203 60.5607 16.1385C60.5368 16.1385 60.5189 16.1385 60.495 16.1385C60.495 16.203 60.495 16.2676 60.495 16.3286ZM36.5012 20.1355C36.506 20.1402 36.5012 20.1402 36.5012 20.1355C36.3852 20.163 36.2644 20.1869 36.1437 20.2096C36.1485 20.2514 36.1533 20.2933 36.158 20.3351C36.2788 20.3256 36.4031 20.3124 36.5239 20.3028C36.5191 20.2514 36.5191 20.2048 36.5155 20.1546C36.5191 20.1594 36.5287 20.1677 36.5335 20.1725C36.5849 20.1259 36.6351 20.0852 36.6913 20.0386C36.6722 20.0195 36.6494 19.9968 36.6315 19.9776C36.5897 20.0338 36.5478 20.0852 36.5012 20.1355ZM128.123 18.99C128.072 19.0319 128.021 19.0785 127.97 19.1204C127.989 19.1383 128.012 19.1622 128.03 19.1802C128.076 19.1299 128.118 19.0785 128.16 19.0271C128.212 18.9853 128.262 18.9386 128.313 18.898C128.295 18.8789 128.271 18.8561 128.253 18.837C128.212 18.8836 128.165 18.9386 128.123 18.99ZM107.454 23.1042C107.603 22.9739 107.672 22.9368 107.667 22.9093C107.654 22.816 107.617 22.7276 107.583 22.6403C107.551 22.7563 107.519 22.8722 107.454 23.1042ZM107.788 23.7809C107.881 23.7666 107.968 23.7295 108.057 23.6972C107.941 23.6649 107.825 23.6327 107.583 23.5633C107.723 23.7163 107.76 23.7857 107.788 23.7809ZM38.5923 19.4264C38.5421 19.4444 38.4859 19.4635 38.4345 19.4814C38.468 19.491 38.5003 19.5006 38.5325 19.5101C38.5744 19.5054 38.6115 19.5006 38.6665 19.5054C38.6342 19.4731 38.6162 19.4492 38.5923 19.4264ZM62.5359 14.6081C62.5359 14.6726 62.5359 14.7336 62.5359 14.7982C62.5311 14.7934 62.5263 14.7886 62.5168 14.7791C62.4665 14.8257 62.4151 14.8675 62.3589 14.9142C62.3781 14.9321 62.4008 14.956 62.4199 14.9739C62.4665 14.9237 62.5084 14.8723 62.5538 14.8161C62.549 14.8113 62.5407 14.803 62.5359 14.7982C62.5873 14.7791 62.6423 14.7563 62.6937 14.7372C62.6423 14.6966 62.5873 14.6499 62.5359 14.6081ZM105.937 18.3229C105.919 18.3038 105.896 18.281 105.877 18.2619C105.835 18.3133 105.789 18.3647 105.747 18.415C105.697 18.4568 105.645 18.5034 105.594 18.5501C105.613 18.568 105.636 18.5919 105.655 18.6098C105.697 18.5584 105.743 18.5082 105.784 18.4568C105.831 18.4102 105.882 18.3647 105.937 18.3229ZM107.482 12.5074C107.546 12.4416 107.607 12.3818 107.672 12.3173C107.607 12.3173 107.546 12.3173 107.482 12.3173C107.482 12.3771 107.482 12.4416 107.482 12.5074ZM145.982 7.76314C145.782 7.89227 145.578 7.97118 145.458 8.12063C145.356 8.24976 145.351 8.45421 145.296 8.66703C145.165 8.6766 145.017 8.68616 144.938 8.69094C144.126 9.15843 143.941 10.1747 143.065 10.5035C143.111 10.5501 143.153 10.592 143.237 10.6757C142.828 11.014 142.42 11.3524 142.151 11.57C141.711 11.8067 141.428 11.9598 141.117 12.1272C140.709 12.2013 140.932 11.4492 140.453 11.5616C140.495 11.7517 140.532 11.9323 140.574 12.1176C140.579 12.1128 140.589 12.1033 140.593 12.0985C140.644 12.1451 140.695 12.1869 140.751 12.2336C140.732 12.2515 140.709 12.2754 140.69 12.2934C140.644 12.2431 140.603 12.1917 140.556 12.1355C140.561 12.1319 140.566 12.1272 140.574 12.1176C140.384 12.1869 140.092 11.9418 140.004 12.3077C139.92 12.2061 139.838 12.1033 139.712 11.955C139.624 11.955 139.475 11.955 139.266 11.955C139.322 12.071 139.374 12.1822 139.461 12.3591C139.253 12.4787 139.035 12.5994 138.738 12.7716C138.696 12.5349 138.668 12.3675 138.627 12.1403C138.381 12.2706 138.14 12.401 137.876 12.5397C137.964 12.6461 138.019 12.7106 138.098 12.8087C137.908 12.9294 137.713 13.0538 137.435 13.2307C137.666 13.2487 137.811 13.2582 138.001 13.2726C138.093 13.1327 138.2 12.9761 138.316 12.8039C138.673 12.9007 138.957 12.9796 139.248 13.0586C138.9 13.764 138.219 13.7401 137.723 14.0282C137.319 13.9397 137.328 13.6109 137.282 13.3228C137.12 13.2439 136.967 13.1745 136.79 13.0908C136.772 13.1745 136.753 13.263 136.721 13.4017C136.405 13.5225 136.049 13.6528 135.664 13.7963C135.566 13.703 135.432 13.5787 135.306 13.4627C134.982 13.5464 134.662 13.6253 134.291 13.7173C134.286 13.7401 134.263 13.8238 134.24 13.917C133.753 13.9864 133.169 13.9075 133.011 14.6583C132.862 14.5758 132.737 14.5017 132.552 14.3989C132.542 14.571 132.538 14.7193 132.529 14.9189C131.875 15.2525 131.179 15.573 130.53 15.9663C130.298 16.111 129.964 16.3047 130.135 16.9085C130.001 16.7973 129.895 16.6478 129.787 16.4996C129.584 16.6574 129.412 16.7925 129.088 17.0376C129.515 17.0663 129.747 17.0794 130.135 16.9085C130.229 16.704 130.409 16.704 130.623 16.704C130.628 17.2564 130.288 17.2791 129.94 17.2887C129.695 17.5338 129.449 17.7801 129.259 17.9702C129.027 18.0443 128.846 18.0766 128.693 18.1603C128.123 18.4616 127.557 18.7724 127 19.0917C126.908 19.1479 126.862 19.283 126.797 19.3798C126.504 19.4264 126.161 19.2495 125.911 19.5795C125.864 19.4539 125.827 19.3428 125.781 19.2172C125.66 19.2782 125.54 19.338 125.41 19.4025C125.326 19.3332 125.257 19.2782 125.155 19.1945C124.775 19.6955 124.232 19.8342 123.828 19.7827C122.924 20.0195 122.312 20.4511 121.645 20.762C121.181 20.9796 120.68 21.0585 120.239 21.2952C120.007 21.4207 119.975 21.4997 119.994 21.8655C120.063 21.8057 120.128 21.7448 120.17 21.7077C120.402 21.8655 120.629 22.0138 120.851 22.1668C120.801 22.223 120.74 22.2876 120.685 22.3521C120.745 22.4215 120.801 22.4872 120.888 22.5937C120.253 22.6953 119.651 22.7933 118.978 22.8997C118.741 23.1496 118.403 23.3349 117.948 23.4234C117.439 23.5262 116.914 23.6231 116.423 23.8873C116.075 24.0726 115.657 24.2161 115.203 24.1791C114.638 24.1288 114.062 24.1659 113.473 24.1659C113.302 23.91 113.135 23.6602 112.954 23.3959C112.199 23.6793 111.461 23.9567 110.751 24.2257C110.723 24.3512 110.71 24.4397 110.7 24.4768C110.412 24.4206 110.158 24.3739 109.926 24.3285C109.731 24.4995 109.573 24.643 109.513 24.6944C108.775 24.6202 108.168 24.5593 107.504 24.4947C107.454 24.4206 107.371 24.295 107.282 24.1659C107.607 24.1791 107.941 24.2077 108.047 23.7857C108.215 23.7438 108.381 23.6972 108.572 23.6506C108.622 23.6877 108.72 23.7534 108.869 23.8598C108.998 23.6183 109.105 23.4186 109.221 23.201C109.17 23.1269 109.123 23.0528 109.068 22.9691C109.249 22.6534 109.197 22.3019 109.18 21.9492C109.091 21.8607 108.998 21.7675 108.938 21.7077C108.567 21.8512 108.215 21.9863 107.862 22.1202C107.931 22.2409 107.992 22.3426 108.047 22.4406C107.922 22.5052 107.793 22.5662 107.667 22.6307C107.477 22.4729 107.282 22.3151 107.087 22.1573C107.153 22.0927 107.198 22.0461 107.24 22.0042C107.065 21.8332 106.884 21.6563 106.707 21.4853C106.684 21.4339 106.665 21.3789 106.642 21.3275C106.601 21.3789 106.559 21.4339 106.522 21.4949C106.517 21.4901 106.507 21.4805 106.494 21.4662C106.443 21.5128 106.393 21.5547 106.336 21.6013C106.354 21.6192 106.378 21.6431 106.396 21.6611C106.443 21.6109 106.485 21.5594 106.522 21.4949C106.578 21.4853 106.638 21.4853 106.702 21.4853C106.754 22.1345 106.262 22.6116 106.29 23.2524C106.216 23.2524 106.141 23.2524 106.067 23.2572C105.794 22.7838 105.502 22.3246 105.251 21.838C105.172 21.685 105.112 21.4291 105.186 21.3096C105.46 20.8732 105.33 20.4045 105.354 19.9454C105.358 19.9501 105.367 19.9597 105.381 19.9728C105.432 19.9274 105.483 19.8856 105.539 19.8389C105.52 19.8198 105.497 19.7971 105.478 19.7792C105.432 19.8294 105.391 19.8808 105.354 19.9454C104.964 19.9872 105.334 20.4188 105.024 20.5396C105.024 20.2239 105.024 19.9274 105.024 19.5974C105.168 19.5974 105.317 19.5974 105.557 19.5974C105.502 19.3942 105.46 19.2447 105.418 19.0881C106.42 18.4939 106.902 17.5625 106.921 16.3752C107.412 16.2963 107.844 16.1708 107.844 15.5586C107.603 15.6423 107.389 15.9065 107.102 15.6746C107.408 15.3171 107.719 14.9608 108.047 14.5758C108.108 14.626 108.182 14.6727 108.224 14.7372C108.265 14.8113 108.274 14.9046 108.316 15.0433C108.479 14.5017 109.007 14.2087 108.993 13.6432C108.891 13.703 108.795 13.7592 108.692 13.819C108.669 13.7735 108.637 13.7221 108.576 13.6109C108.679 13.4997 108.795 13.3694 108.966 13.1793C109.059 13.2953 109.119 13.3742 109.183 13.4531C109.541 13.2487 109.476 12.7525 109.847 12.5205C109.893 12.5576 109.958 12.6042 110.019 12.6556C110.214 12.554 110.417 12.4512 110.626 12.34C110.913 12.6461 111.289 12.4285 111.6 12.5026C111.827 12.0483 111.512 11.8761 111.308 11.6537C111.503 11.4636 111.484 11.0786 111.859 11.0655C111.859 10.9399 111.859 10.8144 111.859 10.6805C112.273 10.2668 112.685 9.85429 113.098 9.43701C113.056 9.3856 113.019 9.33539 112.977 9.28397C112.411 9.51593 111.851 9.74788 111.247 9.99776C111.16 9.95233 111.029 9.88179 110.723 9.94276C110.71 9.91048 110.807 9.822 110.96 9.67375C110.779 9.6594 110.659 9.65103 110.515 9.63668C110.528 9.78972 110.533 9.87342 110.723 9.94276C110.9 9.91048 110.9 10.0025 110.9 10.1006C110.246 10.3409 109.911 11.2364 109.007 10.9208C108.993 11.2269 108.98 11.4409 108.975 11.5796C108.659 11.8342 108.381 12.0614 108.08 12.3077C107.959 12.3077 107.806 12.3077 107.649 12.3077C107.649 12.2431 107.649 12.1822 107.649 12.1176C107.583 12.1822 107.524 12.2431 107.459 12.3077C107.338 12.3304 107.218 12.3496 107.097 12.3723C107.102 12.4141 107.106 12.456 107.111 12.4978C107.227 12.4978 107.343 12.4978 107.463 12.4978C107.171 12.7477 106.879 12.9988 106.638 13.2032C106.146 13.2726 105.701 13.3371 105.293 13.3969C105.001 13.9493 104.63 14.3068 104.152 14.6212C103.633 14.9644 103.016 15.1366 102.538 15.5538C102.223 15.8324 101.866 16.0691 101.523 16.3334C101.528 16.3286 101.537 16.319 101.55 16.3047C101.504 16.2545 101.462 16.203 101.416 16.148C101.397 16.166 101.375 16.1887 101.355 16.2078C101.407 16.2545 101.458 16.2963 101.523 16.3334C101.644 16.5558 101.235 16.7734 101.523 17.0244C101.045 17.2002 100.595 17.413 100.145 17.6402C99.8346 17.798 99.8991 18.2715 99.4735 18.2894C99.3061 18.2942 99.1435 18.4054 98.8099 18.5357C98.5457 18.9111 98.1834 19.4312 97.8223 19.9501C97.6179 19.9501 97.4278 19.9501 97.2975 19.9501C97.0153 20.163 96.7511 20.3256 96.5287 20.5348C96.3386 20.7105 96.2178 20.9652 96.0229 21.1422C95.9022 21.2534 95.7025 21.2809 95.3916 21.4016C95.3043 21.508 95.1095 21.74 94.8165 22.0927C94.636 22.1393 94.2929 22.2314 93.9031 22.339C93.9031 22.4406 93.9031 22.5889 93.9031 22.7144C93.5838 22.9643 93.2264 23.1413 93.0219 23.4282C92.827 23.702 92.405 23.6554 92.3033 24.0679C92.2663 24.2125 91.849 24.295 91.5943 24.3512C91.3803 24.3979 91.1484 24.3608 90.8937 24.3608C90.4154 25.0279 89.6921 24.9729 88.9735 24.9168C88.7236 24.7458 88.4726 24.5784 88.1808 24.3787C86.9469 24.4026 86.5572 24.142 86.3958 23.0384C86.1495 22.8854 85.8482 22.7048 85.5648 22.5291C85.5971 22.2553 85.6353 21.9122 85.6856 21.4243C85.4955 21.5642 85.4261 21.6563 85.3328 21.6802C85.2169 21.7077 85.083 21.6898 84.9443 21.6898C84.9024 21.5738 84.8654 21.4626 84.8283 21.3646C84.6143 21.416 84.4015 21.471 84.1827 21.5224C84.1599 21.4805 84.1372 21.4387 84.1133 21.3968C84.2807 21.2713 84.4481 21.147 84.6466 20.9939C84.6513 20.8684 84.8462 20.6269 84.4887 20.5444C84.5449 20.4368 84.6011 20.3256 84.6836 20.163C84.5222 20.163 84.411 20.163 84.2986 20.163C84.2986 20.0984 84.2986 20.0386 84.2986 19.9728C84.2341 20.0386 84.1743 20.0984 84.1085 20.163C84.0583 20.1869 84.0021 20.2048 83.9519 20.2287C84.0021 20.2706 84.0583 20.3124 84.1085 20.3578C84.1277 20.646 84.3453 20.5204 84.4887 20.5479C84.3967 20.8875 84.1456 20.9568 83.8395 20.9282C83.0887 20.0434 83.8539 19.1706 83.928 18.1555C83.6733 18.3085 83.5334 18.397 83.3947 18.4807C83.39 18.4807 82.9356 18.9398 82.9308 18.9398C82.4347 18.8789 82.1896 19.3942 81.6982 19.4444C81.294 19.4862 80.9975 19.9776 80.5145 20.0338C80.3985 20.0482 80.3017 20.2466 80.1953 20.3626C80.1307 20.2981 80.0841 20.2514 80.0374 20.2048C79.8521 20.261 79.662 20.3208 79.3559 20.414C79.2627 20.5396 79.0965 20.7715 78.9889 20.9198C78.6505 20.9198 78.4604 20.9198 78.2607 20.9198C78.201 21.0441 78.1412 21.1745 78.0802 21.3048C78.0013 21.2342 77.9319 21.1697 77.8626 21.1099C77.3425 21.1888 77.2971 21.7173 76.9671 22.0365C76.8463 22.0365 76.6981 22.0365 76.5175 22.0365C76.4804 22.2409 76.4482 22.4131 76.4015 22.6307C75.4833 22.8065 74.9082 23.5071 74.2219 24.203C74.1478 24.026 74.0784 23.8503 73.972 23.5908C73.6982 24.0033 73.5548 24.2209 73.3682 24.5043C72.9653 24.5222 72.6867 24.7637 72.4093 25.1344C72.0746 25.5803 71.7637 26.1363 71.1384 26.2666C70.8503 26.3264 70.8694 26.8644 70.4569 26.6612C70.2429 26.9158 69.9272 26.7855 69.6821 26.8692C69.4083 26.9625 69.1716 27.1849 68.8799 27.375C68.838 27.3475 68.7495 27.2913 68.6479 27.2267C68.4207 27.3558 68.1936 27.5041 67.9521 27.6069C67.7345 27.699 67.4882 27.7229 67.2706 27.8102C67.029 27.9082 66.8019 27.4909 66.5376 27.8436C65.9255 27.4957 65.3085 27.1478 64.6091 26.7437C64.6091 26.5954 64.6091 26.3587 64.6091 26.1184C64.3903 26.0897 64.242 26.0765 64.0149 26.049C64.0519 25.8254 64.0842 25.6078 64.1261 25.3484C64.0244 25.1953 63.8762 24.9729 63.7184 24.741C63.6072 24.741 63.4768 24.741 63.2592 24.741C63.3334 24.5963 63.3932 24.4851 63.4721 24.3369C63.4123 24.258 63.3429 24.1611 63.2736 24.0631C63.3238 24.0081 63.3884 23.9387 63.4768 23.8407C63.435 23.7486 63.3848 23.641 63.319 23.4975C63.3561 23.4007 63.4123 23.2524 63.4816 23.0707C63.2497 23.0384 63.0739 23.0109 62.8886 22.9834C62.8922 22.8675 62.897 22.779 62.9065 22.6212C63.0082 22.6953 63.0691 22.7419 63.1803 22.8208C63.3477 22.6451 63.5187 22.4586 63.765 22.1943C63.5462 22.107 63.4218 22.0556 63.227 21.9719C63.2867 21.7639 63.3513 21.5451 63.4302 21.2809C63.7363 21.2809 63.9682 21.2809 64.205 21.2809C63.6072 21.031 62.9807 21.1601 62.3314 21.0776C62.188 19.9274 62.549 18.953 63.3011 18.0766C63.4912 17.8542 63.6909 17.6545 63.918 17.5015C64.6175 17.0244 65.2021 16.3884 65.9721 16.0082C66.051 15.9711 66.1395 15.9484 66.2459 15.9113C66.3153 15.781 66.3942 15.6184 66.4539 15.5072C66.3942 15.2992 66.338 15.0995 66.2782 14.8867C66.4312 14.8353 66.5376 14.7982 66.6811 14.7516C66.6811 14.5806 66.6811 14.3989 66.6811 14.3199C66.9968 13.764 67.261 13.3001 67.5204 12.8457C67.3495 12.7106 67.2191 12.609 67.0948 12.5074C67.2383 12.4799 67.4607 12.5994 67.475 12.3173C67.3303 12.3448 67.108 12.224 67.0948 12.5074C66.8533 12.5169 66.5891 12.4285 66.4073 12.7202C66.3667 12.5911 66.3296 12.4835 66.2878 12.3639C66.2459 12.3723 66.1801 12.3723 66.1622 12.401C66.0044 12.6317 65.8514 12.8685 65.6337 13.1984C65.5871 12.9665 65.568 12.8828 65.5405 12.7298C65.397 12.7202 65.2248 12.7106 65.0682 12.7023C65.012 12.8553 64.975 12.9665 64.9331 13.0777C64.8267 13.0083 64.7334 12.9426 64.627 12.8685C64.4226 13.0083 64.2325 13.1518 64.034 13.2774C63.8104 13.416 63.5043 13.495 63.3704 13.6946C63.2353 13.8979 62.8372 13.7078 62.8695 14.1346C62.8886 14.3905 62.3553 14.0234 62.3171 14.4275C62.1605 14.4275 61.9979 14.4275 61.7755 14.4275C61.5806 15.2107 60.8333 15.4331 60.2259 15.7906C60.2259 16.0225 60.2259 16.2126 60.2259 16.319C59.9617 16.5833 59.7441 16.8056 59.4476 17.0986C59.4512 17.0986 59.3268 17.1034 59.2013 17.1069C59.0339 17.4692 58.6166 17.5661 58.3895 17.8686C58.075 17.8686 57.7546 17.8686 57.3744 17.8686C57.36 18.012 57.3505 18.1603 57.3278 18.3827C56.9057 18.3922 56.5482 18.5776 56.4514 19.051C56.4322 19.1299 56.5159 19.2316 56.5901 19.3978C56.0616 19.3523 55.5929 19.4492 55.2462 19.876C55.2462 19.9824 55.2462 20.1127 55.2462 20.2383C55.0597 20.3399 54.8839 20.4368 54.7034 20.5396C54.1091 20.3208 53.65 20.5527 53.2567 21.2952C53.1909 21.2438 53.1263 21.1936 53.0474 21.1326C52.6397 21.471 52.2177 21.8093 51.8088 22.1668C51.7585 22.2134 51.7765 22.339 51.7669 22.394C51.517 22.4681 51.2994 22.5327 51.0806 22.5984C51.04 22.5566 50.9981 22.5147 50.8953 22.4131C50.8905 23.0851 50.2509 23.0707 49.9221 23.4007C49.6578 23.6602 49.2633 23.7941 48.9297 23.9889C48.308 24.3512 47.691 24.7123 46.9677 25.1344C46.8517 25.1344 46.597 25.1344 46.2539 25.1344C46.1881 25.0375 46.0865 24.8845 45.9657 24.7039C45.8916 24.8893 45.845 24.9957 45.7804 25.1583C45.2101 24.9407 44.6398 24.7171 43.9762 24.4672C43.9714 24.4158 43.9631 24.2675 43.9439 24.0451C43.596 24.0451 43.3186 23.8323 43.0353 23.6183C42.7471 23.4007 42.6407 23.0336 42.349 22.8758C42.2103 22.9464 42.08 23.0061 41.8899 23.0994C41.8899 22.8722 41.8899 22.724 41.8899 22.5195C41.31 22.3796 40.7444 22.5291 40.1275 22.4215C40.7767 21.9958 41.4582 22.0927 42.1768 22.0783C42.1959 21.9767 42.2055 21.8655 42.233 21.7591C42.2653 21.6479 42.3119 21.5403 42.3908 21.3371C42.3442 21.3 42.2426 21.2115 42.1445 21.1278C42.0572 21.1972 41.9915 21.2486 41.9221 21.3048C41.8707 21.1697 41.8289 21.0585 41.7882 20.9473C41.6113 21.0728 41.4451 21.1936 41.2777 21.3096C41.2825 21.3131 41.292 21.3227 41.2956 21.3275C41.2502 21.3789 41.2084 21.4291 41.1617 21.4853C41.1426 21.4662 41.1199 21.4435 41.1019 21.4243C41.1522 21.3789 41.2036 21.3371 41.2586 21.2904C41.2634 21.2952 41.2681 21.3 41.2729 21.3048C41.2084 21.1147 41.1474 20.9246 41.0732 20.7249C41.078 20.7297 41.0876 20.7428 41.1019 20.7524C41.1522 20.7058 41.2036 20.6639 41.2586 20.6185C41.2406 20.5994 41.2167 20.5766 41.1988 20.5575C41.1522 20.6089 41.1103 20.6591 41.0732 20.7249C40.7959 20.8086 40.5125 20.8827 40.2662 20.9425C40.0534 21.2115 39.8489 21.4662 39.6086 21.7639C39.4508 21.6431 39.3348 21.5547 39.177 21.4339C39.3671 21.1936 39.5201 20.9102 39.7521 20.7428C40.0067 20.5623 40.2064 20.3674 40.2853 20.0063C40.1837 20.0565 40.0857 20.1259 39.9793 20.1498C39.8406 20.1821 39.6911 20.1773 39.5524 20.1916C39.5524 20.316 39.5524 20.3818 39.5524 20.53C39.4089 20.4559 39.3061 20.3818 39.1949 20.3495C39.061 20.3124 38.9175 20.3076 38.7035 20.2837C38.8195 20.0805 38.8888 19.9597 38.9917 19.7792C38.7226 19.7792 38.4859 19.7792 38.1009 19.7792C38.2312 19.6118 38.3137 19.5233 38.5039 19.5054C38.5792 19.5233 38.639 19.5329 38.639 19.5006C38.7406 19.4635 38.7035 19.3942 38.676 19.3978C38.639 19.4025 38.6019 19.4169 38.5648 19.4264C38.4166 19.2734 38.407 19.1849 38.407 19.0785C38.3054 19.0462 38.1978 19.0092 38.0268 18.953C38.0268 18.7952 38.0268 18.6146 38.0172 18.4245C38.022 18.4293 38.0316 18.4389 38.0447 18.452C38.0961 18.4054 38.1476 18.3647 38.2026 18.3181C38.1846 18.299 38.1607 18.2763 38.1428 18.2571C38.0961 18.3085 38.0543 18.36 38.0172 18.4245C37.3034 18.8561 36.6542 19.3846 35.9165 19.7923C35.3319 20.1127 34.8405 20.6137 34.2379 21.0908C33.8254 21.1697 33.371 21.4112 33.065 21.8332C32.7684 22.2409 32.5449 22.7001 32.2902 23.1365C32.1969 23.2895 32.1049 23.4425 32.0068 23.5908C31.8406 23.8455 31.4186 23.7713 31.3253 24.1516C31.2655 24.4026 31.1029 24.625 30.9917 24.8522C31.0479 24.9407 31.1125 25.0375 31.1771 25.1308C30.932 25.4691 30.7132 25.7752 30.2732 25.7095C30.0831 25.8996 29.9025 26.0813 29.716 26.2666C29.4709 26.2666 29.215 26.2666 28.9843 26.2666C28.7105 26.642 28.4463 27.0043 28.1258 27.4395C27.9453 27.3845 27.6942 27.3104 27.4025 27.2267C27.2961 27.375 27.1801 27.5411 27.0175 27.7695C26.8274 27.7695 26.5488 27.7695 26.2379 27.7695C26.0203 27.5507 25.774 27.3056 25.5242 27.0545C24.6992 26.605 23.7391 26.4699 22.7515 25.9558C23.1544 25.8075 23.4007 25.7142 23.7295 25.5899C23.3302 25.4404 22.9691 25.5193 22.626 25.511C22.2589 25.5014 21.8751 25.4177 21.569 25.7429C20.3997 25.0004 19.5185 24.0679 19.0965 22.761C18.9626 22.339 18.6147 21.9994 18.6278 21.5128C18.6326 21.4243 18.4616 21.3323 18.2847 21.1565C18.3504 20.2789 18.4245 19.3236 18.4987 18.3456C19.1204 17.8817 19.1658 17.2373 19.0546 16.4673C18.1412 16.8846 17.2887 17.2791 16.5187 17.8446C15.9891 18.2344 15.5491 18.782 14.8162 18.8095C14.4312 19.2866 13.7544 19.3153 13.3551 19.7648C12.9378 19.6297 12.78 20.0709 12.4883 20.2048C12.0985 20.3913 11.7279 20.6783 11.3572 20.9282C10.977 21.184 10.7032 21.5547 10.6661 22.07C10.647 22.3246 10.5131 22.5745 10.3732 23.0109C10.3182 22.6534 10.2907 22.4872 10.2668 22.3151C9.94757 22.5662 9.7479 23.0755 9.72041 23.702C9.43704 23.9065 9.14053 24.1145 8.83923 24.3285C8.47217 23.9065 9.10825 23.4975 8.92651 23.0384C8.57858 23.3732 8.57858 23.3732 8.57022 24.5186C8.42554 24.527 8.27729 24.5413 8.04534 24.5593C7.91143 24.7266 7.73447 24.9443 7.66035 25.0375C7.11395 25.1391 6.73374 25.2133 6.32005 25.2922C6.29255 25.1212 6.26983 24.9443 6.24114 24.7685C6.21364 24.7637 6.18136 24.7637 6.15386 24.7589C6.12636 24.912 6.09767 25.065 6.0606 25.2695C5.72224 25.2695 5.36116 25.2695 4.92476 25.2695C4.92476 24.9072 4.92476 24.5413 4.92476 24.1755C4.88769 24.1707 4.85063 24.1659 4.80878 24.1611C4.70237 24.4576 4.59955 24.7589 4.48357 25.0841C4.34488 25.0841 4.17391 25.0841 3.92283 25.0841C4.09978 24.7123 4.24803 24.3979 4.40107 24.0726C4.13684 23.9854 3.91326 23.91 3.65381 23.8275C3.60718 23.873 3.5199 23.9567 3.48284 23.9937C3.53305 24.3142 3.5749 24.5963 3.63109 24.949C2.62438 24.4768 1.78983 23.9471 1.11311 23.0671C1.11311 22.8806 1.11311 22.6032 1.11311 22.2924C0.931375 22.2924 0.783117 22.2924 0.639642 22.2924C0.439973 21.6802 0.208023 21.1051 0.0597649 20.5025C0.0179183 20.3399 -1.64274e-05 20.1259 0.0741124 19.992C0.310846 19.5556 0.50095 19.1802 0.212805 18.6469C0.0968293 18.4341 0.333563 18.03 0.426821 17.7155C0.472255 17.5433 0.551166 17.3807 0.662359 17.089C0.945722 16.7638 1.54832 16.4123 1.1968 15.6005C1.29843 15.5311 1.46104 15.4151 1.6882 15.2573C1.74799 15.127 1.84603 14.9094 1.95244 14.6726C2.10548 14.5985 2.2908 14.51 2.48569 14.4084C2.4809 14.4132 2.46656 14.4228 2.45819 14.4359C2.50362 14.4873 2.54547 14.5387 2.5921 14.5937C2.61123 14.5758 2.63394 14.5519 2.65188 14.534C2.60166 14.4873 2.55025 14.4455 2.48569 14.4084C2.80492 13.5045 3.64066 13.3228 4.43336 13.0825C4.73944 12.9892 5.05508 12.9294 5.51779 12.8135C5.2679 12.6186 5.14236 12.5205 5.0216 12.4285C5.0778 12.2431 5.14236 12.0243 5.19377 11.8534C5.43529 11.6764 5.65768 11.5282 5.86571 11.3572C6.45037 10.8837 7.14623 10.5968 7.76795 10.1795C7.84208 10.1281 7.92936 10.0121 7.98556 10.0265C8.68141 10.2022 9.03412 9.49321 9.65465 9.39995C10.1831 9.32104 10.6936 8.97789 11.1575 8.66703C11.8343 8.21748 12.6042 7.99509 13.3145 7.64717C13.6241 7.49413 14.0414 7.73564 14.2411 7.34109C15.1461 7.44271 15.8133 6.83055 16.5976 6.56632C17.3019 6.32481 17.9977 6.06057 18.7533 5.99601C19.0176 5.97329 19.3057 5.93145 19.5281 5.80112C20.2048 5.41613 20.933 5.41135 21.6707 5.43048C21.8608 5.43526 22.0509 5.43048 22.2458 5.43048C22.7372 4.94386 23.3493 4.83625 24.0081 4.8506C24.2771 4.56365 24.6107 4.47039 25.0005 4.46561C25.4225 4.46083 25.8123 4.17866 26.2619 4.28029C26.5261 4.34007 26.8178 4.18344 27.0593 4.44768C27.1335 4.52659 27.3977 4.53017 27.5137 4.46083C27.9824 4.17866 28.4833 4.32214 28.9795 4.27072C29.3179 3.90008 29.7208 3.68248 30.2636 3.69085C30.5553 3.69563 30.8531 3.51031 31.14 3.52944C31.47 3.54737 31.7247 3.38477 32.0164 3.31542C32.0953 3.29749 32.1599 3.19945 32.1981 3.16716C32.5592 3.45053 33.0877 3.66335 33.2407 4.03399C33.4547 4.54452 34.0944 4.45605 34.2104 4.94864C34.2379 5.16146 34.196 5.43048 34.3072 5.57395C34.8177 6.21361 34.5954 6.80306 34.2654 7.40565C34.0573 7.79542 33.8672 8.19476 33.6676 8.58334C33.7273 8.65388 33.7931 8.72323 33.8577 8.79257C33.5982 9.26604 33.1905 9.71081 33.1247 10.2022C33.0458 10.7725 32.3882 11.0559 32.5449 11.7553C33.1666 11.3476 33.7273 10.9303 34.3359 10.592C35.0174 10.2118 35.5734 9.64147 36.3111 9.36767C36.4785 9.30669 36.6447 9.25169 36.9005 9.16322C37.5533 8.42671 38.3472 7.74879 39.4603 7.50369C39.7796 7.43315 40.0486 7.10913 40.4013 6.86284C40.5316 7.12348 40.6333 7.32196 40.7349 7.52162C40.8281 7.52162 40.925 7.52162 41.1247 7.52162C41.0553 7.39608 41.0087 7.32196 40.9525 7.22511C40.9907 7.18326 41.0457 7.1187 41.1103 7.03979C40.9812 6.97881 40.8556 6.92381 40.7217 6.85925C41.023 6.70621 41.31 6.55676 41.6161 6.40013C41.6436 6.48263 41.6806 6.58545 41.7225 6.71936C42.1027 6.60339 42.4829 6.50176 42.8595 6.37143C43.1142 6.28415 43.2577 6.09405 43.2158 5.8059C43.211 5.81069 43.2074 5.81547 43.1979 5.82503C43.1465 5.77841 43.095 5.73656 43.04 5.68993C43.058 5.672 43.0819 5.64808 43.0998 5.63015C43.1465 5.68036 43.1883 5.73178 43.2349 5.78797C43.2302 5.79156 43.2254 5.79634 43.2206 5.80112C43.5171 5.67558 43.8052 5.47711 44.1113 5.44004C44.4963 5.38863 44.4963 5.09212 44.6494 4.83625C44.7462 4.86495 44.8574 4.89245 45.0152 4.93908C45.5951 4.70234 45.5951 4.70234 45.9155 3.94671C46.2073 3.83552 46.5361 3.70998 46.8708 3.58922C47.6444 3.31064 48.3773 2.93043 49.1891 2.71761C49.7822 2.55979 50.2975 2.46294 50.8582 2.74033C50.9563 2.78696 51.095 2.74511 51.2205 2.74511C51.5636 3.51987 52.287 3.82117 52.8764 4.27072C52.9219 4.22409 52.9637 4.18344 53.0331 4.1129C53.2519 4.3592 53.4468 4.77169 53.6966 4.80875C54.1558 4.8781 53.9513 5.57395 54.6292 5.37428C54.1558 6.00557 54.958 6.43241 54.5503 7.05294C54.2945 7.44271 54.6292 8.08715 54.2909 8.54627C54.3734 8.63953 54.4343 8.7041 54.5133 8.78779C54.3602 8.8942 54.2167 8.99702 53.9286 9.1955C53.864 9.4693 53.7576 9.90092 53.6548 10.3278C53.2937 10.2249 53.4228 10.7917 53.0474 10.8335C52.8107 10.861 52.611 11.2269 52.3097 11.5198C52.8394 11.4313 53.2423 11.3668 53.7158 11.2878C54.3973 10.9626 55.1338 10.5824 55.8954 10.2584C56.1405 10.1556 56.4418 10.1926 56.5578 10.1843C57.2488 9.98461 57.574 9.37245 58.2412 9.42745C58.344 9.13093 58.4504 8.82485 58.5712 8.47693C59.2431 8.54627 59.7441 8.22704 60.1291 7.69858C60.1889 7.75358 60.2355 7.79542 60.3144 7.86955C60.6014 7.72608 60.9039 7.57782 61.2004 7.42956C61.2004 7.32674 61.2004 7.23468 61.2004 7.14142C61.1956 7.1462 61.186 7.15098 61.1812 7.16055C61.131 7.11392 61.0796 7.07207 61.0234 7.02544C61.0426 7.00751 61.0653 6.98359 61.0844 6.96566C61.131 7.01588 61.1729 7.06729 61.2183 7.12348C61.2135 7.12707 61.2099 7.13185 61.2099 7.13185C61.3582 7.03022 61.5017 6.9286 61.6595 6.8174C62.5586 7.27174 63.0046 6.53404 63.588 6.00557C63.9455 6.00557 64.3532 6.00557 64.9056 6.00557C64.7669 5.84297 64.7059 5.77362 64.5804 5.63015C65.1698 5.65287 65.6242 5.49026 66.0319 5.11005C66.2268 4.92951 66.5795 4.91517 66.8342 4.83267C66.9549 4.63778 67.0613 4.45605 67.1737 4.27072C67.4379 4.56365 67.6508 4.24322 67.8875 4.24801C68.1003 4.25757 68.3096 4.08062 68.5642 4.04834C68.8105 4.02084 69.0377 3.81639 69.2744 3.69563C69.4872 3.58922 69.7001 3.48759 70.0898 3.2927C70.0946 3.2927 70.3086 3.2927 70.5215 3.2927C70.531 3.26042 70.5358 3.22814 70.5442 3.19466C70.3684 3.15282 70.1927 3.11217 69.895 3.03804C70.3218 2.78696 70.6554 2.55022 71.0224 2.3924C71.3189 2.26805 71.6621 2.17001 71.9777 2.17958C72.6222 2.19751 73.2762 2.23099 73.8979 2.37925C74.2865 2.47131 74.6213 2.77739 74.9728 2.98662C74.8759 3.11575 74.8066 3.21379 74.6763 3.38477C75.0517 3.53781 75.3673 3.66335 75.7523 3.82117C75.9843 4.12247 76.221 4.50268 76.0632 5.01321C75.9568 4.96179 75.8683 4.91995 75.7798 4.8781C75.7571 4.94864 75.738 5.00364 75.7105 5.10168C75.891 5.22125 76.0859 5.34679 76.2999 5.48548C76.2341 5.56917 76.1839 5.63015 76.123 5.70906C76.1744 5.76884 76.2306 5.8334 76.2808 5.8896C76.2114 6.01514 76.1421 6.13948 76.0536 6.29252C76.2162 6.34872 76.3274 6.38578 76.5223 6.45513C76.4625 6.64045 76.3788 6.82219 76.3501 7.01229C76.3131 7.25739 76.3095 7.50847 76.3047 7.75836C76.2951 7.97596 76.3047 8.19835 76.3047 8.43508C76.1469 8.5379 75.9938 8.62997 75.7427 8.79257C75.6782 9.01974 75.5766 9.36289 75.4415 9.83157C75.4187 9.85907 75.2884 9.99417 75.1641 10.1233C75.2143 10.1747 75.2609 10.2213 75.3028 10.262C75.1641 10.6063 75.0242 10.9531 74.8903 11.2878C74.5973 11.454 74.2913 11.6262 73.99 11.7972C74.0091 11.8438 74.027 11.8857 74.0462 11.9323C74.1705 11.8952 74.2913 11.8534 74.4168 11.8163C74.8389 11.6908 75.1916 11.4086 75.6507 11.3153C76.007 11.246 76.3095 10.9256 76.6478 10.7355C76.9814 10.5501 77.3198 10.36 77.6725 10.2166C78.0802 10.0492 78.5955 10.0312 78.9064 9.76222C79.2627 9.45136 79.7218 9.39995 80.0793 9.08431C80.6305 8.60247 81.41 8.42671 81.9755 7.91618C82.1573 7.75358 82.3976 7.66151 82.5554 7.48456C83.1496 6.84968 83.8909 6.44556 84.7028 6.20524C85.389 5.99601 85.9964 5.672 86.5715 5.25831C86.6181 5.38385 86.6552 5.49504 86.7066 5.63493C87.1885 5.53211 87.5316 5.26787 87.8185 4.8506C87.7408 4.74419 87.6655 4.65093 87.6105 4.57202C87.968 3.8678 88.8767 4.05312 89.3956 3.33455C89.4518 3.63107 89.4745 3.76139 89.502 3.8953C89.618 3.8953 89.7387 3.8953 89.8451 3.8953C89.8643 3.76976 89.9013 3.70041 89.8786 3.649C89.8415 3.5665 89.771 3.50074 89.716 3.42183C89.8547 3.12532 90.0448 3.09304 90.5733 3.31064C90.7036 2.77261 91.1209 2.62913 91.617 2.54066C92.1084 2.45338 92.6513 2.37925 93.0542 2.11501C93.5097 1.8173 94.0095 1.63677 94.4602 1.34025C94.9935 0.992324 95.5865 0.78309 96.2501 0.824937C96.7786 0.862001 97.2329 0.597768 97.6824 0.380165C98.0866 0.180496 98.4345 0.23669 98.8697 0.399295C99.4269 0.286906 100.067 0.152996 100.795 0.00952148C100.508 0.357448 100.257 0.533204 99.7461 0.755591C100.01 0.792655 100.168 0.844067 100.316 0.824937C101.119 0.750808 101.718 0.862001 102.33 1.34025C102.571 1.52557 102.914 1.61405 103.021 1.98469C103.053 2.11023 103.308 2.17001 103.498 2.28121C103.424 2.43425 103.345 2.59207 103.276 2.73196C103.517 3.16238 103.744 3.57965 103.981 4.01127C103.614 4.40105 104.129 4.64256 104.217 5.05984C103.902 5.41135 104.06 5.99123 103.833 6.45513C103.601 6.93338 103.295 7.37337 103.011 7.85162C102.575 7.94368 102.121 8.05009 102.13 8.6766C102.125 8.67181 102.116 8.65747 102.103 8.6491C102.051 8.69453 102 8.73638 101.945 8.78301C101.963 8.80214 101.987 8.82485 102.005 8.84398C102.051 8.79257 102.093 8.74116 102.13 8.6766C102.251 8.73638 102.38 8.80214 102.501 8.8667C103.044 8.69453 103.053 7.87433 103.739 7.90662C103.804 7.96759 103.873 8.03216 103.948 8.1015C104.287 7.67945 104.68 7.37815 105.288 7.45706C105.474 6.95131 105.961 6.95131 106.448 6.94175C106.554 6.70621 106.665 6.46469 106.795 6.17655C106.939 6.22796 107.195 6.35828 107.218 6.32122C107.426 6.02351 107.509 6.4085 107.667 6.39056C107.83 6.37143 108.001 6.46469 108.196 6.51132C108.683 6.08927 109.059 5.36113 109.805 5.25831C110.241 5.19853 110.718 5.01321 111.243 5.17103C111.261 5.11962 111.293 5.02277 111.322 4.93908C111.535 4.84582 111.744 4.688 111.967 4.67006C112.189 4.65093 112.426 4.76213 112.685 4.82788C112.806 4.76691 112.964 4.69278 113.149 4.60072C113.255 4.18703 113.371 3.8116 113.947 3.66335C114.378 3.55215 114.786 3.51987 115.217 3.50553C115.329 3.39433 115.44 3.27836 115.569 3.14445C115.862 3.14445 116.178 3.14445 116.576 3.14445C116.65 3.02369 116.748 2.8563 116.793 2.77739C117.508 2.77739 118.106 2.77261 118.7 2.78217C118.746 2.78217 118.788 2.86587 118.834 2.9125C118.927 2.84674 119.02 2.77739 119.103 2.72239C119.975 3.15282 120.935 3.44096 121.078 4.5493C121.278 4.67484 121.454 4.78604 121.616 4.88767C121.616 5.17581 121.616 5.43048 121.616 5.71384C121.719 5.75091 121.83 5.78319 122.001 5.84297C121.951 5.91232 121.913 5.96851 121.848 6.06057C122.322 6.61773 121.895 7.21076 121.769 7.74401C121.64 8.29161 121.167 8.76029 120.838 9.27441C120.898 9.35332 120.954 9.42267 121.014 9.50158C120.996 9.53506 120.982 9.59005 120.945 9.62234C120.809 9.75266 120.69 9.92842 120.527 9.98939C119.999 10.1843 119.933 10.6063 119.888 11.1527C120.819 10.6661 121.654 10.1472 122.577 9.77538C123.495 9.40473 124.297 8.76029 125.257 8.28204C125.257 8.48649 125.257 8.67181 125.267 8.86192C125.262 8.85714 125.252 8.84757 125.238 8.83442C125.188 8.88105 125.136 8.9229 125.081 8.96833C125.099 8.98746 125.123 9.01018 125.141 9.02931C125.188 8.97789 125.23 8.92648 125.267 8.86192C125.396 8.80692 125.573 8.80214 125.67 8.71366C126.069 8.3478 126.44 7.95803 126.829 7.56825C126.997 7.52641 127.205 7.53119 127.335 7.42956C127.993 6.9286 128.717 6.63567 129.547 6.52926C129.866 6.49219 130.224 6.39535 130.539 6.17177C131.235 5.68036 132 5.34679 132.89 5.3982C133.183 5.41613 133.479 5.49026 133.781 5.24037C133.985 5.07299 134.398 5.35635 134.662 5.08255C135.516 5.07777 136.289 4.62822 137.152 4.62822C137.565 4.62822 138.01 4.55887 138.381 4.3867C138.599 4.28507 138.794 4.25279 138.998 4.27072C139.322 4.30301 139.68 4.50268 139.962 4.42376C140.292 4.3317 140.603 4.25279 140.941 4.26594C141.122 4.27551 141.344 4.25279 141.479 4.34007C141.86 4.59593 142.17 4.4142 142.514 4.25757C142.606 4.31735 142.704 4.3867 142.801 4.45126C143.205 4.29464 143.538 4.51702 143.909 4.60072C144.317 4.688 144.716 4.8231 145.133 4.91038C145.323 5.1794 145.513 5.4532 145.723 5.75091C145.76 6.4085 145.634 7.09957 145.982 7.76314ZM2.85633 14.5471C2.92089 14.5471 2.98187 14.5471 3.04643 14.5471C3.04643 14.5244 3.04643 14.5053 3.04643 14.4825C2.98187 14.4825 2.92089 14.4825 2.85633 14.4825C2.85633 14.5017 2.85633 14.5244 2.85633 14.5471ZM3.24132 24.0451C3.17676 24.0451 3.11578 24.0451 3.05122 24.0451C3.05122 24.0679 3.05122 24.087 3.05122 24.1097C3.11578 24.1097 3.17676 24.1097 3.24132 24.1097C3.24132 24.087 3.24132 24.0631 3.24132 24.0451ZM4.00652 22.5147C3.94196 22.5147 3.88098 22.5147 3.81641 22.5147C3.81641 22.5375 3.81641 22.5566 3.81641 22.5793C3.88098 22.5793 3.94196 22.5793 4.00652 22.5793C4.00652 22.5566 4.00652 22.5327 4.00652 22.5147ZM4.19662 21.5594C4.13206 21.5594 4.07108 21.5594 4.00652 21.5594C4.00652 21.5822 4.00652 21.6013 4.00652 21.624C4.07108 21.624 4.13206 21.624 4.19662 21.624C4.19662 21.6013 4.19662 21.5774 4.19662 21.5594ZM6.89156 11.6633C6.90949 11.6812 6.93221 11.7051 6.95134 11.723C6.98362 11.686 7.0159 11.6441 6.97406 11.5891C6.95134 11.6119 6.92384 11.6394 6.89156 11.6633ZM7.38774 23.7391C7.32198 23.7618 7.18329 23.8132 6.91428 23.9065C7.43796 23.9387 7.43796 23.9387 7.38774 23.7391ZM7.64241 20.7942C7.57785 20.7942 7.51687 20.7942 7.45231 20.7942C7.45231 20.817 7.45231 20.8361 7.45231 20.8588C7.51687 20.8588 7.57785 20.8588 7.64241 20.8588C7.64241 20.8361 7.64241 20.8122 7.64241 20.7942ZM7.76795 20.3447C7.74404 20.3447 7.72611 20.3447 7.70219 20.3447C7.70219 20.4093 7.70219 20.469 7.70219 20.5348C7.72611 20.5348 7.74404 20.5348 7.76795 20.5348C7.76795 20.4738 7.76795 20.4093 7.76795 20.3447ZM8.94564 10.7032C8.94564 10.531 8.94564 10.3828 8.94564 10.2393C8.31435 10.6386 7.70697 11.0236 7.1271 11.5282C7.94371 11.5198 8.42196 11.014 8.94564 10.7032ZM8.89901 19.5974C8.87629 19.6261 8.8476 19.6584 8.78782 19.7744C8.7926 19.7792 8.79738 19.7827 8.80575 19.7923C8.85716 19.7457 8.90858 19.7038 8.96358 19.6584C8.94086 19.6393 8.92173 19.6213 8.89901 19.5974ZM8.76869 11.8211C8.75075 11.802 8.72804 11.7792 8.70891 11.7601C8.66228 11.8115 8.62043 11.8629 8.61565 11.9502C8.6025 11.9371 8.59293 11.9275 8.57858 11.9132C8.52837 11.9598 8.47696 12.0016 8.42196 12.0483C8.43989 12.0662 8.46261 12.0901 8.48174 12.108C8.52837 12.0578 8.57022 12.0064 8.575 11.9179C8.58815 11.9323 8.59771 11.9418 8.61206 11.955C8.66706 11.9084 8.71847 11.8629 8.76869 11.8211ZM8.69934 19.7744C8.67184 19.8712 8.64913 19.9549 8.72325 19.8342C8.71369 19.8162 8.70412 19.7923 8.69934 19.7744ZM8.3562 23.7905C8.32392 23.7905 8.29163 23.7905 8.25935 23.7905C8.25935 23.9148 8.25935 24.0451 8.25935 24.1707C8.29163 24.1707 8.32392 24.1707 8.3562 24.1707C8.3562 24.0451 8.3562 23.9148 8.3562 23.7905ZM8.57858 22.339C8.56065 22.3199 8.53674 22.2971 8.5188 22.278C8.47217 22.3294 8.43033 22.3796 8.42554 22.4681C8.41239 22.455 8.40283 22.4454 8.38848 22.4311C8.33826 22.4777 8.28685 22.5195 8.23185 22.5662C8.24979 22.5841 8.2725 22.608 8.29163 22.6259C8.33826 22.5745 8.38011 22.5243 8.3837 22.4358C8.39805 22.4502 8.40761 22.4586 8.42196 22.4729C8.47696 22.4263 8.52837 22.3796 8.57858 22.339ZM8.78304 20.0386C8.77347 19.9824 8.75554 19.9322 8.73641 19.876C8.69456 19.9645 8.63956 20.0757 8.56543 20.2335C8.71369 20.108 8.78782 20.0661 8.78304 20.0386ZM8.78782 20.7942C8.72325 20.7942 8.66228 20.7942 8.59771 20.7942C8.59771 20.817 8.59771 20.8361 8.59771 20.8588C8.66228 20.8588 8.72325 20.8588 8.78782 20.8588C8.78782 20.8361 8.78782 20.8122 8.78782 20.7942ZM9.54824 20.2466C9.55302 20.2419 9.50639 20.2048 9.44182 20.1402C9.23737 20.2287 9.0102 20.3256 8.75554 20.432C8.91336 20.5623 9.04727 20.6687 9.19553 20.7895C9.3402 20.5719 9.44661 20.414 9.54824 20.2466ZM9.72399 19.2782C9.70606 19.2591 9.68334 19.2363 9.66421 19.2172C9.61758 19.2686 9.57573 19.32 9.57095 19.4073C9.5578 19.3942 9.54824 19.3846 9.53389 19.3703C9.48367 19.4169 9.43226 19.4587 9.37726 19.5054C9.3952 19.5233 9.41791 19.5472 9.43704 19.5651C9.48367 19.5137 9.52552 19.4635 9.5303 19.375C9.54345 19.3894 9.55302 19.3978 9.56737 19.4121C9.62236 19.3655 9.67378 19.32 9.72399 19.2782ZM10.4485 20.7297C10.4246 20.7297 10.4067 20.7297 10.3828 20.7297C10.3828 20.7942 10.3828 20.854 10.3828 20.9198C10.4067 20.9198 10.4246 20.9198 10.4485 20.9198C10.4485 20.854 10.4485 20.7942 10.4485 20.7297ZM13.4436 12.8876C13.4675 12.8876 13.4854 12.8876 13.5081 12.8876C13.5081 12.823 13.5081 12.762 13.5081 12.6975C13.4854 12.6975 13.4675 12.6975 13.4436 12.6975C13.4436 12.762 13.4436 12.823 13.4436 12.8876ZM13.2487 9.25647C13.2726 9.25647 13.2905 9.25647 13.3145 9.25647C13.3145 9.19191 13.3145 9.13093 13.3145 9.06637C13.2905 9.06637 13.2726 9.06637 13.2487 9.06637C13.2487 9.12615 13.2487 9.19191 13.2487 9.25647ZM12.8039 13.0825C12.8087 13.0873 12.8183 13.0956 12.8219 13.1004C12.8733 13.0538 12.9247 13.0131 12.9797 12.9665C12.9617 12.9474 12.9378 12.9246 12.9199 12.9055C12.8733 12.9569 12.8266 13.0083 12.8039 13.0825ZM12.4416 13.3838C12.4608 13.4017 12.4835 13.4256 12.5026 13.4435C12.5493 13.3933 12.5899 13.3419 12.6138 13.2726C12.609 13.2678 12.5995 13.2582 12.5947 13.2534C12.5445 13.2953 12.4931 13.3371 12.4416 13.3838ZM11.8534 13.6528C11.8534 13.6576 11.8534 13.6659 11.8534 13.6707C11.9777 13.648 12.1033 13.6205 12.2288 13.5966C12.224 13.5547 12.2193 13.5129 12.2145 13.4722C12.0901 13.4854 11.9694 13.495 11.8534 13.6528ZM11.148 11.9323C11.1719 11.9323 11.1898 11.9323 11.2125 11.9323C11.2125 11.8677 11.2125 11.8067 11.2125 11.7422C11.1898 11.7422 11.1719 11.7422 11.148 11.7422C11.148 11.802 11.148 11.8677 11.148 11.9323ZM10.8287 14.1537C11.2687 14.3116 11.3524 14.0557 11.4636 13.8429C11.5892 13.819 11.7697 13.9027 11.8247 13.6528C11.6812 13.6659 11.478 13.5691 11.417 13.7688C11.246 13.8847 11.0691 13.9959 10.8287 14.1537ZM11.1946 19.1754C11.2962 18.9064 11.3895 18.6613 11.4911 18.3779C11.5748 18.452 11.6262 18.4986 11.6442 18.5178C11.8068 18.3504 11.9694 18.1878 12.1499 18.0072C11.8211 18.0814 11.4816 18.1603 11.148 18.2344C11.0416 18.6194 10.9674 18.8836 10.879 19.1897C11.0511 19.1849 11.1348 19.1802 11.1946 19.1754ZM13.5416 18.8239C13.1614 18.8884 12.7848 18.9673 12.6138 19.3894C12.2886 19.375 12.0435 19.5233 11.7972 19.7696C11.4816 19.7552 11.2962 19.9179 11.2735 20.2239C11.4445 20.0757 11.6346 19.9131 11.8486 19.7744C11.9502 19.8342 12.0483 19.8904 12.1726 19.9645C12.3173 19.7792 12.4656 19.5891 12.6138 19.3942C12.9988 19.3236 13.379 19.2495 13.5416 18.8239ZM13.7449 18.7031C13.7269 18.684 13.703 18.6613 13.6851 18.6421C13.6385 18.6935 13.5966 18.7449 13.5739 18.8143C13.5787 18.8191 13.5871 18.8274 13.5918 18.8322C13.6385 18.7904 13.6899 18.7485 13.7449 18.7031ZM14.1442 18.4986C14.0796 18.4986 14.0187 18.4986 13.9541 18.4986C13.9541 18.5214 13.9541 18.5405 13.9541 18.5632C14.0187 18.5632 14.0796 18.5632 14.1442 18.5632C14.1442 18.5405 14.1442 18.5178 14.1442 18.4986ZM14.5244 18.3085C14.4599 18.3085 14.3989 18.3085 14.3343 18.3085C14.3343 18.3313 14.3343 18.3504 14.3343 18.3731C14.3989 18.3731 14.4599 18.3731 14.5244 18.3731C14.5244 18.3504 14.5244 18.3277 14.5244 18.3085ZM14.8448 18.0539C14.8209 18.0539 14.803 18.0539 14.7791 18.0539C14.7791 18.1184 14.7791 18.1782 14.7791 18.244C14.803 18.244 14.8209 18.244 14.8448 18.244C14.8448 18.1782 14.8448 18.1137 14.8448 18.0539ZM15.0804 11.8211C15.0625 11.802 15.0385 11.7792 15.0206 11.7601C14.974 11.8115 14.9321 11.8629 14.9465 11.8713C14.65 11.9968 14.4037 12.0985 14.0928 12.2288C14.5471 12.4046 14.7791 12.285 14.8855 11.9132C14.8998 11.9275 14.9094 11.9371 14.9226 11.9502C14.9788 11.9084 15.0302 11.8629 15.0804 11.8211ZM15.6555 17.5577C15.6375 17.5386 15.6136 17.5158 15.5957 17.4967C15.5491 17.5481 15.5072 17.5995 15.5024 17.6868C15.4893 17.6737 15.4797 17.6641 15.4654 17.6498C15.4152 17.6964 15.3637 17.7382 15.3076 17.7849C15.3267 17.8028 15.3494 17.8267 15.3685 17.8446C15.4152 17.7932 15.4558 17.743 15.4606 17.6545C15.4749 17.6689 15.4845 17.6773 15.4977 17.6916C15.5539 17.645 15.6053 17.5995 15.6555 17.5577ZM19.3105 16.1385C19.3105 15.9902 19.3105 15.879 19.2914 15.7583C18.9757 15.7487 18.7354 15.8922 18.5453 16.1385C18.4006 16.166 18.1782 16.0452 18.3456 16.2963C17.914 16.2963 17.6689 16.2963 17.413 16.2963C17.413 16.1146 17.413 15.9615 17.413 15.8276C17.6725 15.7069 18.0671 15.6375 18.1185 15.4701C18.2201 15.1138 18.4795 15.0301 18.8095 14.8448C18.5214 14.8448 18.3086 14.8448 18.0204 14.8448C17.761 15.1043 17.4417 15.4056 16.9958 15.5909C16.722 15.7069 16.3705 15.8743 16.1612 16.3513C16.5139 16.2867 16.7459 16.2449 16.9958 16.1983C16.9958 16.3465 16.9958 16.4948 16.9958 16.6622C16.7925 16.7925 16.6024 16.9539 16.3836 17.0376C16.166 17.1213 15.9532 17.1631 15.9388 17.4644C16.759 17.2839 17.474 16.8798 18.1603 16.3238C18.3038 16.2963 18.5262 16.4159 18.5405 16.1337C18.782 16.1385 19.0176 16.1385 19.3105 16.1385ZM19.4815 15.6423C19.4635 15.6232 19.4396 15.6005 19.4217 15.5813C19.3751 15.6327 19.3332 15.6841 19.3105 15.7535C19.3105 15.7535 19.3105 15.7535 19.3057 15.7535C19.3105 15.7583 19.3189 15.7666 19.3237 15.7714C19.3751 15.7296 19.4313 15.6889 19.4815 15.6423ZM20.2658 13.9075C20.2 13.9075 20.1403 13.9075 20.0757 13.9075C20.0757 13.9314 20.0757 13.9493 20.0757 13.972C20.1403 13.972 20.2 13.972 20.2658 13.972C20.2658 13.9493 20.2658 13.9314 20.2658 13.9075ZM20.9521 8.58812C20.7381 8.5379 20.6221 8.50443 20.4738 8.46736C20.4738 8.69453 20.4738 8.84398 20.4738 9.168C20.6687 8.93605 20.7751 8.80214 20.9521 8.58812ZM21.1553 24.7458C21.1326 24.7458 21.1135 24.7458 21.0908 24.7458C21.0908 24.8103 21.0908 24.8701 21.0908 24.9359C21.1135 24.9359 21.1326 24.9359 21.1553 24.9359C21.1553 24.8701 21.1553 24.8103 21.1553 24.7458ZM21.6193 7.98074C21.624 8.01303 21.6288 8.04531 21.6336 8.074C21.74 8.074 21.8464 8.074 21.9492 8.074C21.9445 8.01781 21.9397 7.96281 21.9397 7.9114C21.8333 7.93412 21.7257 7.95803 21.6193 7.98074ZM22.4873 24.894C22.1668 24.7362 21.9576 24.6346 21.7029 24.5138C21.6097 24.6298 21.5224 24.7458 21.4064 24.894C21.7125 24.894 22.009 24.894 22.4873 24.894ZM23.5167 24.8103C23.4509 24.8103 23.3912 24.8103 23.3266 24.8103C23.3266 24.8331 23.3266 24.8522 23.3266 24.8749C23.3912 24.8749 23.4509 24.8749 23.5167 24.8749C23.5167 24.8522 23.5167 24.8283 23.5167 24.8103ZM34.0011 12.4751C33.9963 12.4189 33.9928 12.3639 33.9928 12.3125C33.8852 12.3352 33.7787 12.3591 33.6723 12.3818C33.6771 12.4141 33.6819 12.4464 33.6867 12.4751C33.7883 12.4751 33.8947 12.4751 34.0011 12.4751ZM34.8082 12.0901C34.7902 11.8857 34.7759 11.7147 34.7532 11.4313C34.6133 11.7183 34.5308 11.8904 34.4328 12.0901C34.5631 12.0901 34.6695 12.0901 34.8082 12.0901ZM39.7939 8.10628C39.9422 8.10628 40.0677 8.08357 40.1837 8.11107C40.2949 8.13857 40.3965 8.21748 40.54 8.28682C40.54 8.03694 40.54 7.87912 40.54 7.73564C40.3176 7.80499 40.0904 7.85999 39.8633 7.92575C39.8358 7.9389 39.8262 8.01303 39.7939 8.10628ZM40.4754 18.0539C40.4527 18.0539 40.4336 18.0539 40.4109 18.0539C40.4109 18.1184 40.4109 18.1782 40.4109 18.244C40.4336 18.244 40.4527 18.244 40.4754 18.244C40.4754 18.1782 40.4754 18.1137 40.4754 18.0539ZM40.5496 17.8267C40.5352 17.6223 40.5221 17.4501 40.4982 17.1954C40.1837 17.376 39.9565 17.5111 39.7294 17.645C39.7569 17.7059 39.7844 17.7657 39.8071 17.8303C40.039 17.8267 40.2758 17.8267 40.5496 17.8267ZM40.8556 18.0539C40.8329 18.0539 40.8138 18.0539 40.7911 18.0539C40.7911 18.1184 40.7911 18.1782 40.7911 18.244C40.8138 18.244 40.8329 18.244 40.8556 18.244C40.8556 18.1782 40.8556 18.1137 40.8556 18.0539ZM41.4953 17.3485C41.4307 17.3485 41.371 17.3485 41.3052 17.3485C41.3052 17.3724 41.3052 17.3903 41.3052 17.413C41.371 17.413 41.4307 17.413 41.4953 17.413C41.4953 17.3903 41.4953 17.3724 41.4953 17.3485ZM41.9413 16.9037C41.964 16.9037 41.9831 16.9037 42.0058 16.9037C42.0058 16.8379 42.0058 16.7781 42.0058 16.7136C41.9831 16.7136 41.964 16.7136 41.9413 16.7136C41.9413 16.7781 41.9413 16.8379 41.9413 16.9037ZM42.2426 20.4236C42.2234 20.4045 42.2007 20.3818 42.1816 20.3626C42.1362 20.414 42.0943 20.4654 42.0895 20.5527C42.0752 20.5396 42.0656 20.53 42.0525 20.5157C42.0011 20.5623 41.9496 20.6041 41.8946 20.6508C41.9126 20.6687 41.9365 20.6926 41.9544 20.7105C42.0011 20.6591 42.0429 20.6089 42.0477 20.5204C42.0608 20.5348 42.0704 20.5444 42.0847 20.5575C42.1397 20.5109 42.1912 20.469 42.2426 20.4236ZM43.6941 14.5806C43.5267 14.6726 43.3605 14.7659 43.1883 14.8628C43.3043 14.9787 43.3928 15.0672 43.4944 15.1688C43.6426 15.0206 43.9164 14.9417 43.6941 14.5806ZM44.5334 14.0844C44.2082 13.9684 43.9631 14.0186 43.81 14.3714C44.134 14.4873 44.3803 14.4359 44.5334 14.0844ZM46.4069 5.43048C46.383 5.43048 46.3651 5.43048 46.3424 5.43048C46.3424 5.49504 46.3424 5.55602 46.3424 5.62058C46.3651 5.62058 46.383 5.62058 46.4069 5.62058C46.4069 5.55602 46.4069 5.49504 46.4069 5.43048ZM47.1721 5.04549C47.1482 5.04549 47.1303 5.04549 47.1064 5.04549C47.1064 5.11005 47.1064 5.17103 47.1064 5.23559C47.1303 5.23559 47.1482 5.23559 47.1721 5.23559C47.1721 5.17581 47.1721 5.11005 47.1721 5.04549ZM49.6578 4.47518C49.6339 4.47518 49.616 4.47518 49.5921 4.47518C49.5921 4.53974 49.5921 4.60072 49.5921 4.66528C49.616 4.66528 49.6339 4.66528 49.6578 4.66528C49.6578 4.60072 49.6578 4.53496 49.6578 4.47518ZM50.9933 15.1832C50.9694 15.1832 50.9515 15.1832 50.9288 15.1832C50.9288 15.2477 50.9288 15.3075 50.9288 15.3733C50.9515 15.3733 50.9694 15.3733 50.9933 15.3733C50.9933 15.3075 50.9933 15.2477 50.9933 15.1832ZM52.9685 13.3324C52.825 13.2355 52.6816 13.1375 52.4257 12.9617C52.44 13.379 52.3838 13.6898 52.0921 13.856C51.8183 14.0139 51.5218 14.1346 51.2755 14.2506C51.3783 14.5435 51.4525 14.7659 51.5361 14.9883C51.5409 15.0014 51.5959 14.9931 51.7167 15.0014C51.8374 14.84 51.9905 14.6308 52.1483 14.4228C52.6397 14.3295 52.6397 14.3295 52.9685 13.3324ZM53.9286 12.3771C53.864 12.3771 53.8031 12.3771 53.7385 12.3771C53.7385 12.401 53.7385 12.4189 53.7385 12.4416C53.8031 12.4416 53.864 12.4416 53.9286 12.4416C53.9286 12.4189 53.9286 12.401 53.9286 12.3771ZM66.6811 12.1403C66.6441 12.1738 66.607 12.2061 66.5699 12.2384C66.5891 12.2563 66.6118 12.2802 66.6309 12.2981C66.6632 12.2611 66.6907 12.2192 66.6811 12.1403ZM66.7517 12.1272C66.7421 12.1176 66.7325 12.108 66.723 12.0985C66.723 12.0985 66.7182 12.0985 66.7182 12.1033C66.7277 12.1128 66.7325 12.1176 66.7421 12.1272C66.7469 12.1319 66.7517 12.1272 66.7517 12.1272ZM67.1223 12.1033C67.1127 11.9693 67.108 11.8677 67.0984 11.7374C66.9226 11.8486 66.7923 11.9371 66.7648 12.1272C66.8712 12.1224 66.9788 12.1128 67.1223 12.1033ZM63.2736 19.4814C63.1289 19.5472 62.9854 19.6118 62.8468 19.6716C62.9759 19.8904 63.05 20.0195 63.1289 20.1677C63.1158 20.1546 63.1062 20.145 63.0919 20.1307C63.0416 20.1773 62.9902 20.2191 62.934 20.2658C62.9532 20.2837 62.9759 20.3076 62.995 20.3256C63.0416 20.2753 63.0835 20.2239 63.1612 20.2144C63.3561 19.9274 63.3238 19.6668 63.2736 19.4814ZM63.6622 18.513C63.6442 18.4939 63.6203 18.4711 63.6024 18.452C63.5558 18.5034 63.5139 18.5548 63.5091 18.6421C63.496 18.629 63.4864 18.6194 63.4721 18.6051C63.4218 18.6517 63.3704 18.6935 63.3142 18.7402C63.3334 18.7581 63.3561 18.782 63.3752 18.7999C63.4218 18.7485 63.4637 18.6983 63.4673 18.6098C63.4816 18.6242 63.4912 18.6338 63.5055 18.6469C63.5605 18.6003 63.6119 18.5548 63.6622 18.513ZM67.8732 12.0112C67.8552 11.9921 67.8313 11.9693 67.8134 11.9502C67.7667 12.0016 67.7249 12.053 67.6878 12.1176C67.6926 12.1224 67.7022 12.1355 67.7153 12.1451C67.7667 12.0985 67.8229 12.053 67.8732 12.0112ZM71.1241 3.07032C71.1193 3.03804 71.1145 3.00456 71.1109 2.97706C71.0033 2.97706 70.8969 2.97706 70.7953 2.97706C70.8 3.03325 70.8048 3.08825 70.8048 3.13966C70.9112 3.11575 71.0176 3.09303 71.1241 3.07032ZM72.4966 3.05597C72.5158 3.0751 72.5385 3.09782 72.5576 3.11575C72.603 3.06554 72.6449 3.01412 72.6497 2.92565C72.664 2.94 72.6736 2.94956 72.6867 2.96271C72.7381 2.91728 72.7896 2.87543 72.8446 2.8288C72.8266 2.80967 72.8027 2.78696 72.7848 2.76902C72.7381 2.81924 72.6963 2.87065 72.6915 2.95913C72.6784 2.94478 72.6688 2.93521 72.6545 2.92206C72.603 2.96749 72.5528 3.01412 72.4966 3.05597ZM72.6497 16.0727C72.6449 16.0404 72.6413 16.0129 72.6365 15.9807C72.5289 15.9807 72.4225 15.9807 72.3209 15.9807C72.3257 16.0357 72.3352 16.0919 72.3388 16.148C72.4464 16.1194 72.548 16.0966 72.6497 16.0727ZM74.1705 15.3075C74.1012 15.1509 74.027 14.9979 73.9529 14.84C73.9481 14.8257 73.9111 14.8305 73.9206 14.8305C73.7353 14.9692 73.5679 15.0995 73.3599 15.2573C73.202 15.0062 73.0765 14.8113 72.9653 14.6404C72.8075 14.7241 72.6497 14.803 72.4835 14.8867C72.6126 15.0206 72.7381 15.1545 72.9008 15.3267C72.9008 15.5024 72.9008 15.7164 72.9008 15.9197C73.0909 15.9197 73.2391 15.9197 73.3826 15.9197C73.4711 15.457 73.8931 15.4701 74.1705 15.3075ZM79.3045 10.2118C79.2818 10.2118 79.2627 10.2118 79.2399 10.2118C79.2399 10.2763 79.2399 10.3373 79.2399 10.4019C79.2627 10.4019 79.2818 10.4019 79.3045 10.4019C79.3045 10.3373 79.3045 10.2763 79.3045 10.2118ZM82.3007 17.358C81.8596 17.2002 81.7759 17.4549 81.6838 17.682C81.6695 17.6689 81.6611 17.6593 81.6467 17.645C81.5953 17.6916 81.5451 17.7334 81.4889 17.7801C81.508 17.798 81.5308 17.8219 81.5487 17.8399C81.5953 17.7896 81.6372 17.7382 81.7113 17.7382C81.8835 17.627 82.0592 17.5158 82.3007 17.358ZM82.5554 17.0938C82.5327 17.0938 82.5136 17.0938 82.4908 17.0938C82.4908 17.1584 82.4908 17.2193 82.4908 17.2839C82.5136 17.2839 82.5327 17.2839 82.5554 17.2839C82.5554 17.2229 82.5554 17.1584 82.5554 17.0938ZM84.9766 8.10628C84.9993 8.10628 85.0184 8.10628 85.0411 8.10628C85.0411 8.04172 85.0411 7.98074 85.0411 7.91618C85.0184 7.91618 84.9993 7.91618 84.9766 7.91618C84.9766 7.98074 84.9766 8.04172 84.9766 8.10628ZM85.1667 19.4635C84.7255 19.3057 84.643 19.5604 84.5545 19.8114C84.7542 19.7325 84.9251 19.6213 85.1667 19.4635ZM85.2312 21.1099C85.2085 21.1099 85.1894 21.1099 85.1667 21.1099C85.1667 21.1745 85.1667 21.2342 85.1667 21.3C85.1894 21.3 85.2085 21.3 85.2312 21.3C85.2312 21.239 85.2312 21.1745 85.2312 21.1099ZM85.676 7.59575C85.6114 7.59575 85.5516 7.59575 85.4859 7.59575C85.4859 7.61967 85.4859 7.6376 85.4859 7.66151C85.5516 7.66151 85.6114 7.66151 85.676 7.66151C85.676 7.6376 85.676 7.61967 85.676 7.59575ZM86.2332 7.22989C86.214 7.21076 86.1913 7.18805 86.1722 7.16892C86.1267 7.22033 86.0849 7.27174 86.0801 7.35902C86.0658 7.34587 86.0574 7.3363 86.043 7.32196C85.9916 7.36859 85.9414 7.41043 85.8852 7.45706C85.9044 7.475 85.9271 7.49891 85.945 7.51684C85.9916 7.46663 86.0335 7.41521 86.0383 7.32674C86.0526 7.34109 86.061 7.35065 86.0753 7.3638C86.1315 7.31837 86.1817 7.27174 86.2332 7.22989ZM87.7169 6.19568C87.6942 6.19568 87.6751 6.19568 87.6524 6.19568C87.6524 6.26024 87.6524 6.32122 87.6524 6.38578C87.6751 6.38578 87.6942 6.38578 87.7169 6.38578C87.7169 6.32122 87.7169 6.26024 87.7169 6.19568ZM89.1409 4.20616C89.1588 4.22409 89.1828 4.24801 89.2007 4.26594C89.2473 4.21573 89.2892 4.16431 89.3262 4.09975C89.3214 4.09497 89.3119 4.0854 89.2987 4.07106C89.2425 4.1129 89.1923 4.15953 89.1409 4.20616ZM88.3566 6.0522C88.2322 6.0522 88.1019 6.0522 87.9764 6.0522C87.9764 6.08449 87.9764 6.11677 87.9764 6.14905C88.1019 6.14905 88.2322 6.14905 88.3566 6.14905C88.3566 6.11677 88.3566 6.08449 88.3566 6.0522ZM89.4984 6.1909C89.4984 6.18611 89.4984 6.17655 89.4984 6.17177C89.3071 6.19568 89.1134 6.22318 88.8994 6.25068C88.9365 6.40013 88.9604 6.47785 88.9783 6.56154C89.1684 6.46469 89.3358 6.37622 89.4841 6.17655C89.4888 6.18133 89.4936 6.18611 89.4984 6.1909ZM89.6789 6.0797C89.6598 6.06057 89.6371 6.03786 89.618 6.01873C89.5809 6.06057 89.5438 6.1072 89.5211 6.21003C89.5725 6.17177 89.6275 6.12633 89.6789 6.0797ZM89.869 4.9343C89.8499 4.91517 89.8272 4.89245 89.8081 4.87332C89.7626 4.92473 89.7208 4.97614 89.716 5.06342C89.7017 5.05027 89.6921 5.04071 89.6789 5.02636C89.6275 5.07299 89.5761 5.11483 89.5211 5.16146C89.5391 5.1794 89.563 5.20331 89.5809 5.22125C89.6275 5.17103 89.6694 5.11962 89.6742 5.03114C89.6885 5.04549 89.6969 5.05505 89.7112 5.06821C89.7662 5.02277 89.8176 4.98092 89.869 4.9343ZM90.2445 5.80112C90.1285 5.82503 90.0077 5.84775 89.8918 5.87047C89.8965 5.91232 89.9013 5.95416 89.9061 5.99601C90.0269 5.98166 90.1476 5.96851 90.2445 5.80112ZM90.2672 5.81069C90.2672 5.8059 90.2672 5.80112 90.2672 5.79156C90.2624 5.79156 90.2588 5.79156 90.254 5.79634C90.2588 5.80112 90.2624 5.8059 90.2672 5.81069ZM90.2672 4.72984C90.2026 4.72984 90.1428 4.72984 90.0771 4.72984C90.0771 4.75376 90.0771 4.77169 90.0771 4.7956C90.1428 4.7956 90.2026 4.7956 90.2672 4.7956C90.2672 4.77169 90.2672 4.74897 90.2672 4.72984ZM90.4441 5.69949C90.425 5.68036 90.4023 5.65765 90.3832 5.63852C90.3509 5.67558 90.3186 5.71743 90.2959 5.82862C90.3413 5.78319 90.3927 5.74134 90.4441 5.69949ZM90.6522 19.2638C90.5876 19.2638 90.5278 19.2638 90.4621 19.2638C90.4621 19.2866 90.4621 19.3057 90.4621 19.3284C90.5278 19.3284 90.5876 19.3284 90.6522 19.3284C90.6522 19.3057 90.6522 19.283 90.6522 19.2638ZM93.8804 15.7439C93.8289 15.7858 93.7787 15.8276 93.7321 15.8743C93.75 15.8922 93.774 15.9161 93.7919 15.934C93.8242 15.8922 93.8564 15.8503 93.8804 15.7439ZM93.9222 15.7714C93.9174 15.7666 93.9126 15.7631 93.9079 15.7583C93.9079 15.7631 93.9079 15.7666 93.9079 15.7762C93.9126 15.7714 93.9174 15.7714 93.9222 15.7714ZM94.2785 15.7021C94.2749 15.6602 94.2701 15.6184 94.2654 15.5765C94.1446 15.5861 94.0238 15.6005 93.927 15.7714C94.043 15.7439 94.1625 15.726 94.2785 15.7021ZM94.4782 2.43425C94.4136 2.43425 94.3526 2.43425 94.2881 2.43425C94.2881 2.45816 94.2881 2.47609 94.2881 2.50001C94.3526 2.50001 94.4136 2.50001 94.4782 2.50001C94.4782 2.47609 94.4782 2.45338 94.4782 2.43425ZM98.6617 10.9949C98.4811 10.9949 98.3317 10.9949 98.1834 10.9949C98.0674 11.246 97.9562 11.4863 97.8498 11.723C97.4971 11.7649 97.3441 12.0483 97.1408 12.2659C97.1683 12.4237 97.1863 12.5576 97.215 12.7023C97.7984 12.1869 98.4154 11.7649 98.6617 10.9949ZM101.17 1.0808C101.045 1.0808 100.915 1.0808 100.79 1.0808C100.79 1.11308 100.79 1.14536 100.79 1.17765C100.915 1.17765 101.045 1.17765 101.17 1.17765C101.17 1.14058 101.17 1.11308 101.17 1.0808ZM101.491 9.06159C101.467 9.06159 101.449 9.06159 101.425 9.06159C101.425 9.12615 101.425 9.18713 101.425 9.25169C101.449 9.25169 101.467 9.25169 101.491 9.25169C101.491 9.19191 101.491 9.12615 101.491 9.06159ZM108.423 11.6262C108.405 11.6071 108.381 11.5844 108.363 11.5652C108.316 11.6166 108.274 11.668 108.237 11.7326C108.104 11.7697 107.881 11.6441 107.867 11.9323C108.01 11.9048 108.233 12.0243 108.237 11.7326C108.242 11.7374 108.252 11.747 108.266 11.7601C108.316 11.7147 108.373 11.6728 108.423 11.6262ZM106.082 22.4502C106.058 22.4502 106.04 22.4502 106.016 22.4502C106.016 22.5147 106.016 22.5745 106.016 22.6403C106.04 22.6403 106.058 22.6403 106.082 22.6403C106.082 22.5745 106.082 22.5147 106.082 22.4502ZM106.892 20.8086C106.874 20.7895 106.852 20.7667 106.833 20.7476C106.786 20.799 106.744 20.8504 106.739 20.9377C106.726 20.9246 106.717 20.915 106.702 20.9007C106.652 20.9473 106.601 20.9891 106.546 21.0358C106.564 21.0537 106.586 21.0776 106.605 21.0955C106.652 21.0441 106.694 20.9939 106.699 20.9054C106.712 20.9198 106.721 20.9282 106.736 20.9425C106.786 20.8959 106.842 20.8504 106.892 20.8086ZM108.047 15.3637C108.052 15.3685 108.062 15.3829 108.076 15.3912C108.126 15.3458 108.178 15.3039 108.233 15.2573C108.215 15.2382 108.191 15.2155 108.173 15.1963C108.126 15.2525 108.08 15.3039 108.047 15.3637ZM108.827 21.2163C108.813 20.7524 108.85 20.2562 108.795 19.7086C108.637 19.8664 108.548 19.9549 108.419 20.0852C108.465 20.2514 108.521 20.4463 108.576 20.6639C108.46 20.7201 108.289 20.8038 108.154 20.8732C107.973 20.7476 107.825 20.6412 107.677 20.5396C107.654 20.4882 107.635 20.432 107.612 20.3818C107.57 20.432 107.528 20.4882 107.482 20.5396C107.366 20.5396 107.25 20.5396 107.082 20.5396C107.111 20.7105 107.129 20.817 107.148 20.9246C107.282 20.8457 107.385 20.7895 107.482 20.7297C107.482 20.6639 107.482 20.6041 107.482 20.5396C107.546 20.5396 107.607 20.5396 107.672 20.5396C107.607 20.6041 107.546 20.6639 107.482 20.7297C107.565 20.854 107.649 20.9796 107.709 21.068C108.099 21.1183 108.447 21.1649 108.827 21.2163ZM114.28 8.08715C113.863 8.26411 113.441 8.43508 113.006 8.6204C113.043 8.71844 113.075 8.80214 113.125 8.93605C113.539 8.65747 114.039 8.58812 114.28 8.08715ZM114.689 7.72608C114.665 7.72608 114.647 7.72608 114.623 7.72608C114.623 7.79064 114.623 7.85162 114.623 7.91618C114.647 7.91618 114.665 7.91618 114.689 7.91618C114.689 7.85162 114.689 7.78586 114.689 7.72608ZM117.814 22.7048C117.749 22.7048 117.689 22.7048 117.624 22.7048C117.624 22.7276 117.624 22.7467 117.624 22.7694C117.689 22.7694 117.749 22.7694 117.814 22.7694C117.814 22.7467 117.814 22.7276 117.814 22.7048ZM118.547 22.608C118.542 22.5518 118.533 22.4956 118.528 22.4406C118.427 22.4633 118.32 22.492 118.217 22.5147C118.222 22.547 118.227 22.5745 118.232 22.608C118.333 22.608 118.44 22.608 118.547 22.608ZM119.103 22.2601C119.071 22.2601 119.039 22.2601 119.006 22.2601C119.006 22.3844 119.006 22.5147 119.006 22.6403C119.039 22.6403 119.071 22.6403 119.103 22.6403C119.103 22.5147 119.103 22.3844 119.103 22.2601ZM119.693 22.0329C119.688 21.9767 119.678 21.9205 119.674 21.8655C119.572 21.8882 119.466 21.9169 119.363 21.9397C119.367 21.9719 119.372 21.9994 119.377 22.0329C119.483 22.0329 119.59 22.0329 119.693 22.0329ZM123.152 19.4683C123.134 19.4492 123.11 19.4264 123.092 19.4073C123.045 19.4587 123.003 19.5101 122.999 19.5974C122.984 19.5843 122.976 19.5747 122.962 19.5604C122.91 19.607 122.86 19.6488 122.804 19.6955C122.823 19.7134 122.846 19.7373 122.865 19.7552C122.91 19.7038 122.952 19.6536 122.957 19.5651C122.971 19.5795 122.981 19.5891 122.994 19.6022C123.045 19.5556 123.097 19.5137 123.152 19.4683ZM139.044 11.9968C138.979 11.9968 138.92 11.9968 138.854 11.9968C138.854 12.0208 138.854 12.0387 138.854 12.0614C138.92 12.0614 138.979 12.0614 139.044 12.0614C139.044 12.0387 139.044 12.016 139.044 11.9968ZM84.1468 20.1546C84.1468 20.2191 84.1468 20.2789 84.1468 20.3447C84.2114 20.2789 84.2711 20.2191 84.3369 20.1546C84.2759 20.1546 84.2114 20.1546 84.1468 20.1546ZM126.422 19.7744C126.565 19.7457 126.788 19.8664 126.802 19.5843C126.657 19.6118 126.435 19.4862 126.422 19.7744ZM41.7512 21.4949C41.7512 21.5594 41.7512 21.6192 41.7512 21.685C41.7739 21.685 41.793 21.685 41.8157 21.685C41.8157 21.6192 41.8157 21.5594 41.8157 21.4949C41.793 21.4949 41.7691 21.4949 41.7512 21.4949ZM133.906 14.4921C133.906 14.6547 133.906 14.803 133.906 15.0529C134.101 14.8628 134.23 14.7372 134.356 14.6081C134.444 14.6966 134.49 14.742 134.565 14.8161C134.657 14.534 135.181 14.4778 134.926 13.9768C134.56 14.1669 134.222 14.3391 133.906 14.4921ZM139.443 12.8087C139.522 12.8876 139.611 12.9761 139.693 13.0586C139.994 12.9199 140.287 12.7848 140.64 12.6281C140.389 12.4978 140.236 12.4189 140.088 12.3448C139.841 12.5205 139.643 12.6652 139.443 12.8087ZM135.284 14.2279C135.306 14.2279 135.325 14.2279 135.348 14.2279C135.348 14.1621 135.348 14.1023 135.348 14.0378C135.325 14.0378 135.306 14.0378 135.284 14.0378C135.284 14.0976 135.284 14.1621 135.284 14.2279ZM127.182 19.3942C127.187 19.3978 127.195 19.4073 127.2 19.4121C127.251 19.3655 127.303 19.3236 127.358 19.2782C127.34 19.2591 127.316 19.2363 127.298 19.2172C127.251 19.2686 127.21 19.32 127.163 19.375C127.168 19.3798 127.177 19.3846 127.182 19.3942C127.052 19.3894 126.926 19.3894 126.802 19.3894C126.802 19.4539 126.802 19.5137 126.802 19.5795C126.945 19.5508 127.168 19.6763 127.182 19.3942ZM13.3599 19.9454C13.3097 19.992 13.2583 20.0338 13.2021 20.0805C13.2212 20.0984 13.2439 20.1223 13.263 20.1402C13.3097 20.0888 13.3515 20.0386 13.3969 19.9824C13.3922 19.9776 13.3838 19.9693 13.379 19.9645C13.4304 19.9454 13.4854 19.9226 13.5368 19.9035C13.4854 19.8617 13.4304 19.8198 13.379 19.7744C13.379 19.8389 13.379 19.8987 13.379 19.9645C13.3742 19.9549 13.3647 19.9501 13.3599 19.9454ZM108.247 22.6857C108.182 22.608 108.121 22.5291 108.057 22.4502C108.057 22.5745 108.057 22.7048 108.057 22.8304C108.121 22.7838 108.187 22.7371 108.247 22.6857ZM107.867 23.2106C107.862 23.2058 107.852 23.1963 107.848 23.1915C107.797 23.2381 107.746 23.2799 107.691 23.3266C107.709 23.3445 107.732 23.3684 107.751 23.3864C107.797 23.3349 107.839 23.2847 107.885 23.2285C107.881 23.2238 107.876 23.2202 107.867 23.2106C108.15 23.1963 108.029 22.9739 108.057 22.8304C107.774 22.8483 107.894 23.0671 107.867 23.2106Z" fill="#F24E1E"/>
</g>
</svg>
