<svg width="261" height="1279" viewBox="0 0 261 1279" fill="none" xmlns="http://www.w3.org/2000/svg">
<path fill-rule="evenodd" clip-rule="evenodd" d="M594.478 412.344C590.188 414.613 585.093 417.455 579.132 421.004C532.742 448.622 474.919 493.572 410.314 543.793C404.307 548.462 398.242 553.177 392.122 557.928C357.702 584.647 322.127 611.972 288.43 635.755C255.647 658.891 219.922 682.087 185.323 698.292C153.315 713.285 97.9947 733.279 51.4278 717.31C9.98667 703.098 1.59963 668.031 0.967226 637.865C-1.20795 534.104 74.4684 408.564 160.021 300.255C246.923 190.238 351.453 88.7432 422.328 27.9408C451.622 2.80957 498.337 -6.53268 526.668 7.07426C555 20.6813 554.219 52.0849 524.924 77.2162C461.284 131.812 364.507 225.697 284.666 326.775C203.476 429.56 146.972 530.831 148.534 605.327C148.559 606.547 148.603 607.697 148.663 608.78C162.407 600.917 179.705 589.739 200.671 574.942C230.102 554.171 262.398 529.42 296.866 502.664C303.439 497.562 310.128 492.354 316.91 487.074C378.05 439.477 446.717 386.021 505.614 350.957C536.81 332.384 579.187 310.294 623.317 303.12C648.102 299.091 673.159 299.833 694.234 307.987C714.425 315.799 726.388 328.632 733.48 342.172C748.368 370.6 742.375 403.682 728.427 434.877C714.513 465.995 691.123 498.84 664.24 530.977C610.673 595.012 534.744 666.073 464.137 730.997C454.985 739.413 445.936 747.714 437.023 755.89C374.902 812.875 319.376 863.81 281.387 905.437C271.653 916.103 263.908 925.274 257.893 933.052C284.777 918.156 312.57 899.835 344.258 878.948C361.425 867.632 379.735 855.563 399.662 842.876C426.252 825.949 455.296 808.35 484.146 794.011C511.807 780.262 547.579 765.279 585.146 760.341C628.372 754.659 663.781 763.55 686.135 784.971C706.058 804.062 714.483 831.756 716.886 863.755C731.065 1052.49 688.269 1183.66 658.018 1233.31C640.757 1261.65 596.837 1281.58 559.919 1277.83C523.002 1274.08 507.068 1248.08 524.329 1219.74C540.318 1193.5 583.064 1080.5 569.486 899.755C567.998 879.951 563.852 869.448 560.603 864.301C556.49 865.843 550.456 868.38 542.159 872.504C524.523 881.27 503.54 893.715 478.885 909.411C466.124 917.535 451.812 926.954 436.676 936.915C399.308 961.506 356.922 989.401 320.484 1009.26C294.098 1023.64 261.047 1039.5 226.361 1047.69C186.599 1057.08 145.967 1055.85 117.654 1036.29C84.9769 1013.72 91.2301 979.018 103.692 952.604C116.072 926.361 138.949 897.861 163.66 870.784C207.027 823.265 269.065 766.39 330.172 710.368C339.095 702.187 347.999 694.025 356.822 685.912C428.397 620.098 496.237 556.2 542.168 501.294C565.032 473.961 580.322 451.342 588.287 433.528C592.354 424.432 594.094 417.551 594.478 412.344ZM241.118 960.719C241.114 960.721 241.12 960.66 241.149 960.525C241.137 960.648 241.123 960.716 241.118 960.719ZM123.97 620.835C123.988 620.813 124.349 620.683 124.999 620.512C124.277 620.772 123.952 620.857 123.97 620.835ZM591.721 399.97C591.696 399.944 591.683 399.93 591.683 399.928C591.683 399.927 591.696 399.941 591.721 399.97Z" fill="#004FFF"/>
</svg>
