<svg width="345" height="34" viewBox="0 0 345 34" fill="none" xmlns="http://www.w3.org/2000/svg">
<mask id="mask0_1061_106" style="mask-type:luminance" maskUnits="userSpaceOnUse" x="0" y="0" width="345" height="34">
<path d="M0.596924 0L344.501 8.13528L343.904 33.3674L4.15361e-05 25.2321L0.596924 0Z" fill="white"/>
</mask>
<g mask="url(#mask0_1061_106)">
<path d="M115.722 17.877C118.822 16.0335 121.946 14.2753 125.175 12.6891C122.154 14.6455 118.995 16.3736 115.722 17.877ZM343.137 15.0078C339.21 17.6003 334.46 18.908 329.747 19.0157C330.848 15.696 331.581 11.3946 328.069 10.9054C327.143 10.7754 326.169 11.0474 325.265 11.2102C323.895 11.4553 322.53 11.7065 321.157 11.9487C320.544 12.054 319.919 12.1531 319.294 12.2494C319.32 12.174 319.351 12.0988 319.379 12.0235C319.723 11.0586 318.863 9.26457 317.629 9.63864C314.627 10.5553 311.593 11.3572 308.572 12.2091C308.859 11.9003 309.147 11.5944 309.449 11.3035C310.143 10.642 309.877 8.54066 308.64 8.69257C305.885 9.04233 303.026 9.60584 300.248 10.4459C300.682 9.35755 300.019 7.89837 298.638 8.19883C296.118 8.74407 293.433 9.34678 290.817 10.144C290.887 10.0141 290.96 9.89021 291.03 9.76038C291.446 8.98127 291.056 7.3211 289.92 7.43156C287.931 7.62412 285.971 8.07158 284.094 8.74599C284.094 7.74959 283.563 6.72893 282.446 7.0064C279.349 7.76589 276.266 8.85886 273.372 10.2981C273.454 10.1628 273.542 10.0246 273.627 9.88634C274.149 9.04255 273.441 7.10311 272.228 7.61791C268.931 9.01554 265.619 10.5589 262.471 12.3487C262.892 11.5814 263.291 10.7902 263.672 9.97812C264.047 9.18636 263.346 8.31947 262.525 8.7062C259.904 9.94157 257.274 11.1651 254.659 12.4122C255.315 11.3671 255.841 10.2282 256.25 9.00191C256.41 8.52065 255.916 8.16708 255.49 8.38201C254.535 8.87368 253.605 9.41562 252.669 9.9399C252.305 10.1417 252.528 10.5736 252.905 10.4598C253.426 10.3084 253.944 10.1571 254.462 9.99984C254.129 10.5764 253.76 11.1287 253.356 11.6509C252.834 10.5019 251.398 9.6644 250.213 10.6211C248.53 11.978 246.615 12.7684 244.593 13.1238C245.119 12.2392 245.652 11.3606 246.204 10.4999C246.871 9.46088 245.74 7.14033 244.344 7.70925C241.759 8.76724 239.205 9.899 236.645 11.016C236.548 11.0575 236.453 11.0991 236.356 11.1407C236.527 10.9373 236.696 10.7309 236.867 10.5304C237.793 9.41854 236.811 6.72458 235.13 7.37149C232.317 8.44745 229.498 9.51743 226.685 10.5934C226.644 10.1307 226.45 9.67032 226.193 9.29606C224.306 6.55733 219.869 9.5906 217.755 10.5195C217.199 10.7693 216.644 11.0162 216.086 11.2631C216.382 10.1159 215.724 8.76206 214.334 8.88403C212.363 9.05365 210.529 9.50408 208.737 10.1513C208.702 9.16574 207.932 8.12481 206.911 8.28768C203.333 8.86632 199.834 9.76828 196.448 10.9826C196.862 9.80608 195.925 8.13007 194.568 8.41939C191.57 9.05559 188.557 9.92813 185.641 11.0572C186.242 10.0721 186.006 7.97139 184.485 8.27145C182.095 8.74088 179.774 9.43691 177.546 10.3485C177.658 10.1992 177.775 10.0471 177.89 9.89786C178.451 9.15433 178.075 7.51203 176.927 7.72156C173.077 8.42235 169.394 9.19723 165.781 10.7656C165.742 10.7852 165.698 10.8075 165.654 10.824C165.972 10.4458 166.294 10.0677 166.616 9.6896C167.186 9.03396 166.8 7.21317 165.685 7.52283C162.649 8.37438 159.704 9.46767 156.868 10.7856C157.279 10.3249 157.688 9.86703 158.102 9.41222C158.75 8.69705 158.624 6.47627 157.202 6.92768C153.445 8.1245 149.682 9.58707 146.078 11.3515C146.984 10.3794 147.901 9.41636 148.835 8.47127C149.478 7.82028 149.118 6.02639 147.97 6.49891C144.231 8.03803 140.663 9.89092 137.318 12.091C138.259 10.8743 139.199 9.65175 140.137 8.42915C140.625 7.79494 139.98 6.92936 139.262 7.36822C134.603 10.2472 129.728 12.7909 124.884 15.3646C126.445 13.6951 128.136 12.1543 129.957 10.7451C130.053 10.6743 130.119 10.5882 130.168 10.4988C130.278 10.4196 130.385 10.3403 130.495 10.264C131.092 9.85151 131.097 8.38187 130.121 8.7883C124.977 10.937 119.814 13.5002 115.183 16.7013C115.169 16.6718 115.158 16.6423 115.144 16.6127C116.381 15.2336 117.586 13.8069 118.967 12.6065C120.206 11.5313 119.145 9.07215 117.468 9.6578C115.624 10.3038 113.797 11.0407 112.002 11.8573C112.1 11.6551 112.198 11.45 112.282 11.2328C112.63 10.3586 111.929 8.48362 110.714 8.84934C106.038 10.2348 101.489 11.9622 97.0861 14.0233C97.6332 13.3729 98.1833 12.7256 98.7362 12.0812C99.5444 11.1419 99.1558 9.16617 97.6259 9.73191C94.7547 10.7948 91.9421 11.8503 89.1965 13.1646C89.3225 13.0244 89.4514 12.8872 89.5804 12.7441C90.4027 11.8285 90.0028 9.83794 88.4904 10.4012C85.0059 11.7009 81.4367 12.7502 77.985 14.1412C77.6339 14.2819 77.2858 14.4256 76.9405 14.5694C77.4566 13.8716 77.9467 13.1644 78.4193 12.4567C78.9284 11.6886 78.5007 9.88143 77.306 10.236C73.8837 11.2507 70.5211 12.2114 67.2583 13.6449C67.3801 12.6982 67.0111 11.4973 65.94 11.9394C64.5766 12.5062 63.2585 13.1354 61.9571 13.8C62.2687 13.4743 62.5832 13.1486 62.9005 12.8289C63.6099 12.1152 63.1458 10.4854 61.9949 10.8409C57.6442 12.1932 53.4034 13.8373 49.2789 15.7559C50.8173 14.0917 52.3555 12.4333 53.9451 10.8258C54.5767 10.1892 54.371 8.63272 53.2334 8.92138C49.4031 9.89146 45.6759 11.3169 42.1812 13.1686C42.9086 12.4349 43.6331 11.701 44.3663 10.9703C45.0157 10.3224 44.7662 8.76492 43.6314 9.05365C39.4423 10.1204 35.4274 11.729 31.6786 13.8231C32.5157 12.902 33.3557 11.978 34.187 11.051C34.8563 10.3042 34.2218 8.346 33.058 8.99638C28.2935 11.6596 23.6162 14.4651 19.0402 17.4367C20.6182 15.4549 22.1991 13.4761 23.8057 11.5213C24.3683 10.8362 23.7651 9.40478 22.8105 9.98706C19.5638 11.9761 16.353 14.0566 13.2327 16.262C14.3844 14.8866 15.5102 13.4932 16.619 12.0759C17.0709 11.5022 16.497 10.5624 15.7991 11.0368C11.6056 13.8976 7.61041 17.0173 3.85973 20.4262C6.29476 16.8021 8.72985 13.175 11.1678 9.55093C11.304 9.35253 11.1713 9.15654 10.9616 9.12529C10.1144 8.99421 9.49315 9.31846 9.02662 10.0175C8.76899 10.4088 9.37721 10.5137 9.59188 10.2091C9.75715 10.1399 9.9252 10.0767 10.0905 10.0076C6.80445 14.6489 3.51557 19.2872 0.229413 23.9344C-0.236077 24.5896 0.65587 24.9292 1.12515 24.4845C4.57193 21.1998 8.2094 18.1301 12.0509 15.3311C9.68332 17.9546 7.2014 20.4731 4.62823 22.8959C3.87815 23.5999 4.51377 25.5113 5.56768 24.686C9.81881 21.3678 14.0857 18.1259 18.5229 15.0927C16.7876 17.1788 15.0408 19.253 13.3025 21.3392C12.6079 22.1701 13.2019 23.987 14.4219 23.1802C18.7589 20.3111 23.1576 17.5457 27.638 14.9138C26.2662 16.4534 24.9002 17.9961 23.5227 19.5297C22.7723 20.371 23.6078 22.3543 24.7205 21.3901C29.2756 17.4538 34.4752 14.4327 40.1122 12.4359C37.634 14.9194 35.1417 17.3851 32.6521 19.8567C31.8531 20.653 32.7267 22.6343 33.7918 21.704C38.518 17.5731 43.8359 14.3707 49.6941 12.2886C47.3433 14.5735 44.9497 16.8194 42.6704 19.1703C41.8708 19.9929 42.3441 22.3388 43.7691 21.5164C48.3017 18.8974 53.0243 16.6481 57.9015 14.7823C56.2786 16.3131 54.6127 17.8077 52.9758 19.3177C52.588 19.6504 52.2118 19.9921 51.8643 20.3521C50.5225 21.6118 52.1102 24.4078 53.7632 23.0881C54.4333 22.5517 55.0836 21.9915 55.731 21.4282C55.9322 22.6807 57.2769 23.8901 58.5909 23.065C59.8513 22.2796 61.0148 21.2698 62.1105 20.1591C65.5124 17.6594 69.4301 15.5898 73.4365 14.2177C71.5622 16.0025 69.5204 17.5789 67.3991 19.1826C65.8669 20.3385 67.175 23.5924 69.0083 22.429C73.4819 19.5894 78.3318 16.7734 83.3954 14.8098C81.6163 16.3982 79.8599 18.0134 78.1287 19.676C76.9206 20.8454 78.4215 23.727 80.0539 22.6611C83.9331 20.1172 87.856 17.0863 92.0787 14.8486C90.5784 16.2595 89.0982 17.6884 87.6954 19.1806C86.4455 20.5097 88.2137 23.2135 89.9013 22.1547C94.2349 19.4288 98.7701 17.0699 103.472 15.0918C102.355 15.9683 101.367 16.9647 100.636 18.2536C99.9434 19.4732 101.002 22.4203 102.779 21.4162C104.929 20.2077 107.016 18.9246 109.123 17.6829C108.857 18.8133 109.61 20.1928 110.857 20.2369C111.49 20.2577 112.068 20.1545 112.599 19.9567C112.66 19.9581 112.731 19.9481 112.804 19.9177C116.531 18.4981 120.119 16.7889 123.564 14.8162C122.785 15.6247 122.032 16.463 121.313 17.3314C120.922 17.8043 120.995 19.1501 121.9 18.6982C126.853 16.2381 131.603 13.4401 136.393 10.6986C134.73 12.6609 133.074 14.6204 131.406 16.5737C130.763 17.327 131.284 19.2708 132.418 18.3889C135.68 15.8596 139.081 13.5557 142.675 11.5778C140.995 13.1773 139.289 14.7557 137.603 16.3405C136.429 17.4464 137.356 20.1303 139.05 19.0425C143.157 16.4046 147.304 14.0278 151.69 12.054C150.293 13.4118 148.907 14.7845 147.574 16.2023C146.339 17.5143 147.764 20.2509 149.458 18.9351C153.098 16.1138 157.033 13.805 161.223 11.9844C159.516 13.6037 157.723 15.145 156.046 16.7417C154.743 17.9849 156.308 20.865 157.872 19.479C162.188 15.6539 167.607 12.5065 173.323 11.0931C171.275 13.0637 169.153 14.9479 167.079 16.9179C165.692 18.2322 167.58 20.7985 169.207 19.8552L169.232 19.8938C169.313 19.8168 169.396 19.7341 169.477 19.66C169.501 19.6401 169.525 19.6231 169.546 19.6032C172.211 17.1299 175.274 15.1219 178.578 13.6456C177.146 14.9178 175.687 16.1631 174.249 17.409C172.701 18.7515 174.808 22.0799 176.63 20.9016C179.583 18.9815 182.452 17.0128 185.638 15.484C186.259 15.1831 186.888 14.9028 187.52 14.6314C186.941 15.1291 186.371 15.6269 185.821 16.1457C184.252 17.6281 186.625 20.8254 188.486 19.6042C191.953 17.3252 195.646 15.4694 199.511 14.0414C198.365 14.9113 197.223 15.7814 196.091 16.6692C194.421 17.9826 196.6 21.1081 198.472 20.1589C200.968 18.8943 203.329 17.4102 205.738 15.9974C204.174 17.6581 206.092 20.6839 208.31 19.5793C210.867 18.3044 213.413 17.0264 215.96 15.7337C216.655 15.3849 217.344 15.0359 218.036 14.6841C217.704 16.1139 219.265 18.1817 220.723 17.5704C223.09 16.5803 225.448 15.5754 227.807 14.5646C227.735 15.0042 227.792 15.4672 227.997 15.9016C229.648 19.3828 233.043 17.5346 235.521 16.29C236.541 15.7794 237.556 15.2657 238.573 14.7521C238.335 15.9445 239.186 17.3964 240.396 17.6091C242.27 17.9427 244.148 17.8674 245.946 17.4628C246.357 17.6216 246.818 17.6442 247.293 17.445C248.299 17.0276 249.261 16.5127 250.178 15.9266C250.357 16.2435 250.707 16.4183 251.176 16.2074C254.328 14.7917 257.445 13.3168 260.566 11.8361C259.636 13.2079 258.537 14.4647 257.362 15.6144C256.503 16.4561 257.105 18.7963 258.513 17.9734C261.718 16.109 264.908 14.3027 268.213 12.6803C267.522 13.4996 266.81 14.3039 266.096 15.0905C265.022 16.2719 266.369 19.2492 267.981 18.0717C270.847 15.9773 273.722 14.1314 276.819 12.6793C276.166 13.3622 275.521 14.0512 274.891 14.7522C273.354 16.469 275.923 19.8083 277.453 17.9832C279.524 15.5222 281.972 13.5872 284.753 12.2476C284.128 12.7353 283.48 13.1963 282.813 13.6305C281.136 14.7158 283.053 18.0484 284.883 17.1333C287.335 15.9085 289.647 14.4876 292.183 13.4255C291.541 14.0064 290.913 14.5994 290.297 15.2072C288.87 16.614 290.699 19.7955 292.616 18.7013C295.972 16.7791 299.121 14.7322 302.811 13.3877C302.89 13.3603 302.97 13.333 303.046 13.3056C302.588 13.6863 302.131 14.07 301.69 14.4628C300.081 15.9062 301.869 18.4906 303.772 17.9629C306.572 17.1905 309.321 16.2299 312.061 15.2574C312.219 16.4008 313.248 17.6056 314.435 17.4408C317.871 16.9523 321.297 15.9142 324.682 15.1323C325.463 14.9492 326.248 14.7573 327.032 14.583C327.109 14.5673 327.182 14.5486 327.259 14.5329C327.22 14.6576 327.185 14.7795 327.142 14.9012C326.572 16.6263 325.795 18.2326 324.991 19.8587C324.358 21.1382 325.34 23.1133 326.859 23.1258C333.421 23.1992 339.18 20.7378 343.96 16.2896C344.626 15.6684 344.025 14.4211 343.137 15.0078Z" fill="#EBFF00"/>
</g>
</svg>
