<svg width="300" height="1536" viewBox="0 0 300 1536" fill="none" xmlns="http://www.w3.org/2000/svg">
<path fill-rule="evenodd" clip-rule="evenodd" d="M-391.881 1003.12C-387.044 1002.48 -381.243 1001.54 -374.369 1000.18C-320.874 989.62 -250.112 964.248 -171.051 935.9C-163.7 933.264 -156.278 930.603 -148.791 927.925C-106.683 912.866 -63.2762 897.638 -22.9742 885.651C16.2335 873.989 58.1771 863.621 96.3708 860.839C131.705 858.265 190.478 860.68 227.228 900.755C259.932 936.42 254.064 980.974 242.945 1016.26C204.699 1137.61 86.2106 1248.19 -34.7027 1334.22C-157.522 1421.6 -293.292 1490.94 -382.24 1528.66C-419.005 1544.25 -465.71 1533.46 -486.559 1504.57C-507.408 1475.67 -494.506 1439.61 -457.741 1424.02C-377.872 1390.15 -252.203 1326.05 -139.363 1245.77C-24.6161 1164.13 66.7772 1072.82 94.2358 985.694C94.6855 984.267 95.0907 982.913 95.4558 981.629C79.7305 984.388 59.4418 989.347 34.3669 996.805C-0.831906 1007.27 -40.2168 1021.03 -82.3828 1036.11C-90.424 1038.99 -98.6132 1041.93 -106.916 1044.92C-181.764 1071.83 -265.826 1102.05 -333.743 1115.45C-369.717 1122.56 -417.366 1128.57 -460.847 1116.46C-485.266 1109.66 -508.086 1097.2 -524.359 1077.99C-539.949 1059.58 -546.003 1039.16 -547.29 1020.17C-549.993 980.312 -531.633 944.715 -506.668 914.988C-481.766 885.336 -447.454 858.066 -410.195 833.234C-335.956 783.756 -238.366 736.478 -148.067 693.856C-136.362 688.331 -124.797 682.891 -113.405 677.533C-34.0106 640.19 36.9541 606.813 88.1358 576.115C101.25 568.249 111.951 561.196 120.515 554.959C89.9435 559.793 57.2054 568.179 19.8807 577.738C-0.340748 582.918 -21.9085 588.442 -45.2072 593.933C-76.2947 601.26 -109.906 608.228 -142.074 611.507C-172.918 614.651 -211.719 615.472 -248.279 603.811C-290.346 590.394 -319.552 563.693 -331.858 528.501C-342.825 497.136 -339.851 461.115 -329.655 422.888C-269.514 197.412 -179.165 65.0849 -132.006 21.4959C-105.097 -3.37588 -56.8623 -6.16335 -24.2704 15.27C8.32148 36.7033 12.9285 74.241 -13.9803 99.1129C-38.9072 122.153 -122.163 233.433 -179.755 449.358C-186.066 473.016 -186.317 487.117 -185.317 494.591C-180.926 494.706 -174.377 494.557 -165.126 493.614C-145.461 491.609 -121.282 486.886 -92.4563 480.093C-77.5374 476.577 -60.6844 472.276 -42.8618 467.729C1.13863 456.501 51.0489 443.766 92.3546 437.6C122.266 433.134 158.898 430.038 194.064 436.59C234.376 444.1 271.368 464.339 289.894 500.125C311.274 541.426 292.044 578.785 270.305 603.654C248.708 628.362 216.555 650.83 183.262 670.798C124.836 705.841 45.5607 743.094 -32.5251 779.788C-43.928 785.147 -55.3056 790.493 -66.5892 795.82C-158.127 839.027 -245.477 881.739 -309.134 924.164C-340.823 945.284 -363.698 964.443 -377.954 981.417C-385.233 990.085 -389.507 997.261 -391.881 1003.12ZM146.717 530.634C146.722 530.632 146.693 530.701 146.614 530.845C146.672 530.707 146.712 530.635 146.717 530.634ZM122.905 979.076C122.879 979.094 122.496 979.077 121.83 978.975C122.597 979.008 122.93 979.059 122.905 979.076ZM-394.138 1018.75C-394.125 1018.79 -394.119 1018.82 -394.119 1018.82C-394.12 1018.82 -394.127 1018.8 -394.138 1018.75Z" fill="#004FFF"/>
</svg>
