<svg width="1241" height="1208" viewBox="0 0 1241 1208" fill="none" xmlns="http://www.w3.org/2000/svg">
<path fill-rule="evenodd" clip-rule="evenodd" d="M37.6941 427.816C40.9906 430.3 45.0757 433.163 50.1145 436.38C89.3262 461.414 150.375 486.35 218.585 514.21C224.927 516.801 231.33 519.416 237.784 522.06C274.081 536.926 311.26 552.463 344.046 568.431C375.943 583.967 408.368 602.098 432.531 623.385C454.886 643.078 486.677 680.637 475.498 731.786C465.549 777.305 426.3 805.688 391.506 824.218C271.824 887.956 114.759 895.049 -23.922 883.05C-164.79 870.862 -298.56 837.836 -379.991 810.67C-413.648 799.442 -431.77 763.234 -420.468 729.797C-409.165 696.361 -372.718 678.358 -339.061 689.586C-265.942 713.979 -142.188 744.604 -12.7662 755.802C118.842 767.19 244.832 757.405 330.759 711.644C332.166 710.895 333.489 710.171 334.733 709.472C323.484 701.865 307.846 693.054 287.447 683.119C258.812 669.172 225.124 655.034 188.777 640.147C181.846 637.308 174.774 634.427 167.605 631.507C102.974 605.182 30.3862 575.617 -19.3964 543.834C-45.7654 526.999 -77.9541 502.262 -93.1632 467.073C-101.705 447.311 -104.771 424.463 -98.6395 400.763C-92.7651 378.056 -79.7947 359.717 -65.2427 345.311C-34.6923 315.069 4.51275 300.727 42.7817 294.622C80.9548 288.532 122.611 289.886 163.994 294.787C246.452 304.551 340.541 330.127 426.697 354.598C437.865 357.77 448.884 360.918 459.738 364.019C535.382 385.63 602.995 404.947 657.094 414.126C670.957 416.478 682.778 417.942 692.717 418.689C671.276 403.521 645.731 389.579 616.609 373.684C600.831 365.072 584.002 355.887 566.207 345.623C542.463 331.928 517.558 316.438 496.453 299.181C476.217 282.634 453.284 259.57 441.689 228.92C428.347 193.651 433.086 156.694 454.363 123.949C473.326 94.7652 504.041 70.7394 540.678 49.5337C756.776 -75.5436 915.2 -115.389 977.372 -117.909C1012.85 -119.346 1042.78 -91.9424 1044.23 -56.7003C1045.67 -21.4581 1018.09 8.27689 982.613 9.71467C949.751 11.0465 812.347 40.1187 605.404 159.898C582.729 173.022 571.23 182.984 565.785 188.955C568.213 191.714 572.092 195.598 578.162 200.561C591.064 211.111 608.745 222.462 630.762 235.161C642.157 241.733 655.294 248.922 669.186 256.524C703.484 275.293 742.388 296.582 771.063 317.338C791.828 332.369 815.348 352.479 830.257 378.615C847.348 408.576 852.283 445.644 834.098 482.607C813.11 525.266 771.987 540.342 739.481 544.929C707.187 549.487 670.638 546.003 635.447 540.032C573.691 529.553 498.187 507.951 423.816 486.672C412.955 483.565 402.119 480.464 391.353 477.406C304.016 452.6 219.48 429.99 148.777 421.618C113.579 417.45 85.0202 417.249 63.1681 420.735C52.0092 422.516 43.7772 425.058 37.6941 427.816ZM727.346 417.212C727.35 417.215 727.278 417.246 727.117 417.301C727.261 417.237 727.342 417.21 727.346 417.212ZM352.544 724.374C352.516 724.371 352.309 724.125 352.008 723.646C352.422 724.137 352.572 724.376 352.544 724.374ZM23.8131 437.649C23.7869 437.688 23.7721 437.708 23.7709 437.708C23.7695 437.709 23.7829 437.69 23.8131 437.649Z" fill="#004FFF"/>
<path fill-rule="evenodd" clip-rule="evenodd" d="M473.109 311.735C350.549 311.735 251.194 410.438 251.194 532.194C251.194 653.95 350.549 752.653 473.109 752.653C595.67 752.653 695.025 653.95 695.025 532.194C695.025 410.438 595.67 311.735 473.109 311.735ZM250.215 532.194C250.215 409.9 350.008 310.762 473.109 310.762C596.211 310.762 696.004 409.9 696.004 532.194C696.004 654.487 596.211 753.625 473.109 753.625C350.008 753.625 250.215 654.487 250.215 532.194Z" fill="white"/>
<path fill-rule="evenodd" clip-rule="evenodd" d="M473.11 329.318C360.324 329.318 268.894 420.149 268.894 532.194C268.894 644.239 360.324 735.069 473.11 735.069C585.895 735.069 677.325 644.239 677.325 532.194C677.325 420.149 585.895 329.318 473.11 329.318ZM267.915 532.194C267.915 419.612 359.784 328.346 473.11 328.346C586.436 328.346 678.304 419.612 678.304 532.194C678.304 644.776 586.436 736.042 473.11 736.042C359.784 736.042 267.915 644.776 267.915 532.194Z" fill="white"/>
<path fill-rule="evenodd" clip-rule="evenodd" d="M473.109 346.908C370.103 346.908 286.6 429.863 286.6 532.194C286.6 634.524 370.103 717.479 473.109 717.479C576.116 717.479 659.619 634.524 659.619 532.194C659.619 429.863 576.116 346.908 473.109 346.908ZM285.621 532.194C285.621 429.326 369.562 345.936 473.109 345.936C576.656 345.936 660.598 429.326 660.598 532.194C660.598 635.061 576.656 718.451 473.109 718.451C369.562 718.451 285.621 635.061 285.621 532.194Z" fill="white"/>
<path fill-rule="evenodd" clip-rule="evenodd" d="M473.11 364.492C379.879 364.492 304.3 439.575 304.3 532.194C304.3 624.812 379.879 699.895 473.11 699.895C566.341 699.895 641.919 624.812 641.919 532.194C641.919 439.575 566.341 364.492 473.11 364.492ZM303.321 532.194C303.321 439.037 379.338 363.52 473.11 363.52C566.881 363.52 642.898 439.037 642.898 532.194C642.898 625.35 566.881 700.868 473.11 700.868C379.338 700.868 303.321 625.35 303.321 532.194Z" fill="white"/>
<path fill-rule="evenodd" clip-rule="evenodd" d="M473.109 382.083C389.658 382.083 322.007 449.29 322.007 532.194C322.007 615.098 389.658 682.305 473.109 682.305C556.561 682.305 624.212 615.098 624.212 532.194C624.212 449.29 556.561 382.083 473.109 382.083ZM321.028 532.194C321.028 448.752 389.117 381.11 473.109 381.11C557.102 381.11 625.191 448.752 625.191 532.194C625.191 615.635 557.102 683.277 473.109 683.277C389.117 683.277 321.028 615.635 321.028 532.194Z" fill="white"/>
<path fill-rule="evenodd" clip-rule="evenodd" d="M473.11 399.666C399.433 399.666 339.707 459.001 339.707 532.194C339.707 605.386 399.433 664.721 473.11 664.721C546.786 664.721 606.513 605.386 606.513 532.194C606.513 459.001 546.786 399.666 473.11 399.666ZM338.728 532.194C338.728 458.464 398.893 398.694 473.11 398.694C547.327 398.694 607.492 458.464 607.492 532.194C607.492 605.924 547.327 665.694 473.11 665.694C398.893 665.694 338.728 605.924 338.728 532.194Z" fill="white"/>
<path fill-rule="evenodd" clip-rule="evenodd" d="M473.109 417.257C409.212 417.257 357.413 468.716 357.413 532.194C357.413 595.672 409.212 647.131 473.109 647.131C537.007 647.131 588.806 595.672 588.806 532.194C588.806 468.716 537.007 417.257 473.109 417.257ZM356.434 532.194C356.434 468.179 408.671 416.284 473.109 416.284C537.548 416.284 589.785 468.179 589.785 532.194C589.785 596.209 537.548 648.103 473.109 648.103C408.671 648.103 356.434 596.209 356.434 532.194Z" fill="white"/>
<path fill-rule="evenodd" clip-rule="evenodd" d="M473.11 434.84C418.988 434.84 375.113 478.427 375.113 532.194C375.113 585.961 418.988 629.547 473.11 629.547C527.232 629.547 571.106 585.961 571.106 532.194C571.106 478.427 527.232 434.84 473.11 434.84ZM374.134 532.194C374.134 477.89 418.447 433.868 473.11 433.868C527.773 433.868 572.085 477.89 572.085 532.194C572.085 586.498 527.773 630.52 473.11 630.52C418.447 630.52 374.134 586.498 374.134 532.194Z" fill="white"/>
<path fill-rule="evenodd" clip-rule="evenodd" d="M473.11 452.431C428.767 452.431 392.82 488.142 392.82 532.194C392.82 576.246 428.767 611.957 473.11 611.957C517.453 611.957 553.4 576.246 553.4 532.194C553.4 488.142 517.453 452.431 473.11 452.431ZM391.841 532.194C391.841 487.605 428.226 451.458 473.11 451.458C517.993 451.458 554.379 487.605 554.379 532.194C554.379 576.783 517.993 612.93 473.11 612.93C428.226 612.93 391.841 576.783 391.841 532.194Z" fill="white"/>
<path fill-rule="evenodd" clip-rule="evenodd" d="M473.11 470.014C438.542 470.014 410.52 497.853 410.52 532.194C410.52 566.534 438.542 594.373 473.11 594.373C507.678 594.373 535.7 566.534 535.7 532.194C535.7 497.853 507.678 470.014 473.11 470.014ZM409.541 532.194C409.541 497.316 438.002 469.041 473.11 469.041C508.218 469.041 536.679 497.316 536.679 532.194C536.679 567.071 508.218 595.346 473.11 595.346C438.002 595.346 409.541 567.071 409.541 532.194Z" fill="white"/>
<path fill-rule="evenodd" clip-rule="evenodd" d="M473.11 487.605C448.321 487.605 428.226 507.568 428.226 532.194C428.226 556.82 448.321 576.783 473.11 576.783C497.898 576.783 517.993 556.82 517.993 532.194C517.993 507.568 497.898 487.605 473.11 487.605ZM427.247 532.194C427.247 507.031 447.78 486.632 473.11 486.632C498.439 486.632 518.972 507.031 518.972 532.194C518.972 557.357 498.439 577.756 473.11 577.756C447.78 577.756 427.247 557.357 427.247 532.194Z" fill="white"/>
<path fill-rule="evenodd" clip-rule="evenodd" d="M473.11 505.188C458.097 505.188 445.926 517.279 445.926 532.194C445.926 547.109 458.097 559.199 473.11 559.199C488.123 559.199 500.294 547.109 500.294 532.194C500.294 517.279 488.123 505.188 473.11 505.188ZM444.947 532.194C444.947 516.742 457.556 504.216 473.11 504.216C488.664 504.216 501.273 516.742 501.273 532.194C501.273 547.646 488.664 560.172 473.11 560.172C457.556 560.172 444.947 547.646 444.947 532.194Z" fill="white"/>
<path fill-rule="evenodd" clip-rule="evenodd" d="M166.997 126.142C83.8259 126.142 16.4024 193.123 16.4024 275.748C16.4024 358.373 83.8259 425.354 166.997 425.354C250.168 425.354 317.592 358.373 317.592 275.748C317.592 193.123 250.168 126.142 166.997 126.142ZM15.0707 275.748C15.0707 192.392 83.0904 124.819 166.997 124.819C250.904 124.819 318.923 192.392 318.923 275.748C318.923 359.104 250.904 426.677 166.997 426.677C83.0904 426.677 15.0707 359.104 15.0707 275.748Z" fill="white" fill-opacity="0.5"/>
<path fill-rule="evenodd" clip-rule="evenodd" d="M166.997 138.101C90.4744 138.101 28.4405 199.728 28.4405 275.748C28.4405 351.769 90.4744 413.396 166.997 413.396C243.52 413.396 305.554 351.769 305.554 275.748C305.554 199.728 243.52 138.101 166.997 138.101ZM27.1088 275.748C27.1088 198.997 89.739 136.778 166.997 136.778C244.255 136.778 306.886 198.997 306.886 275.748C306.886 352.499 244.255 414.719 166.997 414.719C89.739 414.719 27.1088 352.499 27.1088 275.748Z" fill="white" fill-opacity="0.5"/>
<path fill-rule="evenodd" clip-rule="evenodd" d="M166.997 150.064C97.1251 150.064 40.4827 206.335 40.4827 275.748C40.4827 345.161 97.1251 401.432 166.997 401.432C236.869 401.432 293.511 345.161 293.511 275.748C293.511 206.335 236.869 150.064 166.997 150.064ZM39.151 275.748C39.151 205.604 96.3896 148.741 166.997 148.741C237.605 148.741 294.843 205.604 294.843 275.748C294.843 345.892 237.605 402.755 166.997 402.755C96.3896 402.755 39.151 345.892 39.151 275.748Z" fill="white" fill-opacity="0.5"/>
<path fill-rule="evenodd" clip-rule="evenodd" d="M166.997 162.023C103.774 162.023 52.5208 212.939 52.5208 275.748C52.5208 338.557 103.774 389.473 166.997 389.473C230.221 389.473 281.474 338.557 281.474 275.748C281.474 212.939 230.221 162.023 166.997 162.023ZM51.1891 275.748C51.1891 212.209 103.038 160.7 166.997 160.7C230.956 160.7 282.805 212.209 282.805 275.748C282.805 339.287 230.956 390.796 166.997 390.796C103.038 390.796 51.1891 339.287 51.1891 275.748Z" fill="white" fill-opacity="0.5"/>
<path fill-rule="evenodd" clip-rule="evenodd" d="M166.997 173.986C110.424 173.986 64.563 219.547 64.563 275.748C64.563 331.95 110.424 377.51 166.997 377.51C223.57 377.51 269.431 331.95 269.431 275.748C269.431 219.547 223.57 173.986 166.997 173.986ZM63.2313 275.748C63.2313 218.816 109.689 172.664 166.997 172.664C224.305 172.664 270.763 218.816 270.763 275.748C270.763 332.68 224.305 378.833 166.997 378.833C109.689 378.833 63.2313 332.68 63.2313 275.748Z" fill="white" fill-opacity="0.5"/>
<path fill-rule="evenodd" clip-rule="evenodd" d="M166.997 185.945C117.073 185.945 76.6011 226.151 76.6011 275.748C76.6011 325.345 117.073 365.551 166.997 365.551C216.922 365.551 257.393 325.345 257.393 275.748C257.393 226.151 216.922 185.945 166.997 185.945ZM75.2694 275.748C75.2694 225.421 116.337 184.622 166.997 184.622C217.657 184.622 258.725 225.421 258.725 275.748C258.725 326.076 217.657 366.874 166.997 366.874C116.337 366.874 75.2694 326.076 75.2694 275.748Z" fill="white" fill-opacity="0.5"/>
<path fill-rule="evenodd" clip-rule="evenodd" d="M166.997 197.909C123.724 197.909 88.6435 232.759 88.6435 275.748C88.6435 318.738 123.724 353.588 166.997 353.588C210.271 353.588 245.351 318.738 245.351 275.748C245.351 232.759 210.271 197.909 166.997 197.909ZM87.3118 275.748C87.3118 232.028 122.988 196.586 166.997 196.586C211.006 196.586 246.683 232.028 246.683 275.748C246.683 319.468 211.006 354.911 166.997 354.911C122.988 354.911 87.3118 319.468 87.3118 275.748Z" fill="white" fill-opacity="0.5"/>
<path fill-rule="evenodd" clip-rule="evenodd" d="M166.997 209.868C130.372 209.868 100.682 239.363 100.682 275.748C100.682 312.133 130.372 341.629 166.997 341.629C203.623 341.629 233.313 312.133 233.313 275.748C233.313 239.363 203.623 209.868 166.997 209.868ZM99.3499 275.748C99.3499 238.633 129.637 208.545 166.997 208.545C204.358 208.545 234.645 238.633 234.645 275.748C234.645 312.864 204.358 342.952 166.997 342.952C129.637 342.952 99.3499 312.864 99.3499 275.748Z" fill="white" fill-opacity="0.5"/>
<path fill-rule="evenodd" clip-rule="evenodd" d="M166.997 221.831C137.023 221.831 112.724 245.971 112.724 275.748C112.724 305.526 137.023 329.666 166.997 329.666C196.972 329.666 221.271 305.526 221.271 275.748C221.271 245.971 196.972 221.831 166.997 221.831ZM111.392 275.748C111.392 245.24 136.287 220.508 166.997 220.508C197.707 220.508 222.602 245.24 222.602 275.748C222.602 306.257 197.707 330.989 166.997 330.989C136.287 330.989 111.392 306.257 111.392 275.748Z" fill="white" fill-opacity="0.5"/>
<path fill-rule="evenodd" clip-rule="evenodd" d="M166.997 233.79C143.671 233.79 124.762 252.575 124.762 275.748C124.762 298.921 143.671 317.706 166.997 317.706C190.324 317.706 209.233 298.921 209.233 275.748C209.233 252.575 190.324 233.79 166.997 233.79ZM123.43 275.748C123.43 251.845 142.936 232.467 166.997 232.467C191.059 232.467 210.565 251.845 210.565 275.748C210.565 299.652 191.059 319.029 166.997 319.029C142.936 319.029 123.43 299.652 123.43 275.748Z" fill="white" fill-opacity="0.5"/>
<path fill-rule="evenodd" clip-rule="evenodd" d="M166.997 245.753C150.322 245.753 136.804 259.183 136.804 275.748C136.804 292.314 150.322 305.743 166.997 305.743C183.672 305.743 197.19 292.314 197.19 275.748C197.19 259.183 183.672 245.753 166.997 245.753ZM135.472 275.748C135.472 258.452 149.587 244.43 166.997 244.43C184.408 244.43 198.522 258.452 198.522 275.748C198.522 293.045 184.408 307.066 166.997 307.066C149.587 307.066 135.472 293.045 135.472 275.748Z" fill="white" fill-opacity="0.5"/>
<path fill-rule="evenodd" clip-rule="evenodd" d="M166.997 257.712C156.971 257.712 148.842 265.787 148.842 275.748C148.842 285.709 156.971 293.784 166.997 293.784C177.024 293.784 185.153 285.709 185.153 275.748C185.153 265.787 177.024 257.712 166.997 257.712ZM147.511 275.748C147.511 265.057 156.235 256.389 166.997 256.389C177.76 256.389 186.484 265.057 186.484 275.748C186.484 286.44 177.76 295.107 166.997 295.107C156.235 295.107 147.511 286.44 147.511 275.748Z" fill="white" fill-opacity="0.5"/>
</svg>
