<svg width="72" height="11" viewBox="0 0 72 11" fill="none" xmlns="http://www.w3.org/2000/svg">
<mask id="mask0_1061_50" style="mask-type:luminance" maskUnits="userSpaceOnUse" x="0" y="0" width="72" height="11">
<path d="M0 0H72V10.3731H0V0Z" fill="white"/>
</mask>
<g mask="url(#mask0_1061_50)">
<path d="M49.2931 6.97625C49.1637 6.955 49.027 6.98833 48.9198 6.84442C48.8343 6.72996 48.6948 6.78695 48.6455 6.92699C48.5924 7.07815 48.575 7.28242 48.3466 7.27373C48.3036 7.2718 48.2471 7.40509 48.3461 7.45338C48.5552 7.55576 48.6846 7.50167 48.7286 7.72236C48.7667 7.91215 48.6363 8.03336 48.2587 7.89332C47.8641 7.74699 47.9593 8.04785 47.4986 7.66007C47.4141 7.58908 47.1528 7.59825 47.1755 7.74748C47.1972 7.88897 47.3126 8.02805 47.1687 8.06524C47.0354 8.09952 46.9051 8.02805 46.764 8.05703C46.6839 8.07345 46.6129 7.96624 46.5564 7.89235C46.4545 7.76051 46.3772 8.00294 46.2343 7.8513C45.9996 7.60212 45.8561 7.90877 45.8011 7.72478C45.7803 7.65524 45.831 7.662 45.9199 7.56348C45.6157 7.42488 45.2766 8.00729 44.674 7.66007C44.5817 7.60695 44.6585 7.549 44.6981 7.55527C44.7488 7.56397 44.8439 7.62385 44.8985 7.52678C44.9188 7.49056 44.9082 7.45531 44.8724 7.45821C44.6305 7.47752 44.4011 7.33023 44.151 7.41233C44.0655 7.44082 43.8216 7.24524 43.7405 7.42971C43.7173 7.48332 43.6912 7.49104 43.6647 7.43358C43.6429 7.38673 43.6168 7.35728 43.5637 7.39494C43.317 7.57024 43.3942 7.1984 43.1378 7.32589C43.0026 7.3935 43.0625 7.1699 42.878 7.24041C42.537 7.37128 42.7365 6.9183 42.3381 7.11533C42.17 7.19791 41.6552 7.29208 41.8798 7.32975C42.2449 7.3906 42.1584 7.53789 42.3294 7.52533C42.5409 7.50988 42.7597 7.57942 42.9635 7.46255C43.0233 7.42827 43.0861 7.47269 43.0996 7.53596C43.1581 7.81122 42.7997 7.66779 42.681 7.74023C42.4467 7.88366 42.2869 7.54465 41.8503 7.62675C41.6374 7.66731 41.3249 7.51712 41.0588 7.75279C40.8941 7.89863 40.8111 7.51954 40.8106 7.7325C40.8101 7.84068 40.7724 7.90394 40.6541 7.91263C40.5943 7.91698 40.5295 7.97203 40.4793 7.95803C40.2417 7.89332 40.2886 8.12319 40.0529 8.16279C39.6955 8.22267 40.0481 7.91843 39.8003 7.81702C39.7603 7.8006 39.6897 7.76969 39.6922 7.75279C39.7284 7.45096 39.5328 7.52485 39.1774 7.52243C39.0059 7.52147 38.9243 7.16024 38.6312 7.31913C38.5718 7.35148 38.5095 7.31719 38.4583 7.28629C38.298 7.18922 38.1357 7.33023 37.9701 7.27904C37.8653 7.2462 37.8479 7.51278 37.6842 7.32734C37.5905 7.22158 38.2767 7.00474 37.972 6.99702C37.8517 6.99364 37.844 6.8816 37.7895 6.81399C37.7672 6.78695 37.6716 6.81061 37.6793 6.83717C37.7228 6.98736 37.6311 7.00233 37.5393 6.96032C37.3481 6.87291 37.1911 6.97963 37.0231 7.02599C36.9583 7.04386 37.0733 7.26118 37.2486 7.21964C37.2776 7.2124 37.3027 7.18729 37.3316 7.18053C37.7445 7.08684 37.5108 7.71609 37.3703 7.45627C37.2578 7.24862 36.8651 7.67359 37.2795 7.71512C37.2177 7.95417 36.8907 7.83247 36.8371 7.7325C36.6459 7.37514 36.8062 7.42585 36.827 7.22496C36.8676 6.83331 35.9669 6.9835 36.4928 7.27808C36.5532 7.31188 36.4774 7.4244 36.4498 7.40605C36.2808 7.2945 35.9645 7.50119 35.9109 7.54465C35.7974 7.6364 35.5444 7.36935 35.4101 7.69097C35.2768 8.01163 35.1319 7.64413 34.8572 7.80687C34.6389 7.9363 34.452 7.63399 34.2936 7.93292C34.2738 7.9701 34.2458 7.94258 34.0966 8.03385C34.1922 8.12947 34.0927 8.05413 34.4105 8.18404C34.6089 8.26517 34.0608 8.3067 33.9034 8.21446C33.8401 8.17776 33.2911 8.40232 32.9854 8.01984C32.8501 7.85034 32.8796 8.00101 32.8202 8.1058C32.726 8.27144 32.7096 7.9305 32.2702 8.16858C32.2286 8.19128 32.1335 8.14588 32.1514 8.24392C32.1601 8.29124 32.3011 8.36272 32.2407 8.4226C32.1658 8.49648 32.1142 8.39893 32.0553 8.35789C31.5477 8.00487 31.3768 8.53753 30.9885 8.21591C30.9214 8.16037 30.7461 8.27482 30.775 8.07393C30.7871 7.99038 30.7581 7.9078 30.8344 7.83005C30.9059 7.75762 30.8789 7.48477 31.0566 7.54706C31.5762 7.72961 31.4849 7.60405 31.5757 7.74554C31.5999 7.78321 31.6718 7.8146 31.6911 7.80881C31.9534 7.73444 32.3527 8.0551 32.5193 7.84696C32.5643 7.79046 32.5459 7.65282 32.6179 7.66538C32.7439 7.68711 32.8989 7.67262 32.9854 7.81605C33.0153 7.86579 33.1674 8.0097 33.1954 7.92374C33.2317 7.81122 33.235 7.67552 33.4166 7.69725C33.461 7.70256 33.4644 7.66055 33.4161 7.65282C33.2906 7.63302 33.1273 7.66296 33.1351 7.50457C33.138 7.43358 33.1288 7.14044 33.0385 7.20805C32.9115 7.30319 33.0139 7.38335 32.9791 7.40122C32.953 7.41426 32.9139 7.43116 32.8926 7.42102C32.6531 7.30705 32.3933 7.43648 32.1494 7.35969C32.0248 7.32009 31.8679 7.53354 31.7872 7.60405C31.7187 7.66393 31.6337 7.52823 31.4989 7.35824C31.3951 7.22689 31.4772 7.17135 31.6443 7.14238C31.7134 7.1303 31.795 6.93038 31.1792 7.07235C31.1619 7.07622 31.1353 7.12016 31.1411 7.13368C31.2372 7.35341 31.0281 7.3283 30.9344 7.39494C30.8364 7.31236 30.7668 7.42489 30.6828 7.43792C30.1067 7.52823 30.8697 7.67069 30.6113 7.79625C30.5065 7.84696 30.4104 7.95368 30.2786 7.83923C30.2612 7.82426 30.1864 7.85227 30.1564 7.88028C30.0429 7.98507 29.9348 8.02998 29.7971 7.91601C29.7532 7.87931 29.6682 7.89042 29.6286 7.85227C29.3915 7.62288 28.9139 7.73782 29.0259 7.95465C29.123 8.14202 28.6845 8.18597 28.5304 8.06572C28.3382 7.91505 28.5285 8.25309 28.0543 8.15989C27.6974 8.09035 27.2797 8.61142 26.9745 8.41342C26.9527 8.39942 27.0599 8.29318 27.1667 8.16182C27.2797 8.02226 27.4622 8.16375 27.5163 8.0295C27.0237 7.85227 27.1551 7.83875 26.8016 8.03385C26.7929 8.03868 26.8054 8.08745 26.8132 8.11401C26.8687 8.29849 26.7084 8.20577 26.5075 8.37962C26.3674 8.50083 26.6577 8.66309 26.5026 8.7109C26.055 8.8495 26.0912 8.7674 25.9289 8.73939C25.7865 8.71525 25.8637 8.64667 25.8946 8.58679C25.7937 8.51918 25.6957 8.44674 25.5899 8.38783C25.5233 8.35064 25.3016 8.39604 25.3924 8.51435C25.4412 8.5781 25.6015 8.7167 25.4895 8.71815C24.8448 8.7278 24.8641 8.73505 24.825 8.61239C24.7714 8.44481 24.9264 8.51194 25.0307 8.3999C24.8878 8.41825 24.8506 8.19852 24.6956 8.24875C24.3305 8.36706 23.991 8.17245 23.9379 8.19273C23.6264 8.31153 23.6278 8.51339 23.3989 8.57423C23.2714 8.60852 23.4593 8.84902 23.2367 8.82777C23.1671 8.82101 23.0227 8.86978 23.0942 8.6969C23.0961 8.69255 23.0536 8.65971 23.0304 8.65778C22.9213 8.65102 22.7431 8.91759 22.436 8.72925C22.267 8.62494 22.2133 8.74181 22.125 8.8239C22.1168 8.71138 22.0376 8.6771 21.9395 8.66792C21.8608 8.66116 21.9217 8.86785 22.0076 8.87509C22.0463 8.87847 22.0849 8.8437 22.125 8.8239C22.1776 8.95961 22.3157 8.89151 22.4056 8.93449C22.7779 9.11366 21.5474 9.28364 21.7333 8.80459C21.7729 8.70173 21.6396 8.63315 21.7116 8.56602C21.7589 8.5216 22.0482 8.50518 22.0173 8.34726C21.9646 8.07924 21.9226 8.11401 21.4556 8.00149C21.4387 7.99763 21.3967 8.03674 21.4136 8.05799C21.4919 8.15361 21.5658 8.20142 21.5426 8.28255C21.4977 8.43805 21.3431 8.1908 21.2494 8.38396C21.2272 8.42888 21.1925 8.71283 20.9993 8.64571C20.9573 8.63074 20.7042 8.48972 20.5816 8.49552C20.4753 8.50035 20.4309 8.80555 20.3362 8.71283C20.2411 8.62011 20.5463 8.284 20.2256 8.34195C19.9895 8.38445 19.9876 8.24778 19.8852 8.34968C19.749 8.48538 19.9465 8.65199 19.6684 8.76112C19.5607 8.80314 19.4066 8.82777 19.4085 8.78865C19.4163 8.5781 19.8118 8.65585 19.6394 8.5554C19.0961 8.23667 18.4504 8.37769 18.6301 8.55492C18.6948 8.61866 18.7962 8.56361 18.8696 8.62591C18.9536 8.69641 18.9884 8.43129 19.1106 8.47475C19.2429 8.52111 19.0464 8.82825 19.0106 8.79107C18.9111 8.68772 18.5866 8.88186 18.0902 8.82728C17.9496 8.81183 17.5677 9.00645 17.7149 9.14891C17.8888 9.31745 17.8497 9.25419 18.1602 9.36816C18.4166 9.46233 17.4107 9.85639 17.5367 9.49227C17.6073 9.28896 17.1543 9.41258 17.063 9.48985C16.9486 9.58692 16.7921 9.54539 16.7815 9.4121C16.7704 9.26723 16.6646 9.1605 16.6636 9.01949C16.6622 8.81618 16.497 9.0446 15.9238 8.77078C15.734 8.67999 15.8238 8.95188 15.535 8.91614C15.2521 8.88186 15.4679 9.21072 15.2646 9.19382C14.9792 9.17064 14.8276 9.42031 14.5204 9.29572C14.2654 9.19237 14.3075 9.58209 14.023 9.38651C13.8139 9.2426 13.9293 9.67578 13.4295 9.63183C13.3252 9.62265 13.2634 9.60623 13.2204 9.71827C13.2117 9.74 13.1267 9.75884 13.0992 9.74242C12.8544 9.59803 12.8022 9.84673 12.5723 9.98146C12.3946 10.0863 12.2734 9.87426 12.2623 9.78105C12.2565 9.73131 12.369 9.51158 12.5062 9.60141C12.8225 9.8081 12.8172 9.15277 12.6037 9.34594C12.4453 9.48888 12.2401 9.24984 12.1314 9.34787C11.9465 9.51545 11.9271 9.85059 11.6388 9.68447C11.5442 9.6299 11.4843 9.7231 11.4124 9.91047C11.3559 10.0563 11.2897 9.89261 11.0463 9.98967C10.8667 10.0616 10.9087 9.96215 10.8179 9.80472C10.7363 9.66322 10.5291 9.89792 10.4861 10.0042C10.3857 10.2524 10.192 9.91917 9.95442 10.0655C9.7231 10.2084 9.53138 9.89888 9.50144 9.89261C9.34449 9.86025 9.2933 10.1022 8.9852 9.97808C8.59597 9.82113 8.50083 10.1886 8.3859 10.1761C8.33712 10.1708 8.33761 10.1186 8.20335 10.0698C8.1623 10.2002 8.21929 10.2587 8.20818 10.2678C8.06476 10.3813 8.1483 10.3393 7.64558 10.2886C7.49539 10.2736 7.54948 9.99257 7.21578 10.0129C7.01585 10.0249 6.81448 10.0162 6.65753 10.179C6.6271 10.2104 6.56577 10.2036 6.53873 10.1568C6.40641 9.92593 6.3726 10.2461 6.17316 10.1568C6.25912 10.037 6.22048 9.88826 6.2654 9.75787C6.33638 9.55311 6.00317 9.80616 5.89789 9.59416C5.86361 9.52559 5.56903 9.3952 5.62698 9.21507C5.68541 9.03349 5.48596 9.16581 5.33433 9.19624C5.1909 9.22521 5.03347 9.09192 5.25609 9.01369C5.60331 8.892 4.81905 9.05619 4.70508 8.45495C4.66838 8.26034 4.94461 8.3236 4.88666 8.14733C4.87217 8.10387 5.07162 8.02467 5.20587 8.11498C5.28265 8.16665 5.33288 8.08262 5.26913 8.00729C5.15903 7.8769 5.44781 7.85662 5.60331 7.90394C5.70424 7.93485 5.55019 8.05075 5.67768 8.07683C6.06547 8.15506 5.87326 7.64075 6.3161 7.71609C6.43683 7.73685 6.61406 7.72285 6.54694 7.62626C6.40593 7.4244 6.80771 7.38915 6.91782 7.46014C7.00716 7.51761 7.04821 7.4896 7.08588 7.41088C7.40219 7.40991 7.68421 7.18825 8.01405 7.26794C8.18983 7.30995 8.77272 7.03855 8.71042 7.29015C8.65343 7.51905 8.97216 7.48139 8.93015 7.22689C8.87799 6.91154 9.19092 7.29546 9.316 7.03613C9.36429 6.93569 9.55891 7.27277 9.80375 7.01827C9.84383 6.97674 9.86798 6.90188 9.93993 6.95549C10.0293 7.02165 10.1244 6.87194 10.1891 6.95645C10.404 7.23558 10.5484 6.70485 10.9637 6.93231C11.0811 6.99653 11.0782 6.6638 11.3134 6.77101C11.4655 6.84055 11.6248 6.75797 11.7552 6.69616C11.9764 6.5904 12.2309 6.59523 12.4415 6.46484C12.5221 6.4151 12.7906 6.51555 12.8785 6.55177C13.0065 6.60392 13.0683 6.35763 13.2957 6.45277C13.4285 6.5083 14.1703 6.38468 14.2775 6.33832C14.5499 6.21952 14.7773 6.48029 15.0439 6.15867C15.125 6.06064 14.8981 5.86892 15.1439 5.93266C15.2892 5.97081 15.5032 5.73466 15.5437 5.87616C15.5698 5.96792 15.3612 5.98385 15.4505 6.03166C15.5766 6.09927 15.7446 5.9713 15.8562 6.25429C15.8895 6.33976 15.9697 6.29389 16.2647 6.27747C16.6221 6.25767 16.4246 5.94232 16.5999 5.98289C16.6791 6.00124 16.6071 6.05387 16.6163 6.08768C16.6636 6.25815 16.8602 5.85636 16.9539 6.121C16.9601 6.13887 16.9655 6.20889 17.0282 6.2171C17.1905 6.23738 16.9688 5.99592 17.403 5.94184C17.5367 5.92494 17.6647 5.86264 17.7956 5.82014C17.856 5.94667 17.883 5.95729 17.9743 5.89065C18.0965 5.80179 17.9308 5.6883 17.8564 5.7279C18.0211 5.45843 18.4161 5.4792 18.2872 5.29907C18.2312 5.22036 18.2949 5.15564 18.3143 5.08514C18.3949 4.79539 17.8724 5.38986 17.2451 4.75192C17.0809 4.58532 17.246 4.90404 16.7873 5.05037C16.2874 5.20973 16.6066 5.58303 16.3806 5.49659C16.144 5.40628 16.073 5.28217 15.8789 5.38117C15.8267 5.40821 15.7258 5.3237 15.7992 5.23726C15.9523 5.05713 15.8615 4.98614 15.8132 4.99145C15.2936 5.04795 15.4293 5.1286 15.338 5.1711C15.2448 5.21456 15.1279 5.21553 15.0444 5.26961C14.9739 5.31501 14.9497 5.43091 14.8807 5.48017C14.6895 5.61635 14.3891 5.72404 14.3698 5.49031C14.3587 5.35074 14.5962 5.44684 14.617 5.35509C14.6358 5.27203 14.6122 5.17931 14.6074 5.09045C14.5909 5.10059 13.5903 6.08671 13.1958 5.72163C13.0644 5.59993 12.7225 5.73177 12.8519 5.90707C13.0248 6.14128 12.5289 5.87809 12.3425 5.88196C11.9991 5.8892 12.2159 6.06402 11.5205 5.98627C10.9391 5.92156 11.1897 6.34652 10.9314 6.1833C10.8058 6.1041 10.686 6.16688 10.6662 6.14563C10.5528 6.01138 10.4668 6.03987 10.559 5.96695C10.8807 5.7139 10.6962 5.7366 10.8889 5.68203C11.6973 5.45216 11.6504 5.40338 10.8531 5.41497C10.6576 5.41787 10.6986 5.52266 10.6083 5.6941C10.4335 6.0249 10.3301 5.63035 10.1408 5.71148C9.87571 5.82497 9.81389 5.91914 9.63038 5.82545C9.11994 5.56419 8.31829 6.85311 8.13381 6.1944C8.09808 6.06643 7.98266 6.01572 7.89718 6.10313C7.65331 6.35329 7.5799 5.9626 7.29402 6.23111C7.14817 6.36874 7.04821 6.17605 6.92168 6.19489C6.96998 5.69845 6.13308 6.45518 5.92011 6.20599C5.81725 6.08526 5.63663 6.21759 5.70279 6.27409C6.07416 6.59185 5.68782 6.68891 5.58544 6.43248C5.48065 6.17026 4.8939 6.68505 4.84464 6.14563C4.69591 5.76123 5.27106 6.09444 4.84464 6.14563C4.72391 6.15094 4.65631 6.15384 4.69252 6.23449C4.86444 6.61744 4.33516 6.01766 4.22361 6.21469C4.13282 6.37502 4.44865 6.42138 4.49018 6.43393C4.61816 6.47305 4.50515 6.72079 4.34579 6.70292C3.31041 6.58847 3.31379 6.60923 3.28964 6.5479C3.19306 6.2992 2.89123 6.34846 2.74829 6.16736C2.68841 6.09106 2.43632 6.33735 2.60921 6.41413C2.69758 6.45277 2.82024 6.51361 2.76519 6.59233C2.516 6.94679 2.5812 7.01585 2.16106 7.25055C1.79211 7.45676 1.45068 6.91637 1.77086 6.88546C1.96644 6.86711 2.50586 6.96949 2.06689 6.65559C1.95195 6.57301 1.74092 6.86373 1.7187 6.63869C1.70808 6.52714 1.63226 6.39482 1.79404 6.31852C1.85972 6.28761 1.82543 6.25863 1.77955 6.24656C1.72691 6.23256 1.58735 6.27843 1.54051 6.16108C1.50332 6.06836 1.83943 5.95584 1.62164 5.8694C0.868281 5.57144 2.06158 5.7366 2.02536 5.4396C2.02053 5.3971 1.92781 5.44878 1.81722 5.48499C1.61536 5.55212 1.71146 5.16047 1.45503 5.25802C1.19908 5.35606 1.16383 5.2899 0.958104 5.32177C0.839306 5.34012 0.722922 5.38841 0.60509 5.38986C0.50271 5.39083 0.415785 5.30873 0.299884 5.30487C-0.0396087 5.29376 0.379566 5.0692 0.0970576 4.93688C-0.00580435 4.88859 0.261733 4.61767 0.434136 4.81374C0.50271 4.89149 0.584807 4.96441 0.571768 5.09045C0.563558 5.17351 0.637445 5.23146 0.698776 5.21263C0.830613 5.17206 0.893876 5.00835 1.05324 5.01705C1.0658 5.01753 1.07883 5.00208 1.09187 4.99387C1.00784 4.91322 0.931543 4.98228 0.649035 4.84078C0.536515 4.78428 0.606538 4.58049 0.855242 4.56262C1.1194 4.54378 1.31498 4.39022 1.28504 4.35834C1.2324 4.30232 0.593016 4.57614 0.586256 4.10433C0.835925 4.2917 1.074 4.17 0.981284 4.13475C0.607987 3.99326 0.701191 4.01209 0.596397 4.11737C0.224548 4.01788 0.108648 4.01402 0.18012 3.94158C0.24628 3.87494 0.201851 3.87446 0.565973 3.9242C0.933475 3.97442 0.886632 3.70157 1.2691 3.89957C1.40529 3.97007 1.5323 3.81264 1.47676 3.66487C1.41736 3.50599 1.4304 3.50164 1.5323 3.45238C1.69214 3.3756 1.84764 3.34131 2.01618 3.43452C2.16589 3.5171 2.16782 3.22541 2.25185 3.37898C2.34843 3.55573 2.42522 3.28433 2.70434 3.44611C2.90427 3.56201 3.01341 3.35339 3.41955 3.3814C3.9382 3.41713 3.86866 3.21624 3.98215 3.322C4.26369 3.58374 4.11254 3.5649 4.15165 3.64362C4.22506 3.78946 4.42644 3.64942 4.44575 3.60692C4.5689 3.33359 4.86058 3.54414 4.80843 3.35532C4.75289 3.15153 4.65244 3.50744 4.32019 2.95691C4.23037 2.8072 5.12377 2.98492 5.27686 2.86515C5.4087 2.76181 5.83318 2.71641 5.96405 2.7338C6.26878 2.77533 6.20117 2.98009 6.51072 2.85501C8.52691 2.03936 8.75678 2.76857 8.83453 2.26247C8.86447 2.06544 9.10158 2.04612 9.17644 1.79114C9.23873 1.57817 9.38651 1.86454 9.51255 1.69262C9.59127 1.58542 9.51013 1.38742 9.37878 1.4729C9.18175 1.60135 9.40341 1.17204 9.59223 1.17059C9.78781 1.16962 9.9438 1.00157 10.165 1.08704C10.7947 1.32995 11.1786 0.680423 11.6553 1.15513C11.8542 1.35313 11.9716 1.15948 12.016 1.20874C12.1971 1.40722 11.2554 1.29421 11.4669 1.41012C12.2652 1.84861 12.1739 1.35265 12.4173 1.37293C12.6081 1.25268 12.6457 1.16286 12.5762 0.90981C12.5149 0.685253 12.7346 0.765417 12.7945 0.588186C12.8432 0.444758 13.2108 0.829163 13.3397 0.519128C13.3561 0.480494 13.3609 0.412403 13.4223 0.460695C13.6251 0.621024 13.7618 0.221166 13.8955 0.563074C13.9955 0.819504 14.2186 0.564522 14.1834 0.999633C14.0892 0.919952 14.0288 0.850894 13.9878 0.967278C13.9573 1.05324 13.9028 1.11698 13.9965 1.13195C14.0839 1.14644 14.1211 1.0629 14.1838 1.02861C14.2017 1.12085 14.2621 1.15368 14.3495 1.14258C14.5455 1.1165 14.3142 0.854275 14.5692 0.946029C14.8541 1.04841 14.829 1.05179 14.8797 0.990941C14.9034 0.961966 14.7749 0.913191 14.5388 0.781837C14.4523 0.733545 14.5069 0.697808 14.5847 0.636961C14.6643 0.573698 14.6585 0.785217 15.0289 0.530718C15.4983 0.207645 15.6017 0.597844 15.8451 0.459729C15.9296 0.41192 15.9716 0.529752 16.0527 0.514782C16.1701 0.493533 16.2918 0.460212 16.4062 0.474699C16.7771 0.52106 16.7607 0.341896 16.9365 0.437997C17.3344 0.655311 17.4049 0.361696 17.4889 0.339965C17.5754 0.317267 17.6642 0.528304 18.0506 0.341413C18.0887 0.323062 18.1998 0.346243 18.2201 0.380047C18.2819 0.48146 17.7628 0.748998 18.3679 0.629717C18.6219 0.57901 18.4408 0.310989 18.5953 0.356867C18.7436 0.400813 18.887 0.380047 19.0314 0.338999C19.0744 0.326926 19.127 0.311472 19.1661 0.324994C19.6886 0.504158 19.8866 0.179635 19.9195 0.430754C19.9364 0.55921 19.8789 0.687667 20.0499 0.723403C19.9963 0.915123 20.0962 0.876972 20.2928 0.782802C20.64 0.616678 19.9562 0.347208 20.1793 0.320165C20.3478 0.299882 20.4937 0.471802 20.7482 0.324028C20.7854 0.302297 20.881 0.370872 20.8955 0.396466C20.9626 0.514782 20.6999 0.497397 20.8037 0.585288C20.8448 0.620058 20.9578 0.595912 20.9689 0.565005C21.0568 0.31775 21.5686 0.277668 21.7087 0.395501C21.9014 0.557279 22.0752 0.336584 22.8165 0.292639C23.0092 0.281531 23.2072 0.330789 23.3946 0.248693C23.6587 0.419164 23.962 0.173357 24.231 0.325477C24.3421 0.38874 24.4097 0.168528 24.7636 0.293121C24.8791 0.333687 25.0186 0.344794 25.1244 0.286843C25.278 0.203298 25.389 0.328858 25.5189 0.326443C25.6416 0.324028 25.8237 0.104783 26.0173 0.303746C26.3322 0.626819 26.4119 -0.0681027 26.8441 0.355418C27.0812 0.587703 26.8586 0.00723286 28.0055 0.310024C28.2585 0.37715 28.6029 0.112509 28.9057 0.196537C28.9766 0.216337 29.6614 0.340448 29.7962 0.273322C30.1695 0.0878804 30.7161 0.238552 30.8098 0.233722C30.9479 0.226478 30.8591 0.438963 31.0469 0.384876C31.2333 0.331755 31.2976 0.20523 31.425 0.238551C31.5834 0.280083 31.7578 0.257868 31.9022 0.354935C32.0002 0.421095 32.0673 0.388257 32.1291 0.295536C32.2996 0.0391055 33.6383 0.350589 34.3448 0.237103C35.795 0.00288652 35.9949 0.398398 36.1355 0.22503C36.232 0.106714 36.3827 0.119753 36.5223 0.143416C36.684 0.171426 36.8666 0.0680807 37.0081 0.214405C37.0916 0.300365 37.1684 0.306643 37.2925 0.27139C38.5414 -0.0840391 39.6303 0.352521 40.0263 0.156455C40.1157 0.112026 40.2432 0.109129 40.3436 0.131343C40.587 0.18543 40.8241 0.0482809 41.0656 0.125065C41.1317 0.145831 41.3162 -0.0367129 41.3587 0.187845C41.3916 0.359764 41.5451 0.323545 41.5842 0.269458C41.8112 -0.0429909 42.1575 0.272839 42.3014 0.211991C42.693 0.0477981 43.0639 0.304229 43.231 0.212474C43.6507 -0.017879 43.6371 0.502226 43.8071 0.373286C43.9182 0.289258 43.6564 0.199918 43.8274 0.118304C44.0959 -0.0101523 45.2448 0.157421 45.747 0.299882C45.944 0.355901 45.8378 0.0936754 47.1214 0.143416C47.2552 0.148728 47.3189 0.312438 47.1769 0.399847C46.9422 0.543757 47.5473 0.531684 47.6589 0.194123C47.7391 -0.0473371 48.59 0.138104 48.9217 0.233239C49.2173 0.31775 49.0734 0.078222 49.267 0.176255C49.422 0.254488 49.5365 0.327409 49.5997 0.245795C49.8687 -0.101424 51.0606 0.402261 51.4865 0.200884C51.6932 0.103334 51.7468 0.157904 52.2573 0.153558C52.5301 0.151626 52.5277 0.374252 52.6692 0.285878C52.8778 0.155972 53.8601 0.231791 53.8861 0.23662C54.1266 0.280566 53.9204 0.550035 54.1315 0.44669C54.7047 0.165148 54.4661 0.155489 54.8264 0.189294C54.9404 0.199918 55.1606 0.32258 55.2156 0.295536C55.5909 0.109129 56.0322 0.416749 56.2858 0.307609C56.3621 0.27477 56.3553 0.235654 56.5688 0.573698C56.5789 0.590117 56.4451 0.787632 56.6074 0.787632C56.8464 0.788597 57.0242 0.773627 56.7996 0.692496C56.6229 0.628268 56.8754 0.623922 56.83 0.503192C56.6484 0.0188229 57.7215 0.353969 58.2701 0.472285C58.3662 0.49305 58.4362 0.378598 58.5299 0.428822C58.6173 0.475665 58.6902 0.453451 58.7834 0.431237C59.5691 0.243864 59.603 0.655312 60.0347 0.464558C60.2119 0.386325 60.3297 0.479529 60.5688 0.515748C60.6881 0.533616 60.8175 0.47808 60.9305 0.546172C61.0058 0.591566 61.0701 0.585771 61.1454 0.551001C61.3453 0.458763 61.7433 0.517196 61.7664 0.576113C61.85 0.788597 62.1074 0.766866 62.2276 0.92961C62.2774 0.996253 62.3677 0.982248 62.443 0.965346C62.6656 0.915605 62.4227 0.594464 62.6869 0.596878C62.7786 0.597361 62.8767 0.580942 62.9539 0.643721C63.05 0.721955 63.1684 0.663038 63.263 0.701672C63.5668 0.826265 63.3601 0.956654 64.1429 0.938303C64.6451 0.684287 65.0484 1.1392 65.3473 1.1561C65.4796 1.16383 65.4555 1.25606 65.5192 1.38742C65.6245 1.20343 65.3004 0.784251 65.9408 0.903532C66.0683 0.927195 65.9804 1.16189 66.12 1.08559C66.5773 0.835441 67.6431 1.56465 67.5344 1.09042C67.7918 0.932508 67.8759 1.23626 68.0101 1.21357C68.028 1.21019 68.3119 1.10636 68.4587 1.19473C68.5862 1.27152 68.3877 1.39466 68.4867 1.48304C68.3791 1.70759 68.9122 1.72546 68.862 1.56465C68.8069 1.38887 68.6611 1.32319 68.777 1.258C68.8876 1.19618 68.9446 1.4642 69.0817 1.40674C69.1783 1.36617 69.1812 1.18942 69.3729 1.2522C69.5675 1.31643 70.1224 1.78631 70.3803 1.6255C70.6068 1.79887 71.1708 1.36955 70.9603 1.72401C70.7541 2.07075 70.8801 1.9109 71.0979 1.88772C71.1211 1.88531 71.1988 1.94712 71.1476 1.97755C70.9632 2.0862 70.7579 2.14512 70.9028 2.29917C71.0636 2.46964 70.9728 2.502 71.0699 2.58071C71.153 2.47592 71.181 2.3972 71.0907 2.31124C70.9472 2.17603 71.1998 2.18955 71.294 2.1345C71.4287 2.0553 71.5026 2.15043 71.4654 2.32332C71.4403 2.4397 71.4466 2.45033 71.5359 2.41411C71.7305 2.33587 71.7006 2.53097 71.8401 2.52808C71.9918 2.52566 72.0367 2.57444 71.8686 2.66909C71.5475 2.8497 71.1341 2.57299 70.7705 2.86805C70.8492 3.07812 70.6594 3.07619 70.5546 3.1409C70.3745 3.25149 70.2721 2.95787 70.247 3.237C70.2364 3.3529 70.1905 3.45866 70.3151 3.5567C70.3895 3.61561 70.3557 3.76532 70.2653 3.77836C69.9104 3.83003 70.0794 4.25983 69.4772 3.87494C69.5439 3.80298 69.4555 3.7402 69.4656 3.67308C69.47 3.64507 69.5043 3.62189 69.5101 3.59388C69.5381 3.45432 69.4845 3.57891 69.1059 3.41955C68.8262 3.30171 68.8364 3.45142 68.6263 3.44707C68.6046 3.44659 68.5645 3.40796 68.5645 3.40796C68.6751 3.23507 68.5114 3.20996 68.4249 3.14187C68.3071 3.04963 68.4307 2.85501 68.2883 2.92648C68.1704 2.9854 68.097 3.12883 67.9261 3.08875C67.8116 3.06219 67.6904 3.06557 67.5721 3.0617C67.4011 3.05639 67.6363 2.74394 67.2867 2.95884C67.2597 2.97526 67.08 2.89365 67.0766 3.04625C67.0757 3.08537 67.3046 3.13076 67.2345 3.16843C67.1003 3.24087 67.1534 3.40409 66.9646 3.34614C66.8187 3.30123 66.8018 3.30413 66.7685 3.46011C66.7463 3.56201 66.6565 3.60354 66.6275 3.68902C66.6121 3.73393 66.7424 3.75662 66.811 3.71123C67.2321 3.43452 67.3215 3.96814 67.4514 3.74117C67.7913 3.14814 67.7585 2.98637 68.338 3.46494C68.5206 3.61561 67.9637 3.54221 67.9005 3.78705C68.0009 3.82134 68.0647 3.92371 68.1815 3.93144C68.2583 3.93627 68.3303 3.87108 68.309 3.79139C68.2955 3.73924 68.2274 3.68563 68.3129 3.64652C68.5157 3.5538 68.5143 3.82665 68.5819 3.79622C68.8509 3.67404 69.0407 3.92323 69.2783 3.94496C69.2976 3.94689 69.3323 3.99519 69.3275 4.0145C69.2739 4.24969 69.4357 4.49308 69.3067 4.72198C69.2401 4.84078 69.4135 4.97986 69.2585 5.09576C69.215 5.12763 69.2145 5.18558 69.1358 5.14695C68.8832 5.02284 68.7726 5.28507 68.662 5.18462C68.6379 5.16289 68.592 4.99049 68.5635 4.99242C68.4703 4.99966 68.1289 4.93012 68.0821 5.12039C68.04 5.29038 68.3863 5.15033 68.4578 5.36426C68.4858 5.44781 68.6418 5.33432 68.7466 5.31404C68.8195 5.30004 68.889 5.40097 68.8581 5.46858C68.749 5.70666 68.6394 5.74046 68.7335 5.82304C68.9465 6.00993 69.1822 5.78827 69.3058 5.95005C69.3951 6.0674 69.5656 6.04132 69.668 6.13887C69.682 6.15239 69.6839 6.20696 69.6767 6.21034C69.3531 6.36101 70.048 6.45277 69.8056 6.69809C69.612 6.89367 69.9514 6.86808 69.837 7.00474C69.8177 7.02841 69.6095 7.18584 69.6482 7.24282C69.7303 7.365 69.6448 7.8315 69.144 7.84261C69.0865 7.84406 69.0194 7.8006 68.9774 7.85758C68.8774 7.99328 68.7103 8.04978 68.6109 8.18259C68.4892 8.34533 68.6186 8.15554 68.1651 8.04254C68.1067 8.02757 67.8865 7.88511 67.9135 7.86048C67.9985 7.78418 68.0246 7.81508 68.1106 7.78031C68.1439 7.76728 68.1289 7.68953 68.0922 7.67069C67.8937 7.5688 67.8874 7.56831 67.9044 7.35486C67.9155 7.21868 67.6571 7.20709 67.7228 7.4017C67.8319 7.72623 67.2959 7.59198 67.18 7.40026C67.1626 7.37176 67.0988 7.36162 67.0568 7.36162C66.8588 7.36259 67.1418 7.58425 66.9163 7.62771C66.6995 7.66973 66.8052 7.72188 66.6275 7.88318C66.4957 8.00246 66.2933 7.75665 66.4788 7.70353C66.5387 7.68663 66.4971 7.63496 66.4807 7.63447C66.4049 7.63351 66.2248 7.67311 66.219 7.67214C66.1031 7.65427 66.0098 7.50408 65.8862 7.57411C65.7785 7.63495 65.6805 7.69725 65.5549 7.72043C65.425 7.7441 65.6684 7.79673 65.6448 8.05848C65.6312 8.20384 65.427 8.23716 65.3806 8.12464C65.299 7.92519 65.3811 8.11788 64.9044 8.06813C64.1839 7.9928 64.2728 7.83199 64.308 7.84937C64.4399 7.91505 64.4877 7.761 64.5867 7.74313C64.6248 7.73637 65.0788 7.66441 65.0595 7.5659C65.0184 7.35728 65.2101 7.32878 65.101 7.25152C64.9687 7.15686 64.8711 7.16266 64.8064 7.28677C64.7615 7.37321 64.6422 7.43454 64.6987 7.563C64.7489 7.676 64.2839 7.61177 64.197 7.57749C64.0502 7.52002 63.9077 7.48718 63.7633 7.60212C63.6889 7.66152 63.6281 7.54948 63.5605 7.5461C63.1712 7.52871 63.4291 7.22061 63.1799 7.24717C62.4981 7.31961 62.2716 6.86518 62.1687 6.95017C62.0504 7.04724 62.2909 7.19743 62.119 7.24427C62.0625 7.25973 61.9857 7.11968 61.9461 7.26842C61.9384 7.29643 61.9161 7.32106 61.8988 7.34617C61.7693 7.53016 61.5863 7.62481 61.3492 7.63013C61.1816 7.63399 61.3477 7.87159 61.4366 7.91312C61.5665 7.97397 61.128 8.19224 60.7277 8.07007C60.2163 7.9136 60.7059 7.33458 59.9395 7.56445C59.6179 7.66152 59.9019 7.80832 59.7058 7.80446C59.5711 7.80156 59.4721 7.8513 59.4112 7.97638C59.3972 8.00439 59.3175 7.97348 59.3089 7.9363C59.3002 7.90056 59.3784 7.84744 59.2968 7.83102C59.1548 7.80205 59.1109 8.14154 58.9544 8.0493C58.8501 7.98845 58.768 7.88752 58.6294 7.89332C58.6091 7.89428 58.569 7.86048 58.5705 7.84647C58.5782 7.77162 58.6782 7.74265 58.7385 7.70691C58.8452 7.64268 58.5874 7.53885 58.5087 7.55479C58.2503 7.60791 58.4145 7.34617 58.5492 7.33989C58.754 7.33023 58.781 7.49394 58.9896 7.39108C59.0751 7.34907 59.0771 7.22737 58.9737 7.25103C58.5478 7.34955 58.3382 6.91202 58.3078 6.88691C58.0938 6.70823 58.1634 7.2293 57.707 7.17232C57.1164 7.09795 57.3361 7.57024 57.1719 7.61612C56.8237 7.71319 56.7305 7.30367 56.688 7.80736C56.4678 7.77452 56.3949 8.10194 56.2022 7.97541C56.0086 7.84792 55.967 7.97493 55.7237 7.98024C55.5585 7.98362 55.6329 7.78901 55.6295 7.74748C55.6261 7.70739 55.5682 7.66586 55.6276 7.62819C55.6783 7.5968 55.743 7.54175 55.7864 7.55334C56.2718 7.67987 56.1979 7.42247 56.49 7.577C56.6431 7.65814 56.5982 7.36066 56.3553 7.43406C56.1361 7.49974 56.11 7.24814 55.9617 7.19936C55.8676 7.16797 56.2534 6.95307 56.4099 7.00426C56.4514 7.01778 56.4987 7.05642 56.5306 7.04579C56.5977 7.02358 56.5195 6.96901 56.5383 6.9352C56.6137 6.79709 57.0396 7.04483 57.0314 6.9183C57.0203 6.74204 57.1888 6.71258 57.27 6.61455C57.3352 6.53583 57.2173 6.53728 57.1821 6.49961C57.0406 6.34797 56.8126 6.56046 56.6803 6.37791C56.5012 6.32914 56.3186 6.30644 56.1361 6.34073C55.9487 6.37598 56.2143 6.42621 56.165 6.50396C56.125 6.56674 56.1148 6.64497 56.038 6.68795C55.9453 6.7401 55.8497 6.79757 55.7797 6.87436C55.656 7.01006 55.2702 6.93955 55.5165 7.08249C55.6266 7.14672 55.3547 7.24524 55.4827 7.39688C55.5377 7.46255 55.3528 7.4838 55.2832 7.73106C55.2489 7.8542 55.0712 7.72574 55.0461 7.73685C54.5984 7.93726 54.4589 7.55769 54.3222 7.65331C54.2194 7.72574 54.1913 7.63785 54.047 7.57556C54.0228 7.69532 54.2281 7.98507 53.778 7.77693C53.3583 7.5828 53.3829 7.75279 53.17 7.66296C53.015 7.59729 53.0719 7.37418 53.2381 7.38818C53.4834 7.40847 53.6751 7.50022 53.6959 7.35486C53.7253 7.14721 53.4699 7.26262 53.3491 7.20854C53.1154 7.10374 52.8368 7.19791 52.6083 7.3143C51.8502 7.70063 52.6532 7.40847 52.9454 7.86483C52.8551 7.89042 51.4909 8.12898 51.4242 7.92374C51.3552 7.71174 51.1982 7.92857 51.078 7.86048C50.9041 7.76245 50.9017 7.62723 51.0553 7.49925C51.1263 7.43986 51.7623 8.09421 51.7854 7.57266C51.7932 7.39253 51.6343 7.57266 51.5334 7.48525C51.4426 7.40653 51.544 7.46593 51.1818 7.27615C51.0466 7.40798 50.8862 7.20274 50.7443 7.30802C50.7182 7.32782 50.6303 7.31913 50.6221 7.30077C50.5414 7.1192 50.2145 7.09215 50.3043 6.80288C50.3072 6.79419 50.2729 6.77391 50.2556 6.75846C50.1802 6.91927 49.6707 6.90816 49.7915 7.0738C49.9682 7.31623 49.8823 7.21578 50.2174 7.25635C50.412 7.28001 50.1768 7.45386 50.4531 7.59487C50.7148 7.72864 50.441 7.97735 50.258 7.86869C50.2232 7.84792 50.1049 7.73057 50.0696 7.75037C49.7876 7.90684 49.4182 7.64606 49.3612 7.67504C49.2226 7.74603 49.41 7.79384 49.1144 7.94306C49.0386 7.98121 49.0265 7.91601 49.0371 7.89477C49.126 7.71609 49.0941 7.74796 48.7841 7.43261C48.7242 7.37176 48.8136 7.34569 48.83 7.35148C49.2965 7.52388 49.5032 7.30802 49.3964 7.26069C49.2622 7.20129 49.3095 7.07622 49.2931 6.97625C49.4104 6.95017 49.3964 6.79323 49.5123 6.76184C49.5355 6.75556 49.5244 6.71741 49.4867 6.70292C49.2139 6.60054 49.6905 6.63193 49.9204 6.51361C49.9904 6.4774 50.4028 6.34363 50.4748 6.49381C50.5579 6.66573 50.7887 6.62807 50.8645 6.55418C51.1707 6.25574 50.3125 6.34121 49.9904 6.34604C49.6538 6.35087 49.9576 6.19923 49.4679 6.15819C49.2704 6.14128 49.309 6.29775 49.2989 6.41124C49.2887 6.52521 49.0478 6.63 49.2081 6.69423C49.3554 6.75314 49.2738 6.88112 49.2931 6.97625ZM47.9984 7.16073C47.8352 7.23123 47.6999 7.26745 47.7719 7.34569C47.8955 7.47994 48.0472 7.33651 47.9984 7.16073C48.0979 7.17425 48.2659 7.15493 48.2529 7.06414C48.2427 6.99171 48.0351 7.01682 47.9984 7.16073ZM24.1585 2.72511C24.188 3.02403 24.3739 2.90234 24.3889 2.87723C24.4044 2.85163 24.3691 2.83473 24.1585 2.72511C24.232 2.56864 24.2899 2.46674 24.1151 2.39334C24.0286 2.35712 24.0161 2.38175 23.9137 2.67875C23.891 2.74539 24.1421 2.72559 24.1585 2.72511ZM24.4333 4.66838C24.5193 5.16047 25.1316 4.39311 24.4333 4.66838C24.3923 4.41484 24.3256 4.61719 24.1875 4.53992C23.5279 4.17145 23.8369 4.91225 24.131 4.73454C24.2257 4.67755 24.3227 4.65824 24.4333 4.66838ZM65.836 3.27902C65.7983 3.40747 65.9732 3.62913 66.1504 3.47218C66.2499 3.38381 65.9727 3.27226 65.836 3.27902C65.9794 3.0873 66.1021 3.15925 66.0789 3.06267C66.0504 2.94532 65.9302 3.03466 65.8524 3.02307C65.6351 2.99071 65.5067 3.19209 65.3188 3.24425C65.2488 3.26405 65.4028 3.45577 65.4506 3.50937C65.5347 3.60402 65.6559 3.51903 65.6419 3.44273C65.61 3.27129 65.7399 3.29978 65.836 3.27902ZM11.2255 2.1654C11.24 2.27358 11.1603 2.38223 11.5819 2.30835C11.7166 2.28517 11.6026 2.14464 11.8687 2.06206C11.9759 2.02922 11.8475 1.9872 11.7475 1.90028C11.6707 1.83315 11.6331 1.78293 11.578 1.93795C11.5283 2.07993 11.3409 2.10262 11.2139 2.17844C11.1125 2.05385 10.9855 2.09248 11.0738 1.96113C11.1376 1.86696 10.9193 1.94229 10.8609 1.93022C10.5334 1.86358 10.3866 2.20935 10.4412 2.26199C10.7194 2.53242 10.7247 2.52373 10.7831 2.44839C10.8425 2.37209 10.7575 2.37016 10.6073 2.26005C10.447 2.14319 10.8802 1.92298 10.956 2.21708C11.0014 2.39334 11.1043 2.34795 11.1265 2.24315C11.1366 2.19583 11.1772 2.17216 11.2255 2.1654ZM26.4659 4.85237C26.5422 5.00014 26.7393 4.95089 26.804 4.89004C26.7605 4.85382 26.8117 4.85575 26.4659 4.85237C26.5336 4.76448 26.6089 4.57614 27.0469 4.57614C27.2719 4.57614 27.4072 4.29025 27.0097 4.31295C26.7692 4.32695 26.7707 4.42643 26.2877 4.4047C26.2506 4.40277 26.1651 4.43899 26.126 4.53702C26.0917 4.62347 26.4481 4.51336 26.3399 4.78476C26.3133 4.85189 26.4191 4.8316 26.4659 4.85237ZM36.9458 1.67282C36.912 1.69697 36.8777 1.7583 36.8545 1.75347C36.6237 1.7047 36.8057 1.92781 36.6237 1.99107C36.517 2.02825 36.2122 2.42183 36.3523 2.43149C36.418 2.43584 36.4875 2.60051 36.5541 2.42715C36.5947 2.32235 36.8584 2.37692 37.0226 2.18375C37.1926 1.98382 37.3249 2.14367 37.4616 1.89062C38.1106 1.82108 37.3563 1.49463 37.4123 1.68441C37.5837 2.26826 37.265 1.44537 36.9458 1.67282ZM20.1522 5.77668C20.1677 5.68348 20.0412 5.71487 19.946 5.6376C19.7113 5.44588 21.7792 5.63229 22.4147 5.30583C22.5615 5.2305 22.3819 4.96248 22.3582 4.96151C22.1955 4.9533 22.0888 4.81663 21.939 4.78766C21.814 4.76351 21.7753 4.91708 21.6686 4.93785C21.6049 4.94992 21.4701 4.94074 21.5208 5.03829C21.5976 5.18607 21.7019 5.30245 21.5426 5.3179C21.3378 5.3377 21.3069 5.46133 21.0577 5.37392C20.5989 5.21263 20.2609 5.22374 20.71 5.03685C20.768 5.0127 20.8703 4.99628 20.7037 4.93109C20.5869 4.88521 20.4207 4.73599 20.3754 5.01898C20.2551 5.76123 19.9282 4.85237 19.7886 5.22036C19.7075 5.43525 19.6597 5.33964 19.2888 5.28313C19.0633 5.24885 19.2584 5.57337 18.9734 5.54536C18.7059 5.51928 18.8609 5.66609 18.9 5.66223C19.0304 5.64822 19.793 5.77909 19.777 5.82014C19.694 6.03842 20.116 5.99158 20.1522 5.77668ZM13.4991 1.90269C13.6174 1.87806 13.7289 1.87613 13.6966 1.79887C13.6352 1.65399 13.4319 1.74381 13.4908 1.63081C13.5164 1.58252 13.5444 1.52022 13.629 1.55982C13.9206 1.69552 13.8999 1.4106 14.1008 1.41253C14.2085 1.41398 13.9636 1.28069 13.8704 1.28987C13.1871 1.35699 13.5812 0.835441 13.2368 1.03392C13.1277 1.0967 13.0002 0.683321 12.8824 1.01943C12.8404 1.13823 12.9732 1.38307 12.6844 1.51008C12.5849 1.55403 12.723 1.63805 12.6766 1.70663C12.609 1.80659 12.9471 1.95533 13.0949 1.83412C13.203 1.74478 13.1808 1.89642 13.4991 1.90269ZM18.2476 0.862484C18.3973 0.7461 17.9192 0.837855 17.8511 0.811778C17.7014 0.75431 17.5565 0.781354 17.4223 0.878904C17.2803 0.982248 17.1306 0.859104 16.9833 0.879386C16.7626 0.90981 16.9553 0.522025 16.5714 0.84365C16.3377 1.03875 16.285 0.996253 16.0054 0.843167C15.8982 0.784734 15.9648 1.05469 15.8774 1.18797C15.8581 1.21743 15.9508 1.23192 15.9784 1.19715C16.1947 0.92623 16.0363 1.32126 16.6535 1.11698C16.8186 1.06241 16.7554 1.43716 17.092 1.28552C17.1842 1.24351 17.5594 1.23144 18.009 1.04165C18.0907 1.00688 18.1274 0.87166 18.2476 0.862484ZM59.5576 6.79129C59.1635 6.6102 59.3465 6.63386 59.5498 6.59475C59.716 6.56287 59.6406 6.30451 59.4745 6.34508C59.3697 6.37067 59.3581 6.46774 59.2132 6.47643C59.0862 6.48367 58.9945 6.83476 59.1838 6.87146C59.2929 6.89271 59.2808 7.02213 59.3683 7.06318C59.5291 7.13851 59.1891 7.47221 59.2268 7.50795C59.292 7.5688 59.473 7.36838 59.7454 7.42923C59.9376 7.47221 59.4566 7.07284 59.7749 7.08346C59.9845 7.09022 60.4553 6.96659 60.3331 6.90719C59.6228 6.55998 59.9705 6.73721 59.5576 6.79129ZM41.2563 2.51793C41.563 2.51745 41.4553 2.32573 41.7059 2.36243C41.8455 2.38223 41.8962 2.31269 41.9387 2.21466C41.9228 2.2079 41.2293 2.33104 40.9598 2.0355C40.926 1.99831 40.8855 2.06061 40.8531 2.08717C40.7522 2.16975 40.9806 2.16057 40.926 2.24943C40.8425 2.38465 40.8014 2.56091 40.586 2.57154C40.5073 2.5754 40.4813 2.68744 40.4759 2.75457C40.4653 2.88399 40.5807 2.74008 40.9593 2.88206C41.0236 2.90572 41.0965 2.79706 41.0139 2.62756C40.9265 2.44743 41.2172 2.51793 41.2563 2.51793ZM25.999 4.2917C25.8908 4.1729 25.886 4.30232 25.5561 4.33758C25.417 4.35206 25.445 4.566 25.5537 4.56938C25.6266 4.57131 25.6575 4.58435 25.6768 4.61477C25.7174 4.679 25.4199 4.61912 25.3238 4.72874C25.2958 4.68914 25.2548 4.68045 25.3118 4.58338C25.3552 4.50901 25.2702 4.50032 25.2538 4.51336C24.6835 4.97648 25.3953 4.65727 25.3562 5.06051C25.3523 5.10397 25.3813 5.2078 25.4933 5.26913C25.56 5.12136 25.4383 5.04264 25.5962 5.03974C26.0337 5.03105 26.0052 4.82967 25.9526 4.79297C25.7739 4.66934 25.8584 4.62202 25.999 4.2917ZM52.1283 6.98494C52.3543 6.99605 52.2611 7.16942 52.6644 6.86615C52.9164 6.67684 52.1776 6.48995 51.9308 6.68505C51.9279 6.68747 51.8955 6.64497 51.8724 6.63048C51.8482 6.61503 51.8637 6.50058 51.8077 6.58557C51.7903 6.61261 51.4894 6.93376 51.7444 6.89222C51.868 6.87194 51.9153 6.79081 51.9472 6.85359C52.0689 7.09553 51.5715 7.05159 51.5382 7.19067C51.5343 7.20661 51.5768 7.24669 51.5947 7.25103C51.9796 7.33699 51.9588 7.11533 52.1283 6.98494ZM40.0988 2.61886C40.3866 2.61886 40.3335 2.62321 40.3856 2.60148C40.077 2.2644 40.6087 2.31704 40.4846 2.12001C40.3823 1.95678 39.9481 2.12049 39.8196 2.18037C39.6439 2.26199 39.599 2.69082 40.0988 2.61886ZM31.6119 2.44453C31.8075 2.5131 31.7399 2.71883 31.5646 2.72318C31.0329 2.73573 31.072 2.73815 31.0348 2.76277C31.2811 3.03997 31.3999 2.64011 32.0215 2.86467C32.1103 2.89654 32.1156 2.74056 32.0876 2.70193C31.8684 2.4001 31.9727 2.56623 32.0137 2.31801C32.0683 1.98865 31.2657 2.32332 31.6119 2.44453ZM45.7311 2.32187C45.3684 1.9167 44.6609 2.22094 44.9217 2.3407C45.1071 2.4257 45.1096 2.5556 45.0535 2.71641C45.0173 2.82266 45.2815 2.81348 45.2993 2.73525C45.4201 2.20066 45.593 2.5585 45.7311 2.32187ZM46.1884 7.28484C46.2029 7.08974 45.9861 7.11533 45.9667 7.12403C45.7596 7.22013 45.775 7.10809 45.4123 7.03517C44.7768 6.90719 45.4389 7.82861 45.4152 7.38094C45.3839 6.77632 46.0846 7.7721 46.37 7.47366C46.2908 7.42199 46.1314 7.46062 46.1884 7.28484ZM63.3528 6.72175C63.0211 6.71548 63.038 7.02358 63.1891 6.9579C63.3412 6.89126 63.5045 7.04724 63.658 6.92748C63.7189 6.88015 63.9922 7.10471 64.0086 7.11485C64.1149 7.18246 64.2308 6.842 64.238 6.82606C64.2868 6.72079 64.0618 6.68747 63.9927 6.72417C63.8029 6.82462 63.6406 6.78453 63.3528 6.72175ZM35.7568 4.09081C35.6583 4.26514 36.0152 4.2183 36.0876 4.18884C36.5662 3.99519 36.9545 4.16131 36.8705 4.05121C36.4324 3.47846 36.2663 4.03382 35.8911 3.9411C35.796 3.91744 35.7694 3.95414 35.7568 4.09081ZM35.1146 2.29627C35.0025 2.37596 34.8378 2.52421 34.9755 2.52566C35.0948 2.52711 35.1749 2.54836 35.1025 2.69179C35.1884 2.79706 35.3251 2.8526 35.3884 2.98347C35.4724 3.15587 35.8814 2.52904 35.5859 2.56381C35.3541 2.59134 35.5588 2.60921 35.1146 2.29627ZM16.0445 8.07828C15.8774 8.21108 15.8953 8.71911 16.1609 8.62059C16.243 8.58969 16.2826 8.44481 16.3806 8.49697C16.498 8.55975 16.6124 8.42694 16.7225 8.51966C16.7863 8.57279 16.9882 8.38686 16.8423 8.37865C16.5902 8.36465 16.1339 8.41873 16.1653 8.13285C16.1696 8.09083 16.1068 8.07634 16.0445 8.07828ZM33.9913 7.86531C34.2327 7.92326 34.0386 7.57411 33.9237 7.47366C33.8073 7.37176 33.4451 7.46304 33.6388 7.68953C33.6788 7.73685 33.8087 7.77162 33.631 7.79625C33.1858 7.85758 33.2727 8.15892 33.8261 7.86772C33.8865 7.83585 33.9386 7.82957 33.9913 7.86531ZM19.5525 0.73934C19.708 0.550518 19.3907 0.615229 18.9899 0.55921C18.8942 0.545689 18.7474 0.648068 18.6668 0.700706C18.4717 0.828197 19.142 0.80067 19.2815 0.744169C19.3124 0.731613 19.4337 0.804534 19.2511 0.967761C19.1314 1.07449 19.4037 1.10974 19.524 1.02619C19.6486 0.939268 19.5351 0.86345 19.5525 0.73934ZM47.5058 6.84103C47.3474 6.37405 47.4493 6.90526 47.1277 6.73528C46.8292 6.57736 47.0364 7.27663 47.2286 7.21433C47.3836 7.16411 47.5903 7.01827 47.4585 6.98833C47.3213 6.95694 47.3865 6.91057 47.5058 6.84103ZM29.9454 7.37563C30.0086 7.33072 29.8266 7.24524 29.8102 7.23027C29.4412 6.89754 28.8694 8.1425 29.9454 7.37563ZM69.1474 7.53789C69.0759 7.54223 69.3444 7.5263 69.3917 7.42247C69.442 7.31285 69.3058 7.34279 69.2594 7.30415C68.7654 6.88981 68.4385 7.54368 69.1474 7.53789ZM61.3555 3.02114C61.2758 3.02741 60.9334 3.08054 60.8783 3.13849C61.1778 3.37801 63.0916 2.88833 61.3555 3.02114ZM61.7375 6.40544C61.5795 6.22386 61.3815 6.51217 61.0633 6.10024C61.0058 6.20937 61.0623 6.23159 61.0165 6.319C60.917 6.50879 61.1435 6.76328 61.2067 6.55901C61.3101 6.22579 61.4641 6.59716 61.5612 6.54742C61.6259 6.5141 61.6776 6.45518 61.7375 6.40544ZM39.1527 3.74938C38.8157 3.74938 38.991 3.87349 39.0103 3.96525C39.019 4.00436 38.9924 4.0797 39.0045 4.08501C39.273 4.19801 39.3971 3.92227 39.6434 4.07052C39.6839 4.09467 39.7757 4.01257 39.7153 3.91019C39.6173 3.74359 39.4671 4.10771 39.3078 3.83148C39.2624 3.75228 39.187 3.75228 39.1527 3.74938ZM40.1625 7.26166C39.8766 7.2322 40.0809 7.38384 39.8114 7.57894C40.0061 7.67938 40.0452 7.57218 40.1925 7.57845C40.3808 7.58618 40.5774 7.77162 40.5749 7.62481C40.573 7.50457 40.261 7.5094 40.2808 7.40895C40.305 7.28918 40.2779 7.25103 40.1625 7.26166ZM44.5605 6.58557C44.3185 6.20841 44.3219 6.91396 44.1205 6.60392C43.9935 6.40834 43.9394 6.65463 43.9602 6.7488C43.9679 6.78405 44.0297 6.74348 44.2133 6.91347C44.3123 7.00474 44.5484 6.74107 44.5605 6.58557ZM59.9439 2.71786C59.7995 2.81203 59.869 2.72366 59.9318 2.93614C59.9907 3.13607 60.0221 3.28191 60.3462 3.07088C60.6205 2.8922 60.2742 2.83038 59.9439 2.71786ZM13.3204 7.34569C13.4116 7.35679 13.9318 7.28339 13.8429 7.16218C13.5778 6.80095 13.29 7.22544 13.1291 7.26745C13.1122 7.2718 13.0398 7.34569 13.3204 7.34569ZM24.4676 8.01067C24.4749 8.171 24.8839 8.01405 25.0969 8.05896C25.1133 8.06234 25.1621 7.97541 25.1307 7.95561C24.7849 7.73492 24.4575 7.78176 24.4676 8.01067ZM28.7255 0.474216C28.4053 0.377149 28.8694 0.738857 28.9018 0.774593C29.0452 0.934439 29.2693 0.68477 29.1717 0.563074C28.9636 0.304712 28.8694 0.551001 28.7255 0.474216ZM30.8069 6.91444C30.8084 6.91975 30.8064 6.85214 30.7828 6.84345C30.6616 6.79805 30.535 6.76715 30.409 6.73624C30.2066 6.68602 30.8069 7.69242 30.8069 6.91444ZM58.8752 3.36594C58.7931 3.33697 58.7477 3.19209 58.6584 3.24376C58.526 3.32055 58.3894 3.24231 58.2643 3.2935C57.764 3.49971 59.2895 3.51178 58.8752 3.36594ZM38.0657 2.48751C37.9966 2.58023 37.9662 3.1182 38.4694 2.77098C38.5486 2.71593 38.536 2.62031 38.4351 2.6348C38.3091 2.65315 38.3144 2.55415 38.0657 2.48751ZM32.9033 2.48751C32.8936 2.7111 32.9738 2.65846 33.4992 2.49137C33.5441 2.47737 33.59 2.39479 33.576 2.34119C33.5398 2.20162 33.3785 2.55077 33.0935 2.3774C33.0766 2.36678 32.8308 2.31318 32.9033 2.48751ZM44.9164 7.30174C45.2385 6.75169 44.3808 6.87146 44.6035 7.08201C44.6344 7.11147 44.8536 7.30174 44.9164 7.30174ZM5.71632 3.38429C6.52521 3.32538 5.47486 3.16167 5.39807 3.11386C5.36668 3.09406 5.31501 3.1578 5.30825 3.18774C5.2672 3.36884 5.45892 3.35097 5.71632 3.38429ZM60.7436 6.7092C60.7185 6.72562 60.6523 6.75025 60.7045 6.78598C61.0435 7.01971 61.1353 7.11823 61.2401 7.00523C61.5168 6.70582 61.2154 6.88257 60.7436 6.7092ZM29.9265 4.60946C29.8198 4.52833 29.6165 4.49694 29.4108 4.59352C29.2872 4.65099 29.405 4.91322 29.6011 4.81277C29.9439 4.63747 29.8734 4.679 29.9265 4.60946ZM41.9546 5.05761C41.8836 5.02236 41.6871 5.11604 41.6465 5.19235C41.6127 5.25657 41.8006 5.40386 41.9083 5.38551C42.0034 5.36909 42.1657 5.16289 41.9546 5.05761ZM38.5699 1.90607C38.5814 1.84329 39.046 2.04902 38.9103 1.83943C38.7659 1.61729 38.7418 1.9138 38.4269 1.73754C38.2965 1.66413 37.8252 1.77327 38.5699 1.90607ZM20.187 1.03054C20.0397 0.931059 20.2425 1.3541 19.7524 1.35361C19.5322 1.35361 19.82 1.46372 20.0103 1.49994C20.1204 1.5207 20.1851 1.27441 20.2377 1.10008C20.243 1.08366 20.2054 1.05372 20.187 1.03054ZM56.4002 2.31945C56.4881 2.33249 56.5673 2.36775 56.5779 2.27068C56.5905 2.15091 56.4432 2.19196 56.3374 2.12725C56.1945 2.04033 55.9405 2.1852 55.9806 2.25136C56.082 2.41845 56.2892 2.29483 56.4002 2.31945ZM58.9341 2.80286C59.0515 2.80286 59.0732 2.80093 59.0143 2.68744C58.8414 2.35422 58.4821 2.54932 58.5854 2.62949C58.6893 2.71014 58.7603 2.86177 58.9341 2.80286ZM6.19537 9.43914C6.30113 9.34884 6.44842 9.40196 6.55804 9.34884C6.42524 9.1972 6.16736 9.13829 5.95005 9.29185C5.84091 9.36864 6.02007 9.3923 6.19537 9.43914ZM17.1717 8.7563C17.106 8.74809 16.8645 8.88475 16.8075 8.91711C16.7491 8.94995 16.7974 9.06295 16.8249 9.05088C16.9374 9.00114 17.1055 9.25032 17.1132 9.08903C17.1185 8.98134 17.1171 8.87364 17.1973 8.7872C17.1982 8.78575 17.1804 8.76692 17.1717 8.7563ZM14.6948 8.48683C14.7155 8.38734 14.491 8.32215 14.2476 8.53077C14.151 8.61383 14.3896 8.65536 14.5827 8.69786C14.5991 8.70173 14.6716 8.53705 14.6948 8.48683ZM39.8216 7.02648C39.823 6.99074 39.8394 7.01392 39.6656 6.66863C39.6105 6.55998 39.6501 6.75073 39.3927 6.81834C39.2199 6.86373 39.7371 7.07525 39.8216 7.02648ZM34.4419 6.75894C34.465 6.64014 33.9058 6.52617 33.817 6.67732C33.7426 6.80337 34.4332 6.80433 34.4419 6.75894ZM27.7853 5.98144C27.5033 6.02393 27.4076 6.17895 27.4347 6.19344C27.6312 6.30113 27.5535 6.35473 27.8978 6.13887C27.9615 6.09879 27.8756 6.05339 27.7853 5.98144ZM23.4144 5.04988C23.3941 4.97358 22.6939 5.00111 22.9116 5.19669C22.9672 5.24692 23.4825 5.31308 23.4144 5.04988ZM35.2179 4.29315C36.0292 4.22844 34.9803 3.96766 34.9422 4.22168C34.9282 4.31247 35.0045 4.29315 35.2179 4.29315ZM16.6516 1.66027C16.4381 1.4811 16.4294 1.43378 16.3444 1.51684C16.2589 1.60039 16.1841 1.68248 16.2502 1.78341C16.3169 1.88579 16.3478 1.97513 16.3719 1.92925C16.4724 1.73995 16.597 1.72595 16.6516 1.66027ZM23.8075 0.704569C23.6983 0.658209 23.6858 0.537479 23.6017 0.475665C23.5646 0.448139 23.4723 0.468904 23.4631 0.519611C23.4482 0.599776 23.5061 0.687184 23.4356 0.764451C23.4124 0.789563 23.4433 0.883733 23.5216 0.833992C23.6597 0.7461 23.9417 0.761554 23.8075 0.704569ZM38.3332 6.68843C38.5713 6.64932 38.3583 6.54549 38.326 6.54162C37.732 6.46581 37.7426 6.78598 38.3332 6.68843ZM22.8667 8.0155C22.7441 8.01984 22.8334 8.08214 22.844 8.12222C22.8817 8.26179 22.7735 8.2415 22.705 8.30863C22.6639 8.34871 22.7233 8.4453 22.7716 8.43274C23.0285 8.36706 23.1676 8.00391 22.8667 8.0155ZM11.3819 9.36622C11.3505 9.2735 11.1154 9.27012 11.0729 9.32131C10.7541 9.70185 11.3819 9.59996 11.3819 9.36622ZM10.1085 1.61391C10.4306 1.59266 10.1259 1.48642 10.0974 1.45744C10.0124 1.37052 9.96408 1.23095 9.88247 1.26282C9.82114 1.28697 9.73276 1.55306 10.1085 1.61391ZM62.9143 3.05542C63.1268 2.94049 63.3929 3.07136 63.4803 2.94242C63.5267 2.87433 62.5357 2.78692 62.9143 3.05542ZM38.6259 4.06714C38.7012 4.02658 38.833 3.70109 38.6684 3.65038C38.4791 3.59195 38.3622 3.88798 38.6259 4.06714ZM32.444 4.48583C32.5425 4.49163 32.6623 4.50129 32.5966 4.38684C32.4484 4.12847 32.344 4.18932 32.2972 4.30426C32.2494 4.42064 32.1692 4.45251 32.444 4.48583ZM28.7284 4.60318C28.4503 4.41967 28.5338 4.47714 28.3841 4.54716C28.1663 4.64906 28.1726 4.57373 28.1523 4.70025C28.147 4.73502 28.8603 4.69011 28.7284 4.60318ZM15.7548 2.74249C15.7007 2.74684 15.707 2.84439 15.763 2.86612C15.9378 2.93421 16.7911 2.66088 15.7548 2.74249ZM26.2472 6.39144C26.8315 6.11859 26.3756 6.01379 26.3244 6.09541C26.1559 6.36488 26.2032 6.33107 26.2472 6.39144ZM12.8539 4.61284C12.6332 4.23375 12.3777 4.81567 12.512 4.83257C12.5351 4.83547 12.5762 4.81712 12.5839 4.7978C12.6414 4.66065 12.7462 4.7157 12.8539 4.61284ZM15.3728 0.747066C15.3588 0.625853 15.3342 0.651931 15.2632 0.731613C15.2211 0.777973 15.1255 0.773627 15.0579 0.801153C14.8353 0.892425 15.3747 1.1759 15.3728 0.747066ZM63.9512 2.63866C63.7527 2.62707 63.7252 3.03224 64.2013 2.79899C64.3018 2.74974 64.0222 2.62949 63.9512 2.63866ZM28.4449 2.90862C29.0327 2.83328 28.1958 2.57782 28.1847 2.85067C28.1827 2.9062 28.3445 2.90234 28.4449 2.90862ZM23.2014 8.41535C23.3762 8.32022 23.3163 8.20335 23.4347 8.16182C23.5245 8.13043 23.3772 8.01791 23.3506 8.00729C23.2444 7.96479 23.2188 8.13623 23.1521 8.35789C23.143 8.38879 23.185 8.40618 23.2014 8.41535ZM46.1715 2.44791C46.6819 2.46868 46.3497 2.106 46.2217 2.23591C46.043 2.41749 46.0918 2.41217 46.1715 2.44791ZM22.8696 7.6195C23.0855 7.6026 23.0227 7.61419 23.099 7.56686C22.9314 7.35052 22.4253 7.47463 22.8696 7.6195ZM51.4696 2.32283C51.6314 2.1712 51.672 2.15043 51.6343 2.09586C51.4875 1.88627 51.1287 2.20887 51.4696 2.32283ZM43.7989 1.77182C43.5946 1.60473 43.3092 1.97465 43.4894 1.98382C43.6236 1.99107 43.7622 1.89593 43.7989 1.77182ZM65.2599 6.8024C64.916 6.8024 65.1073 6.84635 65.1797 6.94776C65.2034 6.98108 65.2106 7.04096 65.27 7.01682C65.4796 6.93279 65.5298 6.84393 65.2599 6.8024ZM21.4561 0.613297C21.403 0.451519 21.2084 0.470353 21.1244 0.633097C21.0152 0.845582 21.416 0.715676 21.4561 0.613297ZM68.8861 6.76087C68.7345 6.63338 68.7301 6.61744 68.6988 6.65994C68.437 7.01489 68.8523 7.0342 68.8861 6.76087ZM68.3327 4.39553C68.4925 4.3738 68.7591 4.16324 68.7693 4.14586C68.509 4.02561 68.4423 4.32695 68.2047 4.3255C68.1888 4.3255 68.139 4.36414 68.3327 4.39553ZM1.6197 4.66741C1.92732 4.77897 1.76989 4.29073 1.57383 4.46797C1.38839 4.63554 1.43185 4.66741 1.6197 4.66741ZM13.1683 5.11798C13.2866 5.16337 13.4387 4.98662 13.3609 4.96682C13.1876 4.92191 12.6578 4.92336 13.1683 5.11798ZM13.8419 9.00065C13.9356 8.99438 14.0703 9.00114 14.0385 8.94463C13.912 8.72056 13.4324 8.95622 13.8419 9.00065ZM2.30449 5.58593C2.52228 5.59896 2.60631 5.46954 2.60245 5.44781C2.58313 5.34495 2.34457 5.47196 2.26633 5.44636C2.19583 5.42366 2.06496 5.47727 2.30449 5.58593ZM18.4775 5.84815C18.7102 5.8636 18.7412 5.62891 18.6557 5.60379C18.4702 5.54922 18.5847 5.78006 18.3761 5.72694C18.349 5.72018 18.3109 5.81145 18.4775 5.84815ZM65.5076 7.4017C65.7032 7.63592 65.8278 7.2351 65.6588 7.19067C65.5743 7.16845 65.5714 7.23075 65.5076 7.4017ZM23.5327 1.46179C23.6351 1.57238 23.778 1.48449 23.8983 1.42074C24.102 1.31257 23.3835 1.30146 23.5327 1.46179ZM23.7833 4.00919C23.8234 3.87349 23.6433 3.75035 23.5592 3.94351C23.5076 4.0628 23.7273 4.15214 23.7833 4.00919ZM69.1107 6.73866C69.1324 6.79178 69.3599 6.84876 69.3797 6.85359C69.4226 6.86373 69.5415 6.46677 69.1107 6.73866ZM20.7713 1.41494C20.8815 1.27828 20.2614 1.34106 20.4323 1.42026C20.6139 1.5038 20.6666 1.55403 20.7713 1.41494ZM66.1668 1.68779C66.1837 1.63467 66.1905 1.66123 65.9722 1.48738C65.8587 1.64964 65.9703 1.90801 66.1668 1.68779ZM43.1083 2.06109C43.0996 1.61922 42.7959 1.88386 42.9958 2.10649C43.0721 2.191 43.0895 2.10262 43.1083 2.06109ZM41.1525 7.5263C41.2723 7.50457 41.2428 7.33699 41.1419 7.36887C40.5165 7.56686 40.9661 7.5601 41.1525 7.5263ZM26.0627 2.63045C25.997 2.72511 25.7401 2.84294 25.9024 2.94194C25.969 2.9825 25.984 2.96657 26.1549 2.68647C26.1738 2.65605 26.0796 2.63625 26.0627 2.63045ZM26.3824 2.67682C26.3597 2.70338 26.3042 2.74056 26.3085 2.76905C26.3196 2.84535 26.465 2.92359 26.5558 2.91055C26.7055 2.88978 26.536 2.66812 26.3824 2.67682ZM23.0338 6.40641C23.1855 6.42331 23.3738 6.23352 23.2265 6.19778C23.0879 6.1635 22.9102 6.31948 23.0338 6.40641ZM5.23388 8.6317C5.35026 8.66261 5.48065 8.50566 5.43622 8.4593C5.30245 8.31925 5.24161 8.37962 5.25947 8.44481C5.29424 8.5723 5.04119 8.5583 5.23388 8.6317ZM24.4169 5.05568C24.4362 4.9166 24.2928 4.95185 24.1416 4.97165C24.019 4.98759 24.2788 5.22036 24.4169 5.05568ZM40.3866 4.77993C40.2306 4.81567 40.2639 4.94026 40.2818 5.09673C40.2866 5.13778 40.3818 5.10928 40.389 5.08803C40.4899 4.77945 40.4687 4.80794 40.3866 4.77993ZM7.61564 9.70523C7.52437 9.74049 7.43213 9.76995 7.51133 9.82741C7.73685 9.9916 7.74506 9.99305 7.76196 9.97325C7.78611 9.9438 7.70643 9.65308 7.61564 9.70523ZM25.9367 7.55962C25.8068 7.50602 25.8164 7.50215 25.5851 7.66828C25.8174 7.72816 25.9748 7.59825 25.9367 7.55962ZM54.9824 7.17908C54.8872 7.03034 54.865 6.9777 54.8278 7.00281C54.6825 7.10181 54.893 7.33506 54.9824 7.17908ZM58.6893 6.24463C58.4908 6.24656 58.5318 6.41172 58.6497 6.42283C58.7651 6.43345 58.8713 6.35667 58.6893 6.24463ZM40.8169 6.319C41.1665 6.37502 41.012 5.93797 40.7449 6.2823C40.77 6.29485 40.7951 6.30789 40.8169 6.319ZM3.33938 5.87857C3.29109 5.81 3.33262 5.79165 3.0419 5.89982C2.93953 5.93797 3.25825 6.13066 3.33938 5.87857ZM2.04033 4.98179C2.04805 5.02526 1.96837 5.09383 2.07075 5.10639C2.10697 5.11073 2.15333 5.08514 2.18424 5.06003C2.28807 4.976 2.1316 4.86155 2.06061 4.87796C1.98528 4.89535 2.04467 4.94654 2.04033 4.98179ZM52.2336 3.65376C52.5045 3.63831 52.1563 3.27902 52.0877 3.58857C52.0747 3.64942 52.2172 3.65231 52.2336 3.65376ZM49.0569 2.49282C48.8213 2.64398 49.2178 2.86709 49.1796 2.59858C49.1704 2.5358 49.1226 2.4991 49.0569 2.49282ZM44.8121 2.76712C45.0965 2.53677 44.6682 2.34263 44.729 2.52566C44.7759 2.66812 44.7638 2.71159 44.8121 2.76712ZM37.1211 2.44598C37.3587 2.43729 37.2578 2.19969 37.2259 2.22432C36.9535 2.43584 37.0375 2.40976 37.1211 2.44598ZM59.7985 1.94954C59.6464 2.10697 59.8922 2.29531 59.9144 2.16057C59.9294 2.07075 59.8758 1.9732 59.7985 1.94954ZM36.3895 1.71532C36.4976 1.57383 36.2591 1.66993 36.135 1.56127C36.1089 1.53857 36.092 1.64626 36.1142 1.66172C36.3426 1.8206 36.3262 1.75299 36.3895 1.71532ZM67.9338 1.44682C67.7609 1.46758 67.7464 1.61729 67.9029 1.62163C68.0922 1.62646 68.0825 1.45744 67.9338 1.44682ZM21.8135 1.13823C21.8768 1.02813 21.4301 1.03634 21.5353 1.16383C21.6242 1.27152 21.7613 1.25848 21.8135 1.13823ZM12.3386 8.9514C12.3613 9.26384 12.4352 9.06633 12.4767 8.87944C12.483 8.85143 12.3748 8.75823 12.3386 8.9514ZM17.6145 8.4931C17.6406 8.56168 17.7159 8.57665 17.798 8.54236C17.9501 8.47813 17.5174 8.24005 17.6145 8.4931ZM58.9568 7.7412C58.9404 7.85806 58.9206 7.86627 58.9781 7.88366C59.1012 7.92133 59.093 7.78708 59.0486 7.66635C59.0428 7.64993 58.8906 7.59294 58.9568 7.7412ZM25.0056 7.63882C24.9959 7.77887 25.2384 7.6987 25.2229 7.59825C25.2123 7.52871 25.0152 7.49298 25.0056 7.63882ZM34.5239 7.51761C34.8253 7.49925 34.818 7.45917 34.4167 7.45531C34.4003 7.45531 34.2989 7.48235 34.5239 7.51761ZM26.9035 7.45772C26.8441 7.25297 26.6446 7.49443 26.7296 7.52823C26.803 7.55769 26.875 7.52775 26.9035 7.45772ZM39.5946 7.23655C39.8737 7.23655 39.5738 7.06608 39.4966 7.13175C39.3797 7.23172 39.4937 7.2264 39.5946 7.23655ZM54.0566 7.02696C54.0045 6.9835 53.8625 6.97384 53.7712 7.01827C53.736 7.03517 53.7471 7.13851 53.7736 7.12306C53.8982 7.05014 53.9963 7.06994 54.0566 7.02696ZM34.4559 7.21675C34.5544 7.14189 34.6234 6.94148 34.4134 7.0033C34.3448 7.0231 34.3747 7.04917 34.4559 7.21675ZM32.4271 7.01633C32.2069 6.85407 32.0567 7.20564 32.2141 7.14576C32.2504 7.13175 32.3972 7.07042 32.4271 7.01633ZM46.7727 6.96997C46.7008 6.88498 46.6409 6.87291 46.5738 6.96997C46.4989 7.07815 46.7727 7.12161 46.7727 6.96997ZM52.9058 6.70823C52.6653 6.69712 52.8894 7.19936 52.9836 6.79371C52.9966 6.73769 52.9541 6.71644 52.9058 6.70823ZM58.7371 6.87339C58.8066 6.81882 58.8158 6.87194 58.7665 6.65125C58.7588 6.61503 58.5125 6.77005 58.7371 6.87339ZM63.7652 6.2567C63.7314 6.26539 63.6667 6.24463 63.6773 6.30644C63.716 6.52617 64.0231 6.29051 63.7652 6.2567ZM3.81651 6.42669C3.87398 6.11665 3.33745 6.36053 3.75469 6.46484C3.77111 6.4687 3.79574 6.44021 3.81651 6.42669ZM8.32119 6.14853C8.39024 6.21131 8.38397 6.20889 8.56554 6.13018C8.71863 6.06353 8.18742 6.02731 8.32119 6.14853ZM46.3748 5.24933C46.3719 5.13101 46.1391 5.12184 46.1734 5.25271C46.1971 5.34157 46.3603 5.33143 46.3748 5.24933ZM61.5868 4.91418C61.8321 4.76786 61.3907 4.69252 61.4521 4.82243C61.4776 4.87652 61.5245 4.90839 61.5868 4.91418ZM67.7107 3.6132C67.8778 3.63155 67.9971 3.41375 67.9222 3.42824C67.7899 3.45287 67.6445 3.49585 67.7107 3.6132ZM64.6166 3.50261C64.904 3.38961 64.5427 3.11434 64.5596 3.46784C64.5616 3.50551 64.5891 3.51661 64.6166 3.50261ZM54.6728 2.86515C54.8404 2.99409 54.9978 2.79465 54.8433 2.75118C54.7665 2.72945 54.7032 2.79127 54.6728 2.86515ZM47.8656 2.57299C47.7106 2.74346 48.1433 2.90475 48.065 2.74925C48.0225 2.66378 47.9554 2.60534 47.8656 2.57299ZM43.3223 2.56043C43.23 2.5247 43.1909 2.65074 43.2827 2.67343C43.6159 2.7565 43.583 2.66136 43.3223 2.56043ZM9.21266 2.39479C9.36864 2.5585 9.56664 2.38513 9.45605 2.36726C9.27592 2.33877 9.28799 2.35326 9.21266 2.39479ZM9.3952 1.97417C9.30489 1.98334 9.19092 2.00218 9.24791 2.07461C9.32228 2.1683 9.73324 2.01232 9.3952 1.97417ZM67.3533 1.86261C67.3461 1.81191 67.1853 1.72691 67.1602 1.71436C67.0206 1.6453 67.1003 1.979 67.3533 1.86261ZM10.5523 1.75202C10.6909 1.71339 10.6759 1.47386 10.5252 1.54775C10.4711 1.57431 10.4542 1.73802 10.5523 1.75202ZM41.1916 0.308575C41.2588 0.227444 41.0868 0.252556 41.0371 0.27139C40.9468 0.305677 41.0289 0.488221 41.1916 0.308575ZM43.3174 0.355901C43.2407 0.434134 43.371 0.565971 43.43 0.561625C43.4947 0.557279 43.4387 0.34914 43.3174 0.355901ZM27.821 0.493533C27.7896 0.401778 27.6805 0.44669 27.6921 0.522026C27.6998 0.574181 27.7655 0.618609 27.821 0.493533ZM25.9328 0.880835C25.6421 0.880835 25.8599 1.03489 26.0323 0.951342C26.1207 0.908362 26.0139 0.897254 25.9328 0.880835ZM58.5149 1.07207C58.4497 0.954239 58.3879 1.00929 58.3865 1.06145C58.3836 1.1334 58.498 1.16817 58.5149 1.07207ZM31.0295 1.87758C31.1097 1.80708 31.186 1.76265 31.1131 1.72353C31.0609 1.69552 30.8412 1.84812 31.0295 1.87758ZM13.9738 1.92346C13.8526 1.96789 13.924 2.07558 14.0399 2.13256C14.0761 2.04467 14.0988 2.10021 13.9738 1.92346ZM32.2668 2.21031C32.0847 2.4001 32.4411 2.38175 32.4484 2.31752C32.4517 2.28951 32.4039 2.27358 32.2668 2.21031ZM58.4295 2.54546C58.4565 2.46385 58.3189 2.43439 58.272 2.49669C58.2189 2.56768 58.3744 2.68068 58.4295 2.54546ZM47.6005 2.59665C47.6135 2.56526 47.5232 2.54739 47.5005 2.56285C47.2508 2.73187 47.5314 2.76422 47.6005 2.59665ZM21.8111 2.77436C21.7459 2.68454 21.5938 2.7478 21.5788 2.82073C21.56 2.91489 21.7903 2.83087 21.8111 2.77436ZM66.8303 2.86322C66.7072 2.91972 66.8308 3.08971 66.9409 3.0279C66.9704 3.01148 66.8767 2.91634 66.8303 2.86322ZM62.4836 3.26501C62.7806 3.23845 62.5724 3.1834 62.4319 3.19885C62.357 3.20658 62.3846 3.26501 62.4836 3.26501ZM15.3829 4.05459C15.2743 4.04251 15.2844 4.1758 15.3404 4.18835C15.4607 4.2154 15.4872 4.06618 15.3829 4.05459ZM30.1593 4.20671C30.4013 4.08453 30.2979 3.97539 30.1091 4.11157C30.0618 4.14586 30.1047 4.16469 30.1593 4.20671ZM30.6702 4.10578C31.0131 4.08211 30.8156 3.99181 30.5746 4.06231C30.6123 4.0797 30.65 4.0966 30.6702 4.10578ZM18.1742 4.48197C18.3939 4.45299 18.3234 4.26707 18.1525 4.38635C18.067 4.44623 18.1225 4.45493 18.1742 4.48197ZM18.6866 4.41967C18.5229 4.49404 18.774 4.70653 18.7556 4.4472C18.7547 4.43658 18.7102 4.42837 18.6866 4.41967ZM20.2401 4.99C20.243 4.91273 20.0484 4.82581 20.0436 4.89438C20.0402 4.9364 20.1518 5.04747 20.2401 4.99ZM60.2467 5.07693C60.2134 5.02767 60.2578 5.05664 60.0946 4.98566C59.9357 4.91708 60.0622 5.27154 60.2467 5.07693ZM23.8075 5.77716C23.525 5.80227 23.6993 5.87181 23.8804 5.86264C23.948 5.85926 23.9606 5.7902 23.8075 5.77716ZM22.563 6.26153C22.4036 6.2736 22.4538 6.30499 22.4461 6.28857C22.4732 6.34363 22.5152 6.40689 22.5654 6.37164C22.7151 6.26781 22.5871 6.26684 22.563 6.26153ZM46.9374 6.56674C47.3184 6.40013 46.9645 6.3982 46.9055 6.48078C46.8824 6.51265 46.9244 6.55032 46.9374 6.56674ZM45.6321 6.55515C45.5992 6.55998 45.6417 6.65753 45.6577 6.65318C45.8813 6.59185 45.9368 6.50782 45.6321 6.55515ZM65.9712 6.8647C65.8819 6.77487 65.8167 6.82317 65.795 6.90719C65.7838 6.94921 65.9258 7.01151 65.9712 6.8647ZM61.737 7.20854C61.6834 7.13851 61.6636 7.16942 61.5863 7.12113C61.4463 7.03469 61.5124 7.37852 61.737 7.20854ZM67.3712 7.17473C67.2597 7.26794 67.534 7.37514 67.5677 7.30077C67.576 7.28291 67.4982 7.15976 67.3712 7.17473ZM8.21881 7.55672C8.18404 7.53016 8.14782 7.48235 8.12077 7.4867C7.95272 7.51374 8.08407 7.74216 8.21881 7.55672ZM21.63 7.7441C21.461 7.93823 21.8289 7.91505 21.8198 7.85227C21.8145 7.81508 21.7947 7.81412 21.63 7.7441ZM26.5142 8.0266C26.4432 7.89187 26.4119 7.9165 26.336 8.01646C26.2795 8.09083 26.4669 8.11353 26.5142 8.0266ZM31.4579 8.08842C31.6844 8.06524 31.6771 7.99038 31.3647 8.00294C31.3275 8.00439 31.2956 8.072 31.4579 8.08842ZM12.6042 8.81376C12.6448 8.95719 12.8167 8.793 12.7723 8.69255C12.7356 8.60997 12.6057 8.7563 12.6042 8.81376Z" fill="#A259FF"/>
</g>
</svg>
